<?xml version="1.0" encoding="UTF-8" standalone="no"?>
<!-- Created with matplotlib (http://matplotlib.org/) -->

<svg
   xmlns:dc="http://purl.org/dc/elements/1.1/"
   xmlns:cc="http://creativecommons.org/ns#"
   xmlns:rdf="http://www.w3.org/1999/02/22-rdf-syntax-ns#"
   xmlns:svg="http://www.w3.org/2000/svg"
   xmlns="http://www.w3.org/2000/svg"
   xmlns:xlink="http://www.w3.org/1999/xlink"
   xmlns:sodipodi="http://sodipodi.sourceforge.net/DTD/sodipodi-0.dtd"
   xmlns:inkscape="http://www.inkscape.org/namespaces/inkscape"
   height="432pt"
   version="1.1"
   viewBox="0 0 720 432"
   width="720pt"
   id="svg5142"
   inkscape:version="0.91 r"
   sodipodi:docname="bifurcationRjplc018.svg">
  <metadata
     id="metadata5624">
    <rdf:RDF>
      <cc:Work
         rdf:about="">
        <dc:format>image/svg+xml</dc:format>
        <dc:type
           rdf:resource="http://purl.org/dc/dcmitype/StillImage" />
        <dc:title></dc:title>
      </cc:Work>
    </rdf:RDF>
  </metadata>
  <sodipodi:namedview
     pagecolor="#ffffff"
     bordercolor="#666666"
     borderopacity="1"
     objecttolerance="10"
     gridtolerance="10"
     guidetolerance="10"
     inkscape:pageopacity="0"
     inkscape:pageshadow="2"
     inkscape:window-width="1920"
     inkscape:window-height="1028"
     id="namedview5622"
     showgrid="false"
     inkscape:zoom="0.78425926"
     inkscape:cx="265.42726"
     inkscape:cy="185.4828"
     inkscape:window-x="0"
     inkscape:window-y="299"
     inkscape:window-maximized="1"
     inkscape:current-layer="svg5142" />
  <defs
     id="defs5144">
    <style
       type="text/css"
       id="style5146">
*{stroke-linecap:butt;stroke-linejoin:round;stroke-miterlimit:100000;}
  </style>
    <clipPath
       id="p11ac32f897">
      <rect
         height="360"
         width="612"
         x="72"
         y="36"
         id="rect6104" />
    </clipPath>
    <defs
       id="defs5218">
      <path
         style="stroke-linecap:butt;stroke-linejoin:round;stroke-miterlimit:100000"
         inkscape:connector-curvature="0"
         id="BitstreamVeraSans-Roman-30"
         d="m 31.78125,66.40625 q -7.609375,0 -11.453125,-7.5 Q 16.5,51.421875 16.5,36.375 q 0,-14.984375 3.828125,-22.484375 3.84375,-7.5 11.453125,-7.5 7.671875,0 11.5,7.5 3.84375,7.5 3.84375,22.484375 0,15.046875 -3.84375,22.53125 -3.828125,7.5 -11.5,7.5 m 0,7.8125 q 12.265625,0 18.734375,-9.703125 6.46875,-9.6875 6.46875,-28.140625 0,-18.40625 -6.46875,-28.109375 -6.46875,-9.6875 -18.734375,-9.6875 -12.25,0 -18.71875,9.6875 Q 6.59375,17.96875 6.59375,36.375 q 0,18.453125 6.46875,28.140625 6.46875,9.703125 18.71875,9.703125" />
      <path
         style="stroke-linecap:butt;stroke-linejoin:round;stroke-miterlimit:100000"
         inkscape:connector-curvature="0"
         id="BitstreamVeraSans-Roman-35"
         d="m 10.796875,72.90625 38.71875,0 0,-8.3125 -29.6875,0 0,-17.859375 q 2.140625,0.734375 4.28125,1.09375 2.15625,0.359375 4.3125,0.359375 Q 40.625,48.1875 47.75,41.5 54.890625,34.8125 54.890625,23.390625 54.890625,11.625 47.5625,5.09375 40.234375,-1.421875 26.90625,-1.421875 q -4.59375,0 -9.359375,0.78125 -4.75,0.78125 -9.828125,2.34375 l 0,9.921875 q 4.390625,-2.390625 9.078125,-3.5625 4.6875,-1.171875 9.90625,-1.171875 8.453125,0 13.375,4.4375 4.9375,4.4375 4.9375,12.0625 0,7.609375 -4.9375,12.046875 -4.921875,4.453125 -13.375,4.453125 -3.953125,0 -7.890625,-0.875 -3.921875,-0.875 -8.015625,-2.734375 z" />
    </defs>
    <defs
       id="defs5244">
      <path
         style="stroke-linecap:butt;stroke-linejoin:round;stroke-miterlimit:100000"
         inkscape:connector-curvature="0"
         id="BitstreamVeraSans-Roman-31"
         d="m 12.40625,8.296875 16.109375,0 0,55.625 -17.53125,-3.515625 0,8.984375 17.4375,3.515625 9.859375,0 0,-64.609375 16.109375,0 0,-8.296875 -41.984375,0 z" />
    </defs>
    <defs
       id="defs5295">
      <path
         style="stroke-linecap:butt;stroke-linejoin:round;stroke-miterlimit:100000"
         inkscape:connector-curvature="0"
         id="BitstreamVeraSans-Roman-32"
         d="m 19.1875,8.296875 34.421875,0 0,-8.296875 -46.28125,0 0,8.296875 q 5.609375,5.8125 15.296875,15.59375 9.703125,9.796875 12.1875,12.640625 4.734375,5.3125 6.609375,9 1.890625,3.6875 1.890625,7.25 0,5.8125 -4.078125,9.46875 -4.078125,3.671875 -10.625,3.671875 -4.640625,0 -9.796875,-1.609375 -5.140625,-1.609375 -11,-4.890625 l 0,9.96875 Q 13.765625,71.78125 18.9375,73 q 5.1875,1.21875 9.484375,1.21875 11.328125,0 18.0625,-5.671875 6.734375,-5.65625 6.734375,-15.125 0,-4.5 -1.6875,-8.53125 Q 49.859375,40.875 45.40625,35.40625 44.1875,33.984375 37.640625,27.21875 31.109375,20.453125 19.1875,8.296875" />
    </defs>
    <defs
       id="defs5346">
      <path
         style="stroke-linecap:butt;stroke-linejoin:round;stroke-miterlimit:100000"
         inkscape:connector-curvature="0"
         id="BitstreamVeraSans-Roman-33"
         d="M 40.578125,39.3125 Q 47.65625,37.796875 51.625,33 q 3.984375,-4.78125 3.984375,-11.8125 0,-10.78125 -7.421875,-16.703125 -7.421875,-5.90625 -21.09375,-5.90625 -4.578125,0 -9.4375,0.90625 -4.859375,0.90625 -10.03125,2.71875 l 0,9.515625 q 4.09375,-2.390625 8.96875,-3.609375 4.890625,-1.21875 10.21875,-1.21875 9.265625,0 14.125,3.65625 4.859375,3.65625 4.859375,10.640625 0,6.453125 -4.515625,10.078125 -4.515625,3.640625 -12.5625,3.640625 l -8.5,0 0,8.109375 8.890625,0 q 7.265625,0 11.125,2.90625 3.859375,2.90625 3.859375,8.375 0,5.609375 -3.984375,8.609375 -3.96875,3.015625 -11.390625,3.015625 -4.0625,0 -8.703125,-0.890625 Q 15.375,64.15625 9.8125,62.3125 l 0,8.78125 q 5.625,1.5625 10.53125,2.34375 4.90625,0.78125 9.25,0.78125 11.234375,0 17.765625,-5.109375 6.546875,-5.09375 6.546875,-13.78125 0,-6.0625 -3.46875,-10.234375 -3.46875,-4.171875 -9.859375,-5.78125" />
    </defs>
    <defs
       id="defs5426">
      <path
         style="stroke-linecap:butt;stroke-linejoin:round;stroke-miterlimit:100000"
         inkscape:connector-curvature="0"
         id="BitstreamVeraSans-Roman-37"
         d="m 8.203125,72.90625 46.875,0 0,-4.203125 L 28.609375,0 18.3125,0 l 24.90625,64.59375 -35.015625,0 z" />
    </defs>
    <defs
       id="defs5391">
      <path
         style="stroke-linecap:butt;stroke-linejoin:round;stroke-miterlimit:100000"
         inkscape:connector-curvature="0"
         id="BitstreamVeraSans-Roman-2e"
         d="M 10.6875,12.40625 21,12.40625 21,0 10.6875,0 Z" />
    </defs>
  </defs>
  <g
     style="stroke-linecap:butt;stroke-linejoin:round;stroke-miterlimit:100000"
     id="patch_1">
    <path
       inkscape:connector-curvature="0"
       id="path5150"
       style="fill:#ffffff;stroke-linecap:butt;stroke-linejoin:round;stroke-miterlimit:100000"
       d="M 0,432 720,432 720,0 0,0 Z" />
  </g>
  <g
     id="patch_2"
     style="stroke-linecap:butt;stroke-linejoin:round;stroke-miterlimit:100000">
    <path
       d="m 72,396 612,0 0,-360 -612,0 z"
       style="fill:#ffffff;stroke-linecap:butt;stroke-linejoin:round;stroke-miterlimit:100000"
       id="path5154"
       inkscape:connector-curvature="0" />
  </g>
  <g
     id="line2d_1"
     style="stroke-linecap:butt;stroke-linejoin:round;stroke-miterlimit:100000">
    <path
       clip-path="url(#pe3f3ac78af)"
       d="m 72,212.93956 10.167814,-1.30094 9.25072,-1.40442 8.459201,-1.50612 7.766965,-1.60577 7.15904,-1.70425 6.62455,-1.80294 6.14448,-1.90023 5.71336,-1.99722 5.32712,-2.0955 4.97624,-2.19435 4.658,-2.29518 4.36695,-2.39794 4.10176,-2.50448 3.85696,-2.6141 3.63527,-2.7314 3.4272,-2.85215 3.23815,-2.98339 3.06272,-3.12374 2.89951,-3.27486 2.74719,-3.43839 2.6071,-3.61988 2.47655,-3.82015 2.35686,-4.04616 2.2467,-4.30146 2.14877,-4.59793 2.06717,-4.95391 2.00731,-5.39565 1.98554,-5.98606 2.04807,-6.9006 2.38802,-8.87829 4.76098,-17.905436 1.72299,-5.456055 1.5707,-4.257054 1.52313,-3.501428 1.52178,-2.952289 1.54627,-2.523108 1.59116,-2.176855 1.65102,-1.886121 1.72718,-1.638091 1.8183,-1.419491 1.92847,-1.223676 2.05631,-1.040973 2.20591,-0.866295 2.37728,-0.692897 2.5704,-0.515325 2.78392,-0.32886 3.01648,-0.129733 3.26128,0.085 3.51288,0.316617 3.7604,0.564608 3.99432,0.826772 4.20375,1.099178 4.37783,1.376195 4.51384,1.653463 4.60767,1.925759 4.66478,2.191466 4.69199,2.450638 4.69606,2.704376 4.6811,2.952963 4.65934,3.202776 4.63622,3.457632 4.61174,3.717774 4.59542,3.991422 4.58997,4.282738 4.59814,4.59636 4.62125,4.93586 4.67157,5.31749 4.74637,5.74253 4.85789,6.22993 5.01973,6.80344 5.24549,7.48908 5.57596,8.3551 6.07644,9.51449 6.91692,11.25707 8.7257,14.65245 5.04801,8.6026 0,0"
       style="fill:none;stroke:#000000;stroke-linecap:square;stroke-linejoin:round;stroke-miterlimit:100000"
       id="path5157"
       inkscape:connector-curvature="0" />
  </g>
  <g
     id="line2d_2"
     style="stroke-linecap:butt;stroke-linejoin:round;stroke-miterlimit:100000">
    <path
       clip-path="url(#pe3f3ac78af)"
       d="m 378.44963,196.49419 16.68437,28.27906 7.90427,12.92724 6.751,10.62374 6.12269,9.22765 5.70924,8.20844 5.40733,7.39036 5.17885,6.70619 4.99524,6.10886 4.84837,5.58181 4.73277,5.1129 4.63893,4.68712 4.56821,4.30222 4.51925,3.95306 4.49204,3.6359 4.48661,3.34714 4.50429,3.08426 4.54644,2.84453 4.09103,2.34027 0,0"
       style="fill:none;stroke:#000000;stroke-linecap:butt;stroke-linejoin:round;stroke-miterlimit:100000;stroke-dasharray:6, 6;stroke-dashoffset:0"
       id="path5160"
       inkscape:connector-curvature="0" />
  </g>
  <g
     id="line2d_3"
     style="stroke-linecap:butt;stroke-linejoin:round;stroke-miterlimit:100000">
    <path
       clip-path="url(#pe3f3ac78af)"
       d="m 482.63056,324.85494 4.69876,2.44623 4.82253,2.25968 4.97891,2.08689 5.17884,1.92862 5.42227,1.78065 5.7174,1.64188 6.07642,1.51163 6.50891,1.38773 7.03521,1.26972 7.67306,1.15551 8.44552,1.04337 9.41384,0.93466 10.61878,0.82599 12.16781,0.71792 14.20507,0.6092 17.03249,0.5005 21.18044,0.39084 28.01029,0.28136 22.18289,0.11486 0,0"
       style="fill:none;stroke:#000000;stroke-linecap:square;stroke-linejoin:round;stroke-miterlimit:100000"
       id="path5163"
       inkscape:connector-curvature="0" />
  </g>
  <g
     id="line2d_4"
     style="stroke-linecap:butt;stroke-linejoin:round;stroke-miterlimit:100000">
    <path
       clip-path="url(#pe3f3ac78af)"
       d="m 378.44963,196.49419 2.5e-4,0.54078"
       style="fill:none;stroke:#ff0000;stroke-linecap:square;stroke-linejoin:round;stroke-miterlimit:100000"
       id="path5166"
       inkscape:connector-curvature="0" />
  </g>
  <g
     id="line2d_5"
     style="stroke-linecap:butt;stroke-linejoin:round;stroke-miterlimit:100000">
    <path
       clip-path="url(#pe3f3ac78af)"
       d="m 378.44988,197.03497 6.6e-4,-0.53923 0,0"
       style="fill:none;stroke:#ff0000;stroke-linecap:butt;stroke-linejoin:round;stroke-miterlimit:100000;stroke-dasharray:6, 6;stroke-dashoffset:0"
       id="path5169"
       inkscape:connector-curvature="0" />
  </g>
  <g
     id="line2d_6"
     style="stroke-linecap:butt;stroke-linejoin:round;stroke-miterlimit:100000;fill:#800000;stroke:#c71414;stroke-opacity:1">
    <path
       clip-path="url(#pe3f3ac78af)"
       d="m 482.63056,324.85494 -0.13249,1.24982 -0.32504,0.90592 -0.49639,0.73027 -0.67456,0.59452 -0.88399,0.47685 -1.14511,0.3571 -1.60615,0.22855 -1.92847,0.0294 -2.47654,-0.19743 -3.14158,-0.48684 -3.97525,-0.8524 -5.01156,-1.30825 -0.86224,-0.24268 -6.94139,-2.0921 -10.69497,-3.4758 -6.55788,-2.15968 -9.89258,-3.12852 -0.56032,-0.16713 -7.22019,-2.05955 -0.50456,-0.13331 -7.05291,-1.74284 -7.57923,-1.60374 -16.88565,-3.51276 -1.77615,-0.68641 -0.72759,-0.40819 -0.82959,-0.66951 -0.61608,-0.78296 -0.48687,-0.98906 -0.53176,-1.91496 -0.35903,-2.36118 -0.35632,-3.97838 -0.40935,-7.37588 -0.50726,-13.44791 -0.45966,-18.00766 -0.25836,-18.91498 -0.31386,-40.22706 0.31373,40.2126 0,0 0.28964,20.48716 0.4855,18.21082 0.59566,14.66896 0.47599,7.00073 0.42976,3.34603 0.46239,1.90348 0.50864,1.18238 0.58751,0.82813 0.8636,0.75219 1.02951,0.57119 2.66694,0.9113 2.88046,0.68475 6.87339,1.35529 11.78161,2.35037 1.09887,0.24477 6.73059,1.63041 0.72896,0.19056 7.66899,2.16478 8.88619,2.7757 28.08518,8.9032 0.87311,0.23609 5.16524,1.2529 6.02204,0.96926 2.7091,0.0999 1.60751,-0.13355 1.41303,-0.32547 1.03495,-0.45813 0.76159,-0.56956 0.55352,-0.6857 0.37128,-0.81416 0.19719,-0.97782 0.0299,-0.6135 0,0"
       style="fill:#800000;stroke:#c71414;stroke-linecap:square;stroke-linejoin:round;stroke-miterlimit:100000;stroke-opacity:1"
       id="path5172"
       inkscape:connector-curvature="0" />
  </g>
  <g
     id="patch_3"
     style="stroke-linecap:butt;stroke-linejoin:round;stroke-miterlimit:100000">
    <path
       d="m 72,36 612,0"
       style="fill:none;stroke:#000000;stroke-linecap:square;stroke-linejoin:miter;stroke-miterlimit:100000"
       id="path5188"
       inkscape:connector-curvature="0" />
  </g>
  <g
     id="patch_4"
     style="stroke-linecap:butt;stroke-linejoin:round;stroke-miterlimit:100000">
    <path
       d="M 684,396 684,36"
       style="fill:none;stroke:#000000;stroke-linecap:square;stroke-linejoin:miter;stroke-miterlimit:100000"
       id="path5191"
       inkscape:connector-curvature="0" />
  </g>
  <g
     id="patch_5"
     style="stroke-linecap:butt;stroke-linejoin:round;stroke-miterlimit:100000">
    <path
       d="m 72,396 612,0"
       style="fill:none;stroke:#000000;stroke-linecap:square;stroke-linejoin:miter;stroke-miterlimit:100000"
       id="path5194"
       inkscape:connector-curvature="0" />
  </g>
  <g
     id="patch_6"
     style="stroke-linecap:butt;stroke-linejoin:round;stroke-miterlimit:100000">
    <path
       d="M 72,396 72,36"
       style="fill:none;stroke:#000000;stroke-linecap:square;stroke-linejoin:miter;stroke-miterlimit:100000"
       id="path5197"
       inkscape:connector-curvature="0" />
  </g>
  <g
     id="line2d_9"
     style="stroke-linecap:butt;stroke-linejoin:round;stroke-miterlimit:100000">
    <defs
       id="defs5202">
      <path
         d="M 0,0 0,-4"
         id="m4758ea6247"
         style="stroke:#000000;stroke-width:0.5;stroke-linecap:butt;stroke-linejoin:round;stroke-miterlimit:100000"
         inkscape:connector-curvature="0" />
    </defs>
    <g
       id="g5205"
       style="stroke-linecap:butt;stroke-linejoin:round;stroke-miterlimit:100000">
      <use
         style="stroke:#000000;stroke-width:0.5;stroke-linecap:butt;stroke-linejoin:round;stroke-miterlimit:100000"
         x="117.33334"
         xlink:href="#m4758ea6247"
         y="396"
         id="use5207"
         width="100%"
         height="100%" />
    </g>
  </g>
  <g
     id="line2d_10"
     style="stroke-linecap:butt;stroke-linejoin:round;stroke-miterlimit:100000">
    <defs
       id="defs5210">
      <path
         d="M 0,0 0,4"
         id="m10a729a85c"
         style="stroke:#000000;stroke-width:0.5;stroke-linecap:butt;stroke-linejoin:round;stroke-miterlimit:100000"
         inkscape:connector-curvature="0" />
    </defs>
    <g
       id="g5213"
       style="stroke-linecap:butt;stroke-linejoin:round;stroke-miterlimit:100000">
      <use
         style="stroke:#000000;stroke-width:0.5;stroke-linecap:butt;stroke-linejoin:round;stroke-miterlimit:100000"
         x="117.33334"
         xlink:href="#m10a729a85c"
         y="36"
         id="use5215"
         width="100%"
         height="100%" />
    </g>
  </g>
  <use
     transform="matrix(0.12,0,0,-0.12,113.26333,409.11813)"
     xlink:href="#BitstreamVeraSans-Roman-35"
     id="use5224"
     style="stroke-linecap:butt;stroke-linejoin:round;stroke-miterlimit:100000"
     x="0"
     y="0"
     width="100%"
     height="100%" />
  <g
     id="line2d_11"
     style="stroke-linecap:butt;stroke-linejoin:round;stroke-miterlimit:100000">
    <g
       id="g5234"
       style="stroke-linecap:butt;stroke-linejoin:round;stroke-miterlimit:100000">
      <use
         style="stroke:#000000;stroke-width:0.5;stroke-linecap:butt;stroke-linejoin:round;stroke-miterlimit:100000"
         x="230.66667"
         xlink:href="#m4758ea6247"
         y="396"
         id="use5236"
         width="100%"
         height="100%" />
    </g>
  </g>
  <g
     id="line2d_12"
     style="stroke-linecap:butt;stroke-linejoin:round;stroke-miterlimit:100000">
    <g
       id="g5239"
       style="stroke-linecap:butt;stroke-linejoin:round;stroke-miterlimit:100000">
      <use
         style="stroke:#000000;stroke-width:0.5;stroke-linecap:butt;stroke-linejoin:round;stroke-miterlimit:100000"
         x="230.66667"
         xlink:href="#m10a729a85c"
         y="36"
         id="use5241"
         width="100%"
         height="100%" />
    </g>
  </g>
  <g
     id="g8263"
     transform="translate(11.2,0)"
     style="stroke-linecap:butt;stroke-linejoin:round;stroke-miterlimit:100000">
    <use
       transform="matrix(0.12,0,0,-0.12,211.57917,409.11813)"
       height="100%"
       width="100%"
       y="0"
       x="0"
       style="stroke-linecap:butt;stroke-linejoin:round;stroke-miterlimit:100000"
       id="use5249"
       xlink:href="#BitstreamVeraSans-Roman-31" />
    <use
       transform="matrix(0.12,0,0,-0.12,211.57917,409.11813)"
       height="100%"
       width="100%"
       y="0"
       style="stroke-linecap:butt;stroke-linejoin:round;stroke-miterlimit:100000"
       id="use5251"
       xlink:href="#BitstreamVeraSans-Roman-30"
       x="63.623047" />
  </g>
  <g
     id="line2d_13"
     style="stroke-linecap:butt;stroke-linejoin:round;stroke-miterlimit:100000">
    <g
       id="g5261"
       style="stroke-linecap:butt;stroke-linejoin:round;stroke-miterlimit:100000">
      <use
         style="stroke:#000000;stroke-width:0.5;stroke-linecap:butt;stroke-linejoin:round;stroke-miterlimit:100000"
         x="344"
         xlink:href="#m4758ea6247"
         y="396"
         id="use5263"
         width="100%"
         height="100%" />
    </g>
  </g>
  <g
     id="line2d_14"
     style="stroke-linecap:butt;stroke-linejoin:round;stroke-miterlimit:100000">
    <g
       id="g5266"
       style="stroke-linecap:butt;stroke-linejoin:round;stroke-miterlimit:100000">
      <use
         style="stroke:#000000;stroke-width:0.5;stroke-linecap:butt;stroke-linejoin:round;stroke-miterlimit:100000"
         x="344"
         xlink:href="#m10a729a85c"
         y="36"
         id="use5268"
         width="100%"
         height="100%" />
    </g>
  </g>
  <g
     id="g8278"
     transform="translate(11.2,0)"
     style="stroke-linecap:butt;stroke-linejoin:round;stroke-miterlimit:100000">
    <use
       transform="matrix(0.12,0,0,-0.12,324.9125,409.11813)"
       height="100%"
       width="100%"
       y="0"
       x="0"
       style="stroke-linecap:butt;stroke-linejoin:round;stroke-miterlimit:100000"
       id="use5273"
       xlink:href="#BitstreamVeraSans-Roman-31" />
    <use
       transform="matrix(0.12,0,0,-0.12,324.9125,409.11813)"
       height="100%"
       width="100%"
       y="0"
       style="stroke-linecap:butt;stroke-linejoin:round;stroke-miterlimit:100000"
       id="use5275"
       xlink:href="#BitstreamVeraSans-Roman-35"
       x="63.623047" />
  </g>
  <g
     id="line2d_15"
     style="stroke-linecap:butt;stroke-linejoin:round;stroke-miterlimit:100000">
    <g
       id="g5285"
       style="stroke-linecap:butt;stroke-linejoin:round;stroke-miterlimit:100000">
      <use
         style="stroke:#000000;stroke-width:0.5;stroke-linecap:butt;stroke-linejoin:round;stroke-miterlimit:100000"
         x="457.33334"
         xlink:href="#m4758ea6247"
         y="396"
         id="use5287"
         width="100%"
         height="100%" />
    </g>
  </g>
  <g
     id="line2d_16"
     style="stroke-linecap:butt;stroke-linejoin:round;stroke-miterlimit:100000">
    <g
       id="g5290"
       style="stroke-linecap:butt;stroke-linejoin:round;stroke-miterlimit:100000">
      <use
         style="stroke:#000000;stroke-width:0.5;stroke-linecap:butt;stroke-linejoin:round;stroke-miterlimit:100000"
         x="457.33334"
         xlink:href="#m10a729a85c"
         y="36"
         id="use5292"
         width="100%"
         height="100%" />
    </g>
  </g>
  <g
     id="g8295"
     transform="translate(11.2,0)"
     style="stroke-linecap:butt;stroke-linejoin:round;stroke-miterlimit:100000">
    <use
       transform="matrix(0.12,0,0,-0.12,438.24583,409.11813)"
       height="100%"
       width="100%"
       y="0"
       x="0"
       style="stroke-linecap:butt;stroke-linejoin:round;stroke-miterlimit:100000"
       id="use5300"
       xlink:href="#BitstreamVeraSans-Roman-32" />
    <use
       transform="matrix(0.12,0,0,-0.12,438.24583,409.11813)"
       height="100%"
       width="100%"
       y="0"
       style="stroke-linecap:butt;stroke-linejoin:round;stroke-miterlimit:100000"
       id="use5302"
       xlink:href="#BitstreamVeraSans-Roman-30"
       x="63.623047" />
  </g>
  <g
     id="line2d_17"
     style="stroke-linecap:butt;stroke-linejoin:round;stroke-miterlimit:100000">
    <g
       id="g5312"
       style="stroke-linecap:butt;stroke-linejoin:round;stroke-miterlimit:100000">
      <use
         style="stroke:#000000;stroke-width:0.5;stroke-linecap:butt;stroke-linejoin:round;stroke-miterlimit:100000"
         x="570.66669"
         xlink:href="#m4758ea6247"
         y="396"
         id="use5314"
         width="100%"
         height="100%" />
    </g>
  </g>
  <g
     id="line2d_18"
     style="stroke-linecap:butt;stroke-linejoin:round;stroke-miterlimit:100000">
    <g
       id="g5317"
       style="stroke-linecap:butt;stroke-linejoin:round;stroke-miterlimit:100000">
      <use
         style="stroke:#000000;stroke-width:0.5;stroke-linecap:butt;stroke-linejoin:round;stroke-miterlimit:100000"
         x="570.66669"
         xlink:href="#m10a729a85c"
         y="36"
         id="use5319"
         width="100%"
         height="100%" />
    </g>
  </g>
  <g
     id="g8310"
     transform="translate(11.2,0)"
     style="stroke-linecap:butt;stroke-linejoin:round;stroke-miterlimit:100000">
    <use
       transform="matrix(0.12,0,0,-0.12,551.57917,409.11813)"
       height="100%"
       width="100%"
       y="0"
       x="0"
       style="stroke-linecap:butt;stroke-linejoin:round;stroke-miterlimit:100000"
       id="use5324"
       xlink:href="#BitstreamVeraSans-Roman-32" />
    <use
       transform="matrix(0.12,0,0,-0.12,551.57917,409.11813)"
       height="100%"
       width="100%"
       y="0"
       style="stroke-linecap:butt;stroke-linejoin:round;stroke-miterlimit:100000"
       id="use5326"
       xlink:href="#BitstreamVeraSans-Roman-35"
       x="63.623047" />
  </g>
  <g
     id="line2d_19"
     style="stroke-linecap:butt;stroke-linejoin:round;stroke-miterlimit:100000">
    <g
       id="g5336"
       style="stroke-linecap:butt;stroke-linejoin:round;stroke-miterlimit:100000">
      <use
         style="stroke:#000000;stroke-width:0.5;stroke-linecap:butt;stroke-linejoin:round;stroke-miterlimit:100000"
         x="684"
         xlink:href="#m4758ea6247"
         y="396"
         id="use5338"
         width="100%"
         height="100%" />
    </g>
  </g>
  <g
     id="line2d_20"
     style="stroke-linecap:butt;stroke-linejoin:round;stroke-miterlimit:100000">
    <g
       id="g5341"
       style="stroke-linecap:butt;stroke-linejoin:round;stroke-miterlimit:100000">
      <use
         style="stroke:#000000;stroke-width:0.5;stroke-linecap:butt;stroke-linejoin:round;stroke-miterlimit:100000"
         x="684"
         xlink:href="#m10a729a85c"
         y="36"
         id="use5343"
         width="100%"
         height="100%" />
    </g>
  </g>
  <g
     id="g8327"
     transform="translate(9.6,0)"
     style="stroke-linecap:butt;stroke-linejoin:round;stroke-miterlimit:100000">
    <use
       transform="matrix(0.12,0,0,-0.12,664.9125,409.11813)"
       height="100%"
       width="100%"
       y="0"
       x="0"
       style="stroke-linecap:butt;stroke-linejoin:round;stroke-miterlimit:100000"
       id="use5351"
       xlink:href="#BitstreamVeraSans-Roman-33" />
    <use
       transform="matrix(0.12,0,0,-0.12,664.9125,409.11813)"
       height="100%"
       width="100%"
       y="0"
       style="stroke-linecap:butt;stroke-linejoin:round;stroke-miterlimit:100000"
       id="use5353"
       xlink:href="#BitstreamVeraSans-Roman-30"
       x="63.623047" />
  </g>
  <g
     style="stroke-linecap:butt;stroke-linejoin:round;stroke-miterlimit:100000"
     id="text_7">
    <!-- $K_p$ -->
    <defs
       id="defs5362">
      <path
         style="stroke-linecap:butt;stroke-linejoin:round;stroke-miterlimit:100000"
         inkscape:connector-curvature="0"
         id="Cmmi10-70"
         d="m -2.484375,-19.390625 q -0.9375,0 -0.9375,1.28125 0.34375,2.1875 1.328125,2.1875 3.125,0 4.359375,0.5625 1.25,0.5625 1.9375,2.859375 l 11.28125,45.015625 Q 16.21875,34.375 16.21875,37.3125 q 0,4.296875 -2.9375,4.296875 -3.125,0 -4.640625,-3.75 Q 7.125,34.125 5.71875,28.421875 q 0,-0.640625 -0.828125,-0.640625 l -1.171875,0 q -0.25,0 -0.546875,0.359375 Q 2.875,28.515625 2.875,28.8125 q 1.078125,4.34375 2.078125,7.359375 1,3.03125 3.125,5.515625 2.125,2.5 5.296875,2.5 3.421875,0 6,-1.9375 2.59375,-1.921875 3.328125,-5.234375 Q 25.4375,40.1875 28.75,42.1875 q 3.328125,2 6.84375,2 4.203125,0 7.296875,-2.25 Q 46,39.703125 47.5625,36.0625 q 1.5625,-3.640625 1.5625,-7.84375 0,-6.4375 -3.296875,-13.328125 Q 42.53125,8.015625 36.890625,3.4375 31.25,-1.125 24.8125,-1.125 21.875,-1.125 19.5,0.53125 17.140625,2.203125 15.828125,4.890625 l -4.546875,-17.78125 q -0.25,-1.46875 -0.296875,-1.703125 0,-1.328125 6.59375,-1.328125 1.03125,0 1.03125,-1.265625 -0.34375,-1.3125 -0.5625,-1.75 -0.21875,-0.453125 -1.15625,-0.453125 z M 24.90625,1.515625 q 3.46875,0 6.4375,2.859375 2.984375,2.859375 4.84375,6.421875 1.359375,2.6875 2.546875,6.5625 1.203125,3.875 2.078125,8.265625 0.890625,4.40625 0.890625,7 0,2.28125 -0.609375,4.28125 -0.609375,2.015625 -2,3.359375 -1.390625,1.34375 -3.6875,1.34375 -3.671875,0 -6.921875,-2.625 Q 25.25,36.375 22.609375,32.515625 l 0,-0.34375 -5.515625,-22.0625 Q 17.78125,6.546875 19.734375,4.03125 21.6875,1.515625 24.90625,1.515625" />
      <path
         style="stroke-linecap:butt;stroke-linejoin:round;stroke-miterlimit:100000"
         inkscape:connector-curvature="0"
         id="Cmmi10-4b"
         d="m 4.6875,0 q -0.96875,0 -0.96875,1.3125 0.046875,0.25 0.1875,0.859375 0.140625,0.609375 0.40625,0.96875 0.28125,0.375 0.671875,0.375 6.09375,0 8.5,0.6875 1.3125,0.4375 1.890625,2.6875 L 29.109375,61.8125 q 0.1875,0.984375 0.1875,1.375 0,1.078125 -1.21875,1.21875 -1.859375,0.390625 -7.171875,0.390625 -0.984375,0 -0.984375,1.3125 0.34375,1.28125 0.53125,1.734375 0.203125,0.46875 1.125,0.46875 l 26.90625,0 q 1.03125,0 1.03125,-1.3125 Q 49.46875,66.75 49.3125,66.15625 49.171875,65.578125 48.921875,65.1875 48.6875,64.796875 48.1875,64.796875 q -6.09375,0 -8.484375,-0.6875 Q 38.375,63.625 37.796875,61.375 L 29.6875,29 68.890625,59.28125 q 0.109375,0.1875 1.25,1.328125 1.15625,1.15625 1.15625,2.28125 0,1.90625 -3.375,1.90625 -1.03125,0 -1.03125,1.3125 0.203125,0.78125 0.3125,1.21875 0.125,0.453125 0.4375,0.71875 0.328125,0.265625 0.96875,0.265625 l 19.375,0 q 0.546875,0 0.78125,-0.390625 0.25,-0.390625 0.25,-0.921875 -0.04687,-0.25 -0.21875,-0.890625 -0.171875,-0.625 -0.4375,-0.96875 -0.265625,-0.34375 -0.765625,-0.34375 -7.3125,0 -16.015625,-6.78125 -0.04687,-0.0625 -0.140625,-0.09375 -0.09375,-0.01563 -0.203125,-0.04687 -0.09375,-0.01563 -0.140625,-0.0625 L 50.484375,41.79688 l 15,-35.109375 Q 66.84375,4.5 68.40625,4 q 1.5625,-0.484375 4.78125,-0.484375 1.03125,0 1.03125,-1.3125 Q 73.921875,1.03125 73.625,0.515625 73.34375,0 72.515625,0 L 49.3125,0 q -0.921875,0 -0.921875,1.3125 0.140625,1.03125 0.328125,1.609375 0.203125,0.59375 0.984375,0.59375 2.546875,0 4.328125,0.515625 1.78125,0.515625 1.78125,2.359375 0,0.6875 -0.09375,1.03125 L 43.3125,36.28125 28.71875,25 24.125,6.5 q -0.25,-1.21875 -0.25,-1.421875 0,-1.03125 1.21875,-1.171875 Q 27,3.515625 32.328125,3.515625 q 0.96875,0 0.96875,-1.3125 Q 32.953125,0.78125 32.75,0.390625 32.5625,0 31.59375,0 Z" />
    </defs>
    <g
       style="stroke-linecap:butt;stroke-linejoin:round;stroke-miterlimit:100000"
       id="g5366"
       transform="matrix(0.12,0,0,-0.12,370.38,424.89375)">
      <use
         height="100%"
         width="100%"
         y="0"
         x="0"
         style="stroke-linecap:butt;stroke-linejoin:round;stroke-miterlimit:100000"
         id="use5368"
         xlink:href="#Cmmi10-4b"
         transform="translate(0,0.6875)" />
      <use
         height="100%"
         width="100%"
         y="0"
         x="0"
         style="stroke-linecap:butt;stroke-linejoin:round;stroke-miterlimit:100000"
         id="use5370"
         xlink:href="#Cmmi10-70"
         transform="matrix(0.7,0,0,0.7,84.912109,-16.31875)" />
    </g>
  </g>
  <g
     id="line2d_21"
     style="stroke-linecap:butt;stroke-linejoin:round;stroke-miterlimit:100000">
    <defs
       id="defs5375">
      <path
         d="M 0,0 4,0"
         id="m3db03a7162"
         style="stroke:#000000;stroke-width:0.5;stroke-linecap:butt;stroke-linejoin:round;stroke-miterlimit:100000"
         inkscape:connector-curvature="0" />
    </defs>
    <g
       id="g5378"
       style="stroke-linecap:butt;stroke-linejoin:round;stroke-miterlimit:100000">
      <use
         style="stroke:#000000;stroke-width:0.5;stroke-linecap:butt;stroke-linejoin:round;stroke-miterlimit:100000"
         x="72"
         xlink:href="#m3db03a7162"
         y="396"
         id="use5380"
         width="100%"
         height="100%" />
    </g>
  </g>
  <g
     id="line2d_22"
     style="stroke-linecap:butt;stroke-linejoin:round;stroke-miterlimit:100000">
    <defs
       id="defs5383">
      <path
         d="M 0,0 -4,0"
         id="m7ba30f70be"
         style="stroke:#000000;stroke-width:0.5;stroke-linecap:butt;stroke-linejoin:round;stroke-miterlimit:100000"
         inkscape:connector-curvature="0" />
    </defs>
    <g
       id="g5386"
       style="stroke-linecap:butt;stroke-linejoin:round;stroke-miterlimit:100000">
      <use
         style="stroke:#000000;stroke-width:0.5;stroke-linecap:butt;stroke-linejoin:round;stroke-miterlimit:100000"
         x="684"
         xlink:href="#m7ba30f70be"
         y="396"
         id="use5388"
         width="100%"
         height="100%" />
    </g>
  </g>
  <use
     x="63.623047"
     xlink:href="#BitstreamVeraSans-Roman-2e"
     id="use5398"
     style="stroke-linecap:butt;stroke-linejoin:round;stroke-miterlimit:100000"
     y="0"
     width="100%"
     height="100%"
     transform="matrix(0.12,0,0,-0.12,49.690469,399.48187)" />
  <use
     x="349.90234"
     xlink:href="#BitstreamVeraSans-Roman-31"
     id="use5408"
     style="stroke-linecap:butt;stroke-linejoin:round;stroke-miterlimit:100000"
     y="0"
     width="100%"
     height="100%"
     transform="matrix(0.12,0,0,-0.12,1.50625,399.31125)" />
  <use
     x="413.52539"
     xlink:href="#BitstreamVeraSans-Roman-35"
     id="use5410"
     style="stroke-linecap:butt;stroke-linejoin:round;stroke-miterlimit:100000"
     y="0"
     width="100%"
     height="100%"
     transform="matrix(0.12,0,0,-0.12,1.50625,399.31125)" />
  <use
     x="477.14844"
     xlink:href="#BitstreamVeraSans-Roman-30"
     id="use5412"
     style="stroke-linecap:butt;stroke-linejoin:round;stroke-miterlimit:100000"
     y="0"
     width="100%"
     height="100%"
     transform="matrix(0.12,0,0,-0.12,3.10625,399.31125)" />
  <g
     id="line2d_23"
     style="stroke-linecap:butt;stroke-linejoin:round;stroke-miterlimit:100000">
    <g
       id="g5416"
       style="stroke-linecap:butt;stroke-linejoin:round;stroke-miterlimit:100000">
      <use
         style="stroke:#000000;stroke-width:0.5;stroke-linecap:butt;stroke-linejoin:round;stroke-miterlimit:100000"
         x="72"
         xlink:href="#m3db03a7162"
         y="336"
         id="use5418"
         width="100%"
         height="100%" />
    </g>
  </g>
  <g
     id="line2d_24"
     style="stroke-linecap:butt;stroke-linejoin:round;stroke-miterlimit:100000">
    <g
       id="g5421"
       style="stroke-linecap:butt;stroke-linejoin:round;stroke-miterlimit:100000">
      <use
         style="stroke:#000000;stroke-width:0.5;stroke-linecap:butt;stroke-linejoin:round;stroke-miterlimit:100000"
         x="684"
         xlink:href="#m7ba30f70be"
         y="336"
         id="use5423"
         width="100%"
         height="100%" />
    </g>
  </g>
  <use
     x="349.90234"
     xlink:href="#BitstreamVeraSans-Roman-31"
     id="use5443"
     style="stroke-linecap:butt;stroke-linejoin:round;stroke-miterlimit:100000"
     y="0"
     width="100%"
     height="100%"
     transform="matrix(0.12,0,0,-0.12,1.50625,339.31125)" />
  <use
     x="413.52539"
     xlink:href="#BitstreamVeraSans-Roman-37"
     id="use5445"
     style="stroke-linecap:butt;stroke-linejoin:round;stroke-miterlimit:100000"
     y="0"
     width="100%"
     height="100%"
     transform="matrix(0.12,0,0,-0.12,1.50625,339.31125)" />
  <use
     x="477.14844"
     xlink:href="#BitstreamVeraSans-Roman-35"
     id="use5447"
     style="stroke-linecap:butt;stroke-linejoin:round;stroke-miterlimit:100000"
     y="0"
     width="100%"
     height="100%"
     transform="matrix(0.12,0,0,-0.12,3.10625,339.31125)" />
  <g
     id="line2d_25"
     style="stroke-linecap:butt;stroke-linejoin:round;stroke-miterlimit:100000">
    <g
       id="g5451"
       style="stroke-linecap:butt;stroke-linejoin:round;stroke-miterlimit:100000">
      <use
         style="stroke:#000000;stroke-width:0.5;stroke-linecap:butt;stroke-linejoin:round;stroke-miterlimit:100000"
         x="72"
         xlink:href="#m3db03a7162"
         y="276"
         id="use5453"
         width="100%"
         height="100%" />
    </g>
  </g>
  <g
     id="line2d_26"
     style="stroke-linecap:butt;stroke-linejoin:round;stroke-miterlimit:100000">
    <g
       id="g5456"
       style="stroke-linecap:butt;stroke-linejoin:round;stroke-miterlimit:100000">
      <use
         style="stroke:#000000;stroke-width:0.5;stroke-linecap:butt;stroke-linejoin:round;stroke-miterlimit:100000"
         x="684"
         xlink:href="#m7ba30f70be"
         y="276"
         id="use5458"
         width="100%"
         height="100%" />
    </g>
  </g>
  <use
     x="349.90234"
     xlink:href="#BitstreamVeraSans-Roman-32"
     id="use5475"
     style="stroke-linecap:butt;stroke-linejoin:round;stroke-miterlimit:100000"
     y="0"
     width="100%"
     height="100%"
     transform="matrix(0.12,0,0,-0.12,1.50625,279.31125)" />
  <use
     x="413.52539"
     xlink:href="#BitstreamVeraSans-Roman-30"
     id="use5477"
     style="stroke-linecap:butt;stroke-linejoin:round;stroke-miterlimit:100000"
     y="0"
     width="100%"
     height="100%"
     transform="matrix(0.12,0,0,-0.12,1.50625,279.31125)" />
  <use
     x="477.14844"
     xlink:href="#BitstreamVeraSans-Roman-30"
     id="use5479"
     style="stroke-linecap:butt;stroke-linejoin:round;stroke-miterlimit:100000"
     y="0"
     width="100%"
     height="100%"
     transform="matrix(0.12,0,0,-0.12,3.10625,279.31125)" />
  <g
     id="line2d_27"
     style="stroke-linecap:butt;stroke-linejoin:round;stroke-miterlimit:100000">
    <g
       id="g5483"
       style="stroke-linecap:butt;stroke-linejoin:round;stroke-miterlimit:100000">
      <use
         style="stroke:#000000;stroke-width:0.5;stroke-linecap:butt;stroke-linejoin:round;stroke-miterlimit:100000"
         x="72"
         xlink:href="#m3db03a7162"
         y="216"
         id="use5485"
         width="100%"
         height="100%" />
    </g>
  </g>
  <g
     id="line2d_28"
     style="stroke-linecap:butt;stroke-linejoin:round;stroke-miterlimit:100000">
    <g
       id="g5488"
       style="stroke-linecap:butt;stroke-linejoin:round;stroke-miterlimit:100000">
      <use
         style="stroke:#000000;stroke-width:0.5;stroke-linecap:butt;stroke-linejoin:round;stroke-miterlimit:100000"
         x="684"
         xlink:href="#m7ba30f70be"
         y="216"
         id="use5490"
         width="100%"
         height="100%" />
    </g>
  </g>
  <use
     x="349.90234"
     xlink:href="#BitstreamVeraSans-Roman-32"
     id="use5507"
     style="stroke-linecap:butt;stroke-linejoin:round;stroke-miterlimit:100000"
     y="0"
     width="100%"
     height="100%"
     transform="matrix(0.12,0,0,-0.12,1.50625,219.31125)" />
  <use
     x="413.52539"
     xlink:href="#BitstreamVeraSans-Roman-32"
     id="use5509"
     style="stroke-linecap:butt;stroke-linejoin:round;stroke-miterlimit:100000"
     y="0"
     width="100%"
     height="100%"
     transform="matrix(0.12,0,0,-0.12,1.50625,219.31125)" />
  <use
     x="477.14844"
     xlink:href="#BitstreamVeraSans-Roman-35"
     id="use5511"
     style="stroke-linecap:butt;stroke-linejoin:round;stroke-miterlimit:100000"
     y="0"
     width="100%"
     height="100%"
     transform="matrix(0.12,0,0,-0.12,3.10625,219.31125)" />
  <g
     id="line2d_29"
     style="stroke-linecap:butt;stroke-linejoin:round;stroke-miterlimit:100000">
    <g
       id="g5515"
       style="stroke-linecap:butt;stroke-linejoin:round;stroke-miterlimit:100000">
      <use
         style="stroke:#000000;stroke-width:0.5;stroke-linecap:butt;stroke-linejoin:round;stroke-miterlimit:100000"
         x="72"
         xlink:href="#m3db03a7162"
         y="156"
         id="use5517"
         width="100%"
         height="100%" />
    </g>
  </g>
  <g
     id="line2d_30"
     style="stroke-linecap:butt;stroke-linejoin:round;stroke-miterlimit:100000">
    <g
       id="g5520"
       style="stroke-linecap:butt;stroke-linejoin:round;stroke-miterlimit:100000">
      <use
         style="stroke:#000000;stroke-width:0.5;stroke-linecap:butt;stroke-linejoin:round;stroke-miterlimit:100000"
         x="684"
         xlink:href="#m7ba30f70be"
         y="156"
         id="use5522"
         width="100%"
         height="100%" />
    </g>
  </g>
  <use
     x="349.90234"
     xlink:href="#BitstreamVeraSans-Roman-32"
     id="use5539"
     style="stroke-linecap:butt;stroke-linejoin:round;stroke-miterlimit:100000"
     y="0"
     width="100%"
     height="100%"
     transform="matrix(0.12,0,0,-0.12,1.50625,159.31125)" />
  <use
     x="413.52539"
     xlink:href="#BitstreamVeraSans-Roman-35"
     id="use5541"
     style="stroke-linecap:butt;stroke-linejoin:round;stroke-miterlimit:100000"
     y="0"
     width="100%"
     height="100%"
     transform="matrix(0.12,0,0,-0.12,1.50625,159.31125)" />
  <use
     x="477.14844"
     xlink:href="#BitstreamVeraSans-Roman-30"
     id="use5543"
     style="stroke-linecap:butt;stroke-linejoin:round;stroke-miterlimit:100000"
     y="0"
     width="100%"
     height="100%"
     transform="matrix(0.12,0,0,-0.12,3.10625,159.31125)" />
  <g
     id="line2d_31"
     style="stroke-linecap:butt;stroke-linejoin:round;stroke-miterlimit:100000">
    <g
       id="g5547"
       style="stroke-linecap:butt;stroke-linejoin:round;stroke-miterlimit:100000">
      <use
         style="stroke:#000000;stroke-width:0.5;stroke-linecap:butt;stroke-linejoin:round;stroke-miterlimit:100000"
         x="72"
         xlink:href="#m3db03a7162"
         y="96"
         id="use5549"
         width="100%"
         height="100%" />
    </g>
  </g>
  <g
     id="line2d_32"
     style="stroke-linecap:butt;stroke-linejoin:round;stroke-miterlimit:100000">
    <g
       id="g5552"
       style="stroke-linecap:butt;stroke-linejoin:round;stroke-miterlimit:100000">
      <use
         style="stroke:#000000;stroke-width:0.5;stroke-linecap:butt;stroke-linejoin:round;stroke-miterlimit:100000"
         x="684"
         xlink:href="#m7ba30f70be"
         y="96"
         id="use5554"
         width="100%"
         height="100%" />
    </g>
  </g>
  <use
     x="349.90234"
     xlink:href="#BitstreamVeraSans-Roman-32"
     id="use5571"
     style="stroke-linecap:butt;stroke-linejoin:round;stroke-miterlimit:100000"
     y="0"
     width="100%"
     height="100%"
     transform="matrix(0.12,0,0,-0.12,1.50625,99.31125)" />
  <use
     x="413.52539"
     xlink:href="#BitstreamVeraSans-Roman-37"
     id="use5573"
     style="stroke-linecap:butt;stroke-linejoin:round;stroke-miterlimit:100000"
     y="0"
     width="100%"
     height="100%"
     transform="matrix(0.12,0,0,-0.12,1.50625,99.31125)" />
  <use
     x="477.14844"
     xlink:href="#BitstreamVeraSans-Roman-35"
     id="use5575"
     style="stroke-linecap:butt;stroke-linejoin:round;stroke-miterlimit:100000"
     y="0"
     width="100%"
     height="100%"
     transform="matrix(0.12,0,0,-0.12,3.10625,99.31125)" />
  <g
     id="line2d_33"
     style="stroke-linecap:butt;stroke-linejoin:round;stroke-miterlimit:100000">
    <g
       id="g5579"
       style="stroke-linecap:butt;stroke-linejoin:round;stroke-miterlimit:100000">
      <use
         style="stroke:#000000;stroke-width:0.5;stroke-linecap:butt;stroke-linejoin:round;stroke-miterlimit:100000"
         x="72"
         xlink:href="#m3db03a7162"
         y="36"
         id="use5581"
         width="100%"
         height="100%" />
    </g>
  </g>
  <g
     id="line2d_34"
     style="stroke-linecap:butt;stroke-linejoin:round;stroke-miterlimit:100000">
    <g
       id="g5584"
       style="stroke-linecap:butt;stroke-linejoin:round;stroke-miterlimit:100000">
      <use
         style="stroke:#000000;stroke-width:0.5;stroke-linecap:butt;stroke-linejoin:round;stroke-miterlimit:100000"
         x="684"
         xlink:href="#m7ba30f70be"
         y="36"
         id="use5586"
         width="100%"
         height="100%" />
    </g>
  </g>
  <use
     x="349.90234"
     xlink:href="#BitstreamVeraSans-Roman-33"
     id="use5603"
     style="stroke-linecap:butt;stroke-linejoin:round;stroke-miterlimit:100000"
     y="0"
     width="100%"
     height="100%"
     transform="matrix(0.12,0,0,-0.12,1.50625,39.31125)" />
  <use
     x="413.52539"
     xlink:href="#BitstreamVeraSans-Roman-30"
     id="use5605"
     style="stroke-linecap:butt;stroke-linejoin:round;stroke-miterlimit:100000"
     y="0"
     width="100%"
     height="100%"
     transform="matrix(0.12,0,0,-0.12,1.50625,39.31125)" />
  <use
     x="477.14844"
     xlink:href="#BitstreamVeraSans-Roman-30"
     id="use5607"
     style="stroke-linecap:butt;stroke-linejoin:round;stroke-miterlimit:100000"
     y="0"
     width="100%"
     height="100%"
     transform="matrix(0.12,0,0,-0.12,3.10625,39.31125)" />
  <g
     style="stroke-linecap:butt;stroke-linejoin:round;stroke-miterlimit:100000"
     id="text_15"
     transform="translate(35.702479,-2.0401417)">
    <!-- $R$ -->
    <defs
       id="defs5610">
      <path
         style="stroke-linecap:butt;stroke-linejoin:round;stroke-miterlimit:100000"
         inkscape:connector-curvature="0"
         id="Cmmi10-52"
         d="M 4.890625,0 Q 3.90625,0 3.90625,1.3125 q 0.046875,0.25 0.1875,0.859375 0.15625,0.609375 0.421875,0.96875 0.265625,0.375 0.65625,0.375 6.109375,0 8.546875,0.6875 1.265625,0.4375 1.859375,2.6875 L 29.296875,61.8125 Q 29.5,62.796875 29.5,63.1875 q 0,1.078125 -1.171875,1.21875 -1.90625,0.390625 -7.234375,0.390625 -0.96875,0 -0.96875,1.3125 0.04687,0.25 0.1875,0.859375 0.140625,0.609375 0.40625,0.96875 0.28125,0.375 0.671875,0.375 l 30.3125,0 q 3.625,0 7.53125,-0.828125 3.90625,-0.828125 7.171875,-2.609375 3.265625,-1.78125 5.359375,-4.75 2.109375,-2.953125 2.109375,-6.90625 0,-5.03125 -3.328125,-8.984375 -3.3125,-3.953125 -8.390625,-6.609375 -5.078125,-2.65625 -9.859375,-3.734375 3.90625,-1.421875 6.390625,-4.53125 2.5,-3.09375 2.5,-7.140625 0,-0.53125 -0.03125,-0.8125 -0.01563,-0.265625 -0.07813,-0.609375 l -0.78125,-8.875 Q 60.20312,9.96875 60.10937,8.59375 60.01562,7.234375 60.01562,6.390625 q 0,-2.734375 0.796875,-4.375 0.8125,-1.625 3.203125,-1.625 3.125,0 5.484375,2.90625 2.375,2.90625 3.109375,6.328125 0.4375,0.875 0.96875,0.875 l 0.9375,0 q 0.96875,0 0.96875,-1.3125 Q 74.75,6.296875 73.15625,3.703125 71.578125,1.125 69.15625,-0.53125 66.75,-2.203125 63.921875,-2.203125 q -5.859375,0 -9.984375,2.609375 -4.125,2.625 -4.125,8.1875 0,2.09375 0.390625,3.71875 l 2.1875,8.875 q 0.390625,1.21875 0.390625,2.84375 0,4.140625 -2.8125,6.5 -2.796875,2.375 -7.046875,2.375 l -12.3125,0 L 24.03125,6.5 q -0.25,-0.828125 -0.25,-1.421875 0,-1.03125 1.21875,-1.171875 1.90625,-0.390625 7.171875,-0.390625 1.03125,0 1.03125,-1.3125 Q 32.859375,0.78125 32.65625,0.390625 32.46875,0 31.5,0 Z m 26.3125,35.5 11.078125,0 q 10.890625,0 16.40625,5.515625 2.546875,2.546875 4.03125,6.46875 1.484375,3.9375 1.484375,7.84375 0,3.703125 -2.171875,5.796875 -2.171875,2.109375 -5.375,2.890625 -3.1875,0.78125 -7.046875,0.78125 l -6.6875,0 q -2.734375,0 -3.625,-0.46875 -0.875,-0.453125 -1.59375,-2.953125 z" />
    </defs>
    <g
       style="stroke-linecap:butt;stroke-linejoin:round;stroke-miterlimit:100000"
       id="g5613"
       transform="matrix(0,-0.12,-0.12,0,-4.389375,220.56)">
      <use
         height="100%"
         width="100%"
         y="0"
         x="0"
         style="stroke-linecap:butt;stroke-linejoin:round;stroke-miterlimit:100000"
         id="use5615"
         xlink:href="#Cmmi10-52"
         transform="translate(0,0.6875)" />
    </g>
  </g>
  <defs
     id="defs5617">
    <clipPath
       id="pe3f3ac78af">
      <rect
         height="360.0"
         width="612.0"
         x="72.0"
         y="36.0"
         id="rect5620" />
    </clipPath>
  </defs>
  <g
     transform="translate(-0.0018191,-0.49994815)"
     id="line2d_6-3"
     style="stroke-linecap:butt;stroke-linejoin:round;stroke-miterlimit:100000;fill:#800000;stroke:#c71414;stroke-opacity:1">
    <path
       clip-path="url(#p11ac32f897)"
       d="m 482.63056,324.85494 -0.13657,-1.49112 -0.40392,-1.7055 -0.74119,-2.12389 -1.18999,-2.7042 -1.79247,-3.4915 -2.60302,-4.55769 -3.72365,-6.04684 -5.12173,-7.87831 -7.19843,-10.63979 -25.38015,-37.1658 -6.87748,-10.66652 -6.46812,-10.44304 -6.27364,-10.56061 -6.61228,-11.5898 -9.4329,-17.02496 -4.48797,-8.04873 -1.57078,-2.77888 -6.01932,-10.36789 -3.69237,-5.92165 -1.26207,-1.65513 -0.54808,-0.39929 -0.30735,0.016 -0.24752,0.24546 -0.23256,0.48373 -0.33863,1.24591 -0.38759,2.24827 -0.42294,3.81762 -0.28694,4.70412 -0.16858,6.60982 -0.25269,19.52345 0.25257,-19.51476 0,0 0.24473,-8.23302 0.35902,-4.65895 0.4651,-3.46829 0.48007,-2.11131 0.36039,-0.74425 0.28288,-0.18273 0.306,0.0637 0.43791,0.35318 0.84455,1.05096 1.98831,3.03186 2.8111,4.6462 7.05291,12.2571 8.78554,15.83575 5.41821,9.74385 1.69455,3.00452 6.42187,11.12337 6.10501,10.15115 6.58371,10.50807 6.89652,10.58526 7.99675,11.8574 14.49751,20.99639 2.4303,3.5435 7.40787,11.03619 5.11356,7.99867 3.54006,5.93075 2.33646,4.32559 1.60479,3.46832 0.87311,2.4079 0.45287,1.86855 0.136,1.39207 10e-4,0.10014 0,0"
       style="fill:#800000;stroke:#c71414;stroke-linecap:square;stroke-linejoin:round;stroke-miterlimit:100000;stroke-opacity:1"
       id="path5656"
       inkscape:connector-curvature="0" />
  </g>
  <use
     x="63.623047"
     xlink:href="#BitstreamVeraSans-Roman-2e"
     id="use5398-6"
     style="stroke-linecap:butt;stroke-linejoin:round;stroke-miterlimit:100000"
     y="0"
     width="100%"
     height="100%"
     transform="matrix(0.12,0,0,-0.12,49.790828,339.31125)" />
  <use
     x="63.623047"
     xlink:href="#BitstreamVeraSans-Roman-2e"
     id="use5398-7"
     style="stroke-linecap:butt;stroke-linejoin:round;stroke-miterlimit:100000"
     y="0"
     width="100%"
     height="100%"
     transform="matrix(0.12,0,0,-0.12,50.331802,279.48187)" />
  <use
     x="63.623047"
     xlink:href="#BitstreamVeraSans-Roman-2e"
     id="use5398-5"
     style="stroke-linecap:butt;stroke-linejoin:round;stroke-miterlimit:100000"
     y="0"
     width="100%"
     height="100%"
     transform="matrix(0.12,0,0,-0.12,50.331802,219.31125)" />
  <use
     x="63.623047"
     xlink:href="#BitstreamVeraSans-Roman-2e"
     id="use5398-3"
     style="stroke-linecap:butt;stroke-linejoin:round;stroke-miterlimit:100000"
     y="0"
     width="100%"
     height="100%"
     transform="matrix(0.12,0,0,-0.12,49.971152,159.48187)" />
  <use
     x="63.623047"
     xlink:href="#BitstreamVeraSans-Roman-2e"
     id="use5398-56"
     style="stroke-linecap:butt;stroke-linejoin:round;stroke-miterlimit:100000"
     y="0"
     width="100%"
     height="100%"
     transform="matrix(0.12,0,0,-0.12,49.790828,99.31125)" />
  <use
     x="63.623047"
     xlink:href="#BitstreamVeraSans-Roman-2e"
     id="use5398-2"
     style="stroke-linecap:butt;stroke-linejoin:round;stroke-miterlimit:100000"
     y="0"
     width="100%"
     height="100%"
     transform="matrix(0.12,0,0,-0.12,49.790828,39.481875)" />
</svg>
