<?xml version="1.0" encoding="UTF-8" standalone="no"?>
<!-- Created with matplotlib (http://matplotlib.org/) -->

<svg
   xmlns:dc="http://purl.org/dc/elements/1.1/"
   xmlns:cc="http://creativecommons.org/ns#"
   xmlns:rdf="http://www.w3.org/1999/02/22-rdf-syntax-ns#"
   xmlns:svg="http://www.w3.org/2000/svg"
   xmlns="http://www.w3.org/2000/svg"
   xmlns:xlink="http://www.w3.org/1999/xlink"
   xmlns:sodipodi="http://sodipodi.sourceforge.net/DTD/sodipodi-0.dtd"
   xmlns:inkscape="http://www.inkscape.org/namespaces/inkscape"
   height="432pt"
   version="1.1"
   viewBox="0 0 691.86932 432"
   width="691.86932pt"
   id="svg5116"
   inkscape:version="0.91 r"
   sodipodi:docname="bifurcationRjplc04.svg">
  <metadata
     id="metadata5585">
    <rdf:RDF>
      <cc:Work
         rdf:about="">
        <dc:format>image/svg+xml</dc:format>
        <dc:type
           rdf:resource="http://purl.org/dc/dcmitype/StillImage" />
        <dc:title></dc:title>
      </cc:Work>
    </rdf:RDF>
  </metadata>
  <sodipodi:namedview
     pagecolor="#ffffff"
     bordercolor="#666666"
     borderopacity="1"
     objecttolerance="10"
     gridtolerance="10"
     guidetolerance="10"
     inkscape:pageopacity="0"
     inkscape:pageshadow="2"
     inkscape:window-width="1920"
     inkscape:window-height="1028"
     id="namedview5583"
     showgrid="false"
     inkscape:zoom="1.1091101"
     inkscape:cx="329.76246"
     inkscape:cy="248.17524"
     inkscape:window-x="0"
     inkscape:window-y="299"
     inkscape:window-maximized="1"
     inkscape:current-layer="svg5116"
     fit-margin-top="0"
     fit-margin-left="0"
     fit-margin-right="0"
     fit-margin-bottom="0" />
  <defs
     id="defs5118"
     style="stroke-linecap:butt;stroke-linejoin:round;stroke-miterlimit:100000">
    <style
       type="text/css"
       id="style5120">
*{stroke-linecap:butt;stroke-linejoin:round;stroke-miterlimit:100000;}
  </style>
    <clipPath
       id="p7ad77354b9"
       style="stroke-linecap:butt;stroke-linejoin:round;stroke-miterlimit:100000">
      <rect
         height="360"
         width="612"
         x="72"
         y="36"
         id="rect6052"
         style="stroke-linecap:butt;stroke-linejoin:round;stroke-miterlimit:100000" />
    </clipPath>
    <defs
       id="defs5186">
      <path
         style="stroke-linecap:butt;stroke-linejoin:round;stroke-miterlimit:100000"
         inkscape:connector-curvature="0"
         id="BitstreamVeraSans-Roman-30"
         d="m 31.78125,66.40625 q -7.609375,0 -11.453125,-7.5 Q 16.5,51.421875 16.5,36.375 q 0,-14.984375 3.828125,-22.484375 3.84375,-7.5 11.453125,-7.5 7.671875,0 11.5,7.5 3.84375,7.5 3.84375,22.484375 0,15.046875 -3.84375,22.53125 -3.828125,7.5 -11.5,7.5 m 0,7.8125 q 12.265625,0 18.734375,-9.703125 6.46875,-9.6875 6.46875,-28.140625 0,-18.40625 -6.46875,-28.109375 -6.46875,-9.6875 -18.734375,-9.6875 -12.25,0 -18.71875,9.6875 Q 6.59375,17.96875 6.59375,36.375 q 0,18.453125 6.46875,28.140625 6.46875,9.703125 18.71875,9.703125" />
      <path
         style="stroke-linecap:butt;stroke-linejoin:round;stroke-miterlimit:100000"
         inkscape:connector-curvature="0"
         id="BitstreamVeraSans-Roman-35"
         d="m 10.796875,72.90625 38.71875,0 0,-8.3125 -29.6875,0 0,-17.859375 q 2.140625,0.734375 4.28125,1.09375 2.15625,0.359375 4.3125,0.359375 Q 40.625,48.1875 47.75,41.5 54.890625,34.8125 54.890625,23.390625 54.890625,11.625 47.5625,5.09375 40.234375,-1.421875 26.90625,-1.421875 q -4.59375,0 -9.359375,0.78125 -4.75,0.78125 -9.828125,2.34375 l 0,9.921875 q 4.390625,-2.390625 9.078125,-3.5625 4.6875,-1.171875 9.90625,-1.171875 8.453125,0 13.375,4.4375 4.9375,4.4375 4.9375,12.0625 0,7.609375 -4.9375,12.046875 -4.921875,4.453125 -13.375,4.453125 -3.953125,0 -7.890625,-0.875 -3.921875,-0.875 -8.015625,-2.734375 z" />
    </defs>
    <defs
       id="defs5212">
      <path
         style="stroke-linecap:butt;stroke-linejoin:round;stroke-miterlimit:100000"
         inkscape:connector-curvature="0"
         id="BitstreamVeraSans-Roman-31"
         d="m 12.40625,8.296875 16.109375,0 0,55.625 -17.53125,-3.515625 0,8.984375 17.4375,3.515625 9.859375,0 0,-64.609375 16.109375,0 0,-8.296875 -41.984375,0 z" />
    </defs>
    <defs
       id="defs5263">
      <path
         style="stroke-linecap:butt;stroke-linejoin:round;stroke-miterlimit:100000"
         inkscape:connector-curvature="0"
         id="BitstreamVeraSans-Roman-32"
         d="m 19.1875,8.296875 34.421875,0 0,-8.296875 -46.28125,0 0,8.296875 q 5.609375,5.8125 15.296875,15.59375 9.703125,9.796875 12.1875,12.640625 4.734375,5.3125 6.609375,9 1.890625,3.6875 1.890625,7.25 0,5.8125 -4.078125,9.46875 -4.078125,3.671875 -10.625,3.671875 -4.640625,0 -9.796875,-1.609375 -5.140625,-1.609375 -11,-4.890625 l 0,9.96875 Q 13.765625,71.78125 18.9375,73 q 5.1875,1.21875 9.484375,1.21875 11.328125,0 18.0625,-5.671875 6.734375,-5.65625 6.734375,-15.125 0,-4.5 -1.6875,-8.53125 Q 49.859375,40.875 45.40625,35.40625 44.1875,33.984375 37.640625,27.21875 31.109375,20.453125 19.1875,8.296875" />
    </defs>
    <defs
       id="defs5314">
      <path
         style="stroke-linecap:butt;stroke-linejoin:round;stroke-miterlimit:100000"
         inkscape:connector-curvature="0"
         id="BitstreamVeraSans-Roman-33"
         d="M 40.578125,39.3125 Q 47.65625,37.796875 51.625,33 q 3.984375,-4.78125 3.984375,-11.8125 0,-10.78125 -7.421875,-16.703125 -7.421875,-5.90625 -21.09375,-5.90625 -4.578125,0 -9.4375,0.90625 -4.859375,0.90625 -10.03125,2.71875 l 0,9.515625 q 4.09375,-2.390625 8.96875,-3.609375 4.890625,-1.21875 10.21875,-1.21875 9.265625,0 14.125,3.65625 4.859375,3.65625 4.859375,10.640625 0,6.453125 -4.515625,10.078125 -4.515625,3.640625 -12.5625,3.640625 l -8.5,0 0,8.109375 8.890625,0 q 7.265625,0 11.125,2.90625 3.859375,2.90625 3.859375,8.375 0,5.609375 -3.984375,8.609375 -3.96875,3.015625 -11.390625,3.015625 -4.0625,0 -8.703125,-0.890625 Q 15.375,64.15625 9.8125,62.3125 l 0,8.78125 q 5.625,1.5625 10.53125,2.34375 4.90625,0.78125 9.25,0.78125 11.234375,0 17.765625,-5.109375 6.546875,-5.09375 6.546875,-13.78125 0,-6.0625 -3.46875,-10.234375 -3.46875,-4.171875 -9.859375,-5.78125" />
    </defs>
    <defs
       id="defs5459">
      <path
         style="stroke-linecap:butt;stroke-linejoin:round;stroke-miterlimit:100000"
         inkscape:connector-curvature="0"
         id="BitstreamVeraSans-Roman-39"
         d="m 10.984375,1.515625 0,8.984375 Q 14.703125,8.734375 18.5,7.8125 q 3.8125,-0.921875 7.484375,-0.921875 9.765625,0 14.90625,6.5625 5.15625,6.5625 5.890625,19.953125 -2.828125,-4.203125 -7.1875,-6.453125 -4.34375,-2.25 -9.609375,-2.25 -10.9375,0 -17.3125,6.609375 -6.375,6.625 -6.375,18.109375 0,11.21875 6.640625,18 6.640625,6.796875 17.671875,6.796875 12.65625,0 19.3125,-9.703125 6.671875,-9.6875 6.671875,-28.140625 0,-17.234375 -8.1875,-27.515625 -8.171875,-10.28125 -21.984375,-10.28125 -3.71875,0 -7.53125,0.734375 -3.796875,0.734375 -7.90625,2.203125 m 19.625,30.90625 q 6.640625,0 10.515625,4.53125 3.890625,4.546875 3.890625,12.46875 0,7.859375 -3.890625,12.421875 -3.875,4.5625 -10.515625,4.5625 -6.640625,0 -10.515625,-4.5625 -3.875,-4.5625 -3.875,-12.421875 0,-7.921875 3.875,-12.46875 3.875,-4.53125 10.515625,-4.53125" />
    </defs>
    <defs
       id="defs5426">
      <path
         style="stroke-linecap:butt;stroke-linejoin:round;stroke-miterlimit:100000"
         inkscape:connector-curvature="0"
         id="BitstreamVeraSans-Roman-38"
         d="m 31.78125,34.625 q -7.03125,0 -11.0625,-3.765625 -4.015625,-3.765625 -4.015625,-10.34375 0,-6.59375 4.015625,-10.359375 4.03125,-3.765625 11.0625,-3.765625 7.03125,0 11.078125,3.78125 4.0625,3.796875 4.0625,10.34375 0,6.578125 -4.03125,10.34375 Q 38.875,34.625 31.78125,34.625 m -9.859375,4.1875 Q 15.578125,40.375 12.03125,44.71875 8.5,49.078125 8.5,55.328125 q 0,8.734375 6.21875,13.8125 6.234375,5.078125 17.0625,5.078125 10.890625,0 17.09375,-5.078125 6.203125,-5.078125 6.203125,-13.8125 0,-6.25 -3.546875,-10.609375 Q 48,40.375 41.703125,38.8125 q 7.125,-1.65625 11.09375,-6.5 3.984375,-4.828125 3.984375,-11.796875 0,-10.609375 -6.46875,-16.28125 -6.46875,-5.65625 -18.53125,-5.65625 -12.046875,0 -18.53125,5.65625 -6.46875,5.671875 -6.46875,16.28125 0,6.96875 4,11.796875 4.015625,4.84375 11.140625,6.5 M 18.3125,54.390625 q 0,-5.65625 3.53125,-8.828125 3.546875,-3.171875 9.9375,-3.171875 6.359375,0 9.9375,3.171875 3.59375,3.171875 3.59375,8.828125 0,5.671875 -3.59375,8.84375 -3.578125,3.171875 -9.9375,3.171875 -6.390625,0 -9.9375,-3.171875 Q 18.3125,60.0625 18.3125,54.390625" />
    </defs>
    <defs
       id="defs5393">
      <path
         style="stroke-linecap:butt;stroke-linejoin:round;stroke-miterlimit:100000"
         inkscape:connector-curvature="0"
         id="BitstreamVeraSans-Roman-37"
         d="m 8.203125,72.90625 46.875,0 0,-4.203125 L 28.609375,0 18.3125,0 l 24.90625,64.59375 -35.015625,0 z" />
    </defs>
    <defs
       id="defs5359">
      <path
         style="stroke-linecap:butt;stroke-linejoin:round;stroke-miterlimit:100000"
         inkscape:connector-curvature="0"
         id="BitstreamVeraSans-Roman-36"
         d="m 33.015625,40.375 q -6.640625,0 -10.53125,-4.546875 -3.875,-4.53125 -3.875,-12.4375 0,-7.859375 3.875,-12.4375 3.890625,-4.5625 10.53125,-4.5625 6.640625,0 10.515625,4.5625 3.875,4.578125 3.875,12.4375 0,7.90625 -3.875,12.4375 Q 39.65625,40.375 33.015625,40.375 m 19.578125,30.921875 0,-8.984375 q -3.71875,1.75 -7.5,2.671875 -3.78125,0.9375 -7.5,0.9375 -9.765625,0 -14.921875,-6.59375 -5.140625,-6.59375 -5.875,-19.921875 2.875,4.25 7.21875,6.515625 4.359375,2.265625 9.578125,2.265625 10.984375,0 17.359375,-6.671875 6.375,-6.65625 6.375,-18.125 0,-11.234375 -6.640625,-18.03125 -6.640625,-6.78125 -17.671875,-6.78125 -12.65625,0 -19.34375,9.6875 -6.6875,9.703125 -6.6875,28.109375 0,17.28125 8.203125,27.5625 8.203125,10.28125 22.015625,10.28125 3.71875,0 7.5,-0.734375 3.78125,-0.734375 7.890625,-2.1875" />
      <path
         style="stroke-linecap:butt;stroke-linejoin:round;stroke-miterlimit:100000"
         inkscape:connector-curvature="0"
         id="BitstreamVeraSans-Roman-2e"
         d="M 10.6875,12.40625 21,12.40625 21,0 10.6875,0 Z" />
    </defs>
  </defs>
  <g
     style="stroke-linecap:butt;stroke-linejoin:round;stroke-miterlimit:100000"
     id="patch_1"
     transform="scale(0.96092964,1)">
    <path
       inkscape:connector-curvature="0"
       id="path5124"
       style="fill:#ffffff;stroke-linecap:butt;stroke-linejoin:round;stroke-miterlimit:100000"
       d="M 0,432 720,432 720,0 0,0 Z" />
  </g>
  <g
     id="patch_2"
     style="stroke-linecap:butt;stroke-linejoin:round;stroke-miterlimit:100000"
     transform="translate(-28.106753,0)">
    <path
       d="m 72,396 612,0 0,-360 -612,0 z"
       style="fill:#ffffff;stroke-linecap:butt;stroke-linejoin:round;stroke-miterlimit:100000"
       id="path5128"
       inkscape:connector-curvature="0" />
  </g>
  <g
     id="line2d_1"
     style="stroke-linecap:butt;stroke-linejoin:round;stroke-miterlimit:100000"
     transform="translate(-28.130661,0)">
    <path
       clip-path="url(#p045aaa6a7d)"
       d="m 684,360.74005 -45.44305,-0.22538 -28.59509,-0.35333 -21.14508,-0.47587 -16.77001,-0.59281 -13.94531,-0.70921 -11.94205,-0.82465 -10.44878,-0.9398 -9.28736,-1.05406 -8.402,-1.1736 -7.68529,-1.29472 -7.12905,-1.42418 -6.66122,-1.55513 -6.30626,-1.69869 -6.02746,-1.8526 -5.80987,-2.01727 -5.66163,-2.20078 -5.55963,-2.3997 -5.50659,-2.61911 -5.50931,-2.8673 -5.55555,-3.14304 -5.66028,-3.45946 -5.81803,-3.81873 -6.03835,-4.23176 -6.35659,-4.72986 -6.78091,-5.32736 -7.36979,-6.07834 -8.2497,-7.09981 -9.72801,-8.67721 -12.76989,-11.70153 0,0"
       style="fill:none;stroke:#000000;stroke-linecap:square;stroke-linejoin:round;stroke-miterlimit:100000"
       id="path5131"
       inkscape:connector-curvature="0" />
  </g>
  <g
     id="line2d_2"
     style="stroke-linecap:butt;stroke-linejoin:round;stroke-miterlimit:100000"
     transform="translate(-28.130661,0)">
    <path
       clip-path="url(#p045aaa6a7d)"
       d="m 381.83786,276.19476 -29.22351,-26.85686 -10.86362,-9.62223 -9.41116,-8.04457 -8.5598,-7.02905 -7.94236,-6.23825 -7.44325,-5.5669 -6.99854,-4.96017 -6.59733,-4.40692 -6.22062,-3.89152 -5.86839,-3.41226 -5.52567,-2.95928 -5.20471,-2.53881 -4.90823,-2.15015 -4.62944,-1.78851 -4.37647,-1.45534 -4.14528,-1.14686 -3.93992,-0.86176 -3.75904,-0.59678 -3.604,-0.34901 -3.47752,-0.11496 -3.3796,0.10968 -3.3116,0.32947 -3.27352,0.54903 -3.2776,0.77591 -3.32247,1.01642 -3.42856,1.28368 -3.61895,1.59601 -3.944,1.98779 -4.53694,2.54444 -5.89015,3.57654 -18.12875,11.17267 -6.13358,3.41951 -5.83303,2.99862 -5.78407,2.72374 -5.85615,2.51195 -6.02208,2.34074 -6.26007,2.19347 -6.55384,2.05903 -6.89248,1.93088 -7.31135,1.81532 -7.78736,1.70196 -8.3368,1.59173 -8.95832,1.48147 -9.689999,1.37443 -10.5604,1.26982 L 72,237.48663 l 0,0"
       style="fill:none;stroke:#000000;stroke-linecap:butt;stroke-linejoin:round;stroke-miterlimit:100000;stroke-dasharray:6, 6;stroke-dashoffset:0"
       id="path5134"
       inkscape:connector-curvature="0" />
  </g>
  <g
     id="line2d_3"
     style="stroke-linecap:butt;stroke-linejoin:round;stroke-miterlimit:100000"
     transform="translate(-28.130661,0)">
    <path
       clip-path="url(#p045aaa6a7d)"
       d="m 381.83786,276.19476 -0.13023,2.5815 -0.32367,1.95988 -0.48824,1.62662 -0.6324,1.34923 -0.76431,1.11591 -0.9044,0.92805 -1.04583,0.75591 -1.22399,0.60747 -1.43479,0.45926 -1.68911,0.30316 -2.03047,0.13132 -0.96559,-0.004 -2.60847,-0.16434 -1.70407,-0.19971 -3.71278,-0.61313 -4.85245,-1.03661 -0.41208,-0.0972 -0.28968,-0.0678 -0.22984,-0.0562 -8.24835,-2.09172 -0.2448,-0.0647 -0.1632,-0.0424 -0.39712,-0.10409 -25.73515,-6.7212 -1.37087,-0.33541 -0.2108,-0.0525 -11.91899,-2.74614 -0.39304,-0.0858 -11.18188,-2.29024 -0.238,-0.0454 -10.40532,-1.86959 -9.15278,-1.42845 -0.35088,-0.0496 -0.25704,-0.037 -0.31008,-0.044 -0.15096,-0.0224 -10e-4,0.002 -8.7067,-1.12774 -8.76656,-0.91614 -0.30192,-0.0272 -0.86767,-0.0769 -8.26336,-0.60414 -0.36312,-0.0206 -0.1564,-0.009 -7.66904,-0.32525 -0.26112,-0.006 -0.17816,-0.004 -7.04616,-0.0667 -6.97,0.149 -0.14144,0.008 -6.81223,0.37382 -7.3535,0.63304 -9.09563,1.04664 -1.01184,0.12712 -7.5738,0.99398 -19.70498,2.49976 -0.35224,0.0404 -11.8347,1.26395 -0.13056,0.011 -0.001,10e-4 -13.26135,1.17551 -13.29535,0.94494 -15.83991,0.8838 -16.70488,0.70058 -0.27336,0.009 -0.2652,0.01 -0.71536,0.0261 -20.005603,0.59844 L 72,276.281 l 0,0"
       style="fill:none;stroke:#ff0000;stroke-linecap:square;stroke-linejoin:round;stroke-miterlimit:100000"
       id="path5137"
       inkscape:connector-curvature="0" />
  </g>
  <g
     id="patch_3"
     style="stroke-linecap:butt;stroke-linejoin:round;stroke-miterlimit:100000"
     transform="translate(-28.130661,0)">
    <path
       d="m 72,36 612,0"
       style="fill:none;stroke:#000000;stroke-linecap:square;stroke-linejoin:miter;stroke-miterlimit:100000"
       id="path5156"
       inkscape:connector-curvature="0" />
  </g>
  <g
     id="patch_4"
     style="stroke-linecap:butt;stroke-linejoin:round;stroke-miterlimit:100000"
     transform="translate(-28.130661,0)">
    <path
       d="M 684,396 684,36"
       style="fill:none;stroke:#000000;stroke-linecap:square;stroke-linejoin:miter;stroke-miterlimit:100000"
       id="path5159"
       inkscape:connector-curvature="0" />
  </g>
  <g
     id="patch_5"
     style="stroke-linecap:butt;stroke-linejoin:round;stroke-miterlimit:100000"
     transform="translate(-28.130661,0)">
    <path
       d="m 72,396 612,0"
       style="fill:none;stroke:#000000;stroke-linecap:square;stroke-linejoin:miter;stroke-miterlimit:100000"
       id="path5162"
       inkscape:connector-curvature="0" />
  </g>
  <g
     id="patch_6"
     style="stroke-linecap:butt;stroke-linejoin:round;stroke-miterlimit:100000"
     transform="translate(-28.130661,0)">
    <path
       d="M 72,396 72,36"
       style="fill:none;stroke:#000000;stroke-linecap:square;stroke-linejoin:miter;stroke-miterlimit:100000"
       id="path5165"
       inkscape:connector-curvature="0" />
  </g>
  <g
     id="line2d_6"
     style="stroke-linecap:butt;stroke-linejoin:round;stroke-miterlimit:100000"
     transform="translate(-28.130661,0)">
    <defs
       id="defs5170">
      <path
         d="M 0,0 0,-4"
         id="m835b1ac54e"
         style="stroke:#000000;stroke-width:0.5;stroke-linecap:butt;stroke-linejoin:round;stroke-miterlimit:100000"
         inkscape:connector-curvature="0" />
    </defs>
    <g
       id="g5173"
       style="stroke-linecap:butt;stroke-linejoin:round;stroke-miterlimit:100000">
      <use
         style="stroke:#000000;stroke-width:0.5;stroke-linecap:butt;stroke-linejoin:round;stroke-miterlimit:100000"
         x="117.33334"
         xlink:href="#m835b1ac54e"
         y="396"
         id="use5175"
         width="100%"
         height="100%" />
    </g>
  </g>
  <g
     id="line2d_7"
     style="stroke-linecap:butt;stroke-linejoin:round;stroke-miterlimit:100000"
     transform="translate(-28.130661,0)">
    <defs
       id="defs5178">
      <path
         d="M 0,0 0,4"
         id="m68a7641e77"
         style="stroke:#000000;stroke-width:0.5;stroke-linecap:butt;stroke-linejoin:round;stroke-miterlimit:100000"
         inkscape:connector-curvature="0" />
    </defs>
    <g
       id="g5181"
       style="stroke-linecap:butt;stroke-linejoin:round;stroke-miterlimit:100000">
      <use
         style="stroke:#000000;stroke-width:0.5;stroke-linecap:butt;stroke-linejoin:round;stroke-miterlimit:100000"
         x="117.33334"
         xlink:href="#m68a7641e77"
         y="36"
         id="use5183"
         width="100%"
         height="100%" />
    </g>
  </g>
  <use
     xlink:href="#BitstreamVeraSans-Roman-35"
     id="use5192"
     style="stroke-linecap:butt;stroke-linejoin:round;stroke-miterlimit:100000"
     x="0"
     y="0"
     width="100%"
     height="100%"
     transform="matrix(0.12,0,0,-0.12,83.532669,409.11813)" />
  <g
     id="line2d_8"
     style="stroke-linecap:butt;stroke-linejoin:round;stroke-miterlimit:100000"
     transform="translate(-28.130661,0)">
    <g
       id="g5202"
       style="stroke-linecap:butt;stroke-linejoin:round;stroke-miterlimit:100000">
      <use
         style="stroke:#000000;stroke-width:0.5;stroke-linecap:butt;stroke-linejoin:round;stroke-miterlimit:100000"
         x="230.66667"
         xlink:href="#m835b1ac54e"
         y="396"
         id="use5204"
         width="100%"
         height="100%" />
    </g>
  </g>
  <g
     id="line2d_9"
     style="stroke-linecap:butt;stroke-linejoin:round;stroke-miterlimit:100000"
     transform="translate(-28.130661,0)">
    <g
       id="g5207"
       style="stroke-linecap:butt;stroke-linejoin:round;stroke-miterlimit:100000">
      <use
         style="stroke:#000000;stroke-width:0.5;stroke-linecap:butt;stroke-linejoin:round;stroke-miterlimit:100000"
         x="230.66667"
         xlink:href="#m68a7641e77"
         y="36"
         id="use5209"
         width="100%"
         height="100%" />
    </g>
  </g>
  <use
     xlink:href="#BitstreamVeraSans-Roman-31"
     id="use5217"
     style="stroke-linecap:butt;stroke-linejoin:round;stroke-miterlimit:100000"
     x="0"
     y="0"
     width="100%"
     height="100%"
     transform="matrix(0.12,0,0,-0.12,193.04851,409.11813)" />
  <use
     x="63.623047"
     xlink:href="#BitstreamVeraSans-Roman-30"
     id="use5219"
     style="stroke-linecap:butt;stroke-linejoin:round;stroke-miterlimit:100000"
     y="0"
     width="100%"
     height="100%"
     transform="matrix(0.12,0,0,-0.12,193.04851,409.11813)" />
  <g
     id="line2d_10"
     style="stroke-linecap:butt;stroke-linejoin:round;stroke-miterlimit:100000"
     transform="translate(-28.130661,0)">
    <g
       id="g5229"
       style="stroke-linecap:butt;stroke-linejoin:round;stroke-miterlimit:100000">
      <use
         style="stroke:#000000;stroke-width:0.5;stroke-linecap:butt;stroke-linejoin:round;stroke-miterlimit:100000"
         x="344"
         xlink:href="#m835b1ac54e"
         y="396"
         id="use5231"
         width="100%"
         height="100%" />
    </g>
  </g>
  <g
     id="line2d_11"
     style="stroke-linecap:butt;stroke-linejoin:round;stroke-miterlimit:100000"
     transform="translate(-28.130661,0)">
    <g
       id="g5234"
       style="stroke-linecap:butt;stroke-linejoin:round;stroke-miterlimit:100000">
      <use
         style="stroke:#000000;stroke-width:0.5;stroke-linecap:butt;stroke-linejoin:round;stroke-miterlimit:100000"
         x="344"
         xlink:href="#m68a7641e77"
         y="36"
         id="use5236"
         width="100%"
         height="100%" />
    </g>
  </g>
  <use
     xlink:href="#BitstreamVeraSans-Roman-31"
     id="use5241"
     style="stroke-linecap:butt;stroke-linejoin:round;stroke-miterlimit:100000"
     x="0"
     y="0"
     width="100%"
     height="100%"
     transform="matrix(0.12,0,0,-0.12,306.38184,409.11813)" />
  <use
     x="63.623047"
     xlink:href="#BitstreamVeraSans-Roman-35"
     id="use5243"
     style="stroke-linecap:butt;stroke-linejoin:round;stroke-miterlimit:100000"
     y="0"
     width="100%"
     height="100%"
     transform="matrix(0.12,0,0,-0.12,306.38184,409.11813)" />
  <g
     id="line2d_12"
     style="stroke-linecap:butt;stroke-linejoin:round;stroke-miterlimit:100000"
     transform="translate(-28.130661,0)">
    <g
       id="g5253"
       style="stroke-linecap:butt;stroke-linejoin:round;stroke-miterlimit:100000">
      <use
         style="stroke:#000000;stroke-width:0.5;stroke-linecap:butt;stroke-linejoin:round;stroke-miterlimit:100000"
         x="457.33334"
         xlink:href="#m835b1ac54e"
         y="396"
         id="use5255"
         width="100%"
         height="100%" />
    </g>
  </g>
  <g
     id="line2d_13"
     style="stroke-linecap:butt;stroke-linejoin:round;stroke-miterlimit:100000"
     transform="translate(-28.130661,0)">
    <g
       id="g5258"
       style="stroke-linecap:butt;stroke-linejoin:round;stroke-miterlimit:100000">
      <use
         style="stroke:#000000;stroke-width:0.5;stroke-linecap:butt;stroke-linejoin:round;stroke-miterlimit:100000"
         x="457.33334"
         xlink:href="#m68a7641e77"
         y="36"
         id="use5260"
         width="100%"
         height="100%" />
    </g>
  </g>
  <use
     xlink:href="#BitstreamVeraSans-Roman-32"
     id="use5268"
     style="stroke-linecap:butt;stroke-linejoin:round;stroke-miterlimit:100000"
     x="0"
     y="0"
     width="100%"
     height="100%"
     transform="matrix(0.12,0,0,-0.12,419.71517,409.11813)" />
  <use
     x="63.623047"
     xlink:href="#BitstreamVeraSans-Roman-30"
     id="use5270"
     style="stroke-linecap:butt;stroke-linejoin:round;stroke-miterlimit:100000"
     y="0"
     width="100%"
     height="100%"
     transform="matrix(0.12,0,0,-0.12,419.71517,409.11813)" />
  <g
     id="line2d_14"
     style="stroke-linecap:butt;stroke-linejoin:round;stroke-miterlimit:100000"
     transform="translate(-28.130661,0)">
    <g
       id="g5280"
       style="stroke-linecap:butt;stroke-linejoin:round;stroke-miterlimit:100000">
      <use
         style="stroke:#000000;stroke-width:0.5;stroke-linecap:butt;stroke-linejoin:round;stroke-miterlimit:100000"
         x="570.66669"
         xlink:href="#m835b1ac54e"
         y="396"
         id="use5282"
         width="100%"
         height="100%" />
    </g>
  </g>
  <g
     id="line2d_15"
     style="stroke-linecap:butt;stroke-linejoin:round;stroke-miterlimit:100000"
     transform="translate(-28.130661,0)">
    <g
       id="g5285"
       style="stroke-linecap:butt;stroke-linejoin:round;stroke-miterlimit:100000">
      <use
         style="stroke:#000000;stroke-width:0.5;stroke-linecap:butt;stroke-linejoin:round;stroke-miterlimit:100000"
         x="570.66669"
         xlink:href="#m68a7641e77"
         y="36"
         id="use5287"
         width="100%"
         height="100%" />
    </g>
  </g>
  <use
     xlink:href="#BitstreamVeraSans-Roman-32"
     id="use5292"
     style="stroke-linecap:butt;stroke-linejoin:round;stroke-miterlimit:100000"
     x="0"
     y="0"
     width="100%"
     height="100%"
     transform="matrix(0.12,0,0,-0.12,533.04851,409.11813)" />
  <use
     x="63.623047"
     xlink:href="#BitstreamVeraSans-Roman-35"
     id="use5294"
     style="stroke-linecap:butt;stroke-linejoin:round;stroke-miterlimit:100000"
     y="0"
     width="100%"
     height="100%"
     transform="matrix(0.12,0,0,-0.12,533.04851,409.11813)" />
  <g
     id="line2d_16"
     style="stroke-linecap:butt;stroke-linejoin:round;stroke-miterlimit:100000"
     transform="translate(-28.130661,0)">
    <g
       id="g5304"
       style="stroke-linecap:butt;stroke-linejoin:round;stroke-miterlimit:100000">
      <use
         style="stroke:#000000;stroke-width:0.5;stroke-linecap:butt;stroke-linejoin:round;stroke-miterlimit:100000"
         x="684"
         xlink:href="#m835b1ac54e"
         y="396"
         id="use5306"
         width="100%"
         height="100%" />
    </g>
  </g>
  <g
     id="line2d_17"
     style="stroke-linecap:butt;stroke-linejoin:round;stroke-miterlimit:100000"
     transform="translate(-28.130661,0)">
    <g
       id="g5309"
       style="stroke-linecap:butt;stroke-linejoin:round;stroke-miterlimit:100000">
      <use
         style="stroke:#000000;stroke-width:0.5;stroke-linecap:butt;stroke-linejoin:round;stroke-miterlimit:100000"
         x="684"
         xlink:href="#m68a7641e77"
         y="36"
         id="use5311"
         width="100%"
         height="100%" />
    </g>
  </g>
  <use
     xlink:href="#BitstreamVeraSans-Roman-33"
     id="use5319"
     style="stroke-linecap:butt;stroke-linejoin:round;stroke-miterlimit:100000"
     x="0"
     y="0"
     width="100%"
     height="100%"
     transform="matrix(0.12,0,0,-0.12,646.38184,409.11813)" />
  <use
     x="63.623047"
     xlink:href="#BitstreamVeraSans-Roman-30"
     id="use5321"
     style="stroke-linecap:butt;stroke-linejoin:round;stroke-miterlimit:100000"
     y="0"
     width="100%"
     height="100%"
     transform="matrix(0.12,0,0,-0.12,646.38184,409.11813)" />
  <g
     style="stroke-linecap:butt;stroke-linejoin:round;stroke-miterlimit:100000"
     id="text_7"
     transform="translate(-28.130661,0)">
    <!-- $K_p$ -->
    <defs
       id="defs5330">
      <path
         style="stroke-linecap:butt;stroke-linejoin:round;stroke-miterlimit:100000"
         inkscape:connector-curvature="0"
         id="Cmmi10-70"
         d="m -2.484375,-19.390625 q -0.9375,0 -0.9375,1.28125 0.34375,2.1875 1.328125,2.1875 3.125,0 4.359375,0.5625 1.25,0.5625 1.9375,2.859375 l 11.28125,45.015625 Q 16.21875,34.375 16.21875,37.3125 q 0,4.296875 -2.9375,4.296875 -3.125,0 -4.640625,-3.75 Q 7.125,34.125 5.71875,28.421875 q 0,-0.640625 -0.828125,-0.640625 l -1.171875,0 q -0.25,0 -0.546875,0.359375 Q 2.875,28.515625 2.875,28.8125 q 1.078125,4.34375 2.078125,7.359375 1,3.03125 3.125,5.515625 2.125,2.5 5.296875,2.5 3.421875,0 6,-1.9375 2.59375,-1.921875 3.328125,-5.234375 Q 25.4375,40.1875 28.75,42.1875 q 3.328125,2 6.84375,2 4.203125,0 7.296875,-2.25 Q 46,39.703125 47.5625,36.0625 q 1.5625,-3.640625 1.5625,-7.84375 0,-6.4375 -3.296875,-13.328125 Q 42.53125,8.015625 36.890625,3.4375 31.25,-1.125 24.8125,-1.125 21.875,-1.125 19.5,0.53125 17.140625,2.203125 15.828125,4.890625 l -4.546875,-17.78125 q -0.25,-1.46875 -0.296875,-1.703125 0,-1.328125 6.59375,-1.328125 1.03125,0 1.03125,-1.265625 -0.34375,-1.3125 -0.5625,-1.75 -0.21875,-0.453125 -1.15625,-0.453125 z M 24.90625,1.515625 q 3.46875,0 6.4375,2.859375 2.984375,2.859375 4.84375,6.421875 1.359375,2.6875 2.546875,6.5625 1.203125,3.875 2.078125,8.265625 0.890625,4.40625 0.890625,7 0,2.28125 -0.609375,4.28125 -0.609375,2.015625 -2,3.359375 -1.390625,1.34375 -3.6875,1.34375 -3.671875,0 -6.921875,-2.625 Q 25.25,36.375 22.609375,32.515625 l 0,-0.34375 -5.515625,-22.0625 Q 17.78125,6.546875 19.734375,4.03125 21.6875,1.515625 24.90625,1.515625" />
      <path
         style="stroke-linecap:butt;stroke-linejoin:round;stroke-miterlimit:100000"
         inkscape:connector-curvature="0"
         id="Cmmi10-4b"
         d="m 4.6875,0 q -0.96875,0 -0.96875,1.3125 0.046875,0.25 0.1875,0.859375 0.140625,0.609375 0.40625,0.96875 0.28125,0.375 0.671875,0.375 6.09375,0 8.5,0.6875 1.3125,0.4375 1.890625,2.6875 L 29.109375,61.8125 q 0.1875,0.984375 0.1875,1.375 0,1.078125 -1.21875,1.21875 -1.859375,0.390625 -7.171875,0.390625 -0.984375,0 -0.984375,1.3125 0.34375,1.28125 0.53125,1.734375 0.203125,0.46875 1.125,0.46875 l 26.90625,0 q 1.03125,0 1.03125,-1.3125 Q 49.46875,66.75 49.3125,66.15625 49.171875,65.578125 48.921875,65.1875 48.6875,64.796875 48.1875,64.796875 q -6.09375,0 -8.484375,-0.6875 Q 38.375,63.625 37.796875,61.375 L 29.6875,29 68.890625,59.28125 q 0.109375,0.1875 1.25,1.328125 1.15625,1.15625 1.15625,2.28125 0,1.90625 -3.375,1.90625 -1.03125,0 -1.03125,1.3125 0.203125,0.78125 0.3125,1.21875 0.125,0.453125 0.4375,0.71875 0.328125,0.265625 0.96875,0.265625 l 19.375,0 q 0.546875,0 0.78125,-0.390625 0.25,-0.390625 0.25,-0.921875 -0.04687,-0.25 -0.21875,-0.890625 -0.171875,-0.625 -0.4375,-0.96875 -0.265625,-0.34375 -0.765625,-0.34375 -7.3125,0 -16.015625,-6.78125 -0.04687,-0.0625 -0.140625,-0.09375 -0.09375,-0.01563 -0.203125,-0.04687 -0.09375,-0.01563 -0.140625,-0.0625 L 50.484375,41.79688 l 15,-35.109375 Q 66.84375,4.5 68.40625,4 q 1.5625,-0.484375 4.78125,-0.484375 1.03125,0 1.03125,-1.3125 Q 73.921875,1.03125 73.625,0.515625 73.34375,0 72.515625,0 L 49.3125,0 q -0.921875,0 -0.921875,1.3125 0.140625,1.03125 0.328125,1.609375 0.203125,0.59375 0.984375,0.59375 2.546875,0 4.328125,0.515625 1.78125,0.515625 1.78125,2.359375 0,0.6875 -0.09375,1.03125 L 43.3125,36.28125 28.71875,25 24.125,6.5 q -0.25,-1.21875 -0.25,-1.421875 0,-1.03125 1.21875,-1.171875 Q 27,3.515625 32.328125,3.515625 q 0.96875,0 0.96875,-1.3125 Q 32.953125,0.78125 32.75,0.390625 32.5625,0 31.59375,0 Z" />
    </defs>
    <g
       style="stroke-linecap:butt;stroke-linejoin:round;stroke-miterlimit:100000"
       id="g5334"
       transform="matrix(0.12,0,0,-0.12,370.38,424.89375)">
      <use
         height="100%"
         width="100%"
         y="0"
         x="0"
         style="stroke-linecap:butt;stroke-linejoin:round;stroke-miterlimit:100000"
         id="use5336"
         xlink:href="#Cmmi10-4b"
         transform="translate(0,0.6875)" />
      <use
         height="100%"
         width="100%"
         y="0"
         x="0"
         style="stroke-linecap:butt;stroke-linejoin:round;stroke-miterlimit:100000"
         id="use5338"
         xlink:href="#Cmmi10-70"
         transform="matrix(0.7,0,0,0.7,84.912109,-16.31875)" />
    </g>
  </g>
  <g
     id="line2d_18"
     style="stroke-linecap:butt;stroke-linejoin:round;stroke-miterlimit:100000"
     transform="translate(-28.130661,0)">
    <defs
       id="defs5343">
      <path
         d="M 0,0 4,0"
         id="mfa3883f0f7"
         style="stroke:#000000;stroke-width:0.5;stroke-linecap:butt;stroke-linejoin:round;stroke-miterlimit:100000"
         inkscape:connector-curvature="0" />
    </defs>
    <g
       id="g5346"
       style="stroke-linecap:butt;stroke-linejoin:round;stroke-miterlimit:100000">
      <use
         style="stroke:#000000;stroke-width:0.5;stroke-linecap:butt;stroke-linejoin:round;stroke-miterlimit:100000"
         x="72"
         xlink:href="#mfa3883f0f7"
         y="396"
         id="use5348"
         width="100%"
         height="100%" />
    </g>
  </g>
  <g
     id="line2d_19"
     style="stroke-linecap:butt;stroke-linejoin:round;stroke-miterlimit:100000"
     transform="translate(-28.130661,0)">
    <defs
       id="defs5351">
      <path
         d="M 0,0 -4,0"
         id="m80750cf86d"
         style="stroke:#000000;stroke-width:0.5;stroke-linecap:butt;stroke-linejoin:round;stroke-miterlimit:100000"
         inkscape:connector-curvature="0" />
    </defs>
    <g
       id="g5354"
       style="stroke-linecap:butt;stroke-linejoin:round;stroke-miterlimit:100000">
      <use
         style="stroke:#000000;stroke-width:0.5;stroke-linecap:butt;stroke-linejoin:round;stroke-miterlimit:100000"
         x="684"
         xlink:href="#m80750cf86d"
         y="396"
         id="use5356"
         width="100%"
         height="100%" />
    </g>
  </g>
  <use
     x="349.90234"
     xlink:href="#BitstreamVeraSans-Roman-31"
     id="use5377"
     style="stroke-linecap:butt;stroke-linejoin:round;stroke-miterlimit:100000"
     y="0"
     width="100%"
     height="100%"
     transform="matrix(0.12,0,0,-0.12,-17.389411,399.31125)" />
  <use
     x="413.52539"
     xlink:href="#BitstreamVeraSans-Roman-36"
     id="use5379"
     style="stroke-linecap:butt;stroke-linejoin:round;stroke-miterlimit:100000"
     y="0"
     width="100%"
     height="100%"
     transform="matrix(0.12,0,0,-0.12,-17.389411,399.31125)" />
  <g
     id="line2d_20"
     style="stroke-linecap:butt;stroke-linejoin:round;stroke-miterlimit:100000"
     transform="translate(-28.130661,0)">
    <g
       id="g5383"
       style="stroke-linecap:butt;stroke-linejoin:round;stroke-miterlimit:100000">
      <use
         style="stroke:#000000;stroke-width:0.5;stroke-linecap:butt;stroke-linejoin:round;stroke-miterlimit:100000"
         x="72"
         xlink:href="#mfa3883f0f7"
         y="336"
         id="use5385"
         width="100%"
         height="100%" />
    </g>
  </g>
  <g
     id="line2d_21"
     style="stroke-linecap:butt;stroke-linejoin:round;stroke-miterlimit:100000"
     transform="translate(-28.130661,0)">
    <g
       id="g5388"
       style="stroke-linecap:butt;stroke-linejoin:round;stroke-miterlimit:100000">
      <use
         style="stroke:#000000;stroke-width:0.5;stroke-linecap:butt;stroke-linejoin:round;stroke-miterlimit:100000"
         x="684"
         xlink:href="#m80750cf86d"
         y="336"
         id="use5390"
         width="100%"
         height="100%" />
    </g>
  </g>
  <use
     x="349.90234"
     xlink:href="#BitstreamVeraSans-Roman-31"
     id="use5410"
     style="stroke-linecap:butt;stroke-linejoin:round;stroke-miterlimit:100000"
     y="0"
     width="100%"
     height="100%"
     transform="matrix(0.12,0,0,-0.12,-17.389411,339.31125)" />
  <use
     x="413.52539"
     xlink:href="#BitstreamVeraSans-Roman-37"
     id="use5412"
     style="stroke-linecap:butt;stroke-linejoin:round;stroke-miterlimit:100000"
     y="0"
     width="100%"
     height="100%"
     transform="matrix(0.12,0,0,-0.12,-17.389411,339.31125)" />
  <g
     id="line2d_22"
     style="stroke-linecap:butt;stroke-linejoin:round;stroke-miterlimit:100000"
     transform="translate(-28.130661,0)">
    <g
       id="g5416"
       style="stroke-linecap:butt;stroke-linejoin:round;stroke-miterlimit:100000">
      <use
         style="stroke:#000000;stroke-width:0.5;stroke-linecap:butt;stroke-linejoin:round;stroke-miterlimit:100000"
         x="72"
         xlink:href="#mfa3883f0f7"
         y="276"
         id="use5418"
         width="100%"
         height="100%" />
    </g>
  </g>
  <g
     id="line2d_23"
     style="stroke-linecap:butt;stroke-linejoin:round;stroke-miterlimit:100000"
     transform="translate(-28.130661,0)">
    <g
       id="g5421"
       style="stroke-linecap:butt;stroke-linejoin:round;stroke-miterlimit:100000">
      <use
         style="stroke:#000000;stroke-width:0.5;stroke-linecap:butt;stroke-linejoin:round;stroke-miterlimit:100000"
         x="684"
         xlink:href="#m80750cf86d"
         y="276"
         id="use5423"
         width="100%"
         height="100%" />
    </g>
  </g>
  <use
     x="349.90234"
     xlink:href="#BitstreamVeraSans-Roman-31"
     id="use5443"
     style="stroke-linecap:butt;stroke-linejoin:round;stroke-miterlimit:100000"
     y="0"
     width="100%"
     height="100%"
     transform="matrix(0.12,0,0,-0.12,-17.389411,279.31125)" />
  <use
     x="413.52539"
     xlink:href="#BitstreamVeraSans-Roman-38"
     id="use5445"
     style="stroke-linecap:butt;stroke-linejoin:round;stroke-miterlimit:100000"
     y="0"
     width="100%"
     height="100%"
     transform="matrix(0.12,0,0,-0.12,-17.389411,279.31125)" />
  <g
     id="line2d_24"
     style="stroke-linecap:butt;stroke-linejoin:round;stroke-miterlimit:100000"
     transform="translate(-28.130661,0)">
    <g
       id="g5449"
       style="stroke-linecap:butt;stroke-linejoin:round;stroke-miterlimit:100000">
      <use
         style="stroke:#000000;stroke-width:0.5;stroke-linecap:butt;stroke-linejoin:round;stroke-miterlimit:100000"
         x="72"
         xlink:href="#mfa3883f0f7"
         y="216"
         id="use5451"
         width="100%"
         height="100%" />
    </g>
  </g>
  <g
     id="line2d_25"
     style="stroke-linecap:butt;stroke-linejoin:round;stroke-miterlimit:100000"
     transform="translate(-28.130661,0)">
    <g
       id="g5454"
       style="stroke-linecap:butt;stroke-linejoin:round;stroke-miterlimit:100000">
      <use
         style="stroke:#000000;stroke-width:0.5;stroke-linecap:butt;stroke-linejoin:round;stroke-miterlimit:100000"
         x="684"
         xlink:href="#m80750cf86d"
         y="216"
         id="use5456"
         width="100%"
         height="100%" />
    </g>
  </g>
  <use
     x="349.90234"
     xlink:href="#BitstreamVeraSans-Roman-31"
     id="use5476"
     style="stroke-linecap:butt;stroke-linejoin:round;stroke-miterlimit:100000"
     y="0"
     width="100%"
     height="100%"
     transform="matrix(0.12,0,0,-0.12,-17.389411,219.31125)" />
  <use
     x="413.52539"
     xlink:href="#BitstreamVeraSans-Roman-39"
     id="use5478"
     style="stroke-linecap:butt;stroke-linejoin:round;stroke-miterlimit:100000"
     y="0"
     width="100%"
     height="100%"
     transform="matrix(0.12,0,0,-0.12,-17.389411,219.31125)" />
  <g
     id="line2d_26"
     style="stroke-linecap:butt;stroke-linejoin:round;stroke-miterlimit:100000"
     transform="translate(-28.130661,0)">
    <g
       id="g5482"
       style="stroke-linecap:butt;stroke-linejoin:round;stroke-miterlimit:100000">
      <use
         style="stroke:#000000;stroke-width:0.5;stroke-linecap:butt;stroke-linejoin:round;stroke-miterlimit:100000"
         x="72"
         xlink:href="#mfa3883f0f7"
         y="156"
         id="use5484"
         width="100%"
         height="100%" />
    </g>
  </g>
  <g
     id="line2d_27"
     style="stroke-linecap:butt;stroke-linejoin:round;stroke-miterlimit:100000"
     transform="translate(-28.130661,0)">
    <g
       id="g5487"
       style="stroke-linecap:butt;stroke-linejoin:round;stroke-miterlimit:100000">
      <use
         style="stroke:#000000;stroke-width:0.5;stroke-linecap:butt;stroke-linejoin:round;stroke-miterlimit:100000"
         x="684"
         xlink:href="#m80750cf86d"
         y="156"
         id="use5489"
         width="100%"
         height="100%" />
    </g>
  </g>
  <use
     x="349.90234"
     xlink:href="#BitstreamVeraSans-Roman-32"
     id="use5506"
     style="stroke-linecap:butt;stroke-linejoin:round;stroke-miterlimit:100000"
     y="0"
     width="100%"
     height="100%"
     transform="matrix(0.12,0,0,-0.12,-17.389411,159.31125)" />
  <use
     x="413.52539"
     xlink:href="#BitstreamVeraSans-Roman-30"
     id="use5508"
     style="stroke-linecap:butt;stroke-linejoin:round;stroke-miterlimit:100000"
     y="0"
     width="100%"
     height="100%"
     transform="matrix(0.12,0,0,-0.12,-17.389411,159.31125)" />
  <g
     id="line2d_28"
     style="stroke-linecap:butt;stroke-linejoin:round;stroke-miterlimit:100000"
     transform="translate(-28.130661,0)">
    <g
       id="g5512"
       style="stroke-linecap:butt;stroke-linejoin:round;stroke-miterlimit:100000">
      <use
         style="stroke:#000000;stroke-width:0.5;stroke-linecap:butt;stroke-linejoin:round;stroke-miterlimit:100000"
         x="72"
         xlink:href="#mfa3883f0f7"
         y="96"
         id="use5514"
         width="100%"
         height="100%" />
    </g>
  </g>
  <g
     id="line2d_29"
     style="stroke-linecap:butt;stroke-linejoin:round;stroke-miterlimit:100000"
     transform="translate(-28.130661,0)">
    <g
       id="g5517"
       style="stroke-linecap:butt;stroke-linejoin:round;stroke-miterlimit:100000">
      <use
         style="stroke:#000000;stroke-width:0.5;stroke-linecap:butt;stroke-linejoin:round;stroke-miterlimit:100000"
         x="684"
         xlink:href="#m80750cf86d"
         y="96"
         id="use5519"
         width="100%"
         height="100%" />
    </g>
  </g>
  <use
     x="349.90234"
     xlink:href="#BitstreamVeraSans-Roman-32"
     id="use5536"
     style="stroke-linecap:butt;stroke-linejoin:round;stroke-miterlimit:100000"
     y="0"
     width="100%"
     height="100%"
     transform="matrix(0.12,0,0,-0.12,-17.389411,99.31125)" />
  <use
     x="413.52539"
     xlink:href="#BitstreamVeraSans-Roman-31"
     id="use5538"
     style="stroke-linecap:butt;stroke-linejoin:round;stroke-miterlimit:100000"
     y="0"
     width="100%"
     height="100%"
     transform="matrix(0.12,0,0,-0.12,-17.389411,99.31125)" />
  <g
     id="line2d_30"
     style="stroke-linecap:butt;stroke-linejoin:round;stroke-miterlimit:100000"
     transform="translate(-28.130661,0)">
    <g
       id="g5542"
       style="stroke-linecap:butt;stroke-linejoin:round;stroke-miterlimit:100000">
      <use
         style="stroke:#000000;stroke-width:0.5;stroke-linecap:butt;stroke-linejoin:round;stroke-miterlimit:100000"
         x="72"
         xlink:href="#mfa3883f0f7"
         y="36"
         id="use5544"
         width="100%"
         height="100%" />
    </g>
  </g>
  <g
     id="line2d_31"
     style="stroke-linecap:butt;stroke-linejoin:round;stroke-miterlimit:100000"
     transform="translate(-28.130661,0)">
    <g
       id="g5547"
       style="stroke-linecap:butt;stroke-linejoin:round;stroke-miterlimit:100000">
      <use
         style="stroke:#000000;stroke-width:0.5;stroke-linecap:butt;stroke-linejoin:round;stroke-miterlimit:100000"
         x="684"
         xlink:href="#m80750cf86d"
         y="36"
         id="use5549"
         width="100%"
         height="100%" />
    </g>
  </g>
  <use
     x="349.90234"
     xlink:href="#BitstreamVeraSans-Roman-32"
     id="use5566"
     style="stroke-linecap:butt;stroke-linejoin:round;stroke-miterlimit:100000"
     y="0"
     width="100%"
     height="100%"
     transform="matrix(0.12,0,0,-0.12,-17.389411,39.31125)" />
  <use
     x="413.52539"
     xlink:href="#BitstreamVeraSans-Roman-32"
     id="use5568"
     style="stroke-linecap:butt;stroke-linejoin:round;stroke-miterlimit:100000"
     y="0"
     width="100%"
     height="100%"
     transform="matrix(0.12,0,0,-0.12,-17.389411,39.31125)" />
  <g
     style="stroke-linecap:butt;stroke-linejoin:round;stroke-miterlimit:100000"
     id="text_15"
     transform="translate(13.704681,2.163897)">
    <!-- $R$ -->
    <defs
       id="defs5571">
      <path
         style="stroke-linecap:butt;stroke-linejoin:round;stroke-miterlimit:100000"
         inkscape:connector-curvature="0"
         id="Cmmi10-52"
         d="M 4.890625,0 Q 3.90625,0 3.90625,1.3125 q 0.046875,0.25 0.1875,0.859375 0.15625,0.609375 0.421875,0.96875 0.265625,0.375 0.65625,0.375 6.109375,0 8.546875,0.6875 1.265625,0.4375 1.859375,2.6875 L 29.296875,61.8125 Q 29.5,62.796875 29.5,63.1875 q 0,1.078125 -1.171875,1.21875 -1.90625,0.390625 -7.234375,0.390625 -0.96875,0 -0.96875,1.3125 0.04687,0.25 0.1875,0.859375 0.140625,0.609375 0.40625,0.96875 0.28125,0.375 0.671875,0.375 l 30.3125,0 q 3.625,0 7.53125,-0.828125 3.90625,-0.828125 7.171875,-2.609375 3.265625,-1.78125 5.359375,-4.75 2.109375,-2.953125 2.109375,-6.90625 0,-5.03125 -3.328125,-8.984375 -3.3125,-3.953125 -8.390625,-6.609375 -5.078125,-2.65625 -9.859375,-3.734375 3.90625,-1.421875 6.390625,-4.53125 2.5,-3.09375 2.5,-7.140625 0,-0.53125 -0.03125,-0.8125 -0.01563,-0.265625 -0.07813,-0.609375 l -0.78125,-8.875 Q 60.20312,9.96875 60.10937,8.59375 60.01562,7.234375 60.01562,6.390625 q 0,-2.734375 0.796875,-4.375 0.8125,-1.625 3.203125,-1.625 3.125,0 5.484375,2.90625 2.375,2.90625 3.109375,6.328125 0.4375,0.875 0.96875,0.875 l 0.9375,0 q 0.96875,0 0.96875,-1.3125 Q 74.75,6.296875 73.15625,3.703125 71.578125,1.125 69.15625,-0.53125 66.75,-2.203125 63.921875,-2.203125 q -5.859375,0 -9.984375,2.609375 -4.125,2.625 -4.125,8.1875 0,2.09375 0.390625,3.71875 l 2.1875,8.875 q 0.390625,1.21875 0.390625,2.84375 0,4.140625 -2.8125,6.5 -2.796875,2.375 -7.046875,2.375 l -12.3125,0 L 24.03125,6.5 q -0.25,-0.828125 -0.25,-1.421875 0,-1.03125 1.21875,-1.171875 1.90625,-0.390625 7.171875,-0.390625 1.03125,0 1.03125,-1.3125 Q 32.859375,0.78125 32.65625,0.390625 32.46875,0 31.5,0 Z m 26.3125,35.5 11.078125,0 q 10.890625,0 16.40625,5.515625 2.546875,2.546875 4.03125,6.46875 1.484375,3.9375 1.484375,7.84375 0,3.703125 -2.171875,5.796875 -2.171875,2.109375 -5.375,2.890625 -3.1875,0.78125 -7.046875,0.78125 l -6.6875,0 q -2.734375,0 -3.625,-0.46875 -0.875,-0.453125 -1.59375,-2.953125 z" />
    </defs>
    <g
       style="stroke-linecap:butt;stroke-linejoin:round;stroke-miterlimit:100000"
       id="g5574"
       transform="matrix(0,-0.12,-0.12,0,3.245625,220.56)">
      <use
         height="100%"
         width="100%"
         y="0"
         x="0"
         style="stroke-linecap:butt;stroke-linejoin:round;stroke-miterlimit:100000"
         id="use5576"
         xlink:href="#Cmmi10-52"
         transform="translate(0,0.6875)" />
    </g>
  </g>
  <defs
     id="defs5578">
    <clipPath
       id="p045aaa6a7d"
       style="stroke-linecap:butt;stroke-linejoin:round;stroke-miterlimit:100000">
      <rect
         height="360"
         width="612"
         x="72"
         y="36"
         id="rect5581"
         style="stroke-linecap:butt;stroke-linejoin:round;stroke-miterlimit:100000" />
    </clipPath>
  </defs>
  <path
     inkscape:connector-curvature="0"
     id="path5608"
     style="fill:none;stroke:#ff0000;stroke-linecap:square;stroke-linejoin:round;stroke-miterlimit:100000"
     d="m 381.83786,276.19476 -0.13295,-2.96489 -0.38623,-3.24569 -0.68544,-3.82124 -1.03495,-4.47565 -1.44295,-5.22328 -1.97879,-6.25139 -2.42759,-6.88782 -3.31158,-8.56957 -3.42854,-8.20327 -4.83069,-10.73576 -8.17491,-16.53097 -4.56958,-8.51208 -4.64981,-8.19854 -4.7627,-7.9536 -4.85653,-7.67937 -4.8375,-7.24487 -4.96262,-7.03667 -9.12284,-11.95427 -3.7291,-4.53792 -11.56539,-12.86162 -4.93679,-4.94604 -4.85246,-4.54846 -1.23352,-1.10674 -4.7083,-4.0388 -4.59679,-3.65626 -0.58072,-0.44134 -4.45671,-3.22846 -4.28807,-2.838528 -4.10039,-2.452119 -3.93856,-2.104525 -0.8092,-0.399745 -3.72776,-1.695679 -0.57935,-0.240719 -1.05536,-0.422936 -3.48976,-1.244345 -3.28032,-0.940081 -1.2444,-0.294906 -1.20904,-0.252639 -3.05864,-0.482671 -4.95176,-0.267052 -2.72816,0.150917 -2.64384,0.36758 -2.57992,0.582981 -2.5228,0.799168 -1.55448,0.610676 -0.9996,0.441566 -2.02096,1.014802 -2.48471,1.473923 -2.53096,1.762516 -2.59487,2.083042 -2.70503,2.461343 -2.90767,2.952871 -3.20279,3.57982 -3.78622,4.58032 -5.25638,6.74329 -10.64195,13.70192 -4.32071,5.21724 -1.36135,1.58243 -4.43903,4.94084 -4.31527,4.47165 -4.28399,4.12012 -4.31119,3.83946 -0.57256,0.4875 -4.38056,3.56594 -6.53615,4.81676 -11.00919,6.92481 -5.0728,2.75811 -5.33936,2.64925 -5.55968,2.50825 -8.04439,3.23206 -6.2492,2.22316 -6.59328,2.10771 -6.970003,1.99215 -7.38752,1.87697 -7.87576,1.76933 -8.34088,1.6438 -0.66504,0.12166 -0.72216,0.13102 L 72,194.40475 l 0,0"
     clip-path="url(#p7ad77354b9)"
     transform="translate(-28.133126,-0.94295783)" />
</svg>
