<?xml version="1.0" encoding="utf-8" standalone="no"?>
<!DOCTYPE svg PUBLIC "-//W3C//DTD SVG 1.1//EN"
  "http://www.w3.org/Graphics/SVG/1.1/DTD/svg11.dtd">
<!-- Created with matplotlib (http://matplotlib.org/) -->
<svg height="432pt" version="1.1" viewBox="0 0 720 432" width="720pt" xmlns="http://www.w3.org/2000/svg" xmlns:xlink="http://www.w3.org/1999/xlink">
 <defs>
  <style type="text/css">
*{stroke-linecap:butt;stroke-linejoin:round;stroke-miterlimit:100000;}
  </style>
 </defs>
 <g id="figure_1">
  <g id="patch_1">
   <path d="M 0 432 
L 720 432 
L 720 0 
L 0 0 
z
" style="fill:#ffffff;"/>
  </g>
  <g id="axes_1">
   <g id="patch_2">
    <path d="M 72 396 
L 684 396 
L 684 36 
L 72 36 
z
" style="fill:#ffffff;"/>
   </g>
   <g id="line2d_1">
    <path clip-path="url(#p11ac32f897)" d="M 72 212.939563 
L 82.167814 211.638623 
L 91.418534 210.234196 
L 99.877735 208.728083 
L 107.644695 207.122313 
L 114.803735 205.418062 
L 121.428294 203.615119 
L 127.572774 201.714886 
L 133.286133 199.717674 
L 138.613251 197.622171 
L 143.58949 195.427816 
L 148.247488 193.13264 
L 152.614445 190.7347 
L 156.716202 188.230219 
L 160.573159 185.616119 
L 164.208434 182.884723 
L 167.635629 180.032566 
L 170.873783 177.049182 
L 173.936496 173.925444 
L 176.836008 170.650585 
L 179.583197 167.212189 
L 182.190305 163.59231 
L 184.66685 159.77216 
L 187.023712 155.725999 
L 189.27041 151.424537 
L 191.419182 146.826614 
L 193.486346 141.872701 
L 195.493659 136.477047 
L 197.479197 130.490989 
L 199.527269 123.59039 
L 201.915286 114.712095 
L 206.676266 96.806664 
L 208.399259 91.350609 
L 209.969962 87.093555 
L 211.493087 83.592127 
L 213.014868 80.639838 
L 214.561142 78.11673 
L 216.152305 75.939875 
L 217.803317 74.053754 
L 219.530496 72.415663 
L 221.3488 70.996172 
L 223.277268 69.772496 
L 225.33358 68.731523 
L 227.539494 67.865228 
L 229.916771 67.172331 
L 232.48717 66.657006 
L 235.271089 66.328146 
L 238.287569 66.198413 
L 241.54885 66.283411 
L 245.061729 66.600028 
L 248.822128 67.164636 
L 252.816446 67.991408 
L 257.020201 69.090586 
L 261.398035 70.466781 
L 265.911866 72.120244 
L 270.519536 74.046003 
L 275.184323 76.237469 
L 279.876308 78.688107 
L 284.572371 81.392483 
L 289.253473 84.345446 
L 293.912813 87.548222 
L 298.549032 91.005854 
L 303.16077 94.723628 
L 307.756186 98.71505 
L 312.346162 102.997791 
L 316.944296 107.594149 
L 321.56555 112.530006 
L 326.237122 117.847502 
L 330.983493 123.590031 
L 335.841383 129.819965 
L 340.861112 136.623396 
L 346.106598 144.112484 
L 351.682563 152.467576 
L 357.759004 161.982075 
L 364.675919 173.239138 
L 373.401624 187.891588 
L 378.449626 196.494188 
L 378.449626 196.494188 
" style="fill:none;stroke:#000000;stroke-linecap:square;"/>
   </g>
   <g id="line2d_2">
    <path clip-path="url(#p11ac32f897)" d="M 378.449626 196.494188 
L 395.134003 224.773255 
L 403.038275 237.700495 
L 409.789275 248.324231 
L 415.911957 257.55188 
L 421.621203 265.760323 
L 427.028529 273.150685 
L 432.207377 279.85687 
L 437.202625 285.965725 
L 442.050993 291.547543 
L 446.783762 296.660445 
L 451.42269 301.347559 
L 455.990899 305.649784 
L 460.510146 309.602839 
L 465.002194 313.238738 
L 469.4888 316.585884 
L 473.993086 319.670138 
L 478.53953 322.514675 
L 482.630563 324.854938 
L 482.630563 324.854938 
" style="fill:none;stroke:#000000;stroke-dasharray:6.000000,6.000000;stroke-dashoffset:0.0;"/>
   </g>
   <g id="line2d_3">
    <path clip-path="url(#p11ac32f897)" d="M 482.630563 324.854938 
L 487.329325 327.301172 
L 492.151846 329.560846 
L 497.130764 331.647736 
L 502.309601 333.576364 
L 507.731875 335.357014 
L 513.449266 336.998895 
L 519.525693 338.510524 
L 526.034597 339.898247 
L 533.069815 341.167969 
L 540.742867 342.323481 
L 549.188393 343.366851 
L 558.602229 344.301513 
L 569.221013 345.127502 
L 581.388823 345.845422 
L 595.593894 346.454617 
L 612.626376 346.955118 
L 633.806817 347.345962 
L 661.817108 347.627318 
L 684 347.742184 
L 684 347.742184 
" style="fill:none;stroke:#000000;stroke-linecap:square;"/>
   </g>
   <g id="line2d_4">
    <path clip-path="url(#p11ac32f897)" d="M 378.449626 196.494188 
L 378.449881 195.960199 
" style="fill:none;stroke:#ff0000;stroke-linecap:square;"/>
   </g>
   <g id="line2d_5">
    <path clip-path="url(#p11ac32f897)" d="M 378.449881 195.960199 
L 378.450537 196.495744 
L 378.450537 196.495744 
" style="fill:none;stroke:#ff0000;stroke-dasharray:6.000000,6.000000;stroke-dashoffset:0.0;"/>
   </g>
   <g id="line2d_6">
    <path clip-path="url(#p11ac32f897)" d="M 482.630563 324.854938 
L 482.493988 323.363823 
L 482.090073 321.658324 
L 481.34888 319.534429 
L 480.15889 316.830231 
L 478.366423 313.338733 
L 475.763403 308.781041 
L 472.03975 302.734203 
L 466.918025 294.855891 
L 459.719594 284.216096 
L 434.339438 247.050304 
L 427.461961 236.383782 
L 420.993842 225.940742 
L 414.720202 215.380126 
L 408.107924 203.790329 
L 398.675025 186.765373 
L 394.187055 178.716638 
L 392.616266 175.937756 
L 386.596948 165.569872 
L 382.904576 159.648217 
L 381.642506 157.99309 
L 381.094432 157.593802 
L 380.787076 157.609759 
L 380.539559 157.855225 
L 380.307004 158.338947 
L 379.968371 159.584856 
L 379.580782 161.833128 
L 379.157839 165.650748 
L 378.870902 170.354875 
L 378.70232 176.964693 
L 378.449626 196.488143 
L 378.702195 176.973382 
L 378.702195 176.973382 
L 378.946928 168.740359 
L 379.305947 164.081408 
L 379.771052 160.613116 
L 380.25112 158.501806 
L 380.611513 157.757561 
L 380.894389 157.574834 
L 381.200386 157.638549 
L 381.638302 157.991727 
L 382.482854 159.042693 
L 384.471159 162.074553 
L 387.282258 166.720753 
L 394.33517 178.977853 
L 403.120711 194.813599 
L 408.538916 204.557448 
L 410.233465 207.561973 
L 416.655344 218.685343 
L 422.760346 228.836491 
L 429.344065 239.344557 
L 436.240581 249.929821 
L 444.237331 261.787217 
L 458.734836 282.783611 
L 461.16514 286.327115 
L 468.573009 297.363304 
L 473.686573 305.36197 
L 477.226627 311.292724 
L 479.563089 315.61831 
L 481.167877 319.086635 
L 482.040989 321.494533 
L 482.493863 323.363078 
L 482.629855 324.755151 
L 482.631212 324.855293 
L 482.631212 324.855293 
" style="fill:none;stroke:#008000;stroke-linecap:square;"/>
   </g>
   <g id="line2d_7">
    <defs>
     <path d="M -3 3 
L 3 3 
L 3 -3 
L -3 -3 
z
" id="m343c06296a" style="stroke:#000000;stroke-linejoin:miter;stroke-width:0.5;"/>
    </defs>
    <g clip-path="url(#p11ac32f897)">
     <use style="fill:#ff0000;stroke:#000000;stroke-linejoin:miter;stroke-width:0.5;" x="378.449625905" xlink:href="#m343c06296a" y="196.494188256"/>
    </g>
   </g>
   <g id="line2d_8">
    <g clip-path="url(#p11ac32f897)">
     <use style="fill:#ff0000;stroke:#000000;stroke-linejoin:miter;stroke-width:0.5;" x="482.630563091" xlink:href="#m343c06296a" y="324.854938128"/>
    </g>
   </g>
   <g id="patch_3">
    <path d="M 72 36 
L 684 36 
" style="fill:none;stroke:#000000;stroke-linecap:square;stroke-linejoin:miter;"/>
   </g>
   <g id="patch_4">
    <path d="M 684 396 
L 684 36 
" style="fill:none;stroke:#000000;stroke-linecap:square;stroke-linejoin:miter;"/>
   </g>
   <g id="patch_5">
    <path d="M 72 396 
L 684 396 
" style="fill:none;stroke:#000000;stroke-linecap:square;stroke-linejoin:miter;"/>
   </g>
   <g id="patch_6">
    <path d="M 72 396 
L 72 36 
" style="fill:none;stroke:#000000;stroke-linecap:square;stroke-linejoin:miter;"/>
   </g>
   <g id="matplotlib.axis_1">
    <g id="xtick_1">
     <g id="line2d_9">
      <defs>
       <path d="M 0 0 
L 0 -4 
" id="m52219ed54d" style="stroke:#000000;stroke-width:0.5;"/>
      </defs>
      <g>
       <use style="stroke:#000000;stroke-width:0.5;" x="117.333333333" xlink:href="#m52219ed54d" y="396.0"/>
      </g>
     </g>
     <g id="line2d_10">
      <defs>
       <path d="M 0 0 
L 0 4 
" id="mc475fcedbc" style="stroke:#000000;stroke-width:0.5;"/>
      </defs>
      <g>
       <use style="stroke:#000000;stroke-width:0.5;" x="117.333333333" xlink:href="#mc475fcedbc" y="36.0"/>
      </g>
     </g>
     <g id="text_1">
      <!-- 5000 -->
      <defs>
       <path d="M 31.78125 66.40625 
Q 24.171875 66.40625 20.328125 58.90625 
Q 16.5 51.421875 16.5 36.375 
Q 16.5 21.390625 20.328125 13.890625 
Q 24.171875 6.390625 31.78125 6.390625 
Q 39.453125 6.390625 43.28125 13.890625 
Q 47.125 21.390625 47.125 36.375 
Q 47.125 51.421875 43.28125 58.90625 
Q 39.453125 66.40625 31.78125 66.40625 
M 31.78125 74.21875 
Q 44.046875 74.21875 50.515625 64.515625 
Q 56.984375 54.828125 56.984375 36.375 
Q 56.984375 17.96875 50.515625 8.265625 
Q 44.046875 -1.421875 31.78125 -1.421875 
Q 19.53125 -1.421875 13.0625 8.265625 
Q 6.59375 17.96875 6.59375 36.375 
Q 6.59375 54.828125 13.0625 64.515625 
Q 19.53125 74.21875 31.78125 74.21875 
" id="BitstreamVeraSans-Roman-30"/>
       <path d="M 10.796875 72.90625 
L 49.515625 72.90625 
L 49.515625 64.59375 
L 19.828125 64.59375 
L 19.828125 46.734375 
Q 21.96875 47.46875 24.109375 47.828125 
Q 26.265625 48.1875 28.421875 48.1875 
Q 40.625 48.1875 47.75 41.5 
Q 54.890625 34.8125 54.890625 23.390625 
Q 54.890625 11.625 47.5625 5.09375 
Q 40.234375 -1.421875 26.90625 -1.421875 
Q 22.3125 -1.421875 17.546875 -0.640625 
Q 12.796875 0.140625 7.71875 1.703125 
L 7.71875 11.625 
Q 12.109375 9.234375 16.796875 8.0625 
Q 21.484375 6.890625 26.703125 6.890625 
Q 35.15625 6.890625 40.078125 11.328125 
Q 45.015625 15.765625 45.015625 23.390625 
Q 45.015625 31 40.078125 35.4375 
Q 35.15625 39.890625 26.703125 39.890625 
Q 22.75 39.890625 18.8125 39.015625 
Q 14.890625 38.140625 10.796875 36.28125 
z
" id="BitstreamVeraSans-Roman-35"/>
      </defs>
      <g transform="translate(102.063333333 409.118125)scale(0.12 -0.12)">
       <use xlink:href="#BitstreamVeraSans-Roman-35"/>
       <use x="63.623046875" xlink:href="#BitstreamVeraSans-Roman-30"/>
       <use x="127.24609375" xlink:href="#BitstreamVeraSans-Roman-30"/>
       <use x="190.869140625" xlink:href="#BitstreamVeraSans-Roman-30"/>
      </g>
     </g>
    </g>
    <g id="xtick_2">
     <g id="line2d_11">
      <g>
       <use style="stroke:#000000;stroke-width:0.5;" x="230.666666667" xlink:href="#m52219ed54d" y="396.0"/>
      </g>
     </g>
     <g id="line2d_12">
      <g>
       <use style="stroke:#000000;stroke-width:0.5;" x="230.666666667" xlink:href="#mc475fcedbc" y="36.0"/>
      </g>
     </g>
     <g id="text_2">
      <!-- 10000 -->
      <defs>
       <path d="M 12.40625 8.296875 
L 28.515625 8.296875 
L 28.515625 63.921875 
L 10.984375 60.40625 
L 10.984375 69.390625 
L 28.421875 72.90625 
L 38.28125 72.90625 
L 38.28125 8.296875 
L 54.390625 8.296875 
L 54.390625 0 
L 12.40625 0 
z
" id="BitstreamVeraSans-Roman-31"/>
      </defs>
      <g transform="translate(211.579166667 409.118125)scale(0.12 -0.12)">
       <use xlink:href="#BitstreamVeraSans-Roman-31"/>
       <use x="63.623046875" xlink:href="#BitstreamVeraSans-Roman-30"/>
       <use x="127.24609375" xlink:href="#BitstreamVeraSans-Roman-30"/>
       <use x="190.869140625" xlink:href="#BitstreamVeraSans-Roman-30"/>
       <use x="254.4921875" xlink:href="#BitstreamVeraSans-Roman-30"/>
      </g>
     </g>
    </g>
    <g id="xtick_3">
     <g id="line2d_13">
      <g>
       <use style="stroke:#000000;stroke-width:0.5;" x="344.0" xlink:href="#m52219ed54d" y="396.0"/>
      </g>
     </g>
     <g id="line2d_14">
      <g>
       <use style="stroke:#000000;stroke-width:0.5;" x="344.0" xlink:href="#mc475fcedbc" y="36.0"/>
      </g>
     </g>
     <g id="text_3">
      <!-- 15000 -->
      <g transform="translate(324.9125 409.118125)scale(0.12 -0.12)">
       <use xlink:href="#BitstreamVeraSans-Roman-31"/>
       <use x="63.623046875" xlink:href="#BitstreamVeraSans-Roman-35"/>
       <use x="127.24609375" xlink:href="#BitstreamVeraSans-Roman-30"/>
       <use x="190.869140625" xlink:href="#BitstreamVeraSans-Roman-30"/>
       <use x="254.4921875" xlink:href="#BitstreamVeraSans-Roman-30"/>
      </g>
     </g>
    </g>
    <g id="xtick_4">
     <g id="line2d_15">
      <g>
       <use style="stroke:#000000;stroke-width:0.5;" x="457.333333333" xlink:href="#m52219ed54d" y="396.0"/>
      </g>
     </g>
     <g id="line2d_16">
      <g>
       <use style="stroke:#000000;stroke-width:0.5;" x="457.333333333" xlink:href="#mc475fcedbc" y="36.0"/>
      </g>
     </g>
     <g id="text_4">
      <!-- 20000 -->
      <defs>
       <path d="M 19.1875 8.296875 
L 53.609375 8.296875 
L 53.609375 0 
L 7.328125 0 
L 7.328125 8.296875 
Q 12.9375 14.109375 22.625 23.890625 
Q 32.328125 33.6875 34.8125 36.53125 
Q 39.546875 41.84375 41.421875 45.53125 
Q 43.3125 49.21875 43.3125 52.78125 
Q 43.3125 58.59375 39.234375 62.25 
Q 35.15625 65.921875 28.609375 65.921875 
Q 23.96875 65.921875 18.8125 64.3125 
Q 13.671875 62.703125 7.8125 59.421875 
L 7.8125 69.390625 
Q 13.765625 71.78125 18.9375 73 
Q 24.125 74.21875 28.421875 74.21875 
Q 39.75 74.21875 46.484375 68.546875 
Q 53.21875 62.890625 53.21875 53.421875 
Q 53.21875 48.921875 51.53125 44.890625 
Q 49.859375 40.875 45.40625 35.40625 
Q 44.1875 33.984375 37.640625 27.21875 
Q 31.109375 20.453125 19.1875 8.296875 
" id="BitstreamVeraSans-Roman-32"/>
      </defs>
      <g transform="translate(438.245833333 409.118125)scale(0.12 -0.12)">
       <use xlink:href="#BitstreamVeraSans-Roman-32"/>
       <use x="63.623046875" xlink:href="#BitstreamVeraSans-Roman-30"/>
       <use x="127.24609375" xlink:href="#BitstreamVeraSans-Roman-30"/>
       <use x="190.869140625" xlink:href="#BitstreamVeraSans-Roman-30"/>
       <use x="254.4921875" xlink:href="#BitstreamVeraSans-Roman-30"/>
      </g>
     </g>
    </g>
    <g id="xtick_5">
     <g id="line2d_17">
      <g>
       <use style="stroke:#000000;stroke-width:0.5;" x="570.666666667" xlink:href="#m52219ed54d" y="396.0"/>
      </g>
     </g>
     <g id="line2d_18">
      <g>
       <use style="stroke:#000000;stroke-width:0.5;" x="570.666666667" xlink:href="#mc475fcedbc" y="36.0"/>
      </g>
     </g>
     <g id="text_5">
      <!-- 25000 -->
      <g transform="translate(551.579166667 409.118125)scale(0.12 -0.12)">
       <use xlink:href="#BitstreamVeraSans-Roman-32"/>
       <use x="63.623046875" xlink:href="#BitstreamVeraSans-Roman-35"/>
       <use x="127.24609375" xlink:href="#BitstreamVeraSans-Roman-30"/>
       <use x="190.869140625" xlink:href="#BitstreamVeraSans-Roman-30"/>
       <use x="254.4921875" xlink:href="#BitstreamVeraSans-Roman-30"/>
      </g>
     </g>
    </g>
    <g id="xtick_6">
     <g id="line2d_19">
      <g>
       <use style="stroke:#000000;stroke-width:0.5;" x="684.0" xlink:href="#m52219ed54d" y="396.0"/>
      </g>
     </g>
     <g id="line2d_20">
      <g>
       <use style="stroke:#000000;stroke-width:0.5;" x="684.0" xlink:href="#mc475fcedbc" y="36.0"/>
      </g>
     </g>
     <g id="text_6">
      <!-- 30000 -->
      <defs>
       <path d="M 40.578125 39.3125 
Q 47.65625 37.796875 51.625 33 
Q 55.609375 28.21875 55.609375 21.1875 
Q 55.609375 10.40625 48.1875 4.484375 
Q 40.765625 -1.421875 27.09375 -1.421875 
Q 22.515625 -1.421875 17.65625 -0.515625 
Q 12.796875 0.390625 7.625 2.203125 
L 7.625 11.71875 
Q 11.71875 9.328125 16.59375 8.109375 
Q 21.484375 6.890625 26.8125 6.890625 
Q 36.078125 6.890625 40.9375 10.546875 
Q 45.796875 14.203125 45.796875 21.1875 
Q 45.796875 27.640625 41.28125 31.265625 
Q 36.765625 34.90625 28.71875 34.90625 
L 20.21875 34.90625 
L 20.21875 43.015625 
L 29.109375 43.015625 
Q 36.375 43.015625 40.234375 45.921875 
Q 44.09375 48.828125 44.09375 54.296875 
Q 44.09375 59.90625 40.109375 62.90625 
Q 36.140625 65.921875 28.71875 65.921875 
Q 24.65625 65.921875 20.015625 65.03125 
Q 15.375 64.15625 9.8125 62.3125 
L 9.8125 71.09375 
Q 15.4375 72.65625 20.34375 73.4375 
Q 25.25 74.21875 29.59375 74.21875 
Q 40.828125 74.21875 47.359375 69.109375 
Q 53.90625 64.015625 53.90625 55.328125 
Q 53.90625 49.265625 50.4375 45.09375 
Q 46.96875 40.921875 40.578125 39.3125 
" id="BitstreamVeraSans-Roman-33"/>
      </defs>
      <g transform="translate(664.9125 409.118125)scale(0.12 -0.12)">
       <use xlink:href="#BitstreamVeraSans-Roman-33"/>
       <use x="63.623046875" xlink:href="#BitstreamVeraSans-Roman-30"/>
       <use x="127.24609375" xlink:href="#BitstreamVeraSans-Roman-30"/>
       <use x="190.869140625" xlink:href="#BitstreamVeraSans-Roman-30"/>
       <use x="254.4921875" xlink:href="#BitstreamVeraSans-Roman-30"/>
      </g>
     </g>
    </g>
    <g id="text_7">
     <!-- $K_p$ -->
     <defs>
      <path d="M -2.484375 -19.390625 
Q -3.421875 -19.390625 -3.421875 -18.109375 
Q -3.078125 -15.921875 -2.09375 -15.921875 
Q 1.03125 -15.921875 2.265625 -15.359375 
Q 3.515625 -14.796875 4.203125 -12.5 
L 15.484375 32.515625 
Q 16.21875 34.375 16.21875 37.3125 
Q 16.21875 41.609375 13.28125 41.609375 
Q 10.15625 41.609375 8.640625 37.859375 
Q 7.125 34.125 5.71875 28.421875 
Q 5.71875 27.78125 4.890625 27.78125 
L 3.71875 27.78125 
Q 3.46875 27.78125 3.171875 28.140625 
Q 2.875 28.515625 2.875 28.8125 
Q 3.953125 33.15625 4.953125 36.171875 
Q 5.953125 39.203125 8.078125 41.6875 
Q 10.203125 44.1875 13.375 44.1875 
Q 16.796875 44.1875 19.375 42.25 
Q 21.96875 40.328125 22.703125 37.015625 
Q 25.4375 40.1875 28.75 42.1875 
Q 32.078125 44.1875 35.59375 44.1875 
Q 39.796875 44.1875 42.890625 41.9375 
Q 46 39.703125 47.5625 36.0625 
Q 49.125 32.421875 49.125 28.21875 
Q 49.125 21.78125 45.828125 14.890625 
Q 42.53125 8.015625 36.890625 3.4375 
Q 31.25 -1.125 24.8125 -1.125 
Q 21.875 -1.125 19.5 0.53125 
Q 17.140625 2.203125 15.828125 4.890625 
L 11.28125 -12.890625 
Q 11.03125 -14.359375 10.984375 -14.59375 
Q 10.984375 -15.921875 17.578125 -15.921875 
Q 18.609375 -15.921875 18.609375 -17.1875 
Q 18.265625 -18.5 18.046875 -18.9375 
Q 17.828125 -19.390625 16.890625 -19.390625 
z
M 24.90625 1.515625 
Q 28.375 1.515625 31.34375 4.375 
Q 34.328125 7.234375 36.1875 10.796875 
Q 37.546875 13.484375 38.734375 17.359375 
Q 39.9375 21.234375 40.8125 25.625 
Q 41.703125 30.03125 41.703125 32.625 
Q 41.703125 34.90625 41.09375 36.90625 
Q 40.484375 38.921875 39.09375 40.265625 
Q 37.703125 41.609375 35.40625 41.609375 
Q 31.734375 41.609375 28.484375 38.984375 
Q 25.25 36.375 22.609375 32.515625 
L 22.609375 32.171875 
L 17.09375 10.109375 
Q 17.78125 6.546875 19.734375 4.03125 
Q 21.6875 1.515625 24.90625 1.515625 
" id="Cmmi10-70"/>
      <path d="M 4.6875 0 
Q 3.71875 0 3.71875 1.3125 
Q 3.765625 1.5625 3.90625 2.171875 
Q 4.046875 2.78125 4.3125 3.140625 
Q 4.59375 3.515625 4.984375 3.515625 
Q 11.078125 3.515625 13.484375 4.203125 
Q 14.796875 4.640625 15.375 6.890625 
L 29.109375 61.8125 
Q 29.296875 62.796875 29.296875 63.1875 
Q 29.296875 64.265625 28.078125 64.40625 
Q 26.21875 64.796875 20.90625 64.796875 
Q 19.921875 64.796875 19.921875 66.109375 
Q 20.265625 67.390625 20.453125 67.84375 
Q 20.65625 68.3125 21.578125 68.3125 
L 48.484375 68.3125 
Q 49.515625 68.3125 49.515625 67 
Q 49.46875 66.75 49.3125 66.15625 
Q 49.171875 65.578125 48.921875 65.1875 
Q 48.6875 64.796875 48.1875 64.796875 
Q 42.09375 64.796875 39.703125 64.109375 
Q 38.375 63.625 37.796875 61.375 
L 29.6875 29 
L 68.890625 59.28125 
Q 69 59.46875 70.140625 60.609375 
Q 71.296875 61.765625 71.296875 62.890625 
Q 71.296875 64.796875 67.921875 64.796875 
Q 66.890625 64.796875 66.890625 66.109375 
Q 67.09375 66.890625 67.203125 67.328125 
Q 67.328125 67.78125 67.640625 68.046875 
Q 67.96875 68.3125 68.609375 68.3125 
L 87.984375 68.3125 
Q 88.53125 68.3125 88.765625 67.921875 
Q 89.015625 67.53125 89.015625 67 
Q 88.96875 66.75 88.796875 66.109375 
Q 88.625 65.484375 88.359375 65.140625 
Q 88.09375 64.796875 87.59375 64.796875 
Q 80.28125 64.796875 71.578125 58.015625 
Q 71.53125 57.953125 71.4375 57.921875 
Q 71.34375 57.90625 71.234375 57.875 
Q 71.140625 57.859375 71.09375 57.8125 
L 50.484375 41.796875 
L 65.484375 6.6875 
Q 66.84375 4.5 68.40625 4 
Q 69.96875 3.515625 73.1875 3.515625 
Q 74.21875 3.515625 74.21875 2.203125 
Q 73.921875 1.03125 73.625 0.515625 
Q 73.34375 0 72.515625 0 
L 49.3125 0 
Q 48.390625 0 48.390625 1.3125 
Q 48.53125 2.34375 48.71875 2.921875 
Q 48.921875 3.515625 49.703125 3.515625 
Q 52.25 3.515625 54.03125 4.03125 
Q 55.8125 4.546875 55.8125 6.390625 
Q 55.8125 7.078125 55.71875 7.421875 
L 43.3125 36.28125 
L 28.71875 25 
L 24.125 6.5 
Q 23.875 5.28125 23.875 5.078125 
Q 23.875 4.046875 25.09375 3.90625 
Q 27 3.515625 32.328125 3.515625 
Q 33.296875 3.515625 33.296875 2.203125 
Q 32.953125 0.78125 32.75 0.390625 
Q 32.5625 0 31.59375 0 
z
" id="Cmmi10-4b"/>
     </defs>
     <g transform="translate(370.38 424.89375)scale(0.12 -0.12)">
      <use transform="translate(0.0 0.6875)" xlink:href="#Cmmi10-4b"/>
      <use transform="translate(84.912109375 -16.31875)scale(0.7)" xlink:href="#Cmmi10-70"/>
     </g>
    </g>
   </g>
   <g id="matplotlib.axis_2">
    <g id="ytick_1">
     <g id="line2d_21">
      <defs>
       <path d="M 0 0 
L 4 0 
" id="m9c88a37da8" style="stroke:#000000;stroke-width:0.5;"/>
      </defs>
      <g>
       <use style="stroke:#000000;stroke-width:0.5;" x="72.0" xlink:href="#m9c88a37da8" y="396.0"/>
      </g>
     </g>
     <g id="line2d_22">
      <defs>
       <path d="M 0 0 
L -4 0 
" id="ma43b40b901" style="stroke:#000000;stroke-width:0.5;"/>
      </defs>
      <g>
       <use style="stroke:#000000;stroke-width:0.5;" x="684.0" xlink:href="#ma43b40b901" y="396.0"/>
      </g>
     </g>
     <g id="text_8">
      <!-- 0.0000150 -->
      <defs>
       <path d="M 10.6875 12.40625 
L 21 12.40625 
L 21 0 
L 10.6875 0 
z
" id="BitstreamVeraSans-Roman-2e"/>
      </defs>
      <g transform="translate(3.10625 399.31125)scale(0.12 -0.12)">
       <use xlink:href="#BitstreamVeraSans-Roman-30"/>
       <use x="63.623046875" xlink:href="#BitstreamVeraSans-Roman-2e"/>
       <use x="95.41015625" xlink:href="#BitstreamVeraSans-Roman-30"/>
       <use x="159.033203125" xlink:href="#BitstreamVeraSans-Roman-30"/>
       <use x="222.65625" xlink:href="#BitstreamVeraSans-Roman-30"/>
       <use x="286.279296875" xlink:href="#BitstreamVeraSans-Roman-30"/>
       <use x="349.90234375" xlink:href="#BitstreamVeraSans-Roman-31"/>
       <use x="413.525390625" xlink:href="#BitstreamVeraSans-Roman-35"/>
       <use x="477.1484375" xlink:href="#BitstreamVeraSans-Roman-30"/>
      </g>
     </g>
    </g>
    <g id="ytick_2">
     <g id="line2d_23">
      <g>
       <use style="stroke:#000000;stroke-width:0.5;" x="72.0" xlink:href="#m9c88a37da8" y="336.0"/>
      </g>
     </g>
     <g id="line2d_24">
      <g>
       <use style="stroke:#000000;stroke-width:0.5;" x="684.0" xlink:href="#ma43b40b901" y="336.0"/>
      </g>
     </g>
     <g id="text_9">
      <!-- 0.0000175 -->
      <defs>
       <path d="M 8.203125 72.90625 
L 55.078125 72.90625 
L 55.078125 68.703125 
L 28.609375 0 
L 18.3125 0 
L 43.21875 64.59375 
L 8.203125 64.59375 
z
" id="BitstreamVeraSans-Roman-37"/>
      </defs>
      <g transform="translate(3.10625 339.31125)scale(0.12 -0.12)">
       <use xlink:href="#BitstreamVeraSans-Roman-30"/>
       <use x="63.623046875" xlink:href="#BitstreamVeraSans-Roman-2e"/>
       <use x="95.41015625" xlink:href="#BitstreamVeraSans-Roman-30"/>
       <use x="159.033203125" xlink:href="#BitstreamVeraSans-Roman-30"/>
       <use x="222.65625" xlink:href="#BitstreamVeraSans-Roman-30"/>
       <use x="286.279296875" xlink:href="#BitstreamVeraSans-Roman-30"/>
       <use x="349.90234375" xlink:href="#BitstreamVeraSans-Roman-31"/>
       <use x="413.525390625" xlink:href="#BitstreamVeraSans-Roman-37"/>
       <use x="477.1484375" xlink:href="#BitstreamVeraSans-Roman-35"/>
      </g>
     </g>
    </g>
    <g id="ytick_3">
     <g id="line2d_25">
      <g>
       <use style="stroke:#000000;stroke-width:0.5;" x="72.0" xlink:href="#m9c88a37da8" y="276.0"/>
      </g>
     </g>
     <g id="line2d_26">
      <g>
       <use style="stroke:#000000;stroke-width:0.5;" x="684.0" xlink:href="#ma43b40b901" y="276.0"/>
      </g>
     </g>
     <g id="text_10">
      <!-- 0.0000200 -->
      <g transform="translate(3.10625 279.31125)scale(0.12 -0.12)">
       <use xlink:href="#BitstreamVeraSans-Roman-30"/>
       <use x="63.623046875" xlink:href="#BitstreamVeraSans-Roman-2e"/>
       <use x="95.41015625" xlink:href="#BitstreamVeraSans-Roman-30"/>
       <use x="159.033203125" xlink:href="#BitstreamVeraSans-Roman-30"/>
       <use x="222.65625" xlink:href="#BitstreamVeraSans-Roman-30"/>
       <use x="286.279296875" xlink:href="#BitstreamVeraSans-Roman-30"/>
       <use x="349.90234375" xlink:href="#BitstreamVeraSans-Roman-32"/>
       <use x="413.525390625" xlink:href="#BitstreamVeraSans-Roman-30"/>
       <use x="477.1484375" xlink:href="#BitstreamVeraSans-Roman-30"/>
      </g>
     </g>
    </g>
    <g id="ytick_4">
     <g id="line2d_27">
      <g>
       <use style="stroke:#000000;stroke-width:0.5;" x="72.0" xlink:href="#m9c88a37da8" y="216.0"/>
      </g>
     </g>
     <g id="line2d_28">
      <g>
       <use style="stroke:#000000;stroke-width:0.5;" x="684.0" xlink:href="#ma43b40b901" y="216.0"/>
      </g>
     </g>
     <g id="text_11">
      <!-- 0.0000225 -->
      <g transform="translate(3.10625 219.31125)scale(0.12 -0.12)">
       <use xlink:href="#BitstreamVeraSans-Roman-30"/>
       <use x="63.623046875" xlink:href="#BitstreamVeraSans-Roman-2e"/>
       <use x="95.41015625" xlink:href="#BitstreamVeraSans-Roman-30"/>
       <use x="159.033203125" xlink:href="#BitstreamVeraSans-Roman-30"/>
       <use x="222.65625" xlink:href="#BitstreamVeraSans-Roman-30"/>
       <use x="286.279296875" xlink:href="#BitstreamVeraSans-Roman-30"/>
       <use x="349.90234375" xlink:href="#BitstreamVeraSans-Roman-32"/>
       <use x="413.525390625" xlink:href="#BitstreamVeraSans-Roman-32"/>
       <use x="477.1484375" xlink:href="#BitstreamVeraSans-Roman-35"/>
      </g>
     </g>
    </g>
    <g id="ytick_5">
     <g id="line2d_29">
      <g>
       <use style="stroke:#000000;stroke-width:0.5;" x="72.0" xlink:href="#m9c88a37da8" y="156.0"/>
      </g>
     </g>
     <g id="line2d_30">
      <g>
       <use style="stroke:#000000;stroke-width:0.5;" x="684.0" xlink:href="#ma43b40b901" y="156.0"/>
      </g>
     </g>
     <g id="text_12">
      <!-- 0.0000250 -->
      <g transform="translate(3.10625 159.31125)scale(0.12 -0.12)">
       <use xlink:href="#BitstreamVeraSans-Roman-30"/>
       <use x="63.623046875" xlink:href="#BitstreamVeraSans-Roman-2e"/>
       <use x="95.41015625" xlink:href="#BitstreamVeraSans-Roman-30"/>
       <use x="159.033203125" xlink:href="#BitstreamVeraSans-Roman-30"/>
       <use x="222.65625" xlink:href="#BitstreamVeraSans-Roman-30"/>
       <use x="286.279296875" xlink:href="#BitstreamVeraSans-Roman-30"/>
       <use x="349.90234375" xlink:href="#BitstreamVeraSans-Roman-32"/>
       <use x="413.525390625" xlink:href="#BitstreamVeraSans-Roman-35"/>
       <use x="477.1484375" xlink:href="#BitstreamVeraSans-Roman-30"/>
      </g>
     </g>
    </g>
    <g id="ytick_6">
     <g id="line2d_31">
      <g>
       <use style="stroke:#000000;stroke-width:0.5;" x="72.0" xlink:href="#m9c88a37da8" y="96.0"/>
      </g>
     </g>
     <g id="line2d_32">
      <g>
       <use style="stroke:#000000;stroke-width:0.5;" x="684.0" xlink:href="#ma43b40b901" y="96.0"/>
      </g>
     </g>
     <g id="text_13">
      <!-- 0.0000275 -->
      <g transform="translate(3.10625 99.31125)scale(0.12 -0.12)">
       <use xlink:href="#BitstreamVeraSans-Roman-30"/>
       <use x="63.623046875" xlink:href="#BitstreamVeraSans-Roman-2e"/>
       <use x="95.41015625" xlink:href="#BitstreamVeraSans-Roman-30"/>
       <use x="159.033203125" xlink:href="#BitstreamVeraSans-Roman-30"/>
       <use x="222.65625" xlink:href="#BitstreamVeraSans-Roman-30"/>
       <use x="286.279296875" xlink:href="#BitstreamVeraSans-Roman-30"/>
       <use x="349.90234375" xlink:href="#BitstreamVeraSans-Roman-32"/>
       <use x="413.525390625" xlink:href="#BitstreamVeraSans-Roman-37"/>
       <use x="477.1484375" xlink:href="#BitstreamVeraSans-Roman-35"/>
      </g>
     </g>
    </g>
    <g id="ytick_7">
     <g id="line2d_33">
      <g>
       <use style="stroke:#000000;stroke-width:0.5;" x="72.0" xlink:href="#m9c88a37da8" y="36.0"/>
      </g>
     </g>
     <g id="line2d_34">
      <g>
       <use style="stroke:#000000;stroke-width:0.5;" x="684.0" xlink:href="#ma43b40b901" y="36.0"/>
      </g>
     </g>
     <g id="text_14">
      <!-- 0.0000300 -->
      <g transform="translate(3.10625 39.31125)scale(0.12 -0.12)">
       <use xlink:href="#BitstreamVeraSans-Roman-30"/>
       <use x="63.623046875" xlink:href="#BitstreamVeraSans-Roman-2e"/>
       <use x="95.41015625" xlink:href="#BitstreamVeraSans-Roman-30"/>
       <use x="159.033203125" xlink:href="#BitstreamVeraSans-Roman-30"/>
       <use x="222.65625" xlink:href="#BitstreamVeraSans-Roman-30"/>
       <use x="286.279296875" xlink:href="#BitstreamVeraSans-Roman-30"/>
       <use x="349.90234375" xlink:href="#BitstreamVeraSans-Roman-33"/>
       <use x="413.525390625" xlink:href="#BitstreamVeraSans-Roman-30"/>
       <use x="477.1484375" xlink:href="#BitstreamVeraSans-Roman-30"/>
      </g>
     </g>
    </g>
    <g id="text_15">
     <!-- $R$ -->
     <defs>
      <path d="M 4.890625 0 
Q 3.90625 0 3.90625 1.3125 
Q 3.953125 1.5625 4.09375 2.171875 
Q 4.25 2.78125 4.515625 3.140625 
Q 4.78125 3.515625 5.171875 3.515625 
Q 11.28125 3.515625 13.71875 4.203125 
Q 14.984375 4.640625 15.578125 6.890625 
L 29.296875 61.8125 
Q 29.5 62.796875 29.5 63.1875 
Q 29.5 64.265625 28.328125 64.40625 
Q 26.421875 64.796875 21.09375 64.796875 
Q 20.125 64.796875 20.125 66.109375 
Q 20.171875 66.359375 20.3125 66.96875 
Q 20.453125 67.578125 20.71875 67.9375 
Q 21 68.3125 21.390625 68.3125 
L 51.703125 68.3125 
Q 55.328125 68.3125 59.234375 67.484375 
Q 63.140625 66.65625 66.40625 64.875 
Q 69.671875 63.09375 71.765625 60.125 
Q 73.875 57.171875 73.875 53.21875 
Q 73.875 48.1875 70.546875 44.234375 
Q 67.234375 40.28125 62.15625 37.625 
Q 57.078125 34.96875 52.296875 33.890625 
Q 56.203125 32.46875 58.6875 29.359375 
Q 61.1875 26.265625 61.1875 22.21875 
Q 61.1875 21.6875 61.15625 21.40625 
Q 61.140625 21.140625 61.078125 20.796875 
L 60.296875 11.921875 
Q 60.203125 9.96875 60.109375 8.59375 
Q 60.015625 7.234375 60.015625 6.390625 
Q 60.015625 3.65625 60.8125 2.015625 
Q 61.625 0.390625 64.015625 0.390625 
Q 67.140625 0.390625 69.5 3.296875 
Q 71.875 6.203125 72.609375 9.625 
Q 73.046875 10.5 73.578125 10.5 
L 74.515625 10.5 
Q 75.484375 10.5 75.484375 9.1875 
Q 74.75 6.296875 73.15625 3.703125 
Q 71.578125 1.125 69.15625 -0.53125 
Q 66.75 -2.203125 63.921875 -2.203125 
Q 58.0625 -2.203125 53.9375 0.40625 
Q 49.8125 3.03125 49.8125 8.59375 
Q 49.8125 10.6875 50.203125 12.3125 
L 52.390625 21.1875 
Q 52.78125 22.40625 52.78125 24.03125 
Q 52.78125 28.171875 49.96875 30.53125 
Q 47.171875 32.90625 42.921875 32.90625 
L 30.609375 32.90625 
L 24.03125 6.5 
Q 23.78125 5.671875 23.78125 5.078125 
Q 23.78125 4.046875 25 3.90625 
Q 26.90625 3.515625 32.171875 3.515625 
Q 33.203125 3.515625 33.203125 2.203125 
Q 32.859375 0.78125 32.65625 0.390625 
Q 32.46875 0 31.5 0 
z
M 31.203125 35.5 
L 42.28125 35.5 
Q 53.171875 35.5 58.6875 41.015625 
Q 61.234375 43.5625 62.71875 47.484375 
Q 64.203125 51.421875 64.203125 55.328125 
Q 64.203125 59.03125 62.03125 61.125 
Q 59.859375 63.234375 56.65625 64.015625 
Q 53.46875 64.796875 49.609375 64.796875 
L 42.921875 64.796875 
Q 40.1875 64.796875 39.296875 64.328125 
Q 38.421875 63.875 37.703125 61.375 
z
" id="Cmmi10-52"/>
     </defs>
     <g transform="translate(-4.389375 220.56)rotate(-90.0)scale(0.12 -0.12)">
      <use transform="translate(0.0 0.6875)" xlink:href="#Cmmi10-52"/>
     </g>
    </g>
   </g>
  </g>
 </g>
 <defs>
  <clipPath id="p11ac32f897">
   <rect height="360.0" width="612.0" x="72.0" y="36.0"/>
  </clipPath>
 </defs>
</svg>
