<?xml version="1.0" encoding="UTF-8" standalone="no"?>
<!-- Created with matplotlib (http://matplotlib.org/) -->

<svg
   xmlns:dc="http://purl.org/dc/elements/1.1/"
   xmlns:cc="http://creativecommons.org/ns#"
   xmlns:rdf="http://www.w3.org/1999/02/22-rdf-syntax-ns#"
   xmlns:svg="http://www.w3.org/2000/svg"
   xmlns="http://www.w3.org/2000/svg"
   xmlns:xlink="http://www.w3.org/1999/xlink"
   xmlns:sodipodi="http://sodipodi.sourceforge.net/DTD/sodipodi-0.dtd"
   xmlns:inkscape="http://www.inkscape.org/namespaces/inkscape"
   height="432pt"
   version="1.1"
   viewBox="0 0 701.19403 432"
   width="701.19403pt"
   id="svg2"
   inkscape:version="0.91 r"
   sodipodi:docname="periodjplc04.svg">
  <metadata
     id="metadata405">
    <rdf:RDF>
      <cc:Work
         rdf:about="">
        <dc:format>image/svg+xml</dc:format>
        <dc:type
           rdf:resource="http://purl.org/dc/dcmitype/StillImage" />
        <dc:title></dc:title>
      </cc:Work>
    </rdf:RDF>
  </metadata>
  <sodipodi:namedview
     pagecolor="#ffffff"
     bordercolor="#666666"
     borderopacity="1"
     objecttolerance="10"
     gridtolerance="10"
     guidetolerance="10"
     inkscape:pageopacity="0"
     inkscape:pageshadow="2"
     inkscape:window-width="1920"
     inkscape:window-height="1028"
     id="namedview403"
     showgrid="false"
     fit-margin-top="0"
     fit-margin-left="0"
     fit-margin-right="0"
     fit-margin-bottom="0"
     inkscape:zoom="0.59555556"
     inkscape:cx="306.22516"
     inkscape:cy="148.62962"
     inkscape:window-x="0"
     inkscape:window-y="299"
     inkscape:window-maximized="1"
     inkscape:current-layer="svg2" />
  <defs
     id="defs4"
     style="stroke-linecap:butt;stroke-linejoin:round;stroke-miterlimit:100000">
    <style
       type="text/css"
       id="style6">
*{stroke-linecap:butt;stroke-linejoin:round;stroke-miterlimit:100000;}
  </style>
    <defs
       id="defs20">
      <path
         inkscape:connector-curvature="0"
         style="stroke:#000000;stroke-width:0.5;stroke-linecap:butt;stroke-linejoin:miter;stroke-miterlimit:100000"
         id="m3aceceac7e"
         d="m -3,3 6,0 0,-6 -6,0 z" />
    </defs>
    <defs
       id="defs225">
      <path
         d="m -2.484375,-19.390625 q -0.9375,0 -0.9375,1.28125 0.34375,2.1875 1.328125,2.1875 3.125,0 4.359375,0.5625 1.25,0.5625 1.9375,2.859375 l 11.28125,45.015625 Q 16.21875,34.375 16.21875,37.3125 q 0,4.296875 -2.9375,4.296875 -3.125,0 -4.640625,-3.75 Q 7.125,34.125 5.71875,28.421875 q 0,-0.640625 -0.828125,-0.640625 l -1.171875,0 q -0.25,0 -0.546875,0.359375 Q 2.875,28.515625 2.875,28.8125 q 1.078125,4.34375 2.078125,7.359375 1,3.03125 3.125,5.515625 2.125,2.5 5.296875,2.5 3.421875,0 6,-1.9375 2.59375,-1.921875 3.328125,-5.234375 Q 25.4375,40.1875 28.75,42.1875 q 3.328125,2 6.84375,2 4.203125,0 7.296875,-2.25 Q 46,39.703125 47.5625,36.0625 q 1.5625,-3.640625 1.5625,-7.84375 0,-6.4375 -3.296875,-13.328125 Q 42.53125,8.015625 36.890625,3.4375 31.25,-1.125 24.8125,-1.125 21.875,-1.125 19.5,0.53125 17.140625,2.203125 15.828125,4.890625 l -4.546875,-17.78125 q -0.25,-1.46875 -0.296875,-1.703125 0,-1.328125 6.59375,-1.328125 1.03125,0 1.03125,-1.265625 -0.34375,-1.3125 -0.5625,-1.75 -0.21875,-0.453125 -1.15625,-0.453125 z M 24.90625,1.515625 q 3.46875,0 6.4375,2.859375 2.984375,2.859375 4.84375,6.421875 1.359375,2.6875 2.546875,6.5625 1.203125,3.875 2.078125,8.265625 0.890625,4.40625 0.890625,7 0,2.28125 -0.609375,4.28125 -0.609375,2.015625 -2,3.359375 -1.390625,1.34375 -3.6875,1.34375 -3.671875,0 -6.921875,-2.625 Q 25.25,36.375 22.609375,32.515625 l 0,-0.34375 -5.515625,-22.0625 Q 17.78125,6.546875 19.734375,4.03125 21.6875,1.515625 24.90625,1.515625"
         id="Cmmi10-70"
         inkscape:connector-curvature="0"
         style="stroke-linecap:butt;stroke-linejoin:round;stroke-miterlimit:100000" />
      <path
         d="m 4.6875,0 q -0.96875,0 -0.96875,1.3125 0.046875,0.25 0.1875,0.859375 0.140625,0.609375 0.40625,0.96875 0.28125,0.375 0.671875,0.375 6.09375,0 8.5,0.6875 1.3125,0.4375 1.890625,2.6875 L 29.109375,61.8125 q 0.1875,0.984375 0.1875,1.375 0,1.078125 -1.21875,1.21875 -1.859375,0.390625 -7.171875,0.390625 -0.984375,0 -0.984375,1.3125 0.34375,1.28125 0.53125,1.734375 0.203125,0.46875 1.125,0.46875 l 26.90625,0 q 1.03125,0 1.03125,-1.3125 Q 49.46875,66.75 49.3125,66.15625 49.171875,65.578125 48.921875,65.1875 48.6875,64.796875 48.1875,64.796875 q -6.09375,0 -8.484375,-0.6875 Q 38.375,63.625 37.796875,61.375 L 29.6875,29 68.890625,59.28125 q 0.109375,0.1875 1.25,1.328125 1.15625,1.15625 1.15625,2.28125 0,1.90625 -3.375,1.90625 -1.03125,0 -1.03125,1.3125 0.203125,0.78125 0.3125,1.21875 0.125,0.453125 0.4375,0.71875 0.328125,0.265625 0.96875,0.265625 l 19.375,0 q 0.546875,0 0.78125,-0.390625 0.25,-0.390625 0.25,-0.921875 -0.04687,-0.25 -0.21875,-0.890625 -0.171875,-0.625 -0.4375,-0.96875 -0.265625,-0.34375 -0.765625,-0.34375 -7.3125,0 -16.015625,-6.78125 -0.04687,-0.0625 -0.140625,-0.09375 -0.09375,-0.01563 -0.203125,-0.04687 -0.09375,-0.01563 -0.140625,-0.0625 L 50.484375,41.79688 l 15,-35.109375 Q 66.84375,4.5 68.40625,4 q 1.5625,-0.484375 4.78125,-0.484375 1.03125,0 1.03125,-1.3125 Q 73.921875,1.03125 73.625,0.515625 73.34375,0 72.515625,0 L 49.3125,0 q -0.921875,0 -0.921875,1.3125 0.140625,1.03125 0.328125,1.609375 0.203125,0.59375 0.984375,0.59375 2.546875,0 4.328125,0.515625 1.78125,0.515625 1.78125,2.359375 0,0.6875 -0.09375,1.03125 L 43.3125,36.28125 28.71875,25 24.125,6.5 q -0.25,-1.21875 -0.25,-1.421875 0,-1.03125 1.21875,-1.171875 Q 27,3.515625 32.328125,3.515625 q 0.96875,0 0.96875,-1.3125 Q 32.953125,0.78125 32.75,0.390625 32.5625,0 31.59375,0 Z"
         id="Cmmi10-4b"
         inkscape:connector-curvature="0"
         style="stroke-linecap:butt;stroke-linejoin:round;stroke-miterlimit:100000" />
    </defs>
    <defs
       id="defs376">
      <path
         d="m 30.609375,48.390625 q -7.21875,0 -11.421875,-5.640625 -4.203125,-5.640625 -4.203125,-15.453125 0,-9.8125 4.171875,-15.453125 4.1875,-5.640625 11.453125,-5.640625 7.1875,0 11.375,5.65625 4.203125,5.671875 4.203125,15.4375 0,9.71875 -4.203125,15.40625 -4.1875,5.6875 -11.375,5.6875 m 0,7.609375 q 11.71875,0 18.40625,-7.625 6.703125,-7.609375 6.703125,-21.078125 0,-13.421875 -6.703125,-21.078125 -6.6875,-7.640625 -18.40625,-7.640625 -11.765625,0 -18.4375,7.640625 -6.65625,7.65625 -6.65625,21.078125 0,13.46875 6.65625,21.078125 Q 18.84375,56 30.609375,56"
         id="BitstreamVeraSans-Roman-6f"
         inkscape:connector-curvature="0"
         style="stroke-linecap:butt;stroke-linejoin:round;stroke-miterlimit:100000" />
      <path
         d="m 9.421875,54.6875 8.984375,0 0,-54.6875 -8.984375,0 z m 0,21.296875 8.984375,0 0,-11.390625 -8.984375,0 z"
         id="BitstreamVeraSans-Roman-69"
         inkscape:connector-curvature="0"
         style="stroke-linecap:butt;stroke-linejoin:round;stroke-miterlimit:100000" />
      <path
         d="m 56.203125,29.59375 0,-4.390625 -41.3125,0 q 0.59375,-9.28125 5.59375,-14.140625 5,-4.859375 13.9375,-4.859375 5.171875,0 10.03125,1.265625 4.859375,1.265625 9.65625,3.8125 l 0,-8.5 q -4.84375,-2.046875 -9.921875,-3.125 -5.078125,-1.078125 -10.296875,-1.078125 -13.09375,0 -20.734375,7.609375 -7.640625,7.625 -7.640625,20.625 0,13.421875 7.25,21.296875 Q 20.015625,56 32.328125,56 q 11.03125,0 17.453125,-7.109375 6.421875,-7.09375 6.421875,-19.296875 m -8.984375,2.640625 q -0.09375,7.359375 -4.125,11.75 -4.03125,4.40625 -10.671875,4.40625 -7.515625,0 -12.03125,-4.25 -4.515625,-4.25 -5.203125,-11.96875 z"
         id="BitstreamVeraSans-Roman-65"
         inkscape:connector-curvature="0"
         style="stroke-linecap:butt;stroke-linejoin:round;stroke-miterlimit:100000" />
      <path
         d="m 45.40625,46.390625 0,29.59375 8.984375,0 0,-75.984375 -8.984375,0 0,8.203125 q -2.828125,-4.875 -7.15625,-7.25 -4.3125,-2.375 -10.375,-2.375 -9.90625,0 -16.140625,7.90625 -6.21875,7.921875 -6.21875,20.8125 0,12.890625 6.21875,20.796875 Q 17.96875,56 27.875,56 q 6.0625,0 10.375,-2.375 4.328125,-2.359375 7.15625,-7.234375 M 14.796875,27.296875 q 0,-9.90625 4.078125,-15.546875 4.078125,-5.640625 11.203125,-5.640625 7.125,0 11.21875,5.640625 4.109375,5.640625 4.109375,15.546875 0,9.90625 -4.109375,15.546875 -4.09375,5.640625 -11.21875,5.640625 -7.125,0 -11.203125,-5.640625 -4.078125,-5.640625 -4.078125,-15.546875"
         id="BitstreamVeraSans-Roman-64"
         inkscape:connector-curvature="0"
         style="stroke-linecap:butt;stroke-linejoin:round;stroke-miterlimit:100000" />
      <path
         d="m 41.109375,46.296875 q -1.515625,0.875 -3.296875,1.28125 Q 36.03125,48 33.890625,48 26.265625,48 22.1875,43.046875 18.109375,38.09375 18.109375,28.8125 l 0,-28.8125 -9.03125,0 0,54.6875 9.03125,0 0,-8.5 q 2.84375,4.984375 7.375,7.390625 Q 30.03125,56 36.53125,56 q 0.921875,0 2.046875,-0.125 1.125,-0.109375 2.484375,-0.359375 z"
         id="BitstreamVeraSans-Roman-72"
         inkscape:connector-curvature="0"
         style="stroke-linecap:butt;stroke-linejoin:round;stroke-miterlimit:100000" />
      <path
         d="m 18.109375,8.203125 0,-29 -9.03125,0 0,75.484375 9.03125,0 0,-8.296875 q 2.84375,4.875 7.15625,7.234375 Q 29.59375,56 35.59375,56 q 9.96875,0 16.1875,-7.90625 6.234375,-7.90625 6.234375,-20.796875 0,-12.890625 -6.234375,-20.8125 -6.21875,-7.90625 -16.1875,-7.90625 -6,0 -10.328125,2.375 -4.3125,2.375 -7.15625,7.25 M 48.6875,27.296875 q 0,9.90625 -4.078125,15.546875 -4.078125,5.640625 -11.203125,5.640625 -7.140625,0 -11.21875,-5.640625 -4.078125,-5.640625 -4.078125,-15.546875 0,-9.90625 4.078125,-15.546875 4.078125,-5.640625 11.21875,-5.640625 7.125,0 11.203125,5.640625 4.078125,5.640625 4.078125,15.546875"
         id="BitstreamVeraSans-Roman-70"
         inkscape:connector-curvature="0"
         style="stroke-linecap:butt;stroke-linejoin:round;stroke-miterlimit:100000" />
    </defs>
    <defs
       id="defs254">
      <path
         style="stroke-linecap:butt;stroke-linejoin:round;stroke-miterlimit:100000"
         inkscape:connector-curvature="0"
         id="BitstreamVeraSans-Roman-39"
         d="m 10.984375,1.515625 0,8.984375 Q 14.703125,8.734375 18.5,7.8125 q 3.8125,-0.921875 7.484375,-0.921875 9.765625,0 14.90625,6.5625 5.15625,6.5625 5.890625,19.953125 -2.828125,-4.203125 -7.1875,-6.453125 -4.34375,-2.25 -9.609375,-2.25 -10.9375,0 -17.3125,6.609375 -6.375,6.625 -6.375,18.109375 0,11.21875 6.640625,18 6.640625,6.796875 17.671875,6.796875 12.65625,0 19.3125,-9.703125 6.671875,-9.6875 6.671875,-28.140625 0,-17.234375 -8.1875,-27.515625 -8.171875,-10.28125 -21.984375,-10.28125 -3.71875,0 -7.53125,0.734375 -3.796875,0.734375 -7.90625,2.203125 m 19.625,30.90625 q 6.640625,0 10.515625,4.53125 3.890625,4.546875 3.890625,12.46875 0,7.859375 -3.890625,12.421875 -3.875,4.5625 -10.515625,4.5625 -6.640625,0 -10.515625,-4.5625 -3.875,-4.5625 -3.875,-12.421875 0,-7.921875 3.875,-12.46875 3.875,-4.53125 10.515625,-4.53125" />
    </defs>
    <defs
       id="defs246">
      <path
         inkscape:connector-curvature="0"
         style="stroke:#000000;stroke-width:0.5;stroke-linecap:butt;stroke-linejoin:round;stroke-miterlimit:100000"
         id="mae084403b2"
         d="M 0,0 -4,0" />
    </defs>
    <defs
       id="defs238">
      <path
         inkscape:connector-curvature="0"
         style="stroke:#000000;stroke-width:0.5;stroke-linecap:butt;stroke-linejoin:round;stroke-miterlimit:100000"
         id="mdf1bb2bcfc"
         d="M 0,0 4,0" />
    </defs>
    <defs
       id="defs327">
      <path
         style="stroke-linecap:butt;stroke-linejoin:round;stroke-miterlimit:100000"
         inkscape:connector-curvature="0"
         id="BitstreamVeraSans-Roman-33"
         d="M 40.578125,39.3125 Q 47.65625,37.796875 51.625,33 q 3.984375,-4.78125 3.984375,-11.8125 0,-10.78125 -7.421875,-16.703125 -7.421875,-5.90625 -21.09375,-5.90625 -4.578125,0 -9.4375,0.90625 -4.859375,0.90625 -10.03125,2.71875 l 0,9.515625 q 4.09375,-2.390625 8.96875,-3.609375 4.890625,-1.21875 10.21875,-1.21875 9.265625,0 14.125,3.65625 4.859375,3.65625 4.859375,10.640625 0,6.453125 -4.515625,10.078125 -4.515625,3.640625 -12.5625,3.640625 l -8.5,0 0,8.109375 8.890625,0 q 7.265625,0 11.125,2.90625 3.859375,2.90625 3.859375,8.375 0,5.609375 -3.984375,8.609375 -3.96875,3.015625 -11.390625,3.015625 -4.0625,0 -8.703125,-0.890625 Q 15.375,64.15625 9.8125,62.3125 l 0,8.78125 q 5.625,1.5625 10.53125,2.34375 4.90625,0.78125 9.25,0.78125 11.234375,0 17.765625,-5.109375 6.546875,-5.09375 6.546875,-13.78125 0,-6.0625 -3.46875,-10.234375 -3.46875,-4.171875 -9.859375,-5.78125" />
    </defs>
    <defs
       id="defs366">
      <path
         style="stroke-linecap:butt;stroke-linejoin:round;stroke-miterlimit:100000"
         inkscape:connector-curvature="0"
         id="BitstreamVeraSans-Roman-35"
         d="m 10.796875,72.90625 38.71875,0 0,-8.3125 -29.6875,0 0,-17.859375 q 2.140625,0.734375 4.28125,1.09375 2.15625,0.359375 4.3125,0.359375 Q 40.625,48.1875 47.75,41.5 54.890625,34.8125 54.890625,23.390625 54.890625,11.625 47.5625,5.09375 40.234375,-1.421875 26.90625,-1.421875 q -4.59375,0 -9.359375,0.78125 -4.75,0.78125 -9.828125,2.34375 l 0,9.921875 q 4.390625,-2.390625 9.078125,-3.5625 4.6875,-1.171875 9.90625,-1.171875 8.453125,0 13.375,4.4375 4.9375,4.4375 4.9375,12.0625 0,7.609375 -4.9375,12.046875 -4.921875,4.453125 -13.375,4.453125 -3.953125,0 -7.890625,-0.875 -3.921875,-0.875 -8.015625,-2.734375 z" />
    </defs>
    <defs
       id="defs58">
      <path
         style="stroke-linecap:butt;stroke-linejoin:round;stroke-miterlimit:100000"
         inkscape:connector-curvature="0"
         id="BitstreamVeraSans-Roman-30"
         d="m 31.78125,66.40625 q -7.609375,0 -11.453125,-7.5 Q 16.5,51.421875 16.5,36.375 q 0,-14.984375 3.828125,-22.484375 3.84375,-7.5 11.453125,-7.5 7.671875,0 11.5,7.5 3.84375,7.5 3.84375,22.484375 0,15.046875 -3.84375,22.53125 -3.828125,7.5 -11.5,7.5 m 0,7.8125 q 12.265625,0 18.734375,-9.703125 6.46875,-9.6875 6.46875,-28.140625 0,-18.40625 -6.46875,-28.109375 -6.46875,-9.6875 -18.734375,-9.6875 -12.25,0 -18.71875,9.6875 Q 6.59375,17.96875 6.59375,36.375 q 0,18.453125 6.46875,28.140625 6.46875,9.703125 18.71875,9.703125" />
      <path
         style="stroke-linecap:butt;stroke-linejoin:round;stroke-miterlimit:100000"
         inkscape:connector-curvature="0"
         id="BitstreamVeraSans-Roman-34"
         d="m 37.796875,64.3125 -24.90625,-38.921875 24.90625,0 z m -2.59375,8.59375 12.40625,0 0,-47.515625 10.40625,0 0,-8.203125 -10.40625,0 0,-17.1875 -9.8125,0 0,17.1875 -32.90625,0 0,9.515625 z" />
    </defs>
    <defs
       id="defs50">
      <path
         inkscape:connector-curvature="0"
         style="stroke:#000000;stroke-width:0.5;stroke-linecap:butt;stroke-linejoin:round;stroke-miterlimit:100000"
         id="m9014fe72f6"
         d="M 0,0 0,4" />
    </defs>
    <defs
       id="defs42">
      <path
         inkscape:connector-curvature="0"
         style="stroke:#000000;stroke-width:0.5;stroke-linecap:butt;stroke-linejoin:round;stroke-miterlimit:100000"
         id="m38c8117448"
         d="M 0,0 0,-4" />
    </defs>
    <defs
       id="defs84">
      <path
         style="stroke-linecap:butt;stroke-linejoin:round;stroke-miterlimit:100000"
         inkscape:connector-curvature="0"
         id="BitstreamVeraSans-Roman-36"
         d="m 33.015625,40.375 q -6.640625,0 -10.53125,-4.546875 -3.875,-4.53125 -3.875,-12.4375 0,-7.859375 3.875,-12.4375 3.890625,-4.5625 10.53125,-4.5625 6.640625,0 10.515625,4.5625 3.875,4.578125 3.875,12.4375 0,7.90625 -3.875,12.4375 Q 39.65625,40.375 33.015625,40.375 m 19.578125,30.921875 0,-8.984375 q -3.71875,1.75 -7.5,2.671875 -3.78125,0.9375 -7.5,0.9375 -9.765625,0 -14.921875,-6.59375 -5.140625,-6.59375 -5.875,-19.921875 2.875,4.25 7.21875,6.515625 4.359375,2.265625 9.578125,2.265625 10.984375,0 17.359375,-6.671875 6.375,-6.65625 6.375,-18.125 0,-11.234375 -6.640625,-18.03125 -6.640625,-6.78125 -17.671875,-6.78125 -12.65625,0 -19.34375,9.6875 -6.6875,9.703125 -6.6875,28.109375 0,17.28125 8.203125,27.5625 8.203125,10.28125 22.015625,10.28125 3.71875,0 7.5,-0.734375 3.78125,-0.734375 7.890625,-2.1875" />
    </defs>
    <defs
       id="defs109">
      <path
         style="stroke-linecap:butt;stroke-linejoin:round;stroke-miterlimit:100000"
         inkscape:connector-curvature="0"
         id="BitstreamVeraSans-Roman-38"
         d="m 31.78125,34.625 q -7.03125,0 -11.0625,-3.765625 -4.015625,-3.765625 -4.015625,-10.34375 0,-6.59375 4.015625,-10.359375 4.03125,-3.765625 11.0625,-3.765625 7.03125,0 11.078125,3.78125 4.0625,3.796875 4.0625,10.34375 0,6.578125 -4.03125,10.34375 Q 38.875,34.625 31.78125,34.625 m -9.859375,4.1875 Q 15.578125,40.375 12.03125,44.71875 8.5,49.078125 8.5,55.328125 q 0,8.734375 6.21875,13.8125 6.234375,5.078125 17.0625,5.078125 10.890625,0 17.09375,-5.078125 6.203125,-5.078125 6.203125,-13.8125 0,-6.25 -3.546875,-10.609375 Q 48,40.375 41.703125,38.8125 q 7.125,-1.65625 11.09375,-6.5 3.984375,-4.828125 3.984375,-11.796875 0,-10.609375 -6.46875,-16.28125 -6.46875,-5.65625 -18.53125,-5.65625 -12.046875,0 -18.53125,5.65625 -6.46875,5.671875 -6.46875,16.28125 0,6.96875 4,11.796875 4.015625,4.84375 11.140625,6.5 M 18.3125,54.390625 q 0,-5.65625 3.53125,-8.828125 3.546875,-3.171875 9.9375,-3.171875 6.359375,0 9.9375,3.171875 3.59375,3.171875 3.59375,8.828125 0,5.671875 -3.59375,8.84375 -3.578125,3.171875 -9.9375,3.171875 -6.390625,0 -9.9375,-3.171875 Q 18.3125,60.0625 18.3125,54.390625" />
    </defs>
    <defs
       id="defs134">
      <path
         style="stroke-linecap:butt;stroke-linejoin:round;stroke-miterlimit:100000"
         inkscape:connector-curvature="0"
         id="BitstreamVeraSans-Roman-31"
         d="m 12.40625,8.296875 16.109375,0 0,55.625 -17.53125,-3.515625 0,8.984375 17.4375,3.515625 9.859375,0 0,-64.609375 16.109375,0 0,-8.296875 -41.984375,0 z" />
    </defs>
    <defs
       id="defs161">
      <path
         style="stroke-linecap:butt;stroke-linejoin:round;stroke-miterlimit:100000"
         inkscape:connector-curvature="0"
         id="BitstreamVeraSans-Roman-32"
         d="m 19.1875,8.296875 34.421875,0 0,-8.296875 -46.28125,0 0,8.296875 q 5.609375,5.8125 15.296875,15.59375 9.703125,9.796875 12.1875,12.640625 4.734375,5.3125 6.609375,9 1.890625,3.6875 1.890625,7.25 0,5.8125 -4.078125,9.46875 -4.078125,3.671875 -10.625,3.671875 -4.640625,0 -9.796875,-1.609375 -5.140625,-1.609375 -11,-4.890625 l 0,9.96875 Q 13.765625,71.78125 18.9375,73 q 5.1875,1.21875 9.484375,1.21875 11.328125,0 18.0625,-5.671875 6.734375,-5.65625 6.734375,-15.125 0,-4.5 -1.6875,-8.53125 Q 49.859375,40.875 45.40625,35.40625 44.1875,33.984375 37.640625,27.21875 31.109375,20.453125 19.1875,8.296875" />
    </defs>
  </defs>
  <path
     d="m 0,432 701.19403,0 0,-432 L 0,0 Z"
     style="fill:#ffffff;stroke-linecap:butt;stroke-linejoin:round;stroke-miterlimit:100000"
     id="path10"
     inkscape:connector-curvature="0" />
  <path
     inkscape:connector-curvature="0"
     id="path14"
     style="fill:#ffffff;stroke-linecap:butt;stroke-linejoin:round;stroke-miterlimit:100000"
     d="m 53.19403,396 612,0 0,-360 -612,0 z" />
  <path
     inkscape:connector-curvature="0"
     id="path17"
     style="fill:none;stroke:#000000;stroke-linecap:square;stroke-linejoin:round;stroke-miterlimit:100000"
     d="m 682.62936,366.80894 -13.851,-23.82596 -12.27031,-20.66902 -11.69941,-19.27408 -11.47426,-18.47617 -11.39386,-17.92663 -11.34026,-17.4294 -11.2518,-16.88768 -11.09368,-16.25174 -10.85512,-15.51133 -10.57371,-14.72495 -10.24403,-13.88793 -9.86343,-13.00136 -9.47747,-12.12884 -9.07275,-11.25417 -8.67608,-10.41202 -8.27939,-9.59246 -7.87735,-8.79071 -7.50212,-8.042869 -7.12688,-7.319015 -6.78112,-6.649282 -6.44072,-6.008262 -6.12446,-5.413189 -5.82426,-4.854962 -5.54284,-4.334501 -5.2748,-3.846255 -5.02555,-3.392912 -4.79503,-2.972372 -4.58062,-2.580904 -4.37959,-2.215354 -4.19466,-1.875411 -4.0258,-1.558853 -3.87034,-1.262476 -3.72828,-0.984357 -3.59963,-0.722422 -3.48706,-0.47472 -3.38521,-0.237962 -3.29944,-0.01016 -3.22439,0.211577 -3.16275,0.429802 -3.1145,0.647513 -3.07697,0.867006 -3.05285,1.091833 -3.03945,1.324158 -3.03677,1.566686 -3.04749,1.823893 -3.07162,2.099463 -3.10645,2.39489 -3.15738,2.717619 -3.22439,3.071884 -3.31015,3.464372 -3.42005,3.905395 -3.56478,4.413384 -3.74972,5.002312 -4.00166,5.716614 -4.35545,6.619071 -4.89956,7.862883 -5.88321,9.881763 -8.76183,15.20633 -12.36681,21.40079 -6.79719,11.29858 -5.97703,9.51117 -5.58571,8.47621 -5.37397,7.75503 -5.25336,7.19397 -5.19439,6.73877 -5.17295,6.34888 -5.18368,6.01176 -5.21584,5.71016 -5.27212,5.44328 -5.3445,5.19926 -5.43294,4.97571 -5.5348,4.76798 -5.65273,4.57645 -5.78406,4.39689 -5.9288,4.2278 -6.08962,4.06944 -6.2692,3.9217 -6.4595,3.77804 -6.66857,3.64214 -6.89639,3.51239 -7.13761,3.38488 -7.40297,3.26369 -7.68707,3.14492 -7.99263,3.02872 -8.33035,2.91768 -8.68682,2.80574 -9.07547,2.69644 -9.507,2.59116 -9.96264,2.48338 -10.46386,2.37763 -11.010639,2.27228 -11.619066,2.16893 L 72,300.23821 l 0,0"
     clip-path="url(#p7f88a720f8)"
     transform="translate(-18.80597,0)" />
  <path
     inkscape:connector-curvature="0"
     id="path28"
     style="fill:none;stroke:#000000;stroke-linecap:square;stroke-linejoin:miter;stroke-miterlimit:100000"
     d="m 53.19403,36 612,0" />
  <path
     inkscape:connector-curvature="0"
     id="path31"
     style="fill:none;stroke:#000000;stroke-linecap:square;stroke-linejoin:miter;stroke-miterlimit:100000"
     d="m 665.19403,396 0,-360" />
  <path
     inkscape:connector-curvature="0"
     id="path34"
     style="fill:none;stroke:#000000;stroke-linecap:square;stroke-linejoin:miter;stroke-miterlimit:100000"
     d="m 53.19403,396 612,0" />
  <path
     inkscape:connector-curvature="0"
     id="path37"
     style="fill:none;stroke:#000000;stroke-linecap:square;stroke-linejoin:miter;stroke-miterlimit:100000"
     d="m 53.19403,396 0,-360" />
  <use
     style="stroke:#000000;stroke-width:0.5;stroke-linecap:butt;stroke-linejoin:round;stroke-miterlimit:100000"
     x="116.67153"
     xlink:href="#m38c8117448"
     y="396"
     id="use47"
     width="100%"
     height="100%"
     transform="translate(-18.80597,0)" />
  <use
     style="stroke:#000000;stroke-width:0.5;stroke-linecap:butt;stroke-linejoin:round;stroke-miterlimit:100000"
     x="116.67153"
     xlink:href="#m9014fe72f6"
     y="36"
     id="use55"
     width="100%"
     height="100%"
     transform="translate(-18.80597,0)" />
  <use
     xlink:href="#BitstreamVeraSans-Roman-34"
     id="use64"
     style="stroke-linecap:butt;stroke-linejoin:round;stroke-miterlimit:100000"
     x="0"
     y="0"
     width="100%"
     height="100%"
     transform="matrix(0.12,0,0,-0.12,82.59556,409.11813)" />
  <use
     style="stroke:#000000;stroke-width:0.5;stroke-linecap:butt;stroke-linejoin:round;stroke-miterlimit:100000"
     x="206.0146"
     xlink:href="#m38c8117448"
     y="396"
     id="use76"
     width="100%"
     height="100%"
     transform="translate(-18.80597,0)" />
  <use
     style="stroke:#000000;stroke-width:0.5;stroke-linecap:butt;stroke-linejoin:round;stroke-miterlimit:100000"
     x="206.0146"
     xlink:href="#m9014fe72f6"
     y="36"
     id="use81"
     width="100%"
     height="100%"
     transform="translate(-18.80597,0)" />
  <use
     xlink:href="#BitstreamVeraSans-Roman-36"
     id="use89"
     style="stroke-linecap:butt;stroke-linejoin:round;stroke-miterlimit:100000"
     x="0"
     y="0"
     width="100%"
     height="100%"
     transform="matrix(0.12,0,0,-0.12,171.93863,409.11813)" />
  <use
     style="stroke:#000000;stroke-width:0.5;stroke-linecap:butt;stroke-linejoin:round;stroke-miterlimit:100000"
     x="295.35767"
     xlink:href="#m38c8117448"
     y="396"
     id="use101"
     width="100%"
     height="100%"
     transform="translate(-18.80597,0)" />
  <use
     style="stroke:#000000;stroke-width:0.5;stroke-linecap:butt;stroke-linejoin:round;stroke-miterlimit:100000"
     x="295.35767"
     xlink:href="#m9014fe72f6"
     y="36"
     id="use106"
     width="100%"
     height="100%"
     transform="translate(-18.80597,0)" />
  <use
     xlink:href="#BitstreamVeraSans-Roman-38"
     id="use114"
     style="stroke-linecap:butt;stroke-linejoin:round;stroke-miterlimit:100000"
     x="0"
     y="0"
     width="100%"
     height="100%"
     transform="matrix(0.12,0,0,-0.12,261.28169,409.11813)" />
  <use
     style="stroke:#000000;stroke-width:0.5;stroke-linecap:butt;stroke-linejoin:round;stroke-miterlimit:100000"
     x="384.70074"
     xlink:href="#m38c8117448"
     y="396"
     id="use126"
     width="100%"
     height="100%"
     transform="translate(-18.80597,0)" />
  <use
     style="stroke:#000000;stroke-width:0.5;stroke-linecap:butt;stroke-linejoin:round;stroke-miterlimit:100000"
     x="384.70074"
     xlink:href="#m9014fe72f6"
     y="36"
     id="use131"
     width="100%"
     height="100%"
     transform="translate(-18.80597,0)" />
  <use
     xlink:href="#BitstreamVeraSans-Roman-31"
     id="use139"
     style="stroke-linecap:butt;stroke-linejoin:round;stroke-miterlimit:100000"
     x="0"
     y="0"
     width="100%"
     height="100%"
     transform="matrix(0.12,0,0,-0.12,346.80726,409.11813)" />
  <use
     x="63.623047"
     xlink:href="#BitstreamVeraSans-Roman-30"
     id="use141"
     style="stroke-linecap:butt;stroke-linejoin:round;stroke-miterlimit:100000"
     y="0"
     width="100%"
     height="100%"
     transform="matrix(0.12,0,0,-0.12,346.80726,409.11813)" />
  <use
     style="stroke:#000000;stroke-width:0.5;stroke-linecap:butt;stroke-linejoin:round;stroke-miterlimit:100000"
     x="474.04379"
     xlink:href="#m38c8117448"
     y="396"
     id="use153"
     width="100%"
     height="100%"
     transform="translate(-18.80597,0)" />
  <use
     style="stroke:#000000;stroke-width:0.5;stroke-linecap:butt;stroke-linejoin:round;stroke-miterlimit:100000"
     x="474.04379"
     xlink:href="#m9014fe72f6"
     y="36"
     id="use158"
     width="100%"
     height="100%"
     transform="translate(-18.80597,0)" />
  <use
     xlink:href="#BitstreamVeraSans-Roman-31"
     id="use166"
     style="stroke-linecap:butt;stroke-linejoin:round;stroke-miterlimit:100000"
     x="0"
     y="0"
     width="100%"
     height="100%"
     transform="matrix(0.12,0,0,-0.12,436.15033,409.11813)" />
  <use
     x="63.623047"
     xlink:href="#BitstreamVeraSans-Roman-32"
     id="use168"
     style="stroke-linecap:butt;stroke-linejoin:round;stroke-miterlimit:100000"
     y="0"
     width="100%"
     height="100%"
     transform="matrix(0.12,0,0,-0.12,436.15033,409.11813)" />
  <use
     style="stroke:#000000;stroke-width:0.5;stroke-linecap:butt;stroke-linejoin:round;stroke-miterlimit:100000"
     x="563.38684"
     xlink:href="#m38c8117448"
     y="396"
     id="use180"
     width="100%"
     height="100%"
     transform="translate(-18.80597,0)" />
  <use
     style="stroke:#000000;stroke-width:0.5;stroke-linecap:butt;stroke-linejoin:round;stroke-miterlimit:100000"
     x="563.38684"
     xlink:href="#m9014fe72f6"
     y="36"
     id="use185"
     width="100%"
     height="100%"
     transform="translate(-18.80597,0)" />
  <use
     xlink:href="#BitstreamVeraSans-Roman-31"
     id="use190"
     style="stroke-linecap:butt;stroke-linejoin:round;stroke-miterlimit:100000"
     x="0"
     y="0"
     width="100%"
     height="100%"
     transform="matrix(0.12,0,0,-0.12,525.49339,409.11813)" />
  <use
     x="63.623047"
     xlink:href="#BitstreamVeraSans-Roman-34"
     id="use192"
     style="stroke-linecap:butt;stroke-linejoin:round;stroke-miterlimit:100000"
     y="0"
     width="100%"
     height="100%"
     transform="matrix(0.12,0,0,-0.12,525.49339,409.11813)" />
  <use
     style="stroke:#000000;stroke-width:0.5;stroke-linecap:butt;stroke-linejoin:round;stroke-miterlimit:100000"
     x="652.72992"
     xlink:href="#m38c8117448"
     y="396"
     id="use204"
     width="100%"
     height="100%"
     transform="translate(-18.80597,0)" />
  <use
     style="stroke:#000000;stroke-width:0.5;stroke-linecap:butt;stroke-linejoin:round;stroke-miterlimit:100000"
     x="652.72992"
     xlink:href="#m9014fe72f6"
     y="36"
     id="use209"
     width="100%"
     height="100%"
     transform="translate(-18.80597,0)" />
  <use
     xlink:href="#BitstreamVeraSans-Roman-31"
     id="use214"
     style="stroke-linecap:butt;stroke-linejoin:round;stroke-miterlimit:100000"
     x="0"
     y="0"
     width="100%"
     height="100%"
     transform="matrix(0.12,0,0,-0.12,614.83646,409.11813)" />
  <use
     x="63.623047"
     xlink:href="#BitstreamVeraSans-Roman-36"
     id="use216"
     style="stroke-linecap:butt;stroke-linejoin:round;stroke-miterlimit:100000"
     y="0"
     width="100%"
     height="100%"
     transform="matrix(0.12,0,0,-0.12,614.83646,409.11813)" />
  <use
     height="100%"
     width="100%"
     y="0"
     x="0"
     style="stroke-linecap:butt;stroke-linejoin:round;stroke-miterlimit:100000"
     id="use231"
     xlink:href="#Cmmi10-4b"
     transform="matrix(0.12,0,0,-0.12,351.57403,424.81125)" />
  <use
     height="100%"
     width="100%"
     y="0"
     x="0"
     style="stroke-linecap:butt;stroke-linejoin:round;stroke-miterlimit:100000"
     id="use233"
     xlink:href="#Cmmi10-70"
     transform="matrix(0.084,0,0,-0.084,361.76348,426.852)" />
  <use
     style="stroke:#000000;stroke-width:0.5;stroke-linecap:butt;stroke-linejoin:round;stroke-miterlimit:100000"
     x="72"
     xlink:href="#mdf1bb2bcfc"
     y="396"
     id="use243"
     width="100%"
     height="100%"
     transform="translate(-18.80597,0)" />
  <use
     style="stroke:#000000;stroke-width:0.5;stroke-linecap:butt;stroke-linejoin:round;stroke-miterlimit:100000"
     x="684"
     xlink:href="#mae084403b2"
     y="396"
     id="use251"
     width="100%"
     height="100%"
     transform="translate(-18.80597,0)" />
  <use
     xlink:href="#BitstreamVeraSans-Roman-39"
     id="use259"
     style="stroke-linecap:butt;stroke-linejoin:round;stroke-miterlimit:100000"
     x="0"
     y="0"
     width="100%"
     height="100%"
     transform="matrix(0.12,0,0,-0.12,41.55903,399.31125)" />
  <use
     style="stroke:#000000;stroke-width:0.5;stroke-linecap:butt;stroke-linejoin:round;stroke-miterlimit:100000"
     x="72"
     xlink:href="#mdf1bb2bcfc"
     y="336"
     id="use265"
     width="100%"
     height="100%"
     transform="translate(-18.80597,0)" />
  <use
     style="stroke:#000000;stroke-width:0.5;stroke-linecap:butt;stroke-linejoin:round;stroke-miterlimit:100000"
     x="684"
     xlink:href="#mae084403b2"
     y="336"
     id="use270"
     width="100%"
     height="100%"
     transform="translate(-18.80597,0)" />
  <use
     xlink:href="#BitstreamVeraSans-Roman-31"
     id="use275"
     style="stroke-linecap:butt;stroke-linejoin:round;stroke-miterlimit:100000"
     x="0"
     y="0"
     width="100%"
     height="100%"
     transform="matrix(0.12,0,0,-0.12,33.92403,339.31125)" />
  <use
     x="63.623047"
     xlink:href="#BitstreamVeraSans-Roman-30"
     id="use277"
     style="stroke-linecap:butt;stroke-linejoin:round;stroke-miterlimit:100000"
     y="0"
     width="100%"
     height="100%"
     transform="matrix(0.12,0,0,-0.12,33.92403,339.31125)" />
  <use
     style="stroke:#000000;stroke-width:0.5;stroke-linecap:butt;stroke-linejoin:round;stroke-miterlimit:100000"
     x="72"
     xlink:href="#mdf1bb2bcfc"
     y="276"
     id="use283"
     width="100%"
     height="100%"
     transform="translate(-18.80597,0)" />
  <use
     style="stroke:#000000;stroke-width:0.5;stroke-linecap:butt;stroke-linejoin:round;stroke-miterlimit:100000"
     x="684"
     xlink:href="#mae084403b2"
     y="276"
     id="use288"
     width="100%"
     height="100%"
     transform="translate(-18.80597,0)" />
  <use
     xlink:href="#BitstreamVeraSans-Roman-31"
     id="use293"
     style="stroke-linecap:butt;stroke-linejoin:round;stroke-miterlimit:100000"
     x="0"
     y="0"
     width="100%"
     height="100%"
     transform="matrix(0.12,0,0,-0.12,33.92403,279.31125)" />
  <use
     x="63.623047"
     xlink:href="#BitstreamVeraSans-Roman-31"
     id="use295"
     style="stroke-linecap:butt;stroke-linejoin:round;stroke-miterlimit:100000"
     y="0"
     width="100%"
     height="100%"
     transform="matrix(0.12,0,0,-0.12,33.92403,279.31125)" />
  <use
     style="stroke:#000000;stroke-width:0.5;stroke-linecap:butt;stroke-linejoin:round;stroke-miterlimit:100000"
     x="72"
     xlink:href="#mdf1bb2bcfc"
     y="216"
     id="use301"
     width="100%"
     height="100%"
     transform="translate(-18.80597,0)" />
  <use
     style="stroke:#000000;stroke-width:0.5;stroke-linecap:butt;stroke-linejoin:round;stroke-miterlimit:100000"
     x="684"
     xlink:href="#mae084403b2"
     y="216"
     id="use306"
     width="100%"
     height="100%"
     transform="translate(-18.80597,0)" />
  <use
     xlink:href="#BitstreamVeraSans-Roman-31"
     id="use311"
     style="stroke-linecap:butt;stroke-linejoin:round;stroke-miterlimit:100000"
     x="0"
     y="0"
     width="100%"
     height="100%"
     transform="matrix(0.12,0,0,-0.12,33.92403,219.31125)" />
  <use
     x="63.623047"
     xlink:href="#BitstreamVeraSans-Roman-32"
     id="use313"
     style="stroke-linecap:butt;stroke-linejoin:round;stroke-miterlimit:100000"
     y="0"
     width="100%"
     height="100%"
     transform="matrix(0.12,0,0,-0.12,33.92403,219.31125)" />
  <use
     style="stroke:#000000;stroke-width:0.5;stroke-linecap:butt;stroke-linejoin:round;stroke-miterlimit:100000"
     x="72"
     xlink:href="#mdf1bb2bcfc"
     y="156"
     id="use319"
     width="100%"
     height="100%"
     transform="translate(-18.80597,0)" />
  <use
     style="stroke:#000000;stroke-width:0.5;stroke-linecap:butt;stroke-linejoin:round;stroke-miterlimit:100000"
     x="684"
     xlink:href="#mae084403b2"
     y="156"
     id="use324"
     width="100%"
     height="100%"
     transform="translate(-18.80597,0)" />
  <use
     xlink:href="#BitstreamVeraSans-Roman-31"
     id="use332"
     style="stroke-linecap:butt;stroke-linejoin:round;stroke-miterlimit:100000"
     x="0"
     y="0"
     width="100%"
     height="100%"
     transform="matrix(0.12,0,0,-0.12,33.92403,159.31125)" />
  <use
     x="63.623047"
     xlink:href="#BitstreamVeraSans-Roman-33"
     id="use334"
     style="stroke-linecap:butt;stroke-linejoin:round;stroke-miterlimit:100000"
     y="0"
     width="100%"
     height="100%"
     transform="matrix(0.12,0,0,-0.12,33.92403,159.31125)" />
  <use
     style="stroke:#000000;stroke-width:0.5;stroke-linecap:butt;stroke-linejoin:round;stroke-miterlimit:100000"
     x="72"
     xlink:href="#mdf1bb2bcfc"
     y="96"
     id="use340"
     width="100%"
     height="100%"
     transform="translate(-18.80597,0)" />
  <use
     style="stroke:#000000;stroke-width:0.5;stroke-linecap:butt;stroke-linejoin:round;stroke-miterlimit:100000"
     x="684"
     xlink:href="#mae084403b2"
     y="96"
     id="use345"
     width="100%"
     height="100%"
     transform="translate(-18.80597,0)" />
  <use
     xlink:href="#BitstreamVeraSans-Roman-31"
     id="use350"
     style="stroke-linecap:butt;stroke-linejoin:round;stroke-miterlimit:100000"
     x="0"
     y="0"
     width="100%"
     height="100%"
     transform="matrix(0.12,0,0,-0.12,33.92403,99.31125)" />
  <use
     x="63.623047"
     xlink:href="#BitstreamVeraSans-Roman-34"
     id="use352"
     style="stroke-linecap:butt;stroke-linejoin:round;stroke-miterlimit:100000"
     y="0"
     width="100%"
     height="100%"
     transform="matrix(0.12,0,0,-0.12,33.92403,99.31125)" />
  <use
     style="stroke:#000000;stroke-width:0.5;stroke-linecap:butt;stroke-linejoin:round;stroke-miterlimit:100000"
     x="72"
     xlink:href="#mdf1bb2bcfc"
     y="36"
     id="use358"
     width="100%"
     height="100%"
     transform="translate(-18.80597,0)" />
  <use
     style="stroke:#000000;stroke-width:0.5;stroke-linecap:butt;stroke-linejoin:round;stroke-miterlimit:100000"
     x="684"
     xlink:href="#mae084403b2"
     y="36"
     id="use363"
     width="100%"
     height="100%"
     transform="translate(-18.80597,0)" />
  <use
     xlink:href="#BitstreamVeraSans-Roman-31"
     id="use371"
     style="stroke-linecap:butt;stroke-linejoin:round;stroke-miterlimit:100000"
     x="0"
     y="0"
     width="100%"
     height="100%"
     transform="matrix(0.12,0,0,-0.12,33.92403,39.31125)" />
  <use
     x="63.623047"
     xlink:href="#BitstreamVeraSans-Roman-35"
     id="use373"
     style="stroke-linecap:butt;stroke-linejoin:round;stroke-miterlimit:100000"
     y="0"
     width="100%"
     height="100%"
     transform="matrix(0.12,0,0,-0.12,33.92403,39.31125)" />
  <use
     height="100%"
     width="100%"
     y="0"
     x="0"
     style="stroke-linecap:butt;stroke-linejoin:round;stroke-miterlimit:100000"
     id="use386"
     xlink:href="#BitstreamVeraSans-Roman-70"
     transform="matrix(0,-0.12,-0.12,0,26.428405,235.11469)" />
  <use
     height="100%"
     width="100%"
     y="0"
     style="stroke-linecap:butt;stroke-linejoin:round;stroke-miterlimit:100000"
     id="use388"
     xlink:href="#BitstreamVeraSans-Roman-65"
     x="63.476562"
     transform="matrix(0,-0.12,-0.12,0,26.428405,235.11469)" />
  <use
     height="100%"
     width="100%"
     y="0"
     style="stroke-linecap:butt;stroke-linejoin:round;stroke-miterlimit:100000"
     id="use390"
     xlink:href="#BitstreamVeraSans-Roman-72"
     x="125"
     transform="matrix(0,-0.12,-0.12,0,26.428405,235.11469)" />
  <use
     height="100%"
     width="100%"
     y="0"
     style="stroke-linecap:butt;stroke-linejoin:round;stroke-miterlimit:100000"
     id="use392"
     xlink:href="#BitstreamVeraSans-Roman-69"
     x="166.11328"
     transform="matrix(0,-0.12,-0.12,0,26.428405,235.11469)" />
  <use
     height="100%"
     width="100%"
     y="0"
     style="stroke-linecap:butt;stroke-linejoin:round;stroke-miterlimit:100000"
     id="use394"
     xlink:href="#BitstreamVeraSans-Roman-6f"
     x="193.89648"
     transform="matrix(0,-0.12,-0.12,0,26.428405,235.11469)" />
  <defs
     id="defs398">
    <clipPath
       id="p7f88a720f8"
       style="stroke-linecap:butt;stroke-linejoin:round;stroke-miterlimit:100000">
      <rect
         height="360"
         width="612"
         x="72"
         y="36"
         id="rect401"
         style="stroke-linecap:butt;stroke-linejoin:round;stroke-miterlimit:100000" />
    </clipPath>
  </defs>
  <g
     id="g4867"
     style="stroke-linecap:butt;stroke-linejoin:round;stroke-miterlimit:100000"
     transform="translate(-18.80597,0)">
    <use
       transform="matrix(0,-0.12,-0.12,0,45.234375,235.11469)"
       x="255.07812"
       xlink:href="#BitstreamVeraSans-Roman-64"
       id="use396"
       style="stroke-linecap:butt;stroke-linejoin:round;stroke-miterlimit:100000"
       y="0"
       width="100%"
       height="100%" />
    <text
       transform="matrix(0,-1,1,0,0,0)"
       sodipodi:linespacing="125%"
       id="text4863"
       y="44.362713"
       x="-193.27727"
       style="font-style:normal;font-weight:normal;font-size:11.83292484px;line-height:125%;font-family:sans-serif;letter-spacing:0px;word-spacing:0px;fill:#000000;fill-opacity:1;stroke:none;stroke-width:1px;stroke-linecap:butt;stroke-linejoin:miter;stroke-miterlimit:100000;stroke-opacity:1"
       xml:space="preserve"><tspan
         y="44.362713"
         x="-193.27727"
         style="stroke-linecap:butt;stroke-linejoin:round;stroke-miterlimit:100000"
         id="tspan4865"
         sodipodi:role="line">(s)</tspan></text>
  </g>
</svg>
