<?xml version="1.0" encoding="UTF-8" standalone="no"?>
<!-- Created with matplotlib (http://matplotlib.org/) -->

<svg
   xmlns:dc="http://purl.org/dc/elements/1.1/"
   xmlns:cc="http://creativecommons.org/ns#"
   xmlns:rdf="http://www.w3.org/1999/02/22-rdf-syntax-ns#"
   xmlns:svg="http://www.w3.org/2000/svg"
   xmlns="http://www.w3.org/2000/svg"
   xmlns:xlink="http://www.w3.org/1999/xlink"
   xmlns:sodipodi="http://sodipodi.sourceforge.net/DTD/sodipodi-0.dtd"
   xmlns:inkscape="http://www.inkscape.org/namespaces/inkscape"
   height="432pt"
   version="1.1"
   viewBox="0 0 698.15356 432"
   width="698.15356pt"
   id="svg2"
   inkscape:version="0.91 r"
   sodipodi:docname="oldStretch.svg">
  <metadata
     id="metadata606">
    <rdf:RDF>
      <cc:Work
         rdf:about="">
        <dc:format>image/svg+xml</dc:format>
        <dc:type
           rdf:resource="http://purl.org/dc/dcmitype/StillImage" />
        <dc:title></dc:title>
      </cc:Work>
    </rdf:RDF>
  </metadata>
  <sodipodi:namedview
     pagecolor="#ffffff"
     bordercolor="#666666"
     borderopacity="1"
     objecttolerance="10"
     gridtolerance="10"
     guidetolerance="10"
     inkscape:pageopacity="0"
     inkscape:pageshadow="2"
     inkscape:window-width="1920"
     inkscape:window-height="1028"
     id="namedview604"
     showgrid="false"
     inkscape:zoom="0.84224274"
     inkscape:cx="296.81861"
     inkscape:cy="265.39529"
     inkscape:window-x="0"
     inkscape:window-y="299"
     inkscape:window-maximized="1"
     inkscape:current-layer="svg2"
     fit-margin-top="0"
     fit-margin-left="0"
     fit-margin-right="0"
     fit-margin-bottom="0" />
  <defs
     id="defs4"
     style="stroke-linecap:butt;stroke-linejoin:round;stroke-miterlimit:100000">
    <style
       type="text/css"
       id="style6">
*{stroke-linecap:butt;stroke-linejoin:round;stroke-miterlimit:100000;}
  </style>
    <defs
       id="defs29">
      <path
         inkscape:connector-curvature="0"
         style="stroke:#000000;stroke-width:0.5;stroke-linecap:butt;stroke-linejoin:miter;stroke-miterlimit:100000"
         id="md989944e23"
         d="m -3,3 6,0 0,-6 -6,0 z" />
    </defs>
    <clipPath
       id="p13816ca7cb"
       style="stroke-linecap:butt;stroke-linejoin:round;stroke-miterlimit:100000">
      <rect
         height="360"
         width="612"
         x="72"
         y="36"
         id="rect1208"
         style="stroke-linecap:butt;stroke-linejoin:round;stroke-miterlimit:100000" />
    </clipPath>
    <defs
       id="defs592">
      <path
         d="M 4.890625,0 Q 3.90625,0 3.90625,1.3125 q 0.046875,0.25 0.1875,0.859375 0.15625,0.609375 0.421875,0.96875 0.265625,0.375 0.65625,0.375 6.109375,0 8.546875,0.6875 1.265625,0.4375 1.859375,2.6875 L 29.296875,61.8125 Q 29.5,62.796875 29.5,63.1875 q 0,1.078125 -1.171875,1.21875 -1.90625,0.390625 -7.234375,0.390625 -0.96875,0 -0.96875,1.3125 0.04687,0.25 0.1875,0.859375 0.140625,0.609375 0.40625,0.96875 0.28125,0.375 0.671875,0.375 l 30.3125,0 q 3.625,0 7.53125,-0.828125 3.90625,-0.828125 7.171875,-2.609375 3.265625,-1.78125 5.359375,-4.75 2.109375,-2.953125 2.109375,-6.90625 0,-5.03125 -3.328125,-8.984375 -3.3125,-3.953125 -8.390625,-6.609375 -5.078125,-2.65625 -9.859375,-3.734375 3.90625,-1.421875 6.390625,-4.53125 2.5,-3.09375 2.5,-7.140625 0,-0.53125 -0.03125,-0.8125 -0.01563,-0.265625 -0.07813,-0.609375 l -0.78125,-8.875 Q 60.20312,9.96875 60.10937,8.59375 60.01562,7.234375 60.01562,6.390625 q 0,-2.734375 0.796875,-4.375 0.8125,-1.625 3.203125,-1.625 3.125,0 5.484375,2.90625 2.375,2.90625 3.109375,6.328125 0.4375,0.875 0.96875,0.875 l 0.9375,0 q 0.96875,0 0.96875,-1.3125 Q 74.75,6.296875 73.15625,3.703125 71.578125,1.125 69.15625,-0.53125 66.75,-2.203125 63.921875,-2.203125 q -5.859375,0 -9.984375,2.609375 -4.125,2.625 -4.125,8.1875 0,2.09375 0.390625,3.71875 l 2.1875,8.875 q 0.390625,1.21875 0.390625,2.84375 0,4.140625 -2.8125,6.5 -2.796875,2.375 -7.046875,2.375 l -12.3125,0 L 24.03125,6.5 q -0.25,-0.828125 -0.25,-1.421875 0,-1.03125 1.21875,-1.171875 1.90625,-0.390625 7.171875,-0.390625 1.03125,0 1.03125,-1.3125 Q 32.859375,0.78125 32.65625,0.390625 32.46875,0 31.5,0 Z m 26.3125,35.5 11.078125,0 q 10.890625,0 16.40625,5.515625 2.546875,2.546875 4.03125,6.46875 1.484375,3.9375 1.484375,7.84375 0,3.703125 -2.171875,5.796875 -2.171875,2.109375 -5.375,2.890625 -3.1875,0.78125 -7.046875,0.78125 l -6.6875,0 q -2.734375,0 -3.625,-0.46875 -0.875,-0.453125 -1.59375,-2.953125 z"
         id="Cmmi10-52"
         inkscape:connector-curvature="0"
         style="stroke-linecap:butt;stroke-linejoin:round;stroke-miterlimit:100000" />
    </defs>
    <defs
       id="defs312">
      <path
         d="M 4.890625,0 Q 3.90625,0 3.90625,1.3125 q 0.046875,0.25 0.1875,0.859375 0.15625,0.609375 0.421875,0.96875 0.265625,0.375 0.65625,0.375 6.109375,0 8.546875,0.6875 1.265625,0.4375 1.859375,2.6875 L 29.296875,61.8125 Q 29.5,62.796875 29.5,63.1875 q 0,1.078125 -1.171875,1.21875 -1.90625,0.390625 -7.234375,0.390625 -0.96875,0 -0.96875,1.3125 0.04687,0.25 0.1875,0.859375 0.140625,0.609375 0.40625,0.96875 0.28125,0.375 0.671875,0.375 l 34.515625,0 q 4.734375,0 9.171875,-1.6875 4.453125,-1.6875 7.28125,-5.15625 2.84375,-3.453125 2.84375,-8.390625 0,-6.34375 -4.46875,-11.328125 -4.46875,-4.984375 -11.140625,-7.765625 -6.65625,-2.78125 -12.90625,-2.78125 l -16.265625,0 L 24.3125,6.5 Q 24.125,5.515625 24.125,5.078125 q 0,-0.390625 0.109375,-0.65625 0.125,-0.265625 0.34375,-0.34375 Q 24.8125,4 25.296875,3.90625 27.203125,3.515625 32.515625,3.515625 33.5,3.515625 33.5,2.203125 33.15625,0.78125 32.953125,0.390625 32.765625,0 31.78125,0 Z m 26.015625,34.1875 14.015625,0 q 9.71875,0 14.796875,5.21875 Q 62.3125,42 63.9375,46.875 q 1.640625,4.890625 1.640625,8.84375 0,4.921875 -3.765625,7 -3.75,2.078125 -9.328125,2.078125 l -9.5625,0 q -2.734375,0 -3.625,-0.46875 -0.875,-0.453125 -1.59375,-2.953125 z"
         id="Cmmi10-50"
         inkscape:connector-curvature="0"
         style="stroke-linecap:butt;stroke-linejoin:round;stroke-miterlimit:100000" />
      <path
         d="m 14.59375,21.578125 q 0,-6 2.3125,-10.5625 2.328125,-4.5625 6.75,-7.140625 4.421875,-2.5625 10.421875,-2.5625 6.296875,0 12.125,3.21875 5.84375,3.234375 9.96875,8.625 4.125,5.40625 5.640625,11.453125 0.203125,0.59375 0.78125,0.59375 l 1.21875,0 q 0.390625,0 0.640625,-0.28125 0.25,-0.265625 0.25,-0.609375 0,-0.09375 -0.109375,-0.28125 -1.703125,-6.9375 -6.609375,-13.015625 -4.90625,-6.078125 -11.75,-9.65625 -6.828125,-3.5625 -14.0625,-3.5625 -7.8125,0 -14.015625,3.515625 -6.1875,3.515625 -9.640625,9.765625 -3.4375,6.25 -3.4375,14.125 0,8.390625 3.75,16.609375 3.765625,8.234375 10.109375,14.65625 6.359375,6.421875 14.484375,10.234375 8.125,3.8125 16.484375,3.8125 3.3125,0 6.34375,-1.015625 3.03125,-1 5.609375,-3.046875 2.59375,-2.046875 4.25,-4.734375 l 7.921875,8.59375 q 0,0.203125 0.484375,0.203125 l 0.578125,0 q 0.390625,0 0.640625,-0.34375 0.25,-0.34375 0.25,-0.6875 l -6.796875,-27 q 0,-0.6875 -0.78125,-0.6875 l -1.796875,0 q -0.78125,0 -0.78125,1.125 0.390625,2.203125 0.390625,5.265625 0,4.890625 -1.671875,9.203125 -1.65625,4.328125 -5.15625,6.96875 Q 55.90625,67 50.875,67 42.71875,67 35.9375,62.890625 29.15625,58.796875 24.4375,52.125 19.734375,45.453125 17.15625,37.328125 q -2.5625,-8.125 -2.5625,-15.75"
         id="Cmmi10-43"
         inkscape:connector-curvature="0"
         style="stroke-linecap:butt;stroke-linejoin:round;stroke-miterlimit:100000" />
      <path
         d="m 4.6875,0 q -0.96875,0 -0.96875,1.3125 0.046875,0.25 0.1875,0.859375 0.140625,0.609375 0.40625,0.96875 0.28125,0.375 0.671875,0.375 6.09375,0 8.5,0.6875 1.3125,0.4375 1.890625,2.6875 L 29.109375,61.8125 q 0.1875,0.984375 0.1875,1.375 0,1.078125 -1.21875,1.21875 -1.859375,0.390625 -7.171875,0.390625 -0.984375,0 -0.984375,1.3125 0.34375,1.28125 0.53125,1.734375 0.203125,0.46875 1.125,0.46875 l 29.546875,0 Q 52,68.3125 52,67 q -0.140625,-1.03125 -0.34375,-1.625 -0.1875,-0.578125 -0.96875,-0.578125 -7.375,0 -9.859375,-0.484375 Q 38.375,63.875 37.796875,61.375 L 24.125,6.5 q -0.4375,-1.21875 -0.4375,-2.203125 0,-0.78125 3.40625,-0.78125 l 9.28125,0 q 7.859375,0 12.734375,3.125 4.890625,3.125 7.234375,7.046875 2.34375,3.9375 3.921875,8.15625 1.59375,4.234375 2.328125,4.375 l 0.890625,0 Q 64.5,26.21875 64.5,24.90625 L 55.609375,0.6875 Q 55.46875,0 54.6875,0 Z"
         id="Cmmi10-4c"
         inkscape:connector-curvature="0"
         style="stroke-linecap:butt;stroke-linejoin:round;stroke-miterlimit:100000" />
      <path
         d="M 10.890625,6 Q 11.859375,3.21875 14.5,1.796875 q 2.640625,-1.40625 5.71875,-1.40625 3.125,0 6.03125,2.171875 2.90625,2.171875 4.921875,5.4375 2.03125,3.28125 2.8125,6.5 l 11.8125,47.3125 q 0.109375,0.390625 0.125,0.578125 0.03125,0.203125 0.07813,0.40625 0,1.078125 -0.78125,1.3125 -2.640625,0.6875 -10.703125,0.6875 -1.015625,0 -1.015625,1.3125 0.1875,0.78125 0.3125,1.21875 0.125,0.453125 0.4375,0.71875 0.328125,0.265625 0.953125,0.265625 l 27.109375,0 q 0.96875,0 0.96875,-1.3125 -0.39063,-2.203125 -1.26563,-2.203125 Q 58.5,64.796875 56.6875,64.25 54.890625,63.71875 54.203125,61.375 L 42.390625,14.109375 Q 41.265625,9.46875 37.8125,5.734375 34.375,2 29.640625,-0.09375 24.90625,-2.203125 20.125,-2.203125 q -5.28125,0 -9.265625,2.921875 -3.96875,2.9375 -3.96875,7.96875 0,3.328125 1.796875,5.71875 1.8125,2.390625 5.125,2.390625 1.90625,0 3.203125,-1.171875 1.296875,-1.171875 1.296875,-3.03125 0,-2.6875 -2,-4.6875 -2,-2 -4.6875,-2 -0.546875,0 -0.734375,0.09375"
         id="Cmmi10-4a"
         inkscape:connector-curvature="0"
         style="stroke-linecap:butt;stroke-linejoin:round;stroke-miterlimit:100000" />
    </defs>
    <defs
       id="defs72">
      <path
         style="stroke-linecap:butt;stroke-linejoin:round;stroke-miterlimit:100000"
         inkscape:connector-curvature="0"
         id="BitstreamVeraSans-Roman-30"
         d="m 31.78125,66.40625 q -7.609375,0 -11.453125,-7.5 Q 16.5,51.421875 16.5,36.375 q 0,-14.984375 3.828125,-22.484375 3.84375,-7.5 11.453125,-7.5 7.671875,0 11.5,7.5 3.84375,7.5 3.84375,22.484375 0,15.046875 -3.84375,22.53125 -3.828125,7.5 -11.5,7.5 m 0,7.8125 q 12.265625,0 18.734375,-9.703125 6.46875,-9.6875 6.46875,-28.140625 0,-18.40625 -6.46875,-28.109375 -6.46875,-9.6875 -18.734375,-9.6875 -12.25,0 -18.71875,9.6875 Q 6.59375,17.96875 6.59375,36.375 q 0,18.453125 6.46875,28.140625 6.46875,9.703125 18.71875,9.703125" />
      <path
         style="stroke-linecap:butt;stroke-linejoin:round;stroke-miterlimit:100000"
         inkscape:connector-curvature="0"
         id="BitstreamVeraSans-Roman-2e"
         d="M 10.6875,12.40625 21,12.40625 21,0 10.6875,0 Z" />
    </defs>
    <defs
       id="defs64">
      <path
         inkscape:connector-curvature="0"
         style="stroke:#000000;stroke-width:0.5;stroke-linecap:butt;stroke-linejoin:round;stroke-miterlimit:100000"
         id="m583c25825f"
         d="M 0,0 0,4" />
    </defs>
    <defs
       id="defs56">
      <path
         inkscape:connector-curvature="0"
         style="stroke:#000000;stroke-width:0.5;stroke-linecap:butt;stroke-linejoin:round;stroke-miterlimit:100000"
         id="m79ed73d40d"
         d="M 0,0 0,-4" />
    </defs>
    <defs
       id="defs96">
      <path
         style="stroke-linecap:butt;stroke-linejoin:round;stroke-miterlimit:100000"
         inkscape:connector-curvature="0"
         id="BitstreamVeraSans-Roman-31"
         d="m 12.40625,8.296875 16.109375,0 0,55.625 -17.53125,-3.515625 0,8.984375 17.4375,3.515625 9.859375,0 0,-64.609375 16.109375,0 0,-8.296875 -41.984375,0 z" />
    </defs>
    <defs
       id="defs119">
      <path
         style="stroke-linecap:butt;stroke-linejoin:round;stroke-miterlimit:100000"
         inkscape:connector-curvature="0"
         id="BitstreamVeraSans-Roman-32"
         d="m 19.1875,8.296875 34.421875,0 0,-8.296875 -46.28125,0 0,8.296875 q 5.609375,5.8125 15.296875,15.59375 9.703125,9.796875 12.1875,12.640625 4.734375,5.3125 6.609375,9 1.890625,3.6875 1.890625,7.25 0,5.8125 -4.078125,9.46875 -4.078125,3.671875 -10.625,3.671875 -4.640625,0 -9.796875,-1.609375 -5.140625,-1.609375 -11,-4.890625 l 0,9.96875 Q 13.765625,71.78125 18.9375,73 q 5.1875,1.21875 9.484375,1.21875 11.328125,0 18.0625,-5.671875 6.734375,-5.65625 6.734375,-15.125 0,-4.5 -1.6875,-8.53125 Q 49.859375,40.875 45.40625,35.40625 44.1875,33.984375 37.640625,27.21875 31.109375,20.453125 19.1875,8.296875" />
    </defs>
    <defs
       id="defs142">
      <path
         style="stroke-linecap:butt;stroke-linejoin:round;stroke-miterlimit:100000"
         inkscape:connector-curvature="0"
         id="BitstreamVeraSans-Roman-33"
         d="M 40.578125,39.3125 Q 47.65625,37.796875 51.625,33 q 3.984375,-4.78125 3.984375,-11.8125 0,-10.78125 -7.421875,-16.703125 -7.421875,-5.90625 -21.09375,-5.90625 -4.578125,0 -9.4375,0.90625 -4.859375,0.90625 -10.03125,2.71875 l 0,9.515625 q 4.09375,-2.390625 8.96875,-3.609375 4.890625,-1.21875 10.21875,-1.21875 9.265625,0 14.125,3.65625 4.859375,3.65625 4.859375,10.640625 0,6.453125 -4.515625,10.078125 -4.515625,3.640625 -12.5625,3.640625 l -8.5,0 0,8.109375 8.890625,0 q 7.265625,0 11.125,2.90625 3.859375,2.90625 3.859375,8.375 0,5.609375 -3.984375,8.609375 -3.96875,3.015625 -11.390625,3.015625 -4.0625,0 -8.703125,-0.890625 Q 15.375,64.15625 9.8125,62.3125 l 0,8.78125 q 5.625,1.5625 10.53125,2.34375 4.90625,0.78125 9.25,0.78125 11.234375,0 17.765625,-5.109375 6.546875,-5.09375 6.546875,-13.78125 0,-6.0625 -3.46875,-10.234375 -3.46875,-4.171875 -9.859375,-5.78125" />
    </defs>
    <defs
       id="defs165">
      <path
         style="stroke-linecap:butt;stroke-linejoin:round;stroke-miterlimit:100000"
         inkscape:connector-curvature="0"
         id="BitstreamVeraSans-Roman-34"
         d="m 37.796875,64.3125 -24.90625,-38.921875 24.90625,0 z m -2.59375,8.59375 12.40625,0 0,-47.515625 10.40625,0 0,-8.203125 -10.40625,0 0,-17.1875 -9.8125,0 0,17.1875 -32.90625,0 0,9.515625 z" />
    </defs>
    <defs
       id="defs188">
      <path
         style="stroke-linecap:butt;stroke-linejoin:round;stroke-miterlimit:100000"
         inkscape:connector-curvature="0"
         id="BitstreamVeraSans-Roman-35"
         d="m 10.796875,72.90625 38.71875,0 0,-8.3125 -29.6875,0 0,-17.859375 q 2.140625,0.734375 4.28125,1.09375 2.15625,0.359375 4.3125,0.359375 Q 40.625,48.1875 47.75,41.5 54.890625,34.8125 54.890625,23.390625 54.890625,11.625 47.5625,5.09375 40.234375,-1.421875 26.90625,-1.421875 q -4.59375,0 -9.359375,0.78125 -4.75,0.78125 -9.828125,2.34375 l 0,9.921875 q 4.390625,-2.390625 9.078125,-3.5625 4.6875,-1.171875 9.90625,-1.171875 8.453125,0 13.375,4.4375 4.9375,4.4375 4.9375,12.0625 0,7.609375 -4.9375,12.046875 -4.921875,4.453125 -13.375,4.453125 -3.953125,0 -7.890625,-0.875 -3.921875,-0.875 -8.015625,-2.734375 z" />
    </defs>
    <defs
       id="defs211">
      <path
         style="stroke-linecap:butt;stroke-linejoin:round;stroke-miterlimit:100000"
         inkscape:connector-curvature="0"
         id="BitstreamVeraSans-Roman-36"
         d="m 33.015625,40.375 q -6.640625,0 -10.53125,-4.546875 -3.875,-4.53125 -3.875,-12.4375 0,-7.859375 3.875,-12.4375 3.890625,-4.5625 10.53125,-4.5625 6.640625,0 10.515625,4.5625 3.875,4.578125 3.875,12.4375 0,7.90625 -3.875,12.4375 Q 39.65625,40.375 33.015625,40.375 m 19.578125,30.921875 0,-8.984375 q -3.71875,1.75 -7.5,2.671875 -3.78125,0.9375 -7.5,0.9375 -9.765625,0 -14.921875,-6.59375 -5.140625,-6.59375 -5.875,-19.921875 2.875,4.25 7.21875,6.515625 4.359375,2.265625 9.578125,2.265625 10.984375,0 17.359375,-6.671875 6.375,-6.65625 6.375,-18.125 0,-11.234375 -6.640625,-18.03125 -6.640625,-6.78125 -17.671875,-6.78125 -12.65625,0 -19.34375,9.6875 -6.6875,9.703125 -6.6875,28.109375 0,17.28125 8.203125,27.5625 8.203125,10.28125 22.015625,10.28125 3.71875,0 7.5,-0.734375 3.78125,-0.734375 7.890625,-2.1875" />
    </defs>
    <defs
       id="defs234">
      <path
         style="stroke-linecap:butt;stroke-linejoin:round;stroke-miterlimit:100000"
         inkscape:connector-curvature="0"
         id="BitstreamVeraSans-Roman-37"
         d="m 8.203125,72.90625 46.875,0 0,-4.203125 L 28.609375,0 18.3125,0 l 24.90625,64.59375 -35.015625,0 z" />
    </defs>
    <defs
       id="defs257">
      <path
         style="stroke-linecap:butt;stroke-linejoin:round;stroke-miterlimit:100000"
         inkscape:connector-curvature="0"
         id="BitstreamVeraSans-Roman-38"
         d="m 31.78125,34.625 q -7.03125,0 -11.0625,-3.765625 -4.015625,-3.765625 -4.015625,-10.34375 0,-6.59375 4.015625,-10.359375 4.03125,-3.765625 11.0625,-3.765625 7.03125,0 11.078125,3.78125 4.0625,3.796875 4.0625,10.34375 0,6.578125 -4.03125,10.34375 Q 38.875,34.625 31.78125,34.625 m -9.859375,4.1875 Q 15.578125,40.375 12.03125,44.71875 8.5,49.078125 8.5,55.328125 q 0,8.734375 6.21875,13.8125 6.234375,5.078125 17.0625,5.078125 10.890625,0 17.09375,-5.078125 6.203125,-5.078125 6.203125,-13.8125 0,-6.25 -3.546875,-10.609375 Q 48,40.375 41.703125,38.8125 q 7.125,-1.65625 11.09375,-6.5 3.984375,-4.828125 3.984375,-11.796875 0,-10.609375 -6.46875,-16.28125 -6.46875,-5.65625 -18.53125,-5.65625 -12.046875,0 -18.53125,5.65625 -6.46875,5.671875 -6.46875,16.28125 0,6.96875 4,11.796875 4.015625,4.84375 11.140625,6.5 M 18.3125,54.390625 q 0,-5.65625 3.53125,-8.828125 3.546875,-3.171875 9.9375,-3.171875 6.359375,0 9.9375,3.171875 3.59375,3.171875 3.59375,8.828125 0,5.671875 -3.59375,8.84375 -3.578125,3.171875 -9.9375,3.171875 -6.390625,0 -9.9375,-3.171875 Q 18.3125,60.0625 18.3125,54.390625" />
    </defs>
    <defs
       id="defs280">
      <path
         style="stroke-linecap:butt;stroke-linejoin:round;stroke-miterlimit:100000"
         inkscape:connector-curvature="0"
         id="BitstreamVeraSans-Roman-39"
         d="m 10.984375,1.515625 0,8.984375 Q 14.703125,8.734375 18.5,7.8125 q 3.8125,-0.921875 7.484375,-0.921875 9.765625,0 14.90625,6.5625 5.15625,6.5625 5.890625,19.953125 -2.828125,-4.203125 -7.1875,-6.453125 -4.34375,-2.25 -9.609375,-2.25 -10.9375,0 -17.3125,6.609375 -6.375,6.625 -6.375,18.109375 0,11.21875 6.640625,18 6.640625,6.796875 17.671875,6.796875 12.65625,0 19.3125,-9.703125 6.671875,-9.6875 6.671875,-28.140625 0,-17.234375 -8.1875,-27.515625 -8.171875,-10.28125 -21.984375,-10.28125 -3.71875,0 -7.53125,0.734375 -3.796875,0.734375 -7.90625,2.203125 m 19.625,30.90625 q 6.640625,0 10.515625,4.53125 3.890625,4.546875 3.890625,12.46875 0,7.859375 -3.890625,12.421875 -3.875,4.5625 -10.515625,4.5625 -6.640625,0 -10.515625,-4.5625 -3.875,-4.5625 -3.875,-12.421875 0,-7.921875 3.875,-12.46875 3.875,-4.53125 10.515625,-4.53125" />
    </defs>
    <defs
       id="defs339">
      <path
         inkscape:connector-curvature="0"
         style="stroke:#000000;stroke-width:0.5;stroke-linecap:butt;stroke-linejoin:round;stroke-miterlimit:100000"
         id="mdc375828a3"
         d="M 0,0 -4,0" />
    </defs>
    <defs
       id="defs331">
      <path
         inkscape:connector-curvature="0"
         style="stroke:#000000;stroke-width:0.5;stroke-linecap:butt;stroke-linejoin:round;stroke-miterlimit:100000"
         id="mbfc3b2cf85"
         d="M 0,0 4,0" />
    </defs>
    <clipPath
       id="p2849ffebce"
       style="stroke-linecap:butt;stroke-linejoin:round;stroke-miterlimit:100000">
      <rect
         height="360"
         width="612"
         x="72"
         y="36"
         id="rect8188"
         style="stroke-linecap:butt;stroke-linejoin:round;stroke-miterlimit:100000" />
    </clipPath>
    <clipPath
       id="clipPath3731"
       style="stroke-linecap:butt;stroke-linejoin:round;stroke-miterlimit:100000">
      <rect
         height="360"
         width="612"
         x="72"
         y="36"
         id="rect3733"
         style="stroke-linecap:butt;stroke-linejoin:round;stroke-miterlimit:100000" />
    </clipPath>
    <clipPath
       id="clipPath3735"
       style="stroke-linecap:butt;stroke-linejoin:round;stroke-miterlimit:100000">
      <rect
         height="360"
         width="612"
         x="72"
         y="36"
         id="rect3737"
         style="stroke-linecap:butt;stroke-linejoin:round;stroke-miterlimit:100000" />
    </clipPath>
    <clipPath
       id="clipPath3739"
       style="stroke-linecap:butt;stroke-linejoin:round;stroke-miterlimit:100000">
      <rect
         height="360"
         width="612"
         x="72"
         y="36"
         id="rect3741"
         style="stroke-linecap:butt;stroke-linejoin:round;stroke-miterlimit:100000" />
    </clipPath>
    <clipPath
       id="p1b317e83b9"
       style="stroke-linecap:butt;stroke-linejoin:round;stroke-miterlimit:100000">
      <rect
         height="360"
         width="612"
         x="72"
         y="36"
         id="rect8656"
         style="stroke-linecap:butt;stroke-linejoin:round;stroke-miterlimit:100000" />
    </clipPath>
  </defs>
  <path
     d="m 0,432 698.15357,0 0,-432 L 0,0 Z"
     style="fill:#ffffff;stroke-linecap:butt;stroke-linejoin:round;stroke-miterlimit:100000"
     id="path10"
     inkscape:connector-curvature="0" />
  <path
     inkscape:connector-curvature="0"
     id="path14"
     style="fill:#ffffff;stroke-linecap:butt;stroke-linejoin:round;stroke-miterlimit:100000"
     d="m 50.153567,396 612.000003,0 0,-360 -612.000003,0 z" />
  <path
     inkscape:connector-curvature="0"
     id="path17"
     style="fill:none;stroke:#00310c;stroke-linecap:square;stroke-linejoin:round;stroke-miterlimit:100000;stroke-opacity:1"
     d="m 72,43.792827 29.3729,0.109798 8.8121,0.259273 6.37555,0.402941 5.127,0.539238 4.39367,0.677344 3.91687,0.821115 3.67485,0.999669 3.40668,1.161775 3.24156,1.347222 3.03114,1.499077 2.94536,1.699992 2.82203,1.871305 2.87713,2.167131 2.92995,2.488463 2.97465,2.826495 3.00332,3.165937 3.00567,3.483427 3.36305,4.26634 3.36382,4.644962 3.30402,4.911813 3.72389,5.921364 4.25257,7.210541 4.93269,8.873191 5.82794,11.03117 7.03005,13.81793 19.45259,38.53654 7.35602,13.86512 6.17135,11.10306 4.45565,7.6751 4.74831,7.84377 5.27654,8.29712 0,0"
     clip-path="url(#p10cbb2698f)"
     transform="translate(-21.846433,0)" />
  <path
     inkscape:connector-curvature="0"
     id="path20"
     style="fill:none;stroke:#00310c;stroke-linecap:butt;stroke-linejoin:round;stroke-miterlimit:100000;stroke-dasharray:6, 6;stroke-dashoffset:0;stroke-opacity:1"
     d="m 247.16892,217.31105 2.65624,4.00769 2.73897,4.01373 2.82292,4.01115 2.90779,3.99949 2.99311,3.9784 3.07842,3.9476 3.16315,3.90694 3.24678,3.85641 3.3287,3.7962 3.40836,3.72665 3.48522,3.64832 3.55884,3.56192 3.62882,3.46834 3.69485,3.36858 3.75675,3.26374 3.81442,3.15493 3.86786,3.04332 3.91715,2.92998 3.96244,2.81596 4.00394,2.70218 4.04188,2.5895 4.07655,2.47861 4.1082,2.37009 4.13713,2.26446 4.1636,2.16205 4.18786,2.06316 4.21014,1.96798 4.23069,1.87661 4.24966,1.78912 4.26725,1.70552 4.28362,1.62575 4.29888,1.54976 4.31317,1.47746 4.32659,1.40872 4.33922,1.34343 4.35114,1.28145 4.36242,1.22263 4.37311,1.16685 4.38327,1.11396 4.39293,1.0638 4.40213,1.01625 4.41091,0.97119 4.41929,0.92845 4.42729,0.88795 4.43495,0.84952 4.44227,0.81309 4.44928,0.77853 4.45598,0.74573 4.46241,0.71461 4.46856,0.68507 2.39402,0.35503"
     clip-path="url(#p10cbb2698f)"
     transform="translate(-21.846433,0)" />
  <path
     inkscape:connector-curvature="0"
     id="path23"
     style="fill:none;stroke:#00310c;stroke-linecap:square;stroke-linejoin:round;stroke-miterlimit:100000;stroke-opacity:1"
     d="m 447.06805,331.77891 4.4775,0.64258 4.48301,0.61665 4.48828,0.59201 4.49335,0.56858 4.49818,0.5463 4.50282,0.5251 4.50725,0.50493 4.51151,0.48572 4.51557,0.46743 4.51946,0.45001 4.52319,0.43339 4.52676,0.41755 4.53016,0.40245 4.53343,0.38803 4.53655,0.37428 4.53953,0.36113 4.5424,0.34858 4.54512,0.33658 4.54774,0.32511 4.55023,0.31414 4.55263,0.30365 4.55491,0.2936 4.5571,0.28398 4.55918,0.27477 4.56119,0.26595 4.5631,0.25748 4.56492,0.24937 4.56668,0.24159 4.56834,0.23412 4.56995,0.22695 4.57147,0.22007 4.57294,0.21346 4.57434,0.2071 4.57568,0.201 4.57695,0.19513 4.57819,0.18947 4.57935,0.18405 4.58049,0.17881 4.58155,0.17378 4.58258,0.16893 4.58357,0.16425 4.58452,0.15975 4.58541,0.15542 4.58628,0.15122 4.58711,0.14719 4.5879,0.14329 4.58866,0.13953 4.58939,0.1359 4.59008,0.1324 4.59076,0.12901 4.5914,0.12574 4.59201,0.12258 0.11127,0.003"
     clip-path="url(#p10cbb2698f)"
     transform="translate(-21.846433,0)" />
  <path
     inkscape:connector-curvature="0"
     id="path26"
     style="fill:none;stroke:#00310c;stroke-linecap:square;stroke-linejoin:round;stroke-miterlimit:100000;stroke-opacity:1"
     d="m 247.16892,217.31105 0.0109,-1.88491 0.0322,-1.75632 0.0514,-1.61844 0.0677,-1.48689 0.0807,-1.36759 0.0904,-1.26222 0.097,-1.17244 0.10095,-1.09602 0.10267,-1.0321 0.10255,-0.97999 0.10097,-0.9362 0.0983,-0.89879 0.0948,-0.86794 0.0909,-0.84046 0.0867,-0.81584 0.0824,-0.79546 0.0781,-0.77472 0.074,-0.75403 0.0701,-0.73646 0.0665,-0.71729 0.0632,-0.69729 0.06,-0.67921 0.0573,-0.65936 0.0547,-0.63891 0.0525,-0.61796 0.0505,-0.59647 0.0728,-0.85104 0.0703,-0.80098 0.069,-0.74468 0.0692,-0.68763 0.0712,-0.62046 0.0755,-0.55132 0.0825,-0.48014 0.0932,-0.39861 0.10841,-0.3146 0.12961,-0.22313 0.1582,-0.12579 0.19552,-0.0128 0.24212,0.10092 0.29676,0.21884 0.35574,0.34262 0.41365,0.45208 0.46557,0.54919 0.50906,0.61829 0.54415,0.67892 0.57219,0.72727 0.59477,0.76274 0.61329,0.78811 0.6288,0.80404 0.64211,0.82544 0.65377,0.84092 0.6642,0.85023 0.67367,0.86541 1.02697,1.30886 1.04501,1.32414 1.06147,1.33554 1.07696,1.34996 1.09172,1.35888 1.6644,2.0516 1.69513,2.0628 1.72434,2.07624 1.75261,2.08334 1.78012,2.08862 1.80692,2.09027 1.8331,2.08986 2.79815,3.13296 2.85443,3.11788 2.90807,3.10197 2.9598,3.07705 3.00961,3.04807 3.05749,3.01473 3.10337,2.97575 3.14725,2.93392 3.18909,2.88948 3.2289,2.84341 3.26664,2.79389 3.30234,2.74362 3.33601,2.69282 3.36766,2.64205 3.39733,2.59071 3.42505,2.5388 3.45087,2.48931 3.47482,2.43931 3.49695,2.39111 3.51729,2.34338 3.53592,2.29783 3.55284,2.25323 3.5681,2.21029 3.58174,2.16915 3.59377,2.1294 3.60422,2.09098 3.6131,2.05433 3.62042,2.0193 3.62617,1.98543 3.63035,1.95324 3.63291,1.92277 3.63385,1.89292 3.63309,1.86516 3.63058,1.83785 3.62618,1.81264 3.6198,1.78784 4.27906,2.08959 4.26311,2.05991 4.24206,2.03228 4.21504,2.00785 4.18035,1.98782 4.1354,1.97228 4.076,1.96255 3.99509,1.96114 3.88008,1.97068 3.7066,1.99512 3.42283,2.03969 2.90564,2.1063 1.84587,2.16244 0.1734,0.50347 0.0429,0.38189"
     clip-path="url(#p10cbb2698f)"
     transform="translate(-21.846433,0)" />
  <path
     inkscape:connector-curvature="0"
     id="path42"
     style="fill:none;stroke:#000000;stroke-linecap:square;stroke-linejoin:miter;stroke-miterlimit:100000"
     d="M 50.153567,36 662.15357,36" />
  <path
     inkscape:connector-curvature="0"
     id="path45"
     style="fill:none;stroke:#000000;stroke-linecap:square;stroke-linejoin:miter;stroke-miterlimit:100000"
     d="m 662.15357,396 0,-360" />
  <path
     inkscape:connector-curvature="0"
     id="path48"
     style="fill:none;stroke:#000000;stroke-linecap:square;stroke-linejoin:miter;stroke-miterlimit:100000"
     d="m 50.153567,396 612.000003,0" />
  <path
     inkscape:connector-curvature="0"
     id="path51"
     style="fill:none;stroke:#000000;stroke-linecap:square;stroke-linejoin:miter;stroke-miterlimit:100000"
     d="m 50.153567,396 0,-360" />
  <use
     style="stroke:#000000;stroke-width:0.5;stroke-linecap:butt;stroke-linejoin:round;stroke-miterlimit:100000"
     x="72"
     xlink:href="#m79ed73d40d"
     y="396"
     id="use61"
     width="100%"
     height="100%"
     transform="translate(-21.846433,0)" />
  <use
     style="stroke:#000000;stroke-width:0.5;stroke-linecap:butt;stroke-linejoin:round;stroke-miterlimit:100000"
     x="72"
     xlink:href="#m583c25825f"
     y="36"
     id="use69"
     width="100%"
     height="100%"
     transform="translate(-21.846433,0)" />
  <use
     xlink:href="#BitstreamVeraSans-Roman-30"
     id="use78"
     style="stroke-linecap:butt;stroke-linejoin:round;stroke-miterlimit:100000"
     x="0"
     y="0"
     width="100%"
     height="100%"
     transform="matrix(0.12,0,0,-0.12,40.611692,409.11813)" />
  <use
     x="63.623047"
     xlink:href="#BitstreamVeraSans-Roman-2e"
     id="use80"
     style="stroke-linecap:butt;stroke-linejoin:round;stroke-miterlimit:100000"
     y="0"
     width="100%"
     height="100%"
     transform="matrix(0.12,0,0,-0.12,40.611692,409.11813)" />
  <use
     x="95.410156"
     xlink:href="#BitstreamVeraSans-Roman-30"
     id="use82"
     style="stroke-linecap:butt;stroke-linejoin:round;stroke-miterlimit:100000"
     y="0"
     width="100%"
     height="100%"
     transform="matrix(0.12,0,0,-0.12,40.611692,409.11813)" />
  <use
     style="stroke:#000000;stroke-width:0.5;stroke-linecap:butt;stroke-linejoin:round;stroke-miterlimit:100000"
     x="133.2"
     xlink:href="#m79ed73d40d"
     y="396"
     id="use88"
     width="100%"
     height="100%"
     transform="translate(-21.846433,0)" />
  <use
     style="stroke:#000000;stroke-width:0.5;stroke-linecap:butt;stroke-linejoin:round;stroke-miterlimit:100000"
     x="133.2"
     xlink:href="#m583c25825f"
     y="36"
     id="use93"
     width="100%"
     height="100%"
     transform="translate(-21.846433,0)" />
  <use
     xlink:href="#BitstreamVeraSans-Roman-30"
     id="use101"
     style="stroke-linecap:butt;stroke-linejoin:round;stroke-miterlimit:100000"
     x="0"
     y="0"
     width="100%"
     height="100%"
     transform="matrix(0.12,0,0,-0.12,101.81169,409.11813)" />
  <use
     x="63.623047"
     xlink:href="#BitstreamVeraSans-Roman-2e"
     id="use103"
     style="stroke-linecap:butt;stroke-linejoin:round;stroke-miterlimit:100000"
     y="0"
     width="100%"
     height="100%"
     transform="matrix(0.12,0,0,-0.12,101.81169,409.11813)" />
  <use
     x="95.410156"
     xlink:href="#BitstreamVeraSans-Roman-31"
     id="use105"
     style="stroke-linecap:butt;stroke-linejoin:round;stroke-miterlimit:100000"
     y="0"
     width="100%"
     height="100%"
     transform="matrix(0.12,0,0,-0.12,101.81169,409.11813)" />
  <use
     style="stroke:#000000;stroke-width:0.5;stroke-linecap:butt;stroke-linejoin:round;stroke-miterlimit:100000"
     x="194.39999"
     xlink:href="#m79ed73d40d"
     y="396"
     id="use111"
     width="100%"
     height="100%"
     transform="translate(-21.846433,0)" />
  <use
     style="stroke:#000000;stroke-width:0.5;stroke-linecap:butt;stroke-linejoin:round;stroke-miterlimit:100000"
     x="194.39999"
     xlink:href="#m583c25825f"
     y="36"
     id="use116"
     width="100%"
     height="100%"
     transform="translate(-21.846433,0)" />
  <use
     xlink:href="#BitstreamVeraSans-Roman-30"
     id="use124"
     style="stroke-linecap:butt;stroke-linejoin:round;stroke-miterlimit:100000"
     x="0"
     y="0"
     width="100%"
     height="100%"
     transform="matrix(0.12,0,0,-0.12,163.01169,409.11813)" />
  <use
     x="63.623047"
     xlink:href="#BitstreamVeraSans-Roman-2e"
     id="use126"
     style="stroke-linecap:butt;stroke-linejoin:round;stroke-miterlimit:100000"
     y="0"
     width="100%"
     height="100%"
     transform="matrix(0.12,0,0,-0.12,163.01169,409.11813)" />
  <use
     x="95.410156"
     xlink:href="#BitstreamVeraSans-Roman-32"
     id="use128"
     style="stroke-linecap:butt;stroke-linejoin:round;stroke-miterlimit:100000"
     y="0"
     width="100%"
     height="100%"
     transform="matrix(0.12,0,0,-0.12,163.01169,409.11813)" />
  <use
     style="stroke:#000000;stroke-width:0.5;stroke-linecap:butt;stroke-linejoin:round;stroke-miterlimit:100000"
     x="255.60001"
     xlink:href="#m79ed73d40d"
     y="396"
     id="use134"
     width="100%"
     height="100%"
     transform="translate(-21.846433,0)" />
  <use
     style="stroke:#000000;stroke-width:0.5;stroke-linecap:butt;stroke-linejoin:round;stroke-miterlimit:100000"
     x="255.60001"
     xlink:href="#m583c25825f"
     y="36"
     id="use139"
     width="100%"
     height="100%"
     transform="translate(-21.846433,0)" />
  <use
     xlink:href="#BitstreamVeraSans-Roman-30"
     id="use147"
     style="stroke-linecap:butt;stroke-linejoin:round;stroke-miterlimit:100000"
     x="0"
     y="0"
     width="100%"
     height="100%"
     transform="matrix(0.12,0,0,-0.12,224.21169,409.11813)" />
  <use
     x="63.623047"
     xlink:href="#BitstreamVeraSans-Roman-2e"
     id="use149"
     style="stroke-linecap:butt;stroke-linejoin:round;stroke-miterlimit:100000"
     y="0"
     width="100%"
     height="100%"
     transform="matrix(0.12,0,0,-0.12,224.21169,409.11813)" />
  <use
     x="95.410156"
     xlink:href="#BitstreamVeraSans-Roman-33"
     id="use151"
     style="stroke-linecap:butt;stroke-linejoin:round;stroke-miterlimit:100000"
     y="0"
     width="100%"
     height="100%"
     transform="matrix(0.12,0,0,-0.12,224.21169,409.11813)" />
  <use
     style="stroke:#000000;stroke-width:0.5;stroke-linecap:butt;stroke-linejoin:round;stroke-miterlimit:100000"
     x="316.79999"
     xlink:href="#m79ed73d40d"
     y="396"
     id="use157"
     width="100%"
     height="100%"
     transform="translate(-21.846433,0)" />
  <use
     style="stroke:#000000;stroke-width:0.5;stroke-linecap:butt;stroke-linejoin:round;stroke-miterlimit:100000"
     x="316.79999"
     xlink:href="#m583c25825f"
     y="36"
     id="use162"
     width="100%"
     height="100%"
     transform="translate(-21.846433,0)" />
  <use
     xlink:href="#BitstreamVeraSans-Roman-30"
     id="use170"
     style="stroke-linecap:butt;stroke-linejoin:round;stroke-miterlimit:100000"
     x="0"
     y="0"
     width="100%"
     height="100%"
     transform="matrix(0.12,0,0,-0.12,285.41169,409.11813)" />
  <use
     x="63.623047"
     xlink:href="#BitstreamVeraSans-Roman-2e"
     id="use172"
     style="stroke-linecap:butt;stroke-linejoin:round;stroke-miterlimit:100000"
     y="0"
     width="100%"
     height="100%"
     transform="matrix(0.12,0,0,-0.12,285.41169,409.11813)" />
  <use
     x="95.410156"
     xlink:href="#BitstreamVeraSans-Roman-34"
     id="use174"
     style="stroke-linecap:butt;stroke-linejoin:round;stroke-miterlimit:100000"
     y="0"
     width="100%"
     height="100%"
     transform="matrix(0.12,0,0,-0.12,285.41169,409.11813)" />
  <use
     style="stroke:#000000;stroke-width:0.5;stroke-linecap:butt;stroke-linejoin:round;stroke-miterlimit:100000"
     x="378"
     xlink:href="#m79ed73d40d"
     y="396"
     id="use180"
     width="100%"
     height="100%"
     transform="translate(-21.846433,0)" />
  <use
     style="stroke:#000000;stroke-width:0.5;stroke-linecap:butt;stroke-linejoin:round;stroke-miterlimit:100000"
     x="378"
     xlink:href="#m583c25825f"
     y="36"
     id="use185"
     width="100%"
     height="100%"
     transform="translate(-21.846433,0)" />
  <use
     xlink:href="#BitstreamVeraSans-Roman-30"
     id="use193"
     style="stroke-linecap:butt;stroke-linejoin:round;stroke-miterlimit:100000"
     x="0"
     y="0"
     width="100%"
     height="100%"
     transform="matrix(0.12,0,0,-0.12,346.61169,409.11813)" />
  <use
     x="63.623047"
     xlink:href="#BitstreamVeraSans-Roman-2e"
     id="use195"
     style="stroke-linecap:butt;stroke-linejoin:round;stroke-miterlimit:100000"
     y="0"
     width="100%"
     height="100%"
     transform="matrix(0.12,0,0,-0.12,346.61169,409.11813)" />
  <use
     x="95.410156"
     xlink:href="#BitstreamVeraSans-Roman-35"
     id="use197"
     style="stroke-linecap:butt;stroke-linejoin:round;stroke-miterlimit:100000"
     y="0"
     width="100%"
     height="100%"
     transform="matrix(0.12,0,0,-0.12,346.61169,409.11813)" />
  <use
     style="stroke:#000000;stroke-width:0.5;stroke-linecap:butt;stroke-linejoin:round;stroke-miterlimit:100000"
     x="439.20001"
     xlink:href="#m79ed73d40d"
     y="396"
     id="use203"
     width="100%"
     height="100%"
     transform="translate(-21.846433,0)" />
  <use
     style="stroke:#000000;stroke-width:0.5;stroke-linecap:butt;stroke-linejoin:round;stroke-miterlimit:100000"
     x="439.20001"
     xlink:href="#m583c25825f"
     y="36"
     id="use208"
     width="100%"
     height="100%"
     transform="translate(-21.846433,0)" />
  <use
     xlink:href="#BitstreamVeraSans-Roman-30"
     id="use216"
     style="stroke-linecap:butt;stroke-linejoin:round;stroke-miterlimit:100000"
     x="0"
     y="0"
     width="100%"
     height="100%"
     transform="matrix(0.12,0,0,-0.12,407.81169,409.11813)" />
  <use
     x="63.623047"
     xlink:href="#BitstreamVeraSans-Roman-2e"
     id="use218"
     style="stroke-linecap:butt;stroke-linejoin:round;stroke-miterlimit:100000"
     y="0"
     width="100%"
     height="100%"
     transform="matrix(0.12,0,0,-0.12,407.81169,409.11813)" />
  <use
     x="95.410156"
     xlink:href="#BitstreamVeraSans-Roman-36"
     id="use220"
     style="stroke-linecap:butt;stroke-linejoin:round;stroke-miterlimit:100000"
     y="0"
     width="100%"
     height="100%"
     transform="matrix(0.12,0,0,-0.12,407.81169,409.11813)" />
  <use
     style="stroke:#000000;stroke-width:0.5;stroke-linecap:butt;stroke-linejoin:round;stroke-miterlimit:100000"
     x="500.39999"
     xlink:href="#m79ed73d40d"
     y="396"
     id="use226"
     width="100%"
     height="100%"
     transform="translate(-21.846433,0)" />
  <use
     style="stroke:#000000;stroke-width:0.5;stroke-linecap:butt;stroke-linejoin:round;stroke-miterlimit:100000"
     x="500.39999"
     xlink:href="#m583c25825f"
     y="36"
     id="use231"
     width="100%"
     height="100%"
     transform="translate(-21.846433,0)" />
  <use
     xlink:href="#BitstreamVeraSans-Roman-30"
     id="use239"
     style="stroke-linecap:butt;stroke-linejoin:round;stroke-miterlimit:100000"
     x="0"
     y="0"
     width="100%"
     height="100%"
     transform="matrix(0.12,0,0,-0.12,469.01169,409.11813)" />
  <use
     x="63.623047"
     xlink:href="#BitstreamVeraSans-Roman-2e"
     id="use241"
     style="stroke-linecap:butt;stroke-linejoin:round;stroke-miterlimit:100000"
     y="0"
     width="100%"
     height="100%"
     transform="matrix(0.12,0,0,-0.12,469.01169,409.11813)" />
  <use
     x="95.410156"
     xlink:href="#BitstreamVeraSans-Roman-37"
     id="use243"
     style="stroke-linecap:butt;stroke-linejoin:round;stroke-miterlimit:100000"
     y="0"
     width="100%"
     height="100%"
     transform="matrix(0.12,0,0,-0.12,469.01169,409.11813)" />
  <use
     style="stroke:#000000;stroke-width:0.5;stroke-linecap:butt;stroke-linejoin:round;stroke-miterlimit:100000"
     x="561.59998"
     xlink:href="#m79ed73d40d"
     y="396"
     id="use249"
     width="100%"
     height="100%"
     transform="translate(-21.846433,0)" />
  <use
     style="stroke:#000000;stroke-width:0.5;stroke-linecap:butt;stroke-linejoin:round;stroke-miterlimit:100000"
     x="561.59998"
     xlink:href="#m583c25825f"
     y="36"
     id="use254"
     width="100%"
     height="100%"
     transform="translate(-21.846433,0)" />
  <use
     xlink:href="#BitstreamVeraSans-Roman-30"
     id="use262"
     style="stroke-linecap:butt;stroke-linejoin:round;stroke-miterlimit:100000"
     x="0"
     y="0"
     width="100%"
     height="100%"
     transform="matrix(0.12,0,0,-0.12,530.2117,409.11813)" />
  <use
     x="63.623047"
     xlink:href="#BitstreamVeraSans-Roman-2e"
     id="use264"
     style="stroke-linecap:butt;stroke-linejoin:round;stroke-miterlimit:100000"
     y="0"
     width="100%"
     height="100%"
     transform="matrix(0.12,0,0,-0.12,530.2117,409.11813)" />
  <use
     x="95.410156"
     xlink:href="#BitstreamVeraSans-Roman-38"
     id="use266"
     style="stroke-linecap:butt;stroke-linejoin:round;stroke-miterlimit:100000"
     y="0"
     width="100%"
     height="100%"
     transform="matrix(0.12,0,0,-0.12,530.2117,409.11813)" />
  <use
     style="stroke:#000000;stroke-width:0.5;stroke-linecap:butt;stroke-linejoin:round;stroke-miterlimit:100000"
     x="622.79999"
     xlink:href="#m79ed73d40d"
     y="396"
     id="use272"
     width="100%"
     height="100%"
     transform="translate(-21.846433,0)" />
  <use
     style="stroke:#000000;stroke-width:0.5;stroke-linecap:butt;stroke-linejoin:round;stroke-miterlimit:100000"
     x="622.79999"
     xlink:href="#m583c25825f"
     y="36"
     id="use277"
     width="100%"
     height="100%"
     transform="translate(-21.846433,0)" />
  <use
     xlink:href="#BitstreamVeraSans-Roman-30"
     id="use285"
     style="stroke-linecap:butt;stroke-linejoin:round;stroke-miterlimit:100000"
     x="0"
     y="0"
     width="100%"
     height="100%"
     transform="matrix(0.12,0,0,-0.12,591.41169,409.11813)" />
  <use
     x="63.623047"
     xlink:href="#BitstreamVeraSans-Roman-2e"
     id="use287"
     style="stroke-linecap:butt;stroke-linejoin:round;stroke-miterlimit:100000"
     y="0"
     width="100%"
     height="100%"
     transform="matrix(0.12,0,0,-0.12,591.41169,409.11813)" />
  <use
     x="95.410156"
     xlink:href="#BitstreamVeraSans-Roman-39"
     id="use289"
     style="stroke-linecap:butt;stroke-linejoin:round;stroke-miterlimit:100000"
     y="0"
     width="100%"
     height="100%"
     transform="matrix(0.12,0,0,-0.12,591.41169,409.11813)" />
  <use
     style="stroke:#000000;stroke-width:0.5;stroke-linecap:butt;stroke-linejoin:round;stroke-miterlimit:100000"
     x="684"
     xlink:href="#m79ed73d40d"
     y="396"
     id="use295"
     width="100%"
     height="100%"
     transform="translate(-21.846433,0)" />
  <use
     style="stroke:#000000;stroke-width:0.5;stroke-linecap:butt;stroke-linejoin:round;stroke-miterlimit:100000"
     x="684"
     xlink:href="#m583c25825f"
     y="36"
     id="use300"
     width="100%"
     height="100%"
     transform="translate(-21.846433,0)" />
  <use
     xlink:href="#BitstreamVeraSans-Roman-31"
     id="use305"
     style="stroke-linecap:butt;stroke-linejoin:round;stroke-miterlimit:100000"
     x="0"
     y="0"
     width="100%"
     height="100%"
     transform="matrix(0.12,0,0,-0.12,652.61169,409.11813)" />
  <use
     x="63.623047"
     xlink:href="#BitstreamVeraSans-Roman-2e"
     id="use307"
     style="stroke-linecap:butt;stroke-linejoin:round;stroke-miterlimit:100000"
     y="0"
     width="100%"
     height="100%"
     transform="matrix(0.12,0,0,-0.12,652.61169,409.11813)" />
  <use
     x="95.410156"
     xlink:href="#BitstreamVeraSans-Roman-30"
     id="use309"
     style="stroke-linecap:butt;stroke-linejoin:round;stroke-miterlimit:100000"
     y="0"
     width="100%"
     height="100%"
     transform="matrix(0.12,0,0,-0.12,652.61169,409.11813)" />
  <use
     height="100%"
     width="100%"
     y="0"
     x="0"
     style="stroke-linecap:butt;stroke-linejoin:round;stroke-miterlimit:100000"
     id="use320"
     xlink:href="#Cmmi10-4a"
     transform="matrix(0.12,0,0,-0.12,343.85357,425.64937)" />
  <use
     height="100%"
     width="100%"
     y="0"
     x="0"
     style="stroke-linecap:butt;stroke-linejoin:round;stroke-miterlimit:100000"
     id="use322"
     xlink:href="#Cmmi10-50"
     transform="matrix(0.084,0,0,-0.084,350.50396,427.69012)" />
  <use
     height="100%"
     width="100%"
     y="0"
     x="0"
     style="stroke-linecap:butt;stroke-linejoin:round;stroke-miterlimit:100000"
     id="use324"
     xlink:href="#Cmmi10-4c"
     transform="matrix(0.084,0,0,-0.084,355.89752,427.69012)" />
  <use
     height="100%"
     width="100%"
     y="0"
     x="0"
     style="stroke-linecap:butt;stroke-linejoin:round;stroke-miterlimit:100000"
     id="use326"
     xlink:href="#Cmmi10-43"
     transform="matrix(0.084,0,0,-0.084,361.61099,427.69012)" />
  <use
     style="stroke:#000000;stroke-width:0.5;stroke-linecap:butt;stroke-linejoin:round;stroke-miterlimit:100000"
     x="72"
     xlink:href="#mbfc3b2cf85"
     y="396"
     id="use336"
     width="100%"
     height="100%"
     transform="translate(-21.846433,0)" />
  <use
     style="stroke:#000000;stroke-width:0.5;stroke-linecap:butt;stroke-linejoin:round;stroke-miterlimit:100000"
     x="684"
     xlink:href="#mdc375828a3"
     y="396"
     id="use344"
     width="100%"
     height="100%"
     transform="translate(-21.846433,0)" />
  <use
     x="63.623047"
     xlink:href="#BitstreamVeraSans-Roman-2e"
     id="use351"
     style="stroke-linecap:butt;stroke-linejoin:round;stroke-miterlimit:100000"
     y="0"
     width="100%"
     height="100%"
     transform="matrix(0.12,0,0,-0.12,27.069027,399.37062)" />
  <use
     x="349.90234"
     xlink:href="#BitstreamVeraSans-Roman-31"
     id="use361"
     style="stroke-linecap:butt;stroke-linejoin:round;stroke-miterlimit:100000"
     y="0"
     width="100%"
     height="100%"
     transform="matrix(0.12,0,0,-0.12,-21.940183,399.31125)" />
  <use
     x="413.52539"
     xlink:href="#BitstreamVeraSans-Roman-35"
     id="use363"
     style="stroke-linecap:butt;stroke-linejoin:round;stroke-miterlimit:100000"
     y="0"
     width="100%"
     height="100%"
     transform="matrix(0.12,0,0,-0.12,-21.940183,399.31125)" />
  <use
     x="477.14844"
     xlink:href="#BitstreamVeraSans-Roman-30"
     id="use365"
     style="stroke-linecap:butt;stroke-linejoin:round;stroke-miterlimit:100000"
     y="0"
     width="100%"
     height="100%"
     transform="matrix(0.12,0,0,-0.12,-18.740183,399.31125)" />
  <use
     style="stroke:#000000;stroke-width:0.5;stroke-linecap:butt;stroke-linejoin:round;stroke-miterlimit:100000"
     x="72"
     xlink:href="#mbfc3b2cf85"
     y="344.57144"
     id="use371"
     width="100%"
     height="100%"
     transform="translate(-21.846433,0)" />
  <use
     style="stroke:#000000;stroke-width:0.5;stroke-linecap:butt;stroke-linejoin:round;stroke-miterlimit:100000"
     x="684"
     xlink:href="#mdc375828a3"
     y="344.57144"
     id="use376"
     width="100%"
     height="100%"
     transform="translate(-21.846433,0)" />
  <use
     x="63.623047"
     xlink:href="#BitstreamVeraSans-Roman-2e"
     id="use383"
     style="stroke-linecap:butt;stroke-linejoin:round;stroke-miterlimit:100000"
     y="0"
     width="100%"
     height="100%"
     transform="matrix(0.12,0,0,-0.12,27.069027,347.94205)" />
  <use
     x="349.90234"
     xlink:href="#BitstreamVeraSans-Roman-31"
     id="use393"
     style="stroke-linecap:butt;stroke-linejoin:round;stroke-miterlimit:100000"
     y="0"
     width="100%"
     height="100%"
     transform="matrix(0.12,0,0,-0.12,-21.940183,347.88268)" />
  <use
     x="413.52539"
     xlink:href="#BitstreamVeraSans-Roman-37"
     id="use395"
     style="stroke-linecap:butt;stroke-linejoin:round;stroke-miterlimit:100000"
     y="0"
     width="100%"
     height="100%"
     transform="matrix(0.12,0,0,-0.12,-21.940183,347.88268)" />
  <use
     x="477.14844"
     xlink:href="#BitstreamVeraSans-Roman-35"
     id="use397"
     style="stroke-linecap:butt;stroke-linejoin:round;stroke-miterlimit:100000"
     y="0"
     width="100%"
     height="100%"
     transform="matrix(0.12,0,0,-0.12,-18.740183,347.88268)" />
  <use
     style="stroke:#000000;stroke-width:0.5;stroke-linecap:butt;stroke-linejoin:round;stroke-miterlimit:100000"
     x="72"
     xlink:href="#mbfc3b2cf85"
     y="293.14285"
     id="use403"
     width="100%"
     height="100%"
     transform="translate(-21.846433,0)" />
  <use
     style="stroke:#000000;stroke-width:0.5;stroke-linecap:butt;stroke-linejoin:round;stroke-miterlimit:100000"
     x="684"
     xlink:href="#mdc375828a3"
     y="293.14285"
     id="use408"
     width="100%"
     height="100%"
     transform="translate(-21.846433,0)" />
  <use
     x="63.623047"
     xlink:href="#BitstreamVeraSans-Roman-2e"
     id="use415"
     style="stroke-linecap:butt;stroke-linejoin:round;stroke-miterlimit:100000"
     y="0"
     width="100%"
     height="100%"
     transform="matrix(0.12,0,0,-0.12,27.069027,296.51348)" />
  <use
     x="349.90234"
     xlink:href="#BitstreamVeraSans-Roman-32"
     id="use425"
     style="stroke-linecap:butt;stroke-linejoin:round;stroke-miterlimit:100000"
     y="0"
     width="100%"
     height="100%"
     transform="matrix(0.12,0,0,-0.12,-21.940183,296.45411)" />
  <use
     x="413.52539"
     xlink:href="#BitstreamVeraSans-Roman-30"
     id="use427"
     style="stroke-linecap:butt;stroke-linejoin:round;stroke-miterlimit:100000"
     y="0"
     width="100%"
     height="100%"
     transform="matrix(0.12,0,0,-0.12,-21.940183,296.45411)" />
  <use
     x="477.14844"
     xlink:href="#BitstreamVeraSans-Roman-30"
     id="use429"
     style="stroke-linecap:butt;stroke-linejoin:round;stroke-miterlimit:100000"
     y="0"
     width="100%"
     height="100%"
     transform="matrix(0.12,0,0,-0.12,-18.740183,296.45411)" />
  <use
     style="stroke:#000000;stroke-width:0.5;stroke-linecap:butt;stroke-linejoin:round;stroke-miterlimit:100000"
     x="72"
     xlink:href="#mbfc3b2cf85"
     y="241.71428"
     id="use435"
     width="100%"
     height="100%"
     transform="translate(-21.846433,0)" />
  <use
     style="stroke:#000000;stroke-width:0.5;stroke-linecap:butt;stroke-linejoin:round;stroke-miterlimit:100000"
     x="684"
     xlink:href="#mdc375828a3"
     y="241.71428"
     id="use440"
     width="100%"
     height="100%"
     transform="translate(-21.846433,0)" />
  <use
     x="63.623047"
     xlink:href="#BitstreamVeraSans-Roman-2e"
     id="use447"
     style="stroke-linecap:butt;stroke-linejoin:round;stroke-miterlimit:100000"
     y="0"
     width="100%"
     height="100%"
     transform="matrix(0.12,0,0,-0.12,27.069027,245.08491)" />
  <use
     x="349.90234"
     xlink:href="#BitstreamVeraSans-Roman-32"
     id="use457"
     style="stroke-linecap:butt;stroke-linejoin:round;stroke-miterlimit:100000"
     y="0"
     width="100%"
     height="100%"
     transform="matrix(0.12,0,0,-0.12,-21.940183,245.02554)" />
  <use
     x="413.52539"
     xlink:href="#BitstreamVeraSans-Roman-32"
     id="use459"
     style="stroke-linecap:butt;stroke-linejoin:round;stroke-miterlimit:100000"
     y="0"
     width="100%"
     height="100%"
     transform="matrix(0.12,0,0,-0.12,-21.940183,245.02554)" />
  <use
     x="477.14844"
     xlink:href="#BitstreamVeraSans-Roman-35"
     id="use461"
     style="stroke-linecap:butt;stroke-linejoin:round;stroke-miterlimit:100000"
     y="0"
     width="100%"
     height="100%"
     transform="matrix(0.12,0,0,-0.12,-18.740183,245.02554)" />
  <use
     style="stroke:#000000;stroke-width:0.5;stroke-linecap:butt;stroke-linejoin:round;stroke-miterlimit:100000"
     x="72"
     xlink:href="#mbfc3b2cf85"
     y="190.28572"
     id="use467"
     width="100%"
     height="100%"
     transform="translate(-21.846433,0)" />
  <use
     style="stroke:#000000;stroke-width:0.5;stroke-linecap:butt;stroke-linejoin:round;stroke-miterlimit:100000"
     x="684"
     xlink:href="#mdc375828a3"
     y="190.28572"
     id="use472"
     width="100%"
     height="100%"
     transform="translate(-21.846433,0)" />
  <use
     x="63.623047"
     xlink:href="#BitstreamVeraSans-Roman-2e"
     id="use479"
     style="stroke-linecap:butt;stroke-linejoin:round;stroke-miterlimit:100000"
     y="0"
     width="100%"
     height="100%"
     transform="matrix(0.12,0,0,-0.12,27.069027,193.65633)" />
  <use
     x="349.90234"
     xlink:href="#BitstreamVeraSans-Roman-32"
     id="use489"
     style="stroke-linecap:butt;stroke-linejoin:round;stroke-miterlimit:100000"
     y="0"
     width="100%"
     height="100%"
     transform="matrix(0.12,0,0,-0.12,-21.940183,193.59696)" />
  <use
     x="413.52539"
     xlink:href="#BitstreamVeraSans-Roman-35"
     id="use491"
     style="stroke-linecap:butt;stroke-linejoin:round;stroke-miterlimit:100000"
     y="0"
     width="100%"
     height="100%"
     transform="matrix(0.12,0,0,-0.12,-21.940183,193.59696)" />
  <use
     x="477.14844"
     xlink:href="#BitstreamVeraSans-Roman-30"
     id="use493"
     style="stroke-linecap:butt;stroke-linejoin:round;stroke-miterlimit:100000"
     y="0"
     width="100%"
     height="100%"
     transform="matrix(0.12,0,0,-0.12,-18.740183,193.59696)" />
  <use
     style="stroke:#000000;stroke-width:0.5;stroke-linecap:butt;stroke-linejoin:round;stroke-miterlimit:100000"
     x="72"
     xlink:href="#mbfc3b2cf85"
     y="138.85715"
     id="use499"
     width="100%"
     height="100%"
     transform="translate(-21.846433,0)" />
  <use
     style="stroke:#000000;stroke-width:0.5;stroke-linecap:butt;stroke-linejoin:round;stroke-miterlimit:100000"
     x="684"
     xlink:href="#mdc375828a3"
     y="138.85715"
     id="use504"
     width="100%"
     height="100%"
     transform="translate(-21.846433,0)" />
  <use
     x="63.623047"
     xlink:href="#BitstreamVeraSans-Roman-2e"
     id="use511"
     style="stroke-linecap:butt;stroke-linejoin:round;stroke-miterlimit:100000"
     y="0"
     width="100%"
     height="100%"
     transform="matrix(0.12,0,0,-0.12,27.069027,142.22776)" />
  <use
     x="349.90234"
     xlink:href="#BitstreamVeraSans-Roman-32"
     id="use521"
     style="stroke-linecap:butt;stroke-linejoin:round;stroke-miterlimit:100000"
     y="0"
     width="100%"
     height="100%"
     transform="matrix(0.12,0,0,-0.12,-21.940183,142.16839)" />
  <use
     x="413.52539"
     xlink:href="#BitstreamVeraSans-Roman-37"
     id="use523"
     style="stroke-linecap:butt;stroke-linejoin:round;stroke-miterlimit:100000"
     y="0"
     width="100%"
     height="100%"
     transform="matrix(0.12,0,0,-0.12,-21.940183,142.16839)" />
  <use
     x="477.14844"
     xlink:href="#BitstreamVeraSans-Roman-35"
     id="use525"
     style="stroke-linecap:butt;stroke-linejoin:round;stroke-miterlimit:100000"
     y="0"
     width="100%"
     height="100%"
     transform="matrix(0.12,0,0,-0.12,-18.740183,142.16839)" />
  <use
     style="stroke:#000000;stroke-width:0.5;stroke-linecap:butt;stroke-linejoin:round;stroke-miterlimit:100000"
     x="72"
     xlink:href="#mbfc3b2cf85"
     y="87.428574"
     id="use531"
     width="100%"
     height="100%"
     transform="translate(-21.846433,0)" />
  <use
     style="stroke:#000000;stroke-width:0.5;stroke-linecap:butt;stroke-linejoin:round;stroke-miterlimit:100000"
     x="684"
     xlink:href="#mdc375828a3"
     y="87.428574"
     id="use536"
     width="100%"
     height="100%"
     transform="translate(-21.846433,0)" />
  <use
     x="63.623047"
     xlink:href="#BitstreamVeraSans-Roman-2e"
     id="use543"
     style="stroke-linecap:butt;stroke-linejoin:round;stroke-miterlimit:100000"
     y="0"
     width="100%"
     height="100%"
     transform="matrix(0.12,0,0,-0.12,27.069027,90.799186)" />
  <use
     x="349.90234"
     xlink:href="#BitstreamVeraSans-Roman-33"
     id="use553"
     style="stroke-linecap:butt;stroke-linejoin:round;stroke-miterlimit:100000"
     y="0"
     width="100%"
     height="100%"
     transform="matrix(0.12,0,0,-0.12,-21.940183,90.739821)" />
  <use
     x="413.52539"
     xlink:href="#BitstreamVeraSans-Roman-30"
     id="use555"
     style="stroke-linecap:butt;stroke-linejoin:round;stroke-miterlimit:100000"
     y="0"
     width="100%"
     height="100%"
     transform="matrix(0.12,0,0,-0.12,-21.940183,90.739821)" />
  <use
     x="477.14844"
     xlink:href="#BitstreamVeraSans-Roman-30"
     id="use557"
     style="stroke-linecap:butt;stroke-linejoin:round;stroke-miterlimit:100000"
     y="0"
     width="100%"
     height="100%"
     transform="matrix(0.12,0,0,-0.12,-18.740183,90.739821)" />
  <use
     style="stroke:#000000;stroke-width:0.5;stroke-linecap:butt;stroke-linejoin:round;stroke-miterlimit:100000"
     x="72"
     xlink:href="#mbfc3b2cf85"
     y="36"
     id="use563"
     width="100%"
     height="100%"
     transform="translate(-21.846433,0)" />
  <use
     style="stroke:#000000;stroke-width:0.5;stroke-linecap:butt;stroke-linejoin:round;stroke-miterlimit:100000"
     x="684"
     xlink:href="#mdc375828a3"
     y="36"
     id="use568"
     width="100%"
     height="100%"
     transform="translate(-21.846433,0)" />
  <use
     x="63.623047"
     xlink:href="#BitstreamVeraSans-Roman-2e"
     id="use575"
     style="stroke-linecap:butt;stroke-linejoin:round;stroke-miterlimit:100000"
     y="0"
     width="100%"
     height="100%"
     transform="matrix(0.12,0,0,-0.12,27.069027,39.370615)" />
  <use
     x="349.90234"
     xlink:href="#BitstreamVeraSans-Roman-33"
     id="use585"
     style="stroke-linecap:butt;stroke-linejoin:round;stroke-miterlimit:100000"
     y="0"
     width="100%"
     height="100%"
     transform="matrix(0.12,0,0,-0.12,-21.940183,39.31125)" />
  <use
     x="413.52539"
     xlink:href="#BitstreamVeraSans-Roman-32"
     id="use587"
     style="stroke-linecap:butt;stroke-linejoin:round;stroke-miterlimit:100000"
     y="0"
     width="100%"
     height="100%"
     transform="matrix(0.12,0,0,-0.12,-21.940183,39.31125)" />
  <use
     x="477.14844"
     xlink:href="#BitstreamVeraSans-Roman-35"
     id="use589"
     style="stroke-linecap:butt;stroke-linejoin:round;stroke-miterlimit:100000"
     y="0"
     width="100%"
     height="100%"
     transform="matrix(0.12,0,0,-0.12,-18.740183,39.31125)" />
  <defs
     id="defs599">
    <clipPath
       id="p10cbb2698f"
       style="stroke-linecap:butt;stroke-linejoin:round;stroke-miterlimit:100000">
      <rect
         height="360"
         width="612"
         x="72"
         y="36"
         id="rect602"
         style="stroke-linecap:butt;stroke-linejoin:round;stroke-miterlimit:100000" />
    </clipPath>
  </defs>
  <path
     inkscape:connector-curvature="0"
     id="path632"
     style="fill:none;stroke:#00310c;stroke-linecap:square;stroke-linejoin:round;stroke-miterlimit:100000;stroke-opacity:1"
     d="m 247.16892,217.31105 0.0109,2.0131 0.0322,2.13724 0.0514,2.23474 0.0677,2.31451 0.0807,2.37907 0.0904,2.4317 0.097,2.47495 0.10095,2.5108 0.10267,2.5408 0.10255,2.56564 0.10097,2.58568 0.0983,2.60156 0.0948,2.61189 0.0909,2.6188 0.0867,2.61943 0.0824,2.61688 0.0781,2.60813 0.074,2.59646 0.0701,2.57865 0.0665,2.55735 0.0632,2.53119 0.06,2.50188 0.0573,2.46683 0.0547,2.42703 0.0525,2.38312 0.0505,2.33625 0.0728,3.40459 0.0703,3.27227 0.069,3.12161 0.0692,2.95384 0.0712,2.77268 0.0755,2.57636 0.0825,2.3685 0.0932,2.14983 0.10841,1.92783 0.12961,1.70357 0.1582,1.48165 0.19552,1.26857 0.24212,1.06844 0.29676,0.88674 0.35574,0.72546 0.41365,0.58607 0.46557,0.47702 0.50906,0.38844 0.54415,0.32094 0.57219,0.27257 0.59477,0.23706 0.61329,0.20751 0.6288,0.18501 0.64211,0.17226 0.65377,0.15736 0.6642,0.1472 0.67367,0.14222 1.02697,0.19774 1.04501,0.19098 1.06147,0.18482 1.07696,0.17833 1.09172,0.17584 1.6644,0.26487 1.69513,0.26201 1.72434,0.26224 1.75261,0.26718 1.78012,0.2701 1.80692,0.27395 1.8331,0.27893 2.79815,0.42925 2.85443,0.43995 2.90807,0.45126 2.9598,0.46143 3.00961,0.47264 3.05749,0.48092 3.10337,0.48743 3.14725,0.4977 3.18909,0.50072 3.2289,0.50522 3.26664,0.50944 3.30234,0.50857 3.33601,0.51145 3.36766,0.50887 3.39733,0.50518 3.42505,0.50293 3.45087,0.49926 3.47482,0.49277 3.49695,0.48508 3.51729,0.47795 3.53592,0.46892 3.55284,0.45951 3.5681,0.44885 3.58174,0.43761 3.59377,0.42716 3.60422,0.41319 3.6131,0.40173 3.62042,0.3876 3.62617,0.37201 3.63035,0.3588 3.63291,0.34198 3.63385,0.32592 3.63309,0.30871 3.63058,0.28949 3.62618,0.2719 3.6198,0.24949 4.27906,0.26896 4.26311,0.23426 4.24206,0.19746 4.21504,0.15502 4.18035,0.10668 4.1354,0.0513 4.076,-0.0156 3.99509,-0.098 3.88008,-0.20365 3.7066,-0.34586 3.42283,-0.54986 2.90564,-0.86667 1.84587,-1.38664 0.1734,-0.43107 0.0429,-0.36399"
     clip-path="url(#p13816ca7cb)"
     transform="translate(-21.83138,0.76331308)" />
  <g
     transform="translate(-21.80815,-0.27223117)"
     id="line2d_1"
     style="stroke:#33bb3d;stroke-linecap:butt;stroke-linejoin:round;stroke-miterlimit:100000;stroke-opacity:1">
    <path
       clip-path="url(#p2849ffebce)"
       d="m 72,213.0927 7.265955,0.13025 8.019899,0.39828 11.433994,0.82246 12.721422,1.12057 8.45019,0.9551 6.93577,1.00224 6.24727,1.12747 5.73009,1.2581 5.52321,1.44304 5.11531,1.55884 5.13073,1.79614 5.003,1.99046 4.98873,2.23105 4.83934,2.40528 4.90865,2.68224 5.30619,3.1656 5.30402,3.42151 6.15094,4.25057 6.65643,4.87561 8.86776,6.79318 10.70439,8.37713 0,0"
       style="fill:none;stroke:#33bb3d;stroke-linecap:square;stroke-linejoin:round;stroke-miterlimit:100000;stroke-opacity:1"
       id="path7741"
       inkscape:connector-curvature="0" />
  </g>
  <g
     transform="translate(-21.80815,-0.27223117)"
     id="line2d_2"
     style="stroke:#33bb3d;stroke-linecap:butt;stroke-linejoin:round;stroke-miterlimit:100000;stroke-opacity:1">
    <path
       clip-path="url(#p2849ffebce)"
       d="m 217.30329,264.89782 0.6248,0.48824 0.62929,0.49127 0.63385,0.49429 0.63847,0.49726 0.64314,0.50023 0.64787,0.50316 0.65267,0.50606 0.65753,0.50893 0.66246,0.51178 0.66744,0.5146 0.6725,0.51737 0.67761,0.52012 0.68281,0.52283 0.68806,0.52551 0.6934,0.52815 0.69879,0.53075 0.70426,0.53331 0.70981,0.53584 0.71543,0.53832 0.72113,0.54076 0.7269,0.54316 0.73275,0.54551 0.73869,0.54782 0.74469,0.55008 0.7508,0.5523 0.75697,0.55446 0.76324,0.55658 0.76958,0.55865 0.77603,0.56066 0.78255,0.56262 0.78918,0.56453 0.79588,0.56639 0.80269,0.56818 0.8096,0.56992 0.81659,0.57161 0.82369,0.57323 0.83088,0.57479 0.83819,0.5763 0.84559,0.57774 0.8531,0.57913 0.86072,0.58044 0.86844,0.58169 0.87628,0.58288 0.88423,0.584 0.8923,0.58506 0.90049,0.58605 0.90878,0.58696 0.91722,0.58781 0.92576,0.58859 0.93443,0.5893 0.94324,0.58994 0.95217,0.59051 0.96123,0.59099 0.97044,0.59142 0.97977,0.59176 0.98926,0.59203 0.99887,0.59222 1.00865,0.59235 1.01855,0.59238 1.02862,0.59236 1.03884,0.59224 1.04922,0.59206 1.05975,0.59179 1.07045,0.59145 1.08132,0.59102 1.09234,0.59052 1.10355,0.58994 1.11492,0.58929 1.12648,0.58854 1.13822,0.58772 1.15015,0.58683 1.16225,0.58584 1.17456,0.58479 1.18706,0.58365 1.19976,0.58243 1.21267,0.58114 1.22577,0.57975 1.2391,0.5783 1.25263,0.57676 1.26639,0.57515 1.28038,0.57345 1.29458,0.57168 1.30902,0.56982 1.3237,0.5679 1.33862,0.56588 1.35378,0.5638 1.3692,0.56164 1.38486,0.5594 1.4008,0.55708 1.41699,0.55469 1.43345,0.55223 1.45018,0.54968 1.46721,0.54707 1.4845,0.54439 1.50209,0.54163 1.51997,0.53879 1.53815,0.53589 1.55664,0.53292 1.57543,0.52988 1.59454,0.52677 1.61397,0.52358 1.63372,0.52035 1.6538,0.51703 1.67422,0.51365 1.69497,0.51021 1.71607,0.50671 1.73751,0.50314 1.75932,0.49951 1.78147,0.49582 1.80399,0.49207 1.82687,0.48827 1.85013,0.4844 1.87376,0.48048 1.89776,0.4765 1.92216,0.47247 1.94691,0.46839 1.97208,0.46426 1.99762,0.46006 2.02355,0.45584 2.04988,0.45155 2.07659,0.44722 2.1037,0.44284 2.13121,0.43842 2.1591,0.43396 2.09214,0.41096"
       style="fill:none;stroke:#33bb3d;stroke-linecap:butt;stroke-linejoin:round;stroke-miterlimit:100000;stroke-dasharray:6, 6;stroke-dashoffset:0;stroke-opacity:1"
       id="path7744"
       inkscape:connector-curvature="0" />
  </g>
  <g
     transform="translate(-21.80815,-0.27223117)"
     id="line2d_3"
     style="stroke:#33bb3d;stroke-linecap:butt;stroke-linejoin:round;stroke-miterlimit:100000;stroke-opacity:1">
    <path
       clip-path="url(#p2849ffebce)"
       d="m 363.82367,332.95049 2.2148,0.4251 2.24385,0.42052 2.27326,0.4159 2.30307,0.41123 2.33324,0.40654 2.36377,0.40181 2.39468,0.39706 2.42593,0.39226 2.45752,0.38744 2.48944,0.38259 2.5217,0.37772 2.55425,0.37282 2.5871,0.3679 2.62023,0.36296 2.65364,0.358 2.68728,0.35302 2.72117,0.34803 2.75526,0.34302 2.78954,0.33801 2.824,0.33298 2.85859,0.32795 2.89333,0.32291 2.92814,0.31786 2.96305,0.31283 2.99798,0.30779 3.03296,0.30276 3.0679,0.29773 3.10282,0.29271 3.13768,0.2877 3.17242,0.28272 3.20705,0.27773 3.24152,0.27278 3.2758,0.26785 3.30986,0.26294 3.34368,0.25806 3.37721,0.2532 3.41045,0.24839 3.44334,0.2436 3.47587,0.23886 3.50801,0.23415 3.53974,0.22948 3.57103,0.22487 3.60185,0.22029 3.63218,0.21577 3.66202,0.21129 3.69132,0.20688 3.72008,0.20252 3.74828,0.19821 3.77591,0.19396 3.80296,0.18977 3.8294,0.18566 3.85524,0.18159 3.88047,0.17759 3.90508,0.17367 3.92907,0.1698 3.95242,0.166 3.97516,0.16228 3.99727,0.15861 4.01876,0.15502 4.03961,0.15151 4.05986,0.14805 4.07949,0.14467 4.09852,0.14135 4.11696,0.13812 4.1348,0.13494 4.15206,0.13184 4.16876,0.1288 4.18489,0.12583 4.20049,0.12293 4.21554,0.1201 4.23007,0.11733 4.2441,0.11462 4.25761,0.11199 4.27066,0.10941 4.28322,0.1069 4.29533,0.10444 4.307,0.10206 4.31823,0.0997 4.32904,0.0975 4.33945,0.0952 4.34946,0.0931 4.35911,0.091 4.36837,0.0889 4.37729,0.0869 4.38587,0.085 4.39411,0.0831 4.40203,0.0812 4.40965,0.0794 4.41698,0.0777 4.42402,0.0759 1.91412,0.0323"
       style="fill:none;stroke:#33bb3d;stroke-linecap:square;stroke-linejoin:round;stroke-miterlimit:100000;stroke-opacity:1"
       id="path7747"
       inkscape:connector-curvature="0" />
  </g>
  <g
     transform="translate(-21.80815,-0.27223117)"
     id="line2d_4"
     style="stroke:#33bb3d;stroke-linecap:butt;stroke-linejoin:round;stroke-miterlimit:100000;stroke-opacity:1">
    <path
       clip-path="url(#p2849ffebce)"
       d="m 217.30329,264.89782 0.0989,1.66791 0.35643,2.31387 0.72699,3.22442 1.37299,4.94701 2.66981,8.59043 3.58146,10.83694 1.86302,5.06545 1.48305,3.51019 1.33412,2.69696 1.62707,2.71872 1.29517,1.7758 1.46867,1.67824 1.60097,1.51037 1.66922,1.30644 2.52968,1.61 2.50611,1.28916 3.2935,1.39388 4.07253,1.42033 4.88284,1.42987 5.76138,1.45042 7.59559,1.66786 8.76937,1.69796 10.11232,1.73845 10.62511,1.6177 11.10323,1.47805 10.40666,1.17769 9.46151,0.87059 8.29006,0.56423 6.95152,0.27597 5.53752,0.0267 4.15927,-0.16213 3.58688,-0.36261 2.34473,-0.45563 1.39479,-0.44823 1.04498,-0.54502 0.66714,-0.64501 0.22493,-0.4861 0.0452,-0.26051 -0.0451,0.2599 0,0 -0.22472,0.48615 -0.40142,0.44126 -0.92149,0.57818 -1.28147,0.48009 -1.60916,0.38636 -2.59249,0.37961 -3.83502,0.27861 -4.3448,0.0908 -5.69107,-0.0968 -7.05686,-0.34048 -8.34078,-0.6197 -10.50585,-1.02978 -11.35039,-1.36206 0,0"
       style="fill:none;stroke:#33bb3d;stroke-linecap:square;stroke-linejoin:round;stroke-miterlimit:100000;stroke-opacity:1"
       id="path7750"
       inkscape:connector-curvature="0" />
  </g>
  <g
     transform="translate(-21.795259,-0.65198117)"
     id="line2d_4-3"
     style="stroke:#33bb3d;stroke-linecap:butt;stroke-linejoin:round;stroke-miterlimit:100000;stroke-opacity:1">
    <path
       clip-path="url(#p1b317e83b9)"
       d="m 217.30329,264.89782 0.0989,-1.36205 0.27941,-1.03346 0.45314,-0.7792 0.61593,-0.54674 0.76435,-0.33961 0.89596,-0.16148 1.22402,5.5e-4 1.84225,0.25277 2.63262,0.62151 2.94925,0.92661 2.77651,1.07949 3.34534,1.51128 5.79987,2.90184 44.18503,22.74191 19.43613,9.53341 42.11003,20.51367 6.1934,3.30321 4.52713,2.65942 3.00841,2.04778 1.78351,1.49927 0.92178,1.03009 0.53641,0.94078 0.13538,0.57517 -0.13511,-0.57449 0,0 -0.53611,-0.94066 -0.92149,-1.03007 -1.28147,-1.11181 -2.21217,-1.59509 -3.45234,-2.14576 -4.9274,-2.74749 -7.48063,-3.8637 -12.25096,-6.01798 -25.00292,-12.05061 0,0"
       style="fill:none;stroke:#33bb3d;stroke-linecap:square;stroke-linejoin:round;stroke-miterlimit:100000;stroke-opacity:1"
       id="path8218"
       inkscape:connector-curvature="0" />
  </g>
  <text
     xml:space="preserve"
     style="font-style:normal;font-variant:normal;font-weight:500;font-stretch:normal;font-size:21.89526749px;line-height:125%;font-family:'Century Schoolbook L';-inkscape-font-specification:'Century Schoolbook L Medium';letter-spacing:0px;word-spacing:0px;fill:#000000;fill-opacity:1;stroke:none;stroke-width:1px;stroke-linecap:butt;stroke-linejoin:miter;stroke-miterlimit:100000;stroke-opacity:1"
     x="290.15741"
     y="26.567785"
     id="text4599"
     sodipodi:linespacing="125%"><tspan
       sodipodi:role="line"
       id="tspan4601"
       style="font-style:normal;font-variant:normal;font-weight:500;font-stretch:normal;font-family:'Century Schoolbook L';-inkscape-font-specification:'Century Schoolbook L Medium';stroke-linecap:butt;stroke-linejoin:round;stroke-miterlimit:100000"
       x="290.15741"
       y="26.567785">Old stretch</tspan></text>
</svg>
