<?xml version="1.0" encoding="UTF-8" standalone="no"?>
<!-- Created with Inkscape (http://www.inkscape.org/) -->

<svg
   xmlns:dc="http://purl.org/dc/elements/1.1/"
   xmlns:cc="http://creativecommons.org/ns#"
   xmlns:rdf="http://www.w3.org/1999/02/22-rdf-syntax-ns#"
   xmlns:svg="http://www.w3.org/2000/svg"
   xmlns="http://www.w3.org/2000/svg"
   xmlns:sodipodi="http://sodipodi.sourceforge.net/DTD/sodipodi-0.dtd"
   xmlns:inkscape="http://www.inkscape.org/namespaces/inkscape"
   id="svg2"
   version="1.1"
   inkscape:version="0.91 r"
   xml:space="preserve"
   width="726.25"
   height="661.25"
   viewBox="0 0 726.25 661.25"
   sodipodi:docname="codim2zoom.svg"><metadata
     id="metadata8"><rdf:RDF><cc:Work
         rdf:about=""><dc:format>image/svg+xml</dc:format><dc:type
           rdf:resource="http://purl.org/dc/dcmitype/StillImage" /><dc:title></dc:title></cc:Work></rdf:RDF></metadata><defs
     id="defs6"><clipPath
       clipPathUnits="userSpaceOnUse"
       id="clipPath20"><path
         d="m 72,493 473.398,0 0,-457.199 L 72,35.801 72,493 Z"
         id="path22"
         inkscape:connector-curvature="0" /></clipPath><clipPath
       clipPathUnits="userSpaceOnUse"
       id="clipPath30"><path
         d="m 223,105 227,0 0,190 -227,0 0,-190 z"
         id="path32"
         inkscape:connector-curvature="0" /></clipPath><clipPath
       clipPathUnits="userSpaceOnUse"
       id="clipPath44"><path
         d="m 71,293 155,0 0,164 -155,0 0,-164 z"
         id="path46"
         inkscape:connector-curvature="0" /></clipPath><clipPath
       clipPathUnits="userSpaceOnUse"
       id="clipPath58"><path
         d="m 71,283 344,0 0,15 -344,0 0,-15 z"
         id="path60"
         inkscape:connector-curvature="0" /></clipPath><clipPath
       clipPathUnits="userSpaceOnUse"
       id="clipPath72"><path
         d="m 270,293 133,0 0,234 -133,0 0,-234 z"
         id="path74"
         inkscape:connector-curvature="0" /></clipPath><clipPath
       clipPathUnits="userSpaceOnUse"
       id="clipPath86"><path
         d="m 237,293 139,0 0,234 -139,0 0,-234 z"
         id="path88"
         inkscape:connector-curvature="0" /></clipPath><clipPath
       clipPathUnits="userSpaceOnUse"
       id="clipPath100"><path
         d="m 268,293 114,0 0,198 -114,0 0,-198 z"
         id="path102"
         inkscape:connector-curvature="0" /></clipPath><clipPath
       clipPathUnits="userSpaceOnUse"
       id="clipPath114"><path
         d="m 282,282 134,0 0,179 -134,0 0,-179 z"
         id="path116"
         inkscape:connector-curvature="0" /></clipPath><clipPath
       clipPathUnits="userSpaceOnUse"
       id="clipPath128"><path
         d="m 418,274 10,0 0,10 -10,0 0,-10 z"
         id="path130"
         inkscape:connector-curvature="0" /></clipPath><clipPath
       clipPathUnits="userSpaceOnUse"
       id="clipPath142"><path
         d="m 396,285 7,0 0,7 -7,0 0,-7 z"
         id="path144"
         inkscape:connector-curvature="0" /></clipPath><clipPath
       clipPathUnits="userSpaceOnUse"
       id="clipPath156"><path
         d="m 396,285 7,0 0,7 -7,0 0,-7 z"
         id="path158"
         inkscape:connector-curvature="0" /></clipPath><clipPath
       clipPathUnits="userSpaceOnUse"
       id="clipPath336"><path
         d="m 222,107 224,0 0,189 -224,0 0,-189 z"
         id="path338"
         inkscape:connector-curvature="0" /></clipPath><mask
       maskUnits="userSpaceOnUse"
       x="0"
       y="0"
       width="1"
       height="1"
       id="mask340"><g
         id="g342"><g
           clip-path="url(#clipPath336)"
           id="g344"><path
             d="m 222,107 224,0 0,189 -224,0 0,-189 z"
             style="fill:#000000;fill-opacity:0.28000004;fill-rule:nonzero;stroke:none"
             id="path346"
             inkscape:connector-curvature="0" /></g></g></mask><clipPath
       clipPathUnits="userSpaceOnUse"
       id="clipPath352"><path
         d="m 222,107 224,0 0,189 -224,0 0,-189 z"
         id="path354"
         inkscape:connector-curvature="0" /></clipPath><clipPath
       clipPathUnits="userSpaceOnUse"
       id="clipPath356"><path
         d="m 222,107 224,0 0,189 -224,0 0,-189 z"
         id="path358"
         inkscape:connector-curvature="0" /></clipPath><clipPath
       clipPathUnits="userSpaceOnUse"
       id="clipPath378"><path
         d="m 225,107 223,0 0,189 -223,0 0,-189 z"
         id="path380"
         inkscape:connector-curvature="0" /></clipPath><mask
       maskUnits="userSpaceOnUse"
       x="0"
       y="0"
       width="1"
       height="1"
       id="mask382"><g
         id="g384"><g
           clip-path="url(#clipPath378)"
           id="g386"><path
             d="m 225,107 223,0 0,189 -223,0 0,-189 z"
             style="fill:#000000;fill-opacity:0.28000004;fill-rule:nonzero;stroke:none"
             id="path388"
             inkscape:connector-curvature="0" /></g></g></mask><clipPath
       clipPathUnits="userSpaceOnUse"
       id="clipPath394"><path
         d="m 225,107 223,0 0,189 -223,0 0,-189 z"
         id="path396"
         inkscape:connector-curvature="0" /></clipPath><clipPath
       clipPathUnits="userSpaceOnUse"
       id="clipPath398"><path
         d="m 225,107 223,0 0,189 -223,0 0,-189 z"
         id="path400"
         inkscape:connector-curvature="0" /></clipPath><clipPath
       clipPathUnits="userSpaceOnUse"
       id="clipPath420"><path
         d="m 71,291 150,0 0,165 -150,0 0,-165 z"
         id="path422"
         inkscape:connector-curvature="0" /></clipPath><mask
       maskUnits="userSpaceOnUse"
       x="0"
       y="0"
       width="1"
       height="1"
       id="mask424"><g
         id="g426"><g
           clip-path="url(#clipPath420)"
           id="g428"><path
             d="m 71,291 150,0 0,165 -150,0 0,-165 z"
             style="fill:#000000;fill-opacity:0.28000004;fill-rule:nonzero;stroke:none"
             id="path430"
             inkscape:connector-curvature="0" /></g></g></mask><clipPath
       clipPathUnits="userSpaceOnUse"
       id="clipPath436"><path
         d="m 71,291 150,0 0,165 -150,0 0,-165 z"
         id="path438"
         inkscape:connector-curvature="0" /></clipPath><clipPath
       clipPathUnits="userSpaceOnUse"
       id="clipPath440"><path
         d="m 71,291 150,0 0,165 -150,0 0,-165 z"
         id="path442"
         inkscape:connector-curvature="0" /></clipPath><clipPath
       clipPathUnits="userSpaceOnUse"
       id="clipPath462"><path
         d="m 72,287 335,0 0,206 -335,0 0,-206 z"
         id="path464"
         inkscape:connector-curvature="0" /></clipPath><mask
       maskUnits="userSpaceOnUse"
       x="0"
       y="0"
       width="1"
       height="1"
       id="mask466"><g
         id="g468"><g
           clip-path="url(#clipPath462)"
           id="g470"><path
             d="m 72,287 335,0 0,206 -335,0 0,-206 z"
             style="fill:#000000;fill-opacity:0.19299999;fill-rule:nonzero;stroke:none"
             id="path472"
             inkscape:connector-curvature="0" /></g></g></mask><clipPath
       clipPathUnits="userSpaceOnUse"
       id="clipPath478"><path
         d="m 72,287 335,0 0,206 -335,0 0,-206 z"
         id="path480"
         inkscape:connector-curvature="0" /></clipPath><clipPath
       clipPathUnits="userSpaceOnUse"
       id="clipPath482"><path
         d="m 72,287 335,0 0,206 -335,0 0,-206 z"
         id="path484"
         inkscape:connector-curvature="0" /></clipPath><clipPath
       clipPathUnits="userSpaceOnUse"
       id="clipPath518"><path
         d="m 73,292 300,0 0,201 -300,0 0,-201 z"
         id="path520"
         inkscape:connector-curvature="0" /></clipPath><mask
       maskUnits="userSpaceOnUse"
       x="0"
       y="0"
       width="1"
       height="1"
       id="mask522"><g
         id="g524"><g
           clip-path="url(#clipPath518)"
           id="g526"><path
             d="m 73,292 300,0 0,201 -300,0 0,-201 z"
             style="fill:#000000;fill-opacity:0.82099998;fill-rule:nonzero;stroke:none"
             id="path528"
             inkscape:connector-curvature="0" /></g></g></mask><clipPath
       clipPathUnits="userSpaceOnUse"
       id="clipPath534"><path
         d="m 73,292 300,0 0,201 -300,0 0,-201 z"
         id="path536"
         inkscape:connector-curvature="0" /></clipPath><clipPath
       clipPathUnits="userSpaceOnUse"
       id="clipPath538"><path
         d="m 73,292 300,0 0,201 -300,0 0,-201 z"
         id="path540"
         inkscape:connector-curvature="0" /></clipPath><clipPath
       clipPathUnits="userSpaceOnUse"
       id="clipPath560"><path
         d="m 72,292 302,0 0,201 -302,0 0,-201 z"
         id="path562"
         inkscape:connector-curvature="0" /></clipPath><mask
       maskUnits="userSpaceOnUse"
       x="0"
       y="0"
       width="1"
       height="1"
       id="mask564"><g
         id="g566"><g
           clip-path="url(#clipPath560)"
           id="g568"><path
             d="m 72,292 302,0 0,201 -302,0 0,-201 z"
             style="fill:#000000;fill-opacity:0.82099998;fill-rule:nonzero;stroke:none"
             id="path570"
             inkscape:connector-curvature="0" /></g></g></mask><clipPath
       clipPathUnits="userSpaceOnUse"
       id="clipPath576"><path
         d="m 72,292 302,0 0,201 -302,0 0,-201 z"
         id="path578"
         inkscape:connector-curvature="0" /></clipPath><clipPath
       clipPathUnits="userSpaceOnUse"
       id="clipPath580"><path
         d="m 72,292 302,0 0,201 -302,0 0,-201 z"
         id="path582"
         inkscape:connector-curvature="0" /></clipPath></defs><sodipodi:namedview
     pagecolor="#ffffff"
     bordercolor="#666666"
     borderopacity="1"
     objecttolerance="10"
     gridtolerance="10"
     guidetolerance="10"
     inkscape:pageopacity="0"
     inkscape:pageshadow="2"
     inkscape:window-width="1210"
     inkscape:window-height="795"
     id="namedview4"
     showgrid="false"
     inkscape:zoom="1.0094651"
     inkscape:cx="342.66389"
     inkscape:cy="395.36109"
     inkscape:window-x="0"
     inkscape:window-y="0"
     inkscape:window-maximized="0"
     inkscape:current-layer="g10" /><g
     id="g10"
     inkscape:groupmode="layer"
     inkscape:label="codim2zoom"
     transform="matrix(1.25,0,0,-1.25,0,661.25)"><g
       id="g12"><path
         d="M 0,0 581,0 581,529 0,529 0,0 Z"
         style="fill:#ffffff;fill-opacity:1;fill-rule:nonzero;stroke:none"
         id="path14"
         inkscape:connector-curvature="0" /></g><g
       id="g16"><g
         id="g18"
         clip-path="url(#clipPath20)"><g
           id="g24"><g
             id="g26"><g
               id="g28"
               clip-path="url(#clipPath30)"><g
                 id="g34"><path
                   d="m 224.363,293.789 39.293,-71.457 8.942,-15.664 7.601,-12.871 6.785,-11.07 6.196,-9.688 5.754,-8.594 5.363,-7.621 5.074,-6.828 4.809,-6.101 4.574,-5.457 4.379,-4.879 4.195,-4.348 4.039,-3.871 3.895,-3.43 3.758,-3.015 3.636,-2.633 3.535,-2.293 3.442,-1.969 3.355,-1.664 3.258,-1.371 3.192,-1.106 3.124,-0.851 3.09,-0.617 3.02,-0.379 3.058,-0.16 3.274,0.082 3.019,0.308 3.016,0.539 3,0.762 3.02,1 3.019,1.234 3.051,1.489 3.062,1.742 3.094,2.019 3.121,2.301 3.141,2.598 3.156,2.898 3.168,3.211 3.164,3.527 3.153,3.852 3.113,4.152 3.058,4.457 2.981,4.735 2.863,4.976 2.731,5.18 2.566,5.352 2.375,5.464 2.16,5.536 1.938,5.566 1.691,5.543 1.449,5.496 1.196,5.41 0.949,5.309 0.699,5.183 0.457,5.055 0.227,4.918 -0.004,4.77 -0.223,4.625 -0.437,4.488 -0.649,4.348 -0.848,4.214 -1.05,4.086 -1.246,3.965 -1.45,3.86 -1.648,3.761 -1.859,3.696 -2.114,3.695 -2.5,3.918 -3.886,5.609 -1.793,2.293 -1.606,1.684 -4.285,3.957 -1.922,1.383 -2.355,1.418 -2.836,1.441 -3.293,1.418 -3.754,1.371 -4.227,1.301 -4.672,1.203 -0.355,0.086"
                   style="fill:none;stroke:#000dff;stroke-width:1;stroke-linecap:square;stroke-linejoin:round;stroke-miterlimit:4;stroke-dasharray:none;stroke-opacity:1"
                   id="path36"
                   inkscape:connector-curvature="0" /></g></g></g></g><g
           id="g38"><g
             id="g40"><g
               id="g42"
               clip-path="url(#clipPath44)"><g
                 id="g48"><path
                   d="m 224.363,293.789 -15.586,27.68 -8.472,14.5 -7.575,12.527 -7.05,11.246 -6.594,10.102 -6.258,9.187 -5.961,8.367 -5.719,7.641 -5.492,6.977 -5.293,6.367 -5.121,5.82 -4.969,5.309 -4.812,4.82 -4.691,4.391 -4.567,3.965 -4.449,3.578 -4.359,3.222 -4.258,2.871 -4.172,2.547 -4.094,2.242 -4.019,1.95 -3.957,1.675 -3.926,1.418 -3.836,1.157 -3.824,0.922 -3.797,0.687 -3.711,0.449 -3.805,0.235 -1.984,0.031"
                   style="fill:none;stroke:#000dff;stroke-width:1;stroke-linecap:square;stroke-linejoin:round;stroke-miterlimit:4;stroke-dasharray:none;stroke-opacity:1"
                   id="path50"
                   inkscape:connector-curvature="0" /></g></g></g></g><g
           id="g52"><g
             id="g54"><g
               id="g56"
               clip-path="url(#clipPath58)"><g
                 id="g62"><path
                   d="m 401.984,293.789 3.668,-3.652 3.305,-2.989 2.836,-2.281 1.777,-1.222 -1,0.507 -2.547,1.086 -3.332,1.172 -3.992,1.164 -4.554,1.094 -5.114,0.996 -5.676,0.875 -6.304,0.75 -7.028,0.613 -8.019,0.465 -9.16,0.309 -11.219,0.14 -16.465,-0.039 -30.086,-0.097 -15.008,0.199 -14.273,0.414 -15,0.66 -19.742,1.117 -26.539,1.485 -12.805,0.476 -10.867,0.192 -10.238,-0.051 -9.747,-0.27 -9.871,-0.504 -10.55,-0.761 -12.512,-1.141 -34.09,-3.238 -9.516,-0.598 -8.535,-0.32 L 72,290.242"
                   style="fill:none;stroke:#ff000c;stroke-width:1;stroke-linecap:square;stroke-linejoin:round;stroke-miterlimit:4;stroke-dasharray:none;stroke-opacity:1"
                   id="path64"
                   inkscape:connector-curvature="0" /></g></g></g></g><g
           id="g66"><g
             id="g68"><g
               id="g70"
               clip-path="url(#clipPath72)"><g
                 id="g76"><path
                   d="m 401.984,293.789 -3.832,4.149 -4.121,4.789 -4.394,5.457 -4.672,6.164 -4.945,6.894 -5.243,7.692 -5.543,8.543 -5.89,9.484 -6.266,10.519 -6.711,11.708 -7.234,13.078 -7.887,14.726 -8.75,16.82 -10.016,19.75 -12.246,24.661 -19.492,39.832 -13.515,27.601"
                   style="fill:none;stroke:#ff000c;stroke-width:1;stroke-linecap:square;stroke-linejoin:round;stroke-miterlimit:4;stroke-dasharray:none;stroke-opacity:1"
                   id="path78"
                   inkscape:connector-curvature="0" /></g></g></g></g><g
           id="g80"><g
             id="g82"><g
               id="g84"
               clip-path="url(#clipPath86)"><g
                 id="g90"><path
                   d="m 374.168,293.789 0.004,0 -0.012,0.004 0.012,-0.004 0.547,0 -0.196,0.07 -2.168,0.465 -4.8,1.043 -1.723,0.633 -1.867,0.938 -2.137,1.332 -2.336,1.722 -2.508,2.137 -2.703,2.594 -2.902,3.105 -3.125,3.676 -3.367,4.308 -3.653,5.036 -3.949,5.84 -4.265,6.707 -4.633,7.71 -5.043,8.836 -5.535,10.153 -6.121,11.707 -6.879,13.644 -7.911,16.203 -9.644,20.282 -13.789,29.562 -24.617,52.817 -10.188,21.347"
                   style="fill:none;stroke:#000000;stroke-width:1;stroke-linecap:square;stroke-linejoin:round;stroke-miterlimit:4;stroke-dasharray:none;stroke-opacity:1"
                   id="path92"
                   inkscape:connector-curvature="0" /></g></g></g></g><g
           id="g94"><g
             id="g96"><g
               id="g98"
               clip-path="url(#clipPath100)"><g
                 id="g104"><path
                   d="m 380.398,293.789 -2.753,1.797 -2.676,2.027 -2.817,2.418 -2.976,2.852 -3.156,3.34 -3.348,3.871 -3.555,4.457 -3.789,5.113 -4.039,5.828 -4.309,6.621 -4.617,7.504 -4.965,8.504 -5.359,9.633 -5.836,10.949 -6.418,12.531 -7.172,14.5 -8.234,17.164 -9.973,21.329 -14.23,31.003 -11.281,24.708"
                   style="fill:none;stroke:#039000;stroke-width:1;stroke-linecap:square;stroke-linejoin:round;stroke-miterlimit:4;stroke-dasharray:none;stroke-opacity:1"
                   id="path106"
                   inkscape:connector-curvature="0" /></g></g></g></g><g
           id="g108"><g
             id="g110"><g
               id="g112"
               clip-path="url(#clipPath114)"><g
                 id="g118"><path
                   d="m 380.398,293.789 2.637,-1.418 2.02,-0.84 1.652,-0.441 10.988,-2.328 5.024,-1.184 4.558,-1.301 4.067,-1.386 3.605,-1.457 0.098,-0.043 -0.086,0.035 -3.461,1.41 -3.914,1.344 -4.356,1.261 -2.273,0.579 2.242,-0.571 4.512,-1.308 4.023,-1.395 3.313,-1.355 -3.301,1.351 -3.898,1.356 -4.336,1.269 -4.805,1.176 -14.547,3.324 -2.074,0.981 -2.414,1.39 -2.563,1.731 -2.703,2.105 -2.855,2.508 -3.012,2.949 -3.187,3.438 -3.387,3.988 -3.602,4.582 -3.836,5.254 -4.093,5.984 -4.368,6.789 -4.683,7.7 -5.039,8.718 -5.453,9.887 -5.942,11.246 -6.554,12.891 -7.356,14.969 -8.516,17.851 -10.503,22.563 -9.161,19.964"
                   style="fill:none;stroke:#039000;stroke-width:1;stroke-linecap:square;stroke-linejoin:round;stroke-miterlimit:4;stroke-dasharray:none;stroke-opacity:1"
                   id="path120"
                   inkscape:connector-curvature="0" /></g></g></g></g><g
           id="g122"><g
             id="g124"><g
               id="g126"
               clip-path="url(#clipPath128)"><g
                 id="g132"><path
                   d="m 422.711,282.973 -4,-8 8,0 -4,8 z"
                   style="fill:#ffffff;fill-opacity:1;fill-rule:nonzero;stroke:#000000;stroke-width:0.5;stroke-linecap:butt;stroke-linejoin:miter;stroke-miterlimit:4;stroke-dasharray:none;stroke-opacity:1"
                   id="path134"
                   inkscape:connector-curvature="0" /></g></g></g></g><g
           id="g136"><g
             id="g138"><g
               id="g140"
               clip-path="url(#clipPath142)"><g
                 id="g146"><path
                   d="m 399.629,285.336 c 0.793,0 1.559,0.316 2.121,0.879 0.562,0.562 0.879,1.324 0.879,2.121 0,0.793 -0.317,1.559 -0.879,2.121 -0.562,0.563 -1.328,0.879 -2.121,0.879 -0.797,0 -1.559,-0.316 -2.121,-0.879 -0.563,-0.562 -0.879,-1.328 -0.879,-2.121 0,-0.797 0.316,-1.559 0.879,-2.121 0.562,-0.563 1.324,-0.879 2.121,-0.879 z"
                   style="fill:#ffffff;fill-opacity:1;fill-rule:nonzero;stroke:#000000;stroke-width:0.5;stroke-linecap:butt;stroke-linejoin:round;stroke-miterlimit:4;stroke-dasharray:none;stroke-opacity:1"
                   id="path148"
                   inkscape:connector-curvature="0" /></g></g></g></g><g
           id="g150"><g
             id="g152"><g
               id="g154"
               clip-path="url(#clipPath156)"><g
                 id="g160"><path
                   d="m 399.629,285.336 c 0.793,0 1.559,0.316 2.121,0.879 0.562,0.562 0.879,1.324 0.879,2.121 0,0.793 -0.317,1.559 -0.879,2.121 -0.562,0.563 -1.328,0.879 -2.121,0.879 -0.797,0 -1.559,-0.316 -2.121,-0.879 -0.563,-0.562 -0.879,-1.328 -0.879,-2.121 0,-0.797 0.316,-1.559 0.879,-2.121 0.562,-0.563 1.324,-0.879 2.121,-0.879 z"
                   style="fill:#ffffff;fill-opacity:1;fill-rule:nonzero;stroke:#000000;stroke-width:0.5;stroke-linecap:butt;stroke-linejoin:round;stroke-miterlimit:4;stroke-dasharray:none;stroke-opacity:1"
                   id="path162"
                   inkscape:connector-curvature="0" /></g></g></g></g></g></g><path
       inkscape:connector-curvature="0"
       id="path166"
       style="fill:none;stroke:#000000;stroke-width:1;stroke-linecap:square;stroke-linejoin:miter;stroke-miterlimit:4;stroke-dasharray:none;stroke-opacity:1"
       d="m 72,493 473.398,0" /><path
       inkscape:connector-curvature="0"
       id="path168"
       style="fill:none;stroke:#000000;stroke-width:1;stroke-linecap:square;stroke-linejoin:miter;stroke-miterlimit:4;stroke-dasharray:none;stroke-opacity:1"
       d="m 545.398,35.801 0,457.199" /><path
       inkscape:connector-curvature="0"
       id="path170"
       style="fill:none;stroke:#000000;stroke-width:1;stroke-linecap:square;stroke-linejoin:miter;stroke-miterlimit:4;stroke-dasharray:none;stroke-opacity:1"
       d="m 72,35.801 473.398,0" /><path
       inkscape:connector-curvature="0"
       id="path172"
       style="fill:none;stroke:#000000;stroke-width:1;stroke-linecap:square;stroke-linejoin:miter;stroke-miterlimit:4;stroke-dasharray:none;stroke-opacity:1"
       d="M 72,35.801 72,493" /><path
       inkscape:connector-curvature="0"
       id="path174"
       style="fill:none;stroke:#000000;stroke-width:0.5;stroke-linecap:butt;stroke-linejoin:round;stroke-miterlimit:4;stroke-dasharray:none;stroke-opacity:1"
       d="m 72,35.801 0,4" /><path
       inkscape:connector-curvature="0"
       id="path176"
       style="fill:none;stroke:#000000;stroke-width:0.5;stroke-linecap:butt;stroke-linejoin:round;stroke-miterlimit:4;stroke-dasharray:none;stroke-opacity:1"
       d="m 72,493 0,-4" /><path
       inkscape:connector-curvature="0"
       id="path178"
       style="fill:#000000;fill-opacity:1;fill-rule:nonzero;stroke:none"
       d="m 63.25,30.652 c -0.609,0 -1.07,-0.3 -1.375,-0.902 -0.309,-0.598 -0.461,-1.5 -0.461,-2.703 0,-1.199 0.152,-2.098 0.461,-2.699 0.305,-0.598 0.766,-0.899 1.375,-0.899 0.613,0 1.07,0.301 1.379,0.899 0.309,0.601 0.461,1.5 0.461,2.699 0,1.203 -0.152,2.105 -0.461,2.703 -0.309,0.602 -0.766,0.902 -1.379,0.902 m 0,0.938 c 0.98,0 1.73,-0.391 2.246,-1.168 0.52,-0.774 0.777,-1.899 0.777,-3.375 0,-1.473 -0.257,-2.598 -0.777,-3.375 -0.516,-0.774 -1.266,-1.16 -2.246,-1.16 -0.98,0 -1.73,0.386 -2.246,1.16 -0.52,0.777 -0.777,1.902 -0.777,3.375 0,1.476 0.257,2.601 0.777,3.375 0.516,0.777 1.266,1.168 2.246,1.168" /><path
       inkscape:connector-curvature="0"
       id="path180"
       style="fill:#000000;fill-opacity:1;fill-rule:nonzero;stroke:none"
       d="m 68.352,24.172 1.238,0 0,-1.488 -1.238,0 0,1.488 z" /><path
       inkscape:connector-curvature="0"
       id="path182"
       style="fill:#000000;fill-opacity:1;fill-rule:nonzero;stroke:none"
       d="m 74.699,30.652 c -0.609,0 -1.07,-0.3 -1.375,-0.902 -0.308,-0.598 -0.461,-1.5 -0.461,-2.703 0,-1.199 0.153,-2.098 0.461,-2.699 0.305,-0.598 0.766,-0.899 1.375,-0.899 0.613,0 1.071,0.301 1.379,0.899 0.309,0.601 0.461,1.5 0.461,2.699 0,1.203 -0.152,2.105 -0.461,2.703 -0.308,0.602 -0.766,0.902 -1.379,0.902 m 0,0.938 c 0.981,0 1.731,-0.391 2.246,-1.168 0.52,-0.774 0.778,-1.899 0.778,-3.375 0,-1.473 -0.258,-2.598 -0.778,-3.375 -0.515,-0.774 -1.265,-1.16 -2.246,-1.16 -0.98,0 -1.73,0.386 -2.246,1.16 -0.519,0.777 -0.777,1.902 -0.777,3.375 0,1.476 0.258,2.601 0.777,3.375 0.516,0.777 1.266,1.168 2.246,1.168" /><path
       inkscape:connector-curvature="0"
       id="path184"
       style="fill:#000000;fill-opacity:1;fill-rule:nonzero;stroke:none"
       d="m 82.332,30.652 c -0.609,0 -1.066,-0.3 -1.375,-0.902 -0.305,-0.598 -0.457,-1.5 -0.457,-2.703 0,-1.199 0.152,-2.098 0.457,-2.699 0.309,-0.598 0.766,-0.899 1.375,-0.899 0.613,0 1.074,0.301 1.379,0.899 0.309,0.601 0.461,1.5 0.461,2.699 0,1.203 -0.152,2.105 -0.461,2.703 -0.305,0.602 -0.766,0.902 -1.379,0.902 m 0,0.938 c 0.98,0 1.73,-0.391 2.25,-1.168 0.516,-0.774 0.773,-1.899 0.773,-3.375 0,-1.473 -0.257,-2.598 -0.773,-3.375 -0.52,-0.774 -1.27,-1.16 -2.25,-1.16 -0.98,0 -1.727,0.386 -2.246,1.16 -0.516,0.777 -0.777,1.902 -0.777,3.375 0,1.476 0.261,2.601 0.777,3.375 0.519,0.777 1.266,1.168 2.246,1.168" /><path
       inkscape:connector-curvature="0"
       id="path186"
       style="fill:none;stroke:#000000;stroke-width:0.5;stroke-linecap:butt;stroke-linejoin:round;stroke-miterlimit:4;stroke-dasharray:none;stroke-opacity:1"
       d="m 190.352,35.801 0,4" /><path
       inkscape:connector-curvature="0"
       id="path188"
       style="fill:none;stroke:#000000;stroke-width:0.5;stroke-linecap:butt;stroke-linejoin:round;stroke-miterlimit:4;stroke-dasharray:none;stroke-opacity:1"
       d="m 190.352,493 0,-4" /><path
       inkscape:connector-curvature="0"
       id="path190"
       style="fill:#000000;fill-opacity:1;fill-rule:nonzero;stroke:none"
       d="m 181.723,30.652 c -0.606,0 -1.067,-0.3 -1.371,-0.902 -0.309,-0.598 -0.461,-1.5 -0.461,-2.703 0,-1.199 0.152,-2.098 0.461,-2.699 0.304,-0.598 0.765,-0.899 1.371,-0.899 0.613,0 1.074,0.301 1.382,0.899 0.305,0.601 0.461,1.5 0.461,2.699 0,1.203 -0.156,2.105 -0.461,2.703 -0.308,0.602 -0.769,0.902 -1.382,0.902 m 0,0.938 c 0.984,0 1.73,-0.391 2.25,-1.168 0.515,-0.774 0.777,-1.899 0.777,-3.375 0,-1.473 -0.262,-2.598 -0.777,-3.375 -0.52,-0.774 -1.266,-1.16 -2.25,-1.16 -0.981,0 -1.727,0.386 -2.246,1.16 -0.516,0.777 -0.774,1.902 -0.774,3.375 0,1.476 0.258,2.601 0.774,3.375 0.519,0.777 1.265,1.168 2.246,1.168" /><path
       inkscape:connector-curvature="0"
       id="path192"
       style="fill:#000000;fill-opacity:1;fill-rule:nonzero;stroke:none"
       d="m 186.828,24.172 1.238,0 0,-1.488 -1.238,0 0,1.488 z" /><path
       inkscape:connector-curvature="0"
       id="path194"
       style="fill:#000000;fill-opacity:1;fill-rule:nonzero;stroke:none"
       d="m 193.172,30.652 c -0.606,0 -1.067,-0.3 -1.371,-0.902 -0.309,-0.598 -0.461,-1.5 -0.461,-2.703 0,-1.199 0.152,-2.098 0.461,-2.699 0.304,-0.598 0.765,-0.899 1.371,-0.899 0.613,0 1.074,0.301 1.383,0.899 0.304,0.601 0.461,1.5 0.461,2.699 0,1.203 -0.157,2.105 -0.461,2.703 -0.309,0.602 -0.77,0.902 -1.383,0.902 m 0,0.938 c 0.984,0 1.73,-0.391 2.25,-1.168 0.516,-0.774 0.777,-1.899 0.777,-3.375 0,-1.473 -0.261,-2.598 -0.777,-3.375 -0.52,-0.774 -1.266,-1.16 -2.25,-1.16 -0.981,0 -1.727,0.386 -2.246,1.16 -0.516,0.777 -0.774,1.902 -0.774,3.375 0,1.476 0.258,2.601 0.774,3.375 0.519,0.777 1.265,1.168 2.246,1.168" /><path
       inkscape:connector-curvature="0"
       id="path196"
       style="fill:#000000;fill-opacity:1;fill-rule:nonzero;stroke:none"
       d="m 198.289,31.43 4.649,0 0,-0.996 -3.563,0 0,-2.145 c 0.172,0.059 0.34,0.102 0.512,0.133 0.172,0.027 0.343,0.043 0.519,0.043 0.977,0 1.746,-0.27 2.317,-0.805 0.574,-0.535 0.859,-1.258 0.859,-2.172 0,-0.941 -0.293,-1.672 -0.879,-2.195 -0.586,-0.52 -1.414,-0.781 -2.48,-0.781 -0.368,0 -0.743,0.031 -1.121,0.093 -0.383,0.063 -0.774,0.157 -1.18,0.282 l 0,1.191 c 0.351,-0.191 0.715,-0.336 1.09,-0.43 0.375,-0.093 0.769,-0.14 1.187,-0.14 0.676,0 1.211,0.18 1.606,0.535 0.394,0.352 0.59,0.836 0.59,1.445 0,0.61 -0.196,1.09 -0.59,1.446 -0.395,0.355 -0.93,0.535 -1.606,0.535 -0.316,0 -0.633,-0.035 -0.949,-0.106 -0.312,-0.07 -0.633,-0.179 -0.961,-0.328 l 0,4.395 z" /><path
       inkscape:connector-curvature="0"
       id="path198"
       style="fill:none;stroke:#000000;stroke-width:0.5;stroke-linecap:butt;stroke-linejoin:round;stroke-miterlimit:4;stroke-dasharray:none;stroke-opacity:1"
       d="m 308.699,35.801 0,4" /><path
       inkscape:connector-curvature="0"
       id="path200"
       style="fill:none;stroke:#000000;stroke-width:0.5;stroke-linecap:butt;stroke-linejoin:round;stroke-miterlimit:4;stroke-dasharray:none;stroke-opacity:1"
       d="m 308.699,493 0,-4" /><path
       inkscape:connector-curvature="0"
       id="path202"
       style="fill:#000000;fill-opacity:1;fill-rule:nonzero;stroke:none"
       d="m 299.949,30.652 c -0.609,0 -1.066,-0.3 -1.375,-0.902 -0.304,-0.598 -0.461,-1.5 -0.461,-2.703 0,-1.199 0.157,-2.098 0.461,-2.699 0.309,-0.598 0.766,-0.899 1.375,-0.899 0.613,0 1.074,0.301 1.379,0.899 0.309,0.601 0.461,1.5 0.461,2.699 0,1.203 -0.152,2.105 -0.461,2.703 -0.305,0.602 -0.766,0.902 -1.379,0.902 m 0,0.938 c 0.981,0 1.731,-0.391 2.246,-1.168 0.52,-0.774 0.778,-1.899 0.778,-3.375 0,-1.473 -0.258,-2.598 -0.778,-3.375 -0.515,-0.774 -1.265,-1.16 -2.246,-1.16 -0.98,0 -1.73,0.386 -2.246,1.16 -0.519,0.777 -0.777,1.902 -0.777,3.375 0,1.476 0.258,2.601 0.777,3.375 0.516,0.777 1.266,1.168 2.246,1.168" /><path
       inkscape:connector-curvature="0"
       id="path204"
       style="fill:#000000;fill-opacity:1;fill-rule:nonzero;stroke:none"
       d="m 305.051,24.172 1.238,0 0,-1.488 -1.238,0 0,1.488 z" /><path
       inkscape:connector-curvature="0"
       id="path206"
       style="fill:#000000;fill-opacity:1;fill-rule:nonzero;stroke:none"
       d="m 309.074,23.676 1.93,0 0,6.676 -2.102,-0.422 0,1.078 2.094,0.422 1.18,0 0,-7.754 1.933,0 0,-0.992 -5.035,0 0,0.992 z" /><path
       inkscape:connector-curvature="0"
       id="path208"
       style="fill:#000000;fill-opacity:1;fill-rule:nonzero;stroke:none"
       d="m 319.031,30.652 c -0.609,0 -1.066,-0.3 -1.375,-0.902 -0.304,-0.598 -0.457,-1.5 -0.457,-2.703 0,-1.199 0.153,-2.098 0.457,-2.699 0.309,-0.598 0.766,-0.899 1.375,-0.899 0.614,0 1.074,0.301 1.383,0.899 0.305,0.601 0.461,1.5 0.461,2.699 0,1.203 -0.156,2.105 -0.461,2.703 -0.309,0.602 -0.769,0.902 -1.383,0.902 m 0,0.938 c 0.985,0 1.731,-0.391 2.25,-1.168 0.516,-0.774 0.778,-1.899 0.778,-3.375 0,-1.473 -0.262,-2.598 -0.778,-3.375 -0.519,-0.774 -1.265,-1.16 -2.25,-1.16 -0.98,0 -1.726,0.386 -2.246,1.16 -0.515,0.777 -0.773,1.902 -0.773,3.375 0,1.476 0.258,2.601 0.773,3.375 0.52,0.777 1.266,1.168 2.246,1.168" /><path
       inkscape:connector-curvature="0"
       id="path210"
       style="fill:none;stroke:#000000;stroke-width:0.5;stroke-linecap:butt;stroke-linejoin:round;stroke-miterlimit:4;stroke-dasharray:none;stroke-opacity:1"
       d="m 427.051,35.801 0,4" /><path
       inkscape:connector-curvature="0"
       id="path212"
       style="fill:none;stroke:#000000;stroke-width:0.5;stroke-linecap:butt;stroke-linejoin:round;stroke-miterlimit:4;stroke-dasharray:none;stroke-opacity:1"
       d="m 427.051,493 0,-4" /><path
       inkscape:connector-curvature="0"
       id="path214"
       style="fill:#000000;fill-opacity:1;fill-rule:nonzero;stroke:none"
       d="m 418.426,30.652 c -0.61,0 -1.071,-0.3 -1.375,-0.902 -0.309,-0.598 -0.461,-1.5 -0.461,-2.703 0,-1.199 0.152,-2.098 0.461,-2.699 0.304,-0.598 0.765,-0.899 1.375,-0.899 0.613,0 1.07,0.301 1.379,0.899 0.308,0.601 0.461,1.5 0.461,2.699 0,1.203 -0.153,2.105 -0.461,2.703 -0.309,0.602 -0.766,0.902 -1.379,0.902 m 0,0.938 c 0.98,0 1.73,-0.391 2.246,-1.168 0.519,-0.774 0.777,-1.899 0.777,-3.375 0,-1.473 -0.258,-2.598 -0.777,-3.375 -0.516,-0.774 -1.266,-1.16 -2.246,-1.16 -0.981,0 -1.731,0.386 -2.246,1.16 -0.52,0.777 -0.778,1.902 -0.778,3.375 0,1.476 0.258,2.601 0.778,3.375 0.515,0.777 1.265,1.168 2.246,1.168" /><path
       inkscape:connector-curvature="0"
       id="path216"
       style="fill:#000000;fill-opacity:1;fill-rule:nonzero;stroke:none"
       d="m 423.527,24.172 1.238,0 0,-1.488 -1.238,0 0,1.488 z" /><path
       inkscape:connector-curvature="0"
       id="path218"
       style="fill:#000000;fill-opacity:1;fill-rule:nonzero;stroke:none"
       d="m 427.547,23.676 1.933,0 0,6.676 -2.101,-0.422 0,1.078 2.09,0.422 1.183,0 0,-7.754 1.934,0 0,-0.992 -5.039,0 0,0.992 z" /><path
       inkscape:connector-curvature="0"
       id="path220"
       style="fill:#000000;fill-opacity:1;fill-rule:nonzero;stroke:none"
       d="m 434.988,31.43 4.649,0 0,-0.996 -3.563,0 0,-2.145 c 0.172,0.059 0.344,0.102 0.512,0.133 0.176,0.027 0.348,0.043 0.519,0.043 0.977,0 1.75,-0.27 2.321,-0.805 0.57,-0.535 0.855,-1.258 0.855,-2.172 0,-0.941 -0.293,-1.672 -0.879,-2.195 -0.586,-0.52 -1.414,-0.781 -2.48,-0.781 -0.367,0 -0.742,0.031 -1.121,0.093 -0.379,0.063 -0.774,0.157 -1.18,0.282 l 0,1.191 c 0.352,-0.191 0.715,-0.336 1.09,-0.43 0.375,-0.093 0.769,-0.14 1.187,-0.14 0.676,0 1.211,0.18 1.606,0.535 0.394,0.352 0.594,0.836 0.594,1.445 0,0.61 -0.2,1.09 -0.594,1.446 -0.395,0.355 -0.93,0.535 -1.606,0.535 -0.316,0 -0.632,-0.035 -0.945,-0.106 -0.316,-0.07 -0.637,-0.179 -0.965,-0.328 l 0,4.395 z" /><path
       inkscape:connector-curvature="0"
       id="path222"
       style="fill:none;stroke:#000000;stroke-width:0.5;stroke-linecap:butt;stroke-linejoin:round;stroke-miterlimit:4;stroke-dasharray:none;stroke-opacity:1"
       d="m 545.398,35.801 0,4" /><path
       inkscape:connector-curvature="0"
       id="path224"
       style="fill:none;stroke:#000000;stroke-width:0.5;stroke-linecap:butt;stroke-linejoin:round;stroke-miterlimit:4;stroke-dasharray:none;stroke-opacity:1"
       d="m 545.398,493 0,-4" /><path
       inkscape:connector-curvature="0"
       id="path226"
       style="fill:#000000;fill-opacity:1;fill-rule:nonzero;stroke:none"
       d="m 536.648,30.652 c -0.609,0 -1.066,-0.3 -1.375,-0.902 -0.304,-0.598 -0.457,-1.5 -0.457,-2.703 0,-1.199 0.153,-2.098 0.457,-2.699 0.309,-0.598 0.766,-0.899 1.375,-0.899 0.614,0 1.075,0.301 1.379,0.899 0.309,0.601 0.461,1.5 0.461,2.699 0,1.203 -0.152,2.105 -0.461,2.703 -0.304,0.602 -0.765,0.902 -1.379,0.902 m 0,0.938 c 0.981,0 1.731,-0.391 2.25,-1.168 0.516,-0.774 0.774,-1.899 0.774,-3.375 0,-1.473 -0.258,-2.598 -0.774,-3.375 -0.519,-0.774 -1.269,-1.16 -2.25,-1.16 -0.98,0 -1.73,0.386 -2.246,1.16 -0.519,0.777 -0.777,1.902 -0.777,3.375 0,1.476 0.258,2.601 0.777,3.375 0.516,0.777 1.266,1.168 2.246,1.168" /><path
       inkscape:connector-curvature="0"
       id="path228"
       style="fill:#000000;fill-opacity:1;fill-rule:nonzero;stroke:none"
       d="m 541.754,24.172 1.234,0 0,-1.488 -1.234,0 0,1.488 z" /><path
       inkscape:connector-curvature="0"
       id="path230"
       style="fill:#000000;fill-opacity:1;fill-rule:nonzero;stroke:none"
       d="m 546.586,23.676 4.133,0 0,-0.992 -5.555,0 0,0.992 c 0.449,0.465 1.059,1.09 1.836,1.871 0.773,0.785 1.262,1.293 1.461,1.519 0.379,0.426 0.644,0.786 0.793,1.079 0.152,0.296 0.226,0.585 0.226,0.871 0,0.464 -0.164,0.843 -0.488,1.136 -0.328,0.293 -0.75,0.442 -1.273,0.442 -0.371,0 -0.766,-0.067 -1.176,-0.196 -0.414,-0.128 -0.852,-0.324 -1.32,-0.586 l 0,1.196 c 0.476,0.191 0.922,0.336 1.332,0.433 0.418,0.098 0.797,0.149 1.14,0.149 0.907,0 1.629,-0.231 2.168,-0.684 0.539,-0.453 0.809,-1.054 0.809,-1.812 0,-0.36 -0.07,-0.703 -0.203,-1.024 -0.137,-0.324 -0.379,-0.703 -0.735,-1.14 -0.097,-0.114 -0.41,-0.442 -0.933,-0.981 -0.524,-0.543 -1.262,-1.301 -2.215,-2.273" /><path
       inkscape:connector-curvature="0"
       id="path232"
       style="fill:#000000;fill-opacity:1;fill-rule:nonzero;stroke:none"
       d="m 555.73,30.652 c -0.605,0 -1.066,-0.3 -1.371,-0.902 -0.308,-0.598 -0.461,-1.5 -0.461,-2.703 0,-1.199 0.153,-2.098 0.461,-2.699 0.305,-0.598 0.766,-0.899 1.371,-0.899 0.618,0 1.075,0.301 1.383,0.899 0.309,0.601 0.461,1.5 0.461,2.699 0,1.203 -0.152,2.105 -0.461,2.703 -0.308,0.602 -0.765,0.902 -1.383,0.902 m 0,0.938 c 0.985,0 1.735,-0.391 2.25,-1.168 0.52,-0.774 0.778,-1.899 0.778,-3.375 0,-1.473 -0.258,-2.598 -0.778,-3.375 -0.515,-0.774 -1.265,-1.16 -2.25,-1.16 -0.976,0 -1.726,0.386 -2.246,1.16 -0.515,0.777 -0.773,1.902 -0.773,3.375 0,1.476 0.258,2.601 0.773,3.375 0.52,0.777 1.27,1.168 2.246,1.168" /><path
       inkscape:connector-curvature="0"
       id="path234"
       style="fill:#000000;fill-opacity:1;fill-rule:nonzero;stroke:none"
       d="m 298.125,7.707 c 0.078,-0.223 0.223,-0.391 0.434,-0.504 0.211,-0.109 0.441,-0.168 0.687,-0.168 0.25,0 0.492,0.086 0.723,0.262 0.234,0.172 0.429,0.391 0.593,0.652 0.161,0.262 0.274,0.524 0.336,0.781 l 1.418,5.676 c 0.008,0.032 0.012,0.055 0.016,0.071 0,0.015 0.004,0.031 0.008,0.046 0,0.086 -0.031,0.141 -0.094,0.161 -0.211,0.054 -0.641,0.082 -1.285,0.082 -0.082,0 -0.121,0.05 -0.121,0.156 0.015,0.062 0.027,0.109 0.039,0.144 0.008,0.039 0.027,0.067 0.051,0.09 0.027,0.02 0.066,0.032 0.113,0.032 l 3.254,0 c 0.078,0 0.117,-0.055 0.117,-0.161 -0.031,-0.175 -0.082,-0.261 -0.152,-0.261 -0.282,0 -0.496,-0.024 -0.641,-0.067 -0.141,-0.043 -0.242,-0.156 -0.297,-0.344 L 301.906,8.684 C 301.816,8.312 301.633,7.977 301.359,7.676 301.082,7.379 300.754,7.145 300.375,6.977 300,6.809 299.617,6.723 299.234,6.723 c -0.422,0 -0.793,0.117 -1.109,0.351 -0.32,0.235 -0.477,0.555 -0.477,0.957 0,0.266 0.071,0.496 0.215,0.688 0.145,0.191 0.348,0.285 0.614,0.285 0.152,0 0.281,-0.047 0.386,-0.141 0.102,-0.093 0.153,-0.215 0.153,-0.363 0,-0.215 -0.078,-0.402 -0.239,-0.562 -0.16,-0.161 -0.347,-0.239 -0.562,-0.239 -0.043,0 -0.074,0.004 -0.09,0.008" /><path
       inkscape:connector-curvature="0"
       id="path236"
       style="fill:#000000;fill-opacity:1;fill-rule:nonzero;stroke:none"
       d="m 303.883,3.926 c -0.059,0 -0.086,0.039 -0.086,0.113 0.004,0.012 0.008,0.035 0.015,0.07 0.012,0.036 0.024,0.063 0.04,0.082 0.011,0.02 0.031,0.032 0.054,0.032 0.34,0 0.578,0.019 0.715,0.058 0.074,0.024 0.125,0.098 0.156,0.227 l 1.153,4.613 c 0.011,0.055 0.019,0.094 0.019,0.113 0,0.063 -0.035,0.094 -0.097,0.102 -0.11,0.023 -0.313,0.035 -0.61,0.035 -0.054,0 -0.082,0.035 -0.082,0.109 0.004,0.016 0.008,0.04 0.016,0.075 0.008,0.031 0.019,0.058 0.035,0.078 0.016,0.023 0.035,0.031 0.055,0.031 l 2.902,0 c 0.262,0 0.52,-0.047 0.77,-0.141 0.25,-0.093 0.453,-0.238 0.609,-0.433 0.16,-0.192 0.242,-0.426 0.242,-0.703 0,-0.356 -0.125,-0.672 -0.379,-0.953 -0.25,-0.278 -0.558,-0.496 -0.933,-0.653 -0.372,-0.156 -0.735,-0.234 -1.086,-0.234 l -1.364,0 -0.515,-2.074 c -0.008,-0.055 -0.016,-0.094 -0.016,-0.118 0,-0.023 0.004,-0.043 0.012,-0.054 0.004,-0.016 0.015,-0.028 0.027,-0.031 0.012,-0.004 0.031,-0.008 0.059,-0.016 0.109,-0.02 0.308,-0.031 0.609,-0.031 0.055,0 0.082,-0.035 0.082,-0.11 -0.019,-0.082 -0.035,-0.133 -0.047,-0.152 -0.011,-0.023 -0.043,-0.035 -0.097,-0.035 l -2.258,0 z m 2.183,2.875 1.176,0 c 0.547,0 0.961,0.144 1.246,0.437 0.145,0.145 0.262,0.356 0.352,0.625 0.094,0.278 0.14,0.524 0.14,0.746 0,0.274 -0.105,0.469 -0.316,0.586 -0.211,0.117 -0.473,0.176 -0.785,0.176 l -0.805,0 c -0.152,0 -0.254,-0.012 -0.304,-0.039 -0.047,-0.027 -0.094,-0.109 -0.133,-0.25 l -0.571,-2.281 z" /><path
       inkscape:connector-curvature="0"
       id="path238"
       style="fill:#000000;fill-opacity:1;fill-rule:nonzero;stroke:none"
       d="m 309.258,3.926 c -0.055,0 -0.082,0.039 -0.082,0.113 0.004,0.012 0.008,0.035 0.015,0.07 0.008,0.036 0.02,0.063 0.036,0.082 0.015,0.02 0.035,0.032 0.054,0.032 0.344,0 0.582,0.019 0.715,0.058 0.074,0.024 0.129,0.098 0.16,0.227 l 1.153,4.613 c 0.011,0.055 0.015,0.094 0.015,0.113 0,0.063 -0.035,0.094 -0.101,0.102 -0.106,0.023 -0.305,0.035 -0.602,0.035 -0.055,0 -0.082,0.035 -0.082,0.109 0.016,0.071 0.031,0.122 0.043,0.145 0.012,0.027 0.043,0.039 0.094,0.039 l 2.484,0 c 0.047,0 0.07,-0.035 0.07,-0.109 -0.007,-0.059 -0.015,-0.102 -0.027,-0.137 -0.012,-0.031 -0.039,-0.047 -0.082,-0.047 -0.414,0 -0.687,-0.016 -0.828,-0.043 -0.137,-0.023 -0.223,-0.105 -0.254,-0.246 l -1.148,-4.609 c -0.024,-0.067 -0.036,-0.129 -0.036,-0.184 0,-0.043 0.094,-0.066 0.286,-0.066 l 0.777,0 c 0.441,0 0.797,0.086 1.07,0.261 0.274,0.176 0.477,0.375 0.61,0.594 0.129,0.219 0.238,0.449 0.328,0.684 0.09,0.238 0.156,0.359 0.195,0.367 l 0.074,0 c 0.059,0 0.086,-0.035 0.086,-0.109 L 313.535,3.984 C 313.527,3.945 313.5,3.926 313.457,3.926 l -4.199,0 z" /><path
       inkscape:connector-curvature="0"
       id="path240"
       style="fill:#000000;fill-opacity:1;fill-rule:nonzero;stroke:none"
       d="m 315.805,5.738 c 0,-0.336 0.062,-0.629 0.191,-0.886 0.133,-0.254 0.32,-0.454 0.57,-0.598 0.246,-0.145 0.539,-0.215 0.875,-0.215 0.352,0 0.692,0.09 1.016,0.27 0.328,0.179 0.609,0.421 0.84,0.722 0.23,0.305 0.387,0.625 0.473,0.965 0.011,0.031 0.035,0.047 0.066,0.047 l 0.102,0 c 0.023,0 0.039,-0.008 0.054,-0.023 0.012,-0.012 0.02,-0.032 0.02,-0.051 0,-0.004 -0.004,-0.012 -0.008,-0.024 -0.098,-0.386 -0.281,-0.754 -0.555,-1.093 -0.277,-0.34 -0.605,-0.61 -0.988,-0.809 -0.383,-0.199 -0.777,-0.301 -1.18,-0.301 -0.437,0 -0.832,0.098 -1.179,0.297 -0.344,0.195 -0.618,0.469 -0.809,0.82 -0.191,0.348 -0.289,0.746 -0.289,1.184 0,0.473 0.105,0.937 0.316,1.398 0.211,0.461 0.492,0.871 0.848,1.231 0.355,0.359 0.762,0.644 1.219,0.859 0.453,0.215 0.914,0.321 1.383,0.321 0.183,0 0.363,-0.028 0.531,-0.086 0.172,-0.055 0.328,-0.141 0.472,-0.258 0.145,-0.113 0.266,-0.246 0.356,-0.395 l 0.668,0.719 c 0,0.012 0.012,0.02 0.039,0.02 l 0.051,0 c 0.019,0 0.039,-0.012 0.051,-0.032 0.015,-0.015 0.023,-0.035 0.023,-0.054 l -0.57,-2.27 c 0,-0.039 -0.024,-0.058 -0.067,-0.058 l -0.152,0 c -0.043,0 -0.067,0.031 -0.067,0.093 0.024,0.125 0.036,0.274 0.036,0.446 0,0.273 -0.047,0.531 -0.141,0.773 -0.094,0.242 -0.238,0.438 -0.434,0.582 -0.195,0.148 -0.433,0.223 -0.714,0.223 -0.457,0 -0.875,-0.114 -1.254,-0.344 C 317.215,8.98 316.895,8.68 316.629,8.305 316.367,7.934 316.164,7.52 316.02,7.062 315.875,6.609 315.805,6.168 315.805,5.738" /><path
       inkscape:connector-curvature="0"
       id="path242"
       style="fill:none;stroke:#000000;stroke-width:0.5;stroke-linecap:butt;stroke-linejoin:round;stroke-miterlimit:4;stroke-dasharray:none;stroke-opacity:1"
       d="m 72,35.801 4,0" /><path
       inkscape:connector-curvature="0"
       id="path244"
       style="fill:none;stroke:#000000;stroke-width:0.5;stroke-linecap:butt;stroke-linejoin:round;stroke-miterlimit:4;stroke-dasharray:none;stroke-opacity:1"
       d="m 545.398,35.801 -4,0" /><path
       inkscape:connector-curvature="0"
       id="path246"
       style="fill:#000000;fill-opacity:1;fill-rule:nonzero;stroke:none"
       d="m 40.227,41.238 5.625,0 0,-0.504 -3.176,-8.246 -1.238,0 2.988,7.75 -4.199,0 0,1 z" /><path
       inkscape:connector-curvature="0"
       id="path248"
       style="fill:#000000;fill-opacity:1;fill-rule:nonzero;stroke:none"
       d="m 48.172,41.238 4.644,0 0,-1 -3.562,0 0,-2.14 c 0.172,0.058 0.344,0.101 0.516,0.129 0.171,0.031 0.343,0.043 0.515,0.043 0.977,0 1.75,-0.266 2.32,-0.801 0.571,-0.535 0.856,-1.258 0.856,-2.172 0,-0.942 -0.293,-1.676 -0.879,-2.195 -0.586,-0.524 -1.41,-0.786 -2.477,-0.786 -0.367,0 -0.742,0.032 -1.125,0.094 -0.378,0.063 -0.773,0.156 -1.179,0.281 l 0,1.192 c 0.351,-0.192 0.715,-0.332 1.09,-0.426 0.375,-0.094 0.773,-0.141 1.191,-0.141 0.676,0 1.211,0.176 1.602,0.532 0.398,0.355 0.593,0.84 0.593,1.449 0,0.609 -0.195,1.09 -0.593,1.445 -0.391,0.356 -0.926,0.535 -1.602,0.535 -0.316,0 -0.633,-0.035 -0.949,-0.105 -0.313,-0.07 -0.633,-0.18 -0.961,-0.328 l 0,4.394 z" /><path
       inkscape:connector-curvature="0"
       id="path250"
       style="fill:#000000;fill-opacity:1;fill-rule:nonzero;stroke:none"
       d="m 58.324,40.457 c -0.609,0 -1.066,-0.301 -1.375,-0.898 -0.304,-0.602 -0.457,-1.5 -0.457,-2.704 0,-1.199 0.153,-2.101 0.457,-2.699 0.309,-0.601 0.766,-0.902 1.375,-0.902 0.614,0 1.074,0.301 1.379,0.902 0.309,0.598 0.461,1.5 0.461,2.699 0,1.204 -0.152,2.102 -0.461,2.704 -0.305,0.597 -0.765,0.898 -1.379,0.898 m 0,0.938 c 0.981,0 1.731,-0.387 2.25,-1.165 0.516,-0.773 0.774,-1.902 0.774,-3.375 0,-1.472 -0.258,-2.597 -0.774,-3.375 -0.519,-0.773 -1.269,-1.164 -2.25,-1.164 -0.98,0 -1.726,0.391 -2.246,1.164 -0.516,0.778 -0.777,1.903 -0.777,3.375 0,1.473 0.261,2.602 0.777,3.375 0.52,0.778 1.266,1.165 2.246,1.165" /><path
       inkscape:connector-curvature="0"
       id="path252"
       style="fill:#000000;fill-opacity:1;fill-rule:nonzero;stroke:none"
       d="m 65.961,40.457 c -0.609,0 -1.07,-0.301 -1.375,-0.898 -0.309,-0.602 -0.461,-1.5 -0.461,-2.704 0,-1.199 0.152,-2.101 0.461,-2.699 0.305,-0.601 0.766,-0.902 1.375,-0.902 0.613,0 1.07,0.301 1.379,0.902 0.308,0.598 0.461,1.5 0.461,2.699 0,1.204 -0.153,2.102 -0.461,2.704 -0.309,0.597 -0.766,0.898 -1.379,0.898 m 0,0.938 c 0.98,0 1.73,-0.387 2.246,-1.165 0.52,-0.773 0.777,-1.902 0.777,-3.375 0,-1.472 -0.257,-2.597 -0.777,-3.375 -0.516,-0.773 -1.266,-1.164 -2.246,-1.164 -0.981,0 -1.731,0.391 -2.246,1.164 -0.52,0.778 -0.777,1.903 -0.777,3.375 0,1.473 0.257,2.602 0.777,3.375 0.515,0.778 1.265,1.165 2.246,1.165" /><path
       inkscape:connector-curvature="0"
       id="path254"
       style="fill:none;stroke:#000000;stroke-width:0.5;stroke-linecap:butt;stroke-linejoin:round;stroke-miterlimit:4;stroke-dasharray:none;stroke-opacity:1"
       d="m 72,117.441 4,0" /><path
       inkscape:connector-curvature="0"
       id="path256"
       style="fill:none;stroke:#000000;stroke-width:0.5;stroke-linecap:butt;stroke-linejoin:round;stroke-miterlimit:4;stroke-dasharray:none;stroke-opacity:1"
       d="m 545.398,117.441 -4,0" /><path
       inkscape:connector-curvature="0"
       id="path258"
       style="fill:#000000;fill-opacity:1;fill-rule:nonzero;stroke:none"
       d="m 42.883,118.285 c -0.563,0 -1.004,-0.148 -1.324,-0.449 -0.325,-0.301 -0.485,-0.715 -0.485,-1.242 0,-0.528 0.16,-0.942 0.485,-1.242 0.32,-0.301 0.761,-0.454 1.324,-0.454 0.562,0 1.008,0.153 1.332,0.454 0.324,0.304 0.488,0.718 0.488,1.242 0,0.527 -0.164,0.941 -0.484,1.242 -0.324,0.301 -0.766,0.449 -1.336,0.449 m -1.18,0.504 c -0.508,0.125 -0.906,0.359 -1.187,0.707 -0.286,0.352 -0.426,0.774 -0.426,1.274 0,0.699 0.25,1.253 0.746,1.66 0.5,0.406 1.184,0.609 2.047,0.609 0.871,0 1.555,-0.203 2.055,-0.609 0.496,-0.407 0.742,-0.961 0.742,-1.66 0,-0.5 -0.141,-0.922 -0.426,-1.274 -0.281,-0.348 -0.676,-0.582 -1.18,-0.707 0.571,-0.133 1.016,-0.391 1.332,-0.781 0.321,-0.387 0.477,-0.856 0.477,-1.414 0,-0.848 -0.258,-1.5 -0.774,-1.953 -0.519,-0.453 -1.261,-0.68 -2.226,-0.68 -0.961,0 -1.703,0.227 -2.223,0.68 -0.515,0.453 -0.777,1.105 -0.777,1.953 0,0.558 0.16,1.027 0.48,1.414 0.325,0.39 0.77,0.648 1.34,0.781 m -0.433,1.871 c 0,-0.453 0.14,-0.808 0.421,-1.062 0.286,-0.254 0.684,-0.379 1.192,-0.379 0.512,0 0.906,0.125 1.195,0.379 0.285,0.254 0.43,0.609 0.43,1.062 0,0.453 -0.145,0.805 -0.43,1.059 -0.289,0.254 -0.683,0.383 -1.195,0.383 -0.508,0 -0.906,-0.129 -1.192,-0.383 -0.281,-0.254 -0.421,-0.606 -0.421,-1.059" /><path
       inkscape:connector-curvature="0"
       id="path260"
       style="fill:#000000;fill-opacity:1;fill-rule:nonzero;stroke:none"
       d="m 50.52,122.102 c -0.61,0 -1.067,-0.301 -1.375,-0.903 -0.305,-0.597 -0.461,-1.5 -0.461,-2.703 0,-1.199 0.156,-2.098 0.461,-2.699 0.308,-0.598 0.765,-0.899 1.375,-0.899 0.613,0 1.074,0.301 1.378,0.899 0.309,0.601 0.461,1.5 0.461,2.699 0,1.203 -0.152,2.106 -0.461,2.703 -0.304,0.602 -0.765,0.903 -1.378,0.903 m 0,0.937 c 0.98,0 1.73,-0.391 2.246,-1.164 0.519,-0.777 0.777,-1.902 0.777,-3.379 0,-1.473 -0.258,-2.598 -0.777,-3.371 -0.516,-0.777 -1.266,-1.164 -2.246,-1.164 -0.981,0 -1.731,0.387 -2.247,1.164 -0.519,0.773 -0.777,1.898 -0.777,3.371 0,1.477 0.258,2.602 0.777,3.379 0.516,0.773 1.266,1.164 2.247,1.164" /><path
       inkscape:connector-curvature="0"
       id="path262"
       style="fill:#000000;fill-opacity:1;fill-rule:nonzero;stroke:none"
       d="m 58.152,122.102 c -0.605,0 -1.066,-0.301 -1.371,-0.903 -0.308,-0.597 -0.461,-1.5 -0.461,-2.703 0,-1.199 0.153,-2.098 0.461,-2.699 0.305,-0.598 0.766,-0.899 1.371,-0.899 0.618,0 1.075,0.301 1.383,0.899 0.305,0.601 0.461,1.5 0.461,2.699 0,1.203 -0.156,2.106 -0.461,2.703 -0.308,0.602 -0.765,0.903 -1.383,0.903 m 0,0.937 c 0.985,0 1.731,-0.391 2.25,-1.164 0.516,-0.777 0.778,-1.902 0.778,-3.379 0,-1.473 -0.262,-2.598 -0.778,-3.371 -0.519,-0.777 -1.265,-1.164 -2.25,-1.164 -0.976,0 -1.726,0.387 -2.246,1.164 -0.515,0.773 -0.773,1.898 -0.773,3.371 0,1.477 0.258,2.602 0.773,3.379 0.52,0.773 1.27,1.164 2.246,1.164" /><path
       inkscape:connector-curvature="0"
       id="path264"
       style="fill:#000000;fill-opacity:1;fill-rule:nonzero;stroke:none"
       d="m 65.789,122.102 c -0.609,0 -1.066,-0.301 -1.375,-0.903 -0.305,-0.597 -0.461,-1.5 -0.461,-2.703 0,-1.199 0.156,-2.098 0.461,-2.699 0.309,-0.598 0.766,-0.899 1.375,-0.899 0.613,0 1.074,0.301 1.379,0.899 0.309,0.601 0.461,1.5 0.461,2.699 0,1.203 -0.152,2.106 -0.461,2.703 -0.305,0.602 -0.766,0.903 -1.379,0.903 m 0,0.937 c 0.981,0 1.731,-0.391 2.246,-1.164 0.52,-0.777 0.777,-1.902 0.777,-3.379 0,-1.473 -0.257,-2.598 -0.777,-3.371 -0.515,-0.777 -1.265,-1.164 -2.246,-1.164 -0.98,0 -1.73,0.387 -2.246,1.164 -0.52,0.773 -0.777,1.898 -0.777,3.371 0,1.477 0.257,2.602 0.777,3.379 0.516,0.773 1.266,1.164 2.246,1.164" /><path
       inkscape:connector-curvature="0"
       id="path266"
       style="fill:none;stroke:#000000;stroke-width:0.5;stroke-linecap:butt;stroke-linejoin:round;stroke-miterlimit:4;stroke-dasharray:none;stroke-opacity:1"
       d="m 72,199.086 4,0" /><path
       inkscape:connector-curvature="0"
       id="path268"
       style="fill:none;stroke:#000000;stroke-width:0.5;stroke-linecap:butt;stroke-linejoin:round;stroke-miterlimit:4;stroke-dasharray:none;stroke-opacity:1"
       d="m 545.398,199.086 -4,0" /><path
       inkscape:connector-curvature="0"
       id="path270"
       style="fill:#000000;fill-opacity:1;fill-rule:nonzero;stroke:none"
       d="m 42.883,199.93 c -0.563,0 -1.004,-0.153 -1.324,-0.453 -0.325,-0.301 -0.485,-0.715 -0.485,-1.239 0,-0.531 0.16,-0.945 0.485,-1.246 0.32,-0.301 0.761,-0.449 1.324,-0.449 0.562,0 1.008,0.148 1.332,0.453 0.324,0.305 0.488,0.715 0.488,1.242 0,0.524 -0.164,0.938 -0.484,1.239 -0.324,0.3 -0.766,0.453 -1.336,0.453 m -1.18,0.504 c -0.508,0.125 -0.906,0.359 -1.187,0.707 -0.286,0.347 -0.426,0.773 -0.426,1.273 0,0.699 0.25,1.25 0.746,1.656 0.5,0.407 1.184,0.61 2.047,0.61 0.871,0 1.555,-0.203 2.055,-0.61 0.496,-0.406 0.742,-0.957 0.742,-1.656 0,-0.5 -0.141,-0.926 -0.426,-1.273 -0.281,-0.348 -0.676,-0.582 -1.18,-0.707 0.571,-0.133 1.016,-0.395 1.332,-0.782 0.321,-0.386 0.477,-0.859 0.477,-1.414 0,-0.851 -0.258,-1.5 -0.774,-1.957 -0.519,-0.449 -1.261,-0.676 -2.226,-0.676 -0.961,0 -1.703,0.227 -2.223,0.676 -0.515,0.457 -0.777,1.106 -0.777,1.957 0,0.555 0.16,1.028 0.48,1.414 0.325,0.387 0.77,0.649 1.34,0.782 m -0.433,1.867 c 0,-0.453 0.14,-0.805 0.421,-1.059 0.286,-0.254 0.684,-0.379 1.192,-0.379 0.512,0 0.906,0.125 1.195,0.379 0.285,0.254 0.43,0.606 0.43,1.059 0,0.453 -0.145,0.808 -0.43,1.062 -0.289,0.254 -0.683,0.379 -1.195,0.379 -0.508,0 -0.906,-0.125 -1.192,-0.379 -0.281,-0.254 -0.421,-0.609 -0.421,-1.062" /><path
       inkscape:connector-curvature="0"
       id="path272"
       style="fill:#000000;fill-opacity:1;fill-rule:nonzero;stroke:none"
       d="m 48,204.523 4.648,0 0,-0.996 -3.562,0 0,-2.144 c 0.172,0.058 0.34,0.101 0.512,0.133 0.172,0.027 0.347,0.043 0.519,0.043 0.977,0 1.75,-0.27 2.317,-0.805 0.574,-0.535 0.859,-1.258 0.859,-2.172 0,-0.941 -0.293,-1.672 -0.879,-2.195 -0.586,-0.524 -1.414,-0.782 -2.48,-0.782 -0.368,0 -0.743,0.032 -1.122,0.094 -0.382,0.063 -0.773,0.156 -1.179,0.281 l 0,1.188 c 0.351,-0.191 0.715,-0.332 1.09,-0.426 0.375,-0.094 0.769,-0.14 1.187,-0.14 0.676,0 1.211,0.175 1.606,0.531 0.394,0.355 0.589,0.84 0.589,1.449 0,0.609 -0.195,1.09 -0.589,1.445 -0.395,0.356 -0.93,0.535 -1.606,0.535 -0.316,0 -0.633,-0.035 -0.949,-0.105 -0.313,-0.07 -0.633,-0.18 -0.961,-0.328 l 0,4.394 z" /><path
       inkscape:connector-curvature="0"
       id="path274"
       style="fill:#000000;fill-opacity:1;fill-rule:nonzero;stroke:none"
       d="m 58.152,203.742 c -0.605,0 -1.066,-0.301 -1.371,-0.898 -0.308,-0.598 -0.461,-1.5 -0.461,-2.703 0,-1.2 0.153,-2.098 0.461,-2.7 0.305,-0.601 0.766,-0.898 1.371,-0.898 0.618,0 1.075,0.297 1.383,0.898 0.305,0.602 0.461,1.5 0.461,2.7 0,1.203 -0.156,2.105 -0.461,2.703 -0.308,0.597 -0.765,0.898 -1.383,0.898 m 0,0.938 c 0.985,0 1.731,-0.387 2.25,-1.164 0.516,-0.774 0.778,-1.899 0.778,-3.375 0,-1.473 -0.262,-2.598 -0.778,-3.375 -0.519,-0.774 -1.265,-1.161 -2.25,-1.161 -0.976,0 -1.726,0.387 -2.246,1.161 -0.515,0.777 -0.773,1.902 -0.773,3.375 0,1.476 0.258,2.601 0.773,3.375 0.52,0.777 1.27,1.164 2.246,1.164" /><path
       inkscape:connector-curvature="0"
       id="path276"
       style="fill:#000000;fill-opacity:1;fill-rule:nonzero;stroke:none"
       d="m 65.789,203.742 c -0.609,0 -1.066,-0.301 -1.375,-0.898 -0.305,-0.598 -0.461,-1.5 -0.461,-2.703 0,-1.2 0.156,-2.098 0.461,-2.7 0.309,-0.601 0.766,-0.898 1.375,-0.898 0.613,0 1.074,0.297 1.379,0.898 0.309,0.602 0.461,1.5 0.461,2.7 0,1.203 -0.152,2.105 -0.461,2.703 -0.305,0.597 -0.766,0.898 -1.379,0.898 m 0,0.938 c 0.981,0 1.731,-0.387 2.246,-1.164 0.52,-0.774 0.777,-1.899 0.777,-3.375 0,-1.473 -0.257,-2.598 -0.777,-3.375 -0.515,-0.774 -1.265,-1.161 -2.246,-1.161 -0.98,0 -1.73,0.387 -2.246,1.161 -0.52,0.777 -0.777,1.902 -0.777,3.375 0,1.476 0.257,2.601 0.777,3.375 0.516,0.777 1.266,1.164 2.246,1.164" /><path
       inkscape:connector-curvature="0"
       id="path278"
       style="fill:none;stroke:#000000;stroke-width:0.5;stroke-linecap:butt;stroke-linejoin:round;stroke-miterlimit:4;stroke-dasharray:none;stroke-opacity:1"
       d="m 72,280.73 4,0" /><path
       inkscape:connector-curvature="0"
       id="path280"
       style="fill:none;stroke:#000000;stroke-width:0.5;stroke-linecap:butt;stroke-linejoin:round;stroke-miterlimit:4;stroke-dasharray:none;stroke-opacity:1"
       d="m 545.398,280.73 -4,0" /><path
       inkscape:connector-curvature="0"
       id="path282"
       style="fill:#000000;fill-opacity:1;fill-rule:nonzero;stroke:none"
       d="m 40.332,277.598 0,1.078 c 0.297,-0.141 0.598,-0.246 0.902,-0.321 0.305,-0.074 0.602,-0.109 0.895,-0.109 0.781,0 1.379,0.262 1.789,0.785 0.414,0.528 0.648,1.324 0.707,2.395 -0.227,-0.336 -0.512,-0.594 -0.859,-0.774 -0.348,-0.179 -0.735,-0.269 -1.157,-0.269 -0.875,0 -1.566,0.262 -2.078,0.793 -0.508,0.527 -0.761,1.254 -0.761,2.172 0,0.898 0.265,1.617 0.796,2.16 0.532,0.543 1.239,0.816 2.122,0.816 1.011,0 1.781,-0.39 2.316,-1.164 0.531,-0.777 0.801,-1.902 0.801,-3.379 0,-1.379 -0.328,-2.476 -0.985,-3.301 -0.652,-0.824 -1.531,-1.234 -2.636,-1.234 -0.297,0 -0.598,0.031 -0.903,0.09 -0.304,0.059 -0.621,0.144 -0.949,0.262 m 2.356,3.711 c 0.531,0 0.949,0.179 1.261,0.543 0.309,0.363 0.465,0.863 0.465,1.496 0,0.629 -0.156,1.125 -0.465,1.492 -0.312,0.363 -0.73,0.547 -1.261,0.547 -0.532,0 -0.954,-0.184 -1.266,-0.547 -0.309,-0.367 -0.465,-0.863 -0.465,-1.492 0,-0.633 0.156,-1.133 0.465,-1.496 0.312,-0.364 0.734,-0.543 1.266,-0.543" /><path
       inkscape:connector-curvature="0"
       id="path284"
       style="fill:#000000;fill-opacity:1;fill-rule:nonzero;stroke:none"
       d="m 50.461,285.387 c -0.609,0 -1.066,-0.301 -1.375,-0.903 -0.305,-0.597 -0.457,-1.5 -0.457,-2.703 0,-1.199 0.152,-2.097 0.457,-2.695 0.309,-0.602 0.766,-0.902 1.375,-0.902 0.613,0 1.074,0.3 1.379,0.902 0.308,0.598 0.461,1.496 0.461,2.695 0,1.203 -0.153,2.106 -0.461,2.703 -0.305,0.602 -0.766,0.903 -1.379,0.903 m 0,0.937 c 0.98,0 1.73,-0.39 2.25,-1.164 0.516,-0.777 0.773,-1.902 0.773,-3.379 0,-1.472 -0.257,-2.597 -0.773,-3.371 -0.52,-0.777 -1.27,-1.164 -2.25,-1.164 -0.981,0 -1.731,0.387 -2.246,1.164 -0.52,0.774 -0.777,1.899 -0.777,3.371 0,1.477 0.257,2.602 0.777,3.379 0.515,0.774 1.265,1.164 2.246,1.164" /><path
       inkscape:connector-curvature="0"
       id="path286"
       style="fill:#000000;fill-opacity:1;fill-rule:nonzero;stroke:none"
       d="m 58.098,285.387 c -0.61,0 -1.071,-0.301 -1.375,-0.903 -0.309,-0.597 -0.461,-1.5 -0.461,-2.703 0,-1.199 0.152,-2.097 0.461,-2.695 0.304,-0.602 0.765,-0.902 1.375,-0.902 0.613,0 1.07,0.3 1.379,0.902 0.308,0.598 0.461,1.496 0.461,2.695 0,1.203 -0.153,2.106 -0.461,2.703 -0.309,0.602 -0.766,0.903 -1.379,0.903 m 0,0.937 c 0.98,0 1.73,-0.39 2.246,-1.164 0.519,-0.777 0.777,-1.902 0.777,-3.379 0,-1.472 -0.258,-2.597 -0.777,-3.371 -0.516,-0.777 -1.266,-1.164 -2.246,-1.164 -0.981,0 -1.731,0.387 -2.25,1.164 -0.516,0.774 -0.774,1.899 -0.774,3.371 0,1.477 0.258,2.602 0.774,3.379 0.519,0.774 1.269,1.164 2.25,1.164" /><path
       inkscape:connector-curvature="0"
       id="path288"
       style="fill:#000000;fill-opacity:1;fill-rule:nonzero;stroke:none"
       d="m 65.73,285.387 c -0.609,0 -1.066,-0.301 -1.375,-0.903 -0.304,-0.597 -0.457,-1.5 -0.457,-2.703 0,-1.199 0.153,-2.097 0.457,-2.695 0.309,-0.602 0.766,-0.902 1.375,-0.902 0.614,0 1.075,0.3 1.379,0.902 0.309,0.598 0.461,1.496 0.461,2.695 0,1.203 -0.152,2.106 -0.461,2.703 -0.304,0.602 -0.765,0.903 -1.379,0.903 m 0,0.937 c 0.981,0 1.731,-0.39 2.25,-1.164 0.516,-0.777 0.774,-1.902 0.774,-3.379 0,-1.472 -0.258,-2.597 -0.774,-3.371 -0.519,-0.777 -1.269,-1.164 -2.25,-1.164 -0.98,0 -1.73,0.387 -2.246,1.164 -0.515,0.774 -0.777,1.899 -0.777,3.371 0,1.477 0.262,2.602 0.777,3.379 0.516,0.774 1.266,1.164 2.246,1.164" /><path
       inkscape:connector-curvature="0"
       id="path290"
       style="fill:none;stroke:#000000;stroke-width:0.5;stroke-linecap:butt;stroke-linejoin:round;stroke-miterlimit:4;stroke-dasharray:none;stroke-opacity:1"
       d="m 72,362.371 4,0" /><path
       inkscape:connector-curvature="0"
       id="path292"
       style="fill:none;stroke:#000000;stroke-width:0.5;stroke-linecap:butt;stroke-linejoin:round;stroke-miterlimit:4;stroke-dasharray:none;stroke-opacity:1"
       d="m 545.398,362.371 -4,0" /><path
       inkscape:connector-curvature="0"
       id="path294"
       style="fill:#000000;fill-opacity:1;fill-rule:nonzero;stroke:none"
       d="m 40.332,359.242 0,1.078 c 0.297,-0.14 0.598,-0.25 0.902,-0.324 0.305,-0.07 0.602,-0.109 0.895,-0.109 0.781,0 1.379,0.261 1.789,0.789 0.414,0.523 0.648,1.32 0.707,2.394 -0.227,-0.336 -0.512,-0.597 -0.859,-0.777 -0.348,-0.18 -0.735,-0.27 -1.157,-0.27 -0.875,0 -1.566,0.266 -2.078,0.793 -0.508,0.532 -0.761,1.254 -0.761,2.176 0,0.895 0.265,1.617 0.796,2.16 0.532,0.543 1.239,0.813 2.122,0.813 1.011,0 1.781,-0.387 2.316,-1.164 0.531,-0.774 0.801,-1.899 0.801,-3.375 0,-1.379 -0.328,-2.481 -0.985,-3.301 -0.652,-0.824 -1.531,-1.234 -2.636,-1.234 -0.297,0 -0.598,0.027 -0.903,0.086 -0.304,0.058 -0.621,0.148 -0.949,0.265 m 2.356,3.707 c 0.531,0 0.949,0.184 1.261,0.547 0.309,0.363 0.465,0.859 0.465,1.496 0,0.629 -0.156,1.125 -0.465,1.488 -0.312,0.368 -0.73,0.547 -1.261,0.547 -0.532,0 -0.954,-0.179 -1.266,-0.547 -0.309,-0.363 -0.465,-0.859 -0.465,-1.488 0,-0.637 0.156,-1.133 0.465,-1.496 0.312,-0.363 0.734,-0.547 1.266,-0.547" /><path
       inkscape:connector-curvature="0"
       id="path296"
       style="fill:#000000;fill-opacity:1;fill-rule:nonzero;stroke:none"
       d="m 47.941,367.809 4.649,0 0,-0.997 -3.563,0 0,-2.144 c 0.172,0.059 0.344,0.102 0.512,0.133 0.172,0.027 0.348,0.043 0.52,0.043 0.976,0 1.75,-0.27 2.32,-0.805 0.57,-0.535 0.855,-1.258 0.855,-2.172 0,-0.941 -0.293,-1.672 -0.879,-2.195 -0.585,-0.524 -1.414,-0.781 -2.48,-0.781 -0.367,0 -0.742,0.031 -1.121,0.093 -0.383,0.063 -0.774,0.157 -1.18,0.282 l 0,1.191 c 0.352,-0.191 0.715,-0.336 1.09,-0.43 0.375,-0.093 0.77,-0.14 1.188,-0.14 0.675,0 1.21,0.179 1.605,0.531 0.395,0.355 0.594,0.84 0.594,1.449 0,0.61 -0.199,1.09 -0.594,1.445 -0.395,0.356 -0.93,0.536 -1.605,0.536 -0.317,0 -0.633,-0.036 -0.946,-0.106 -0.316,-0.07 -0.636,-0.18 -0.965,-0.328 l 0,4.395 z" /><path
       inkscape:connector-curvature="0"
       id="path298"
       style="fill:#000000;fill-opacity:1;fill-rule:nonzero;stroke:none"
       d="m 58.098,367.027 c -0.61,0 -1.071,-0.297 -1.375,-0.898 -0.309,-0.598 -0.461,-1.5 -0.461,-2.703 0,-1.199 0.152,-2.098 0.461,-2.699 0.304,-0.598 0.765,-0.899 1.375,-0.899 0.613,0 1.07,0.301 1.379,0.899 0.308,0.601 0.461,1.5 0.461,2.699 0,1.203 -0.153,2.105 -0.461,2.703 -0.309,0.601 -0.766,0.898 -1.379,0.898 m 0,0.938 c 0.98,0 1.73,-0.387 2.246,-1.164 0.519,-0.774 0.777,-1.899 0.777,-3.375 0,-1.473 -0.258,-2.598 -0.777,-3.375 -0.516,-0.774 -1.266,-1.16 -2.246,-1.16 -0.981,0 -1.731,0.386 -2.25,1.16 -0.516,0.777 -0.774,1.902 -0.774,3.375 0,1.476 0.258,2.601 0.774,3.375 0.519,0.777 1.269,1.164 2.25,1.164" /><path
       inkscape:connector-curvature="0"
       id="path300"
       style="fill:#000000;fill-opacity:1;fill-rule:nonzero;stroke:none"
       d="m 65.73,367.027 c -0.609,0 -1.066,-0.297 -1.375,-0.898 -0.304,-0.598 -0.457,-1.5 -0.457,-2.703 0,-1.199 0.153,-2.098 0.457,-2.699 0.309,-0.598 0.766,-0.899 1.375,-0.899 0.614,0 1.075,0.301 1.379,0.899 0.309,0.601 0.461,1.5 0.461,2.699 0,1.203 -0.152,2.105 -0.461,2.703 -0.304,0.601 -0.765,0.898 -1.379,0.898 m 0,0.938 c 0.981,0 1.731,-0.387 2.25,-1.164 0.516,-0.774 0.774,-1.899 0.774,-3.375 0,-1.473 -0.258,-2.598 -0.774,-3.375 -0.519,-0.774 -1.269,-1.16 -2.25,-1.16 -0.98,0 -1.73,0.386 -2.246,1.16 -0.515,0.777 -0.777,1.902 -0.777,3.375 0,1.476 0.262,2.601 0.777,3.375 0.516,0.777 1.266,1.164 2.246,1.164" /><path
       inkscape:connector-curvature="0"
       id="path302"
       style="fill:none;stroke:#000000;stroke-width:0.5;stroke-linecap:butt;stroke-linejoin:round;stroke-miterlimit:4;stroke-dasharray:none;stroke-opacity:1"
       d="m 72,444.016 4,0" /><path
       inkscape:connector-curvature="0"
       id="path304"
       style="fill:none;stroke:#000000;stroke-width:0.5;stroke-linecap:butt;stroke-linejoin:round;stroke-miterlimit:4;stroke-dasharray:none;stroke-opacity:1"
       d="m 545.398,444.016 -4,0" /><path
       inkscape:connector-curvature="0"
       id="path306"
       style="fill:#000000;fill-opacity:1;fill-rule:nonzero;stroke:none"
       d="m 33.43,441.699 1.933,0 0,6.676 -2.105,-0.422 0,1.078 2.094,0.422 1.183,0 0,-7.754 1.934,0 0,-0.996 -5.039,0 0,0.996 z" /><path
       inkscape:connector-curvature="0"
       id="path308"
       style="fill:#000000;fill-opacity:1;fill-rule:nonzero;stroke:none"
       d="m 43.387,448.672 c -0.606,0 -1.067,-0.301 -1.371,-0.899 -0.309,-0.601 -0.461,-1.5 -0.461,-2.707 0,-1.195 0.152,-2.097 0.461,-2.695 0.304,-0.601 0.765,-0.902 1.371,-0.902 0.617,0 1.074,0.301 1.383,0.902 0.304,0.598 0.46,1.5 0.46,2.695 0,1.207 -0.156,2.106 -0.46,2.707 -0.309,0.598 -0.766,0.899 -1.383,0.899 m 0,0.937 c 0.984,0 1.734,-0.386 2.25,-1.164 0.515,-0.777 0.777,-1.902 0.777,-3.379 0,-1.472 -0.262,-2.593 -0.777,-3.371 -0.516,-0.777 -1.266,-1.164 -2.25,-1.164 -0.977,0 -1.727,0.387 -2.246,1.164 -0.516,0.778 -0.774,1.899 -0.774,3.371 0,1.477 0.258,2.602 0.774,3.379 0.519,0.778 1.269,1.164 2.246,1.164" /><path
       inkscape:connector-curvature="0"
       id="path310"
       style="fill:#000000;fill-opacity:1;fill-rule:nonzero;stroke:none"
       d="m 51.023,448.672 c -0.609,0 -1.066,-0.301 -1.375,-0.899 -0.304,-0.601 -0.457,-1.5 -0.457,-2.707 0,-1.195 0.153,-2.097 0.457,-2.695 0.309,-0.601 0.766,-0.902 1.375,-0.902 0.614,0 1.075,0.301 1.379,0.902 0.309,0.598 0.461,1.5 0.461,2.695 0,1.207 -0.152,2.106 -0.461,2.707 -0.304,0.598 -0.765,0.899 -1.379,0.899 m 0,0.937 c 0.981,0 1.731,-0.386 2.247,-1.164 0.519,-0.777 0.777,-1.902 0.777,-3.379 0,-1.472 -0.258,-2.593 -0.777,-3.371 -0.516,-0.777 -1.266,-1.164 -2.247,-1.164 -0.98,0 -1.73,0.387 -2.246,1.164 -0.519,0.778 -0.777,1.899 -0.777,3.371 0,1.477 0.258,2.602 0.777,3.379 0.516,0.778 1.266,1.164 2.246,1.164" /><path
       inkscape:connector-curvature="0"
       id="path312"
       style="fill:#000000;fill-opacity:1;fill-rule:nonzero;stroke:none"
       d="m 58.656,448.672 c -0.605,0 -1.066,-0.301 -1.371,-0.899 -0.308,-0.601 -0.461,-1.5 -0.461,-2.707 0,-1.195 0.153,-2.097 0.461,-2.695 0.305,-0.601 0.766,-0.902 1.371,-0.902 0.617,0 1.074,0.301 1.383,0.902 0.305,0.598 0.461,1.5 0.461,2.695 0,1.207 -0.156,2.106 -0.461,2.707 -0.309,0.598 -0.766,0.899 -1.383,0.899 m 0,0.937 c 0.985,0 1.735,-0.386 2.25,-1.164 0.516,-0.777 0.778,-1.902 0.778,-3.379 0,-1.472 -0.262,-2.593 -0.778,-3.371 -0.515,-0.777 -1.265,-1.164 -2.25,-1.164 -0.976,0 -1.726,0.387 -2.246,1.164 -0.515,0.778 -0.773,1.899 -0.773,3.371 0,1.477 0.258,2.602 0.773,3.379 0.52,0.778 1.27,1.164 2.246,1.164" /><path
       inkscape:connector-curvature="0"
       id="path314"
       style="fill:#000000;fill-opacity:1;fill-rule:nonzero;stroke:none"
       d="m 66.293,448.672 c -0.609,0 -1.066,-0.301 -1.375,-0.899 -0.305,-0.601 -0.457,-1.5 -0.457,-2.707 0,-1.195 0.152,-2.097 0.457,-2.695 0.309,-0.601 0.766,-0.902 1.375,-0.902 0.613,0 1.074,0.301 1.379,0.902 0.308,0.598 0.461,1.5 0.461,2.695 0,1.207 -0.153,2.106 -0.461,2.707 -0.305,0.598 -0.766,0.899 -1.379,0.899 m 0,0.937 c 0.98,0 1.73,-0.386 2.246,-1.164 0.52,-0.777 0.777,-1.902 0.777,-3.379 0,-1.472 -0.257,-2.593 -0.777,-3.371 -0.516,-0.777 -1.266,-1.164 -2.246,-1.164 -0.981,0 -1.731,0.387 -2.246,1.164 -0.52,0.778 -0.777,1.899 -0.777,3.371 0,1.477 0.257,2.602 0.777,3.379 0.515,0.778 1.265,1.164 2.246,1.164" /><path
       inkscape:connector-curvature="0"
       id="path316"
       style="fill:#000000;fill-opacity:1;fill-rule:nonzero;stroke:none"
       d="m 22.059,256.801 c 0,-0.074 -0.055,-0.113 -0.161,-0.113 -0.019,0.003 -0.054,0.011 -0.101,0.019 -0.047,0.012 -0.086,0.027 -0.117,0.051 -0.028,0.023 -0.043,0.051 -0.043,0.082 0,0.484 -0.028,0.824 -0.082,1.019 -0.035,0.106 -0.145,0.18 -0.325,0.227 l -6.589,1.648 c -0.079,0.016 -0.133,0.02 -0.164,0.02 -0.086,0 -0.137,-0.047 -0.149,-0.145 -0.031,-0.148 -0.047,-0.437 -0.047,-0.859 0,-0.078 -0.051,-0.121 -0.156,-0.121 -0.102,0.027 -0.172,0.051 -0.207,0.066 -0.039,0.016 -0.059,0.059 -0.059,0.133 l 0,3.231 c 0,0.082 0.055,0.125 0.157,0.125 0.023,-0.004 0.054,-0.012 0.101,-0.028 0.047,-0.011 0.086,-0.027 0.117,-0.047 0.032,-0.015 0.047,-0.047 0.047,-0.086 0,-0.488 0.028,-0.828 0.082,-1.019 0.039,-0.106 0.149,-0.184 0.328,-0.227 l 3.887,-0.976 -3.633,4.707 c -0.015,0.008 -0.07,0.058 -0.16,0.148 -0.094,0.094 -0.183,0.141 -0.273,0.141 -0.153,0 -0.231,-0.137 -0.231,-0.406 0,-0.082 -0.051,-0.125 -0.156,-0.125 -0.063,0.015 -0.113,0.031 -0.148,0.039 -0.036,0.007 -0.063,0.027 -0.086,0.05 -0.02,0.028 -0.032,0.067 -0.032,0.118 l 0,2.324 c 0,0.047 0.016,0.078 0.047,0.094 0.032,0.019 0.071,0.031 0.11,0.031 0.023,-0.004 0.058,-0.012 0.109,-0.027 0.051,-0.012 0.09,-0.032 0.117,-0.051 0.028,-0.024 0.039,-0.051 0.039,-0.094 0,-0.582 0.274,-1.223 0.813,-1.922 0.008,-0.004 0.011,-0.008 0.011,-0.016 0.004,-0.007 0.004,-0.015 0.008,-0.023 0,-0.008 0.004,-0.016 0.008,-0.019 l 1.922,-2.473 4.211,1.801 c 0.176,0.109 0.285,0.226 0.324,0.351 0.039,0.125 0.059,0.317 0.059,0.574 0,0.082 0.051,0.122 0.156,0.122 0.094,-0.024 0.16,-0.047 0.203,-0.071 0.039,-0.023 0.063,-0.066 0.063,-0.133 l 0,-2.785 c 0,-0.074 -0.055,-0.109 -0.161,-0.109 -0.082,0.012 -0.144,0.023 -0.191,0.039 -0.047,0.016 -0.07,0.055 -0.07,0.117 0,0.203 -0.024,0.379 -0.063,0.52 -0.043,0.144 -0.136,0.215 -0.285,0.215 -0.055,0 -0.094,-0.004 -0.121,-0.012 l -3.465,-1.488 1.356,-1.75 2.218,-0.551 c 0.098,-0.024 0.157,-0.032 0.172,-0.032 0.082,0 0.129,0.047 0.141,0.145 0.031,0.152 0.047,0.441 0.047,0.871 0,0.074 0.051,0.113 0.156,0.113 0.113,-0.027 0.187,-0.046 0.219,-0.062 0.031,-0.016 0.047,-0.063 0.047,-0.141 l 0,-3.23 z" /><path
       inkscape:connector-curvature="0"
       id="path318"
       style="fill:#000000;fill-opacity:1;fill-rule:nonzero;stroke:none"
       d="m 26.746,266.223 c 0,-0.055 -0.035,-0.082 -0.105,-0.082 -0.125,0.019 -0.184,0.058 -0.184,0.113 0,0.176 -0.016,0.297 -0.047,0.367 -0.031,0.07 -0.113,0.121 -0.242,0.16 l -3.781,0.949 c -0.106,0.04 -0.239,0.063 -0.403,0.063 -0.242,0 -0.359,-0.082 -0.359,-0.246 0,-0.176 0.102,-0.309 0.313,-0.391 0.21,-0.086 0.472,-0.168 0.792,-0.246 0.036,0 0.055,-0.023 0.055,-0.07 l 0,-0.098 c 0,-0.015 -0.012,-0.031 -0.031,-0.047 -0.02,-0.015 -0.039,-0.023 -0.055,-0.023 -0.242,0.058 -0.449,0.117 -0.617,0.172 -0.172,0.058 -0.324,0.144 -0.465,0.265 -0.14,0.118 -0.211,0.266 -0.211,0.446 0,0.191 0.055,0.359 0.164,0.504 0.106,0.144 0.254,0.238 0.438,0.277 -0.176,0.152 -0.32,0.324 -0.434,0.508 -0.113,0.187 -0.168,0.379 -0.168,0.574 0,0.238 0.063,0.441 0.192,0.613 0.125,0.176 0.289,0.305 0.492,0.395 0.203,0.086 0.422,0.129 0.66,0.129 0.359,0 0.73,-0.09 1.117,-0.278 0.387,-0.183 0.707,-0.433 0.961,-0.75 0.258,-0.316 0.387,-0.652 0.387,-1.011 0,-0.168 -0.047,-0.317 -0.141,-0.45 -0.094,-0.132 -0.215,-0.234 -0.367,-0.308 l 1.496,-0.379 c 0.082,-0.016 0.129,-0.024 0.141,-0.027 0.074,0 0.113,0.183 0.113,0.554 0,0.059 0.035,0.086 0.105,0.086 0.075,-0.019 0.122,-0.035 0.149,-0.047 0.023,-0.011 0.035,-0.043 0.035,-0.097 l 0,-1.625 z m -1.754,2.3 c 0,0.192 -0.082,0.372 -0.242,0.539 -0.16,0.168 -0.34,0.301 -0.539,0.407 -0.149,0.078 -0.332,0.148 -0.551,0.215 -0.215,0.066 -0.449,0.125 -0.695,0.175 -0.246,0.047 -0.442,0.075 -0.586,0.075 -0.129,0 -0.25,-0.02 -0.359,-0.051 -0.114,-0.035 -0.208,-0.09 -0.286,-0.168 -0.074,-0.078 -0.109,-0.184 -0.109,-0.313 0,-0.203 0.07,-0.398 0.219,-0.582 0.144,-0.179 0.328,-0.343 0.543,-0.492 l 0.031,0 1.852,-0.461 c 0.199,0.035 0.371,0.11 0.511,0.219 0.141,0.109 0.211,0.254 0.211,0.437" /><text
       id="text320"
       style="font-variant:normal;font-weight:normal;font-size:15.5508213px;font-family:'DejaVu Sans';-inkscape-font-specification:DejaVuSans;writing-mode:lr-tb;fill:#ff0000;fill-opacity:1;fill-rule:nonzero;stroke:none"
       transform="scale(0.9353254,-1.0691466)"
       x="326.01556"
       y="-441.30206"><tspan
         id="tspan322"
         sodipodi:role="line"
         y="-441.30206"
         x="326.01556 334.6774">LP</tspan></text>
<text
       id="text324"
       style="font-variant:normal;font-weight:normal;font-size:13.65873718px;font-family:'DejaVu Sans';-inkscape-font-specification:DejaVuSans;writing-mode:lr-tb;fill:#0000ff;fill-opacity:1;fill-rule:nonzero;stroke:none"
       transform="scale(0.93369183,-1.0710172)"
       x="252.21326"
       y="-182.69919"><tspan
         id="tspan326"
         sodipodi:role="line"
         y="-182.69919"
         x="252.21326 262.47098 270.81647 279.4761">Hopf</tspan></text>
<text
       id="text328"
       style="font-variant:normal;font-weight:normal;font-size:13.65873718px;font-family:'DejaVu Sans';-inkscape-font-specification:DejaVuSans;writing-mode:lr-tb;fill:#008000;fill-opacity:1;fill-rule:nonzero;stroke:none"
       transform="scale(0.93369183,-1.0710172)"
       x="252.21326"
       y="-465.35999"><tspan
         id="tspan330"
         sodipodi:role="line"
         y="-465.35999"
         x="252.21326 262.47098 270.81647 284.12006 292.46555 299.9642 303.74768 307.53116 316.17712 319.9606">Homoclinic</tspan></text>
<g
       id="g416"><g
         id="g418" /><g
         mask="url(#mask424)"
         id="g432"><g
           id="g434" /><g
           id="g444"><g
             id="g446"
             clip-path="url(#clipPath436)"><g
               id="g448"><g
                 id="g450"><g
                   id="g452"
                   clip-path="url(#clipPath440)"><g
                     id="g454"><path
                       inkscape:connector-curvature="0"
                       id="path456"
                       style="fill:#004cff;fill-opacity:0.18431402;fill-rule:nonzero;stroke:none"
                       d="m 71.609,326.477 c 0,34.863 0.024,35.39 1.586,35.39 0.871,0 1.582,0.356 1.582,0.793 0,0.434 -0.711,0.793 -1.582,0.793 -1.566,0 -1.586,0.527 -1.586,40.02 0,39.492 0.02,40.023 1.586,40.023 0.871,0 1.582,0.356 1.582,0.789 0,0.438 -0.711,0.793 -1.582,0.793 -1.425,0 -1.586,0.531 -1.586,5.18 l 0,5.18 4.161,-0.504 c 20.382,-2.465 37.636,-11.758 57.847,-31.161 22.821,-21.902 49.082,-59.496 79.723,-114.125 l 7.285,-12.988 -5.758,0.492 c -3.168,0.27 -13.426,0.719 -22.797,1 -19.758,0.59 -38.047,-0.332 -73.226,-3.691 -13.465,-1.285 -29.602,-2.57 -35.86,-2.856 l -11.375,-0.515 0,35.387 z" /></g></g></g></g></g></g></g></g><g
       id="g458"><g
         id="g460" /><g
         mask="url(#mask466)"
         id="g474"><g
           id="g476" /><g
           id="g486"><g
             id="g488"
             clip-path="url(#clipPath478)"><g
               id="g490"><g
                 id="g492"><g
                   id="g494"
                   clip-path="url(#clipPath482)"><g
                     id="g496"><path
                       inkscape:connector-curvature="0"
                       id="path498"
                       style="fill:#008000;fill-opacity:0.18431402;fill-rule:nonzero;stroke:none"
                       d="m 404.211,287.824 c -0.539,0.141 -0.981,0.617 -0.981,1.055 0,1.246 -2.097,3.043 -3.554,3.043 -0.723,0 -1.742,-0.477 -2.27,-1.055 -0.933,-1.031 -1.054,-1.031 -5.828,0.016 -7.199,1.586 -8.422,2.051 -12.707,4.879 -12.414,8.179 -27.719,28.832 -45.945,62.004 -6.41,11.668 -24.11,47.371 -33.75,68.086 -8.059,17.32 -25.676,55.664 -28.555,62.16 -0.914,2.066 -1.531,2.859 -1.918,2.472 -0.953,-0.953 30.356,-69.023 48.027,-104.418 11.309,-22.656 16.368,-32.156 24.02,-45.113 14.52,-24.582 28.18,-41.258 39.062,-47.691 l 2.407,-1.422 -3.082,0.332 c -9.196,0.98 -28.336,1.422 -61.926,1.426 -20.649,0.004 -43.469,0.261 -50.711,0.57 -13.531,0.578 -42.793,2.223 -42.918,2.41 -0.035,0.059 -3.676,6.535 -8.09,14.395 -39.207,69.847 -69.851,110.043 -99.176,130.089 -13.371,9.137 -29.242,15.051 -40.41,15.051 l -3.301,0 0,36.422 117.122,0 0,-1.961 c 0,-1.078 0.25,-1.961 0.558,-1.961 0.309,0 0.563,0.887 0.563,1.969 l 0,1.965 62.797,-0.289 15.429,-33.063 c 23.899,-51.211 27.696,-59.172 37.824,-79.297 25.137,-49.945 42.012,-74.89 56.348,-83.293 1.418,-0.828 4.5,-1.968 6.852,-2.531 5.144,-1.23 5.113,-1.23 5.113,-0.254 0,0.516 -1.262,1.008 -3.781,1.469 -5.082,0.93 -9.289,3.242 -14.317,7.879 -15.312,14.109 -36.332,49.57 -63.582,107.273 -5.176,10.957 -37.582,80.254 -38.062,81.395 -0.235,0.551 3.062,0.699 15.426,0.699 l 15.726,0 11.34,-23.113 c 20.652,-42.094 38.477,-76.746 50.809,-98.77 19.617,-35.039 37.718,-61.582 52.421,-76.882 5.809,-6.04 6.18,-6.77 3.02,-5.946 z" /><g
                       id="g500"
                       transform="matrix(1,0,0,-1,0,529)"><path
                         inkscape:connector-curvature="0"
                         id="path502"
                         style="fill:none;stroke:#ff0000;stroke-width:0.560381;stroke-linecap:butt;stroke-linejoin:round;stroke-miterlimit:1;stroke-dasharray:5.603814, 3.362288;stroke-dashoffset:0;stroke-opacity:1"
                         d="m 404.211,241.176 c -0.539,-0.141 -0.981,-0.617 -0.981,-1.055 0,-1.246 -2.097,-3.043 -3.554,-3.043 -0.723,0 -1.742,0.477 -2.27,1.055 -0.933,1.031 -1.054,1.031 -5.828,-0.016 -7.199,-1.586 -8.422,-2.051 -12.707,-4.879 -12.414,-8.179 -27.719,-28.832 -45.945,-62.004 -6.41,-11.668 -24.11,-47.371 -33.75,-68.086 -8.059,-17.32 -25.676,-55.664 -28.555,-62.16 -0.914,-2.066 -1.531,-2.859 -1.918,-2.472 -0.953,0.953 30.356,69.023 48.027,104.418 11.309,22.656 16.368,32.156 24.02,45.113 14.52,24.582 28.18,41.258 39.062,47.691 l 2.407,1.422 -3.082,-0.332 c -9.196,-0.98 -28.336,-1.422 -61.926,-1.426 -20.649,-0.004 -43.469,-0.261 -50.711,-0.57 -13.531,-0.578 -42.793,-2.223 -42.918,-2.41 -0.035,-0.059 -3.676,-6.535 -8.09,-14.395 C 176.285,148.18 145.641,107.984 116.316,87.938 102.945,78.801 87.074,72.887 75.906,72.887 l -3.301,0 0,-36.422 117.122,0 0,1.961 c 0,1.078 0.25,1.961 0.558,1.961 0.309,0 0.563,-0.887 0.563,-1.969 l 0,-1.965 62.797,0.289 15.429,33.063 c 23.899,51.211 27.696,59.172 37.824,79.297 25.137,49.945 42.012,74.89 56.348,83.293 1.418,0.828 4.5,1.968 6.852,2.531 5.144,1.23 5.113,1.23 5.113,0.254 0,-0.516 -1.262,-1.008 -3.781,-1.469 -5.082,-0.93 -9.289,-3.242 -14.317,-7.879 -15.312,-14.109 -36.332,-49.57 -63.582,-107.273 -5.176,-10.957 -37.582,-80.254 -38.062,-81.395 -0.235,-0.551 3.062,-0.699 15.426,-0.699 l 15.726,0 11.34,23.113 c 20.652,42.094 38.477,76.746 50.809,98.77 19.617,35.039 37.718,61.582 52.421,76.882 5.809,6.04 6.18,6.77 3.02,5.946 z" /></g></g></g></g></g></g></g></g></g><text
       id="text504"
       style="font-variant:normal;font-weight:normal;font-size:13.65873718px;font-family:'DejaVu Sans';-inkscape-font-specification:DejaVuSans;writing-mode:lr-tb;fill:#000000;fill-opacity:1;fill-rule:nonzero;stroke:none"
       transform="scale(0.93369183,-1.0710172)"
       x="259.26974"
       y="-430.91061"><tspan
         id="tspan506"
         sodipodi:role="line"
         y="-430.91061"
         x="259.26974 267.50595">PD</tspan></text>
<text
       id="text508"
       style="font-variant:normal;font-weight:normal;font-size:30.20449829px;font-family:'DejaVu Serif';-inkscape-font-specification:DejaVuSerif;writing-mode:lr-tb;fill:#000000;fill-opacity:1;fill-rule:nonzero;stroke:none"
       transform="scale(0.97243025,-1.0283514)"
       x="170.37262"
       y="-111.05509"><tspan
         id="tspan510"
         y="-111.05509"
         x="170.37262">I</tspan><tspan
         id="tspan512"
         sodipodi:role="line"
         y="-326.84811"
         x="103.52541 115.45619">IV</tspan></text>
<g
       id="g514"><g
         id="g516" /><g
         mask="url(#mask522)"
         id="g530"><g
           id="g532" /><g
           id="g542"><g
             id="g544"
             clip-path="url(#clipPath534)"><g
               id="g546"><g
                 id="g548"><g
                   id="g550"
                   clip-path="url(#clipPath538)"><g
                     id="g552"><path
                       inkscape:connector-curvature="0"
                       id="path554"
                       style="fill:#008000;fill-opacity:0.18431402;fill-rule:nonzero;stroke:none"
                       d="m 309.59,293.93 c -50.754,0.679 -81.188,1.664 -84.746,2.738 -0.692,0.207 -4.43,6.094 -8.309,13.078 -53.469,96.227 -96.445,142.098 -137.058,146.289 l -6.368,0.656 0,35.551 58.2,0 c 54.484,0 58.23,-0.125 58.707,-1.961 0.488,-1.867 0.519,-1.867 0.644,0 0.121,1.817 2.414,1.961 31.379,1.961 l 31.25,0 3.07,-6.445 c 1.692,-3.543 9.758,-20.817 17.93,-38.387 21.301,-45.793 32.535,-68.89 42.52,-87.418 23.14,-42.926 39.05,-62.949 52.586,-66.176 l 3.519,-0.839 -3.363,0.097 c -1.848,0.051 -28.832,0.438 -59.961,0.856 z" /></g></g></g></g></g></g></g></g><g
       id="g556"><g
         id="g558" /><g
         mask="url(#mask564)"
         id="g572"><g
           id="g574" /><g
           id="g584"><g
             id="g586"
             clip-path="url(#clipPath576)"><g
               id="g588"><g
                 id="g590"><g
                   id="g592"
                   clip-path="url(#clipPath580)"><g
                     id="g594"><path
                       inkscape:connector-curvature="0"
                       id="path596"
                       style="fill:#008000;fill-opacity:0.18431402;fill-rule:nonzero;stroke:none"
                       d="m 365.363,293.273 c -0.289,0.289 -22.187,0.622 -48.66,0.735 -52.644,0.23 -88.348,1.512 -91.844,3.301 -1.23,0.629 -4.507,5.273 -7.281,10.316 -15.277,27.77 -39.531,66.301 -53.074,84.309 -29.879,39.734 -58.484,61.312 -84.942,64.078 l -6.566,0.683 0,35.606 57.91,-0.309 c 44.883,-0.242 58.008,-0.625 58.367,-1.703 0.348,-1.039 0.887,-0.965 2.153,0.301 1.437,1.437 6.215,1.644 32.027,1.39 l 30.34,-0.296 22.578,-48.196 c 32.133,-68.593 46.004,-95.496 60.871,-118.09 12.469,-18.941 22.266,-28.617 31.504,-31.105 l 5.176,-1.395 -4.016,-0.078 c -2.207,-0.039 -4.254,0.164 -4.543,0.453 z" /></g></g></g></g></g></g></g></g><text
       id="text598"
       style="font-variant:normal;font-weight:normal;font-size:30.20449829px;font-family:'DejaVu Serif';-inkscape-font-specification:DejaVuSerif;writing-mode:lr-tb;fill:#000000;fill-opacity:1;fill-rule:nonzero;stroke:none"
       transform="scale(0.97243025,-1.0283514)"
       x="237.28452"
       y="-326.23904"><tspan
         id="tspan600"
         y="-326.23904"
         x="237.28452">V</tspan><tspan
         id="tspan602"
         sodipodi:role="line"
         x="237.28452"
         y="-288.48343" /><tspan
         id="tspan604"
         sodipodi:role="line"
         x="237.28452"
         y="-250.7278" /></text>
<path
       inkscape:connector-curvature="0"
       id="path612"
       style="fill:#005dff;fill-opacity:0.18431402;fill-rule:nonzero;stroke:none"
       d="m 74.828,291.707 c -1.578,0.215 -1.824,0.469 -1.824,1.863 0,0.887 -0.25,1.766 -0.559,1.957 -0.73,0.45 -0.73,4.035 0,4.485 0.735,0.453 0.735,8.125 0,8.125 -0.308,0 -0.562,1.008 -0.562,2.242 0,1.23 0.254,2.242 0.562,2.242 0.735,0 0.735,7.668 0,8.125 -0.73,0.449 -0.73,4.762 0,4.762 0.739,0 0.739,8.789 0,9.246 -0.73,0.449 -0.73,4.035 0,4.484 0.735,0.453 0.735,8.125 0,8.125 -0.308,0 -0.562,1.008 -0.562,2.242 0,1.231 0.254,2.243 0.562,2.243 0.325,0 0.559,1.773 0.559,4.203 0,2.426 -0.234,4.203 -0.559,4.203 -0.308,0 -0.562,0.504 -0.562,1.117 0,0.91 0.375,1.121 1.965,1.121 2.093,0 2.687,1.039 0.863,1.512 -0.793,0.211 -1.195,0.965 -1.465,2.758 -0.203,1.359 -0.594,2.609 -0.867,2.777 -0.68,0.418 -0.625,4.016 0.066,4.441 0.735,0.458 0.735,8.125 0,8.125 -0.308,0 -0.562,1.012 -0.562,2.243 0,1.234 0.254,2.242 0.562,2.242 0.735,0 0.735,7.672 0,8.125 -0.308,0.191 -0.562,1.199 -0.562,2.242 0,1.043 0.254,2.051 0.562,2.242 0.731,0.449 0.731,7.953 0,8.406 -0.73,0.45 -0.73,4.032 0,4.481 0.735,0.457 0.735,8.129 0,8.129 -0.308,0 -0.562,1.008 -0.562,2.238 0,1.235 0.254,2.242 0.562,2.242 0.735,0 0.735,7.672 0,8.125 -0.687,0.426 -0.746,4.024 -0.074,4.438 0.266,0.164 0.613,1.437 0.77,2.828 0.199,1.746 0.699,2.875 1.617,3.637 l 1.328,1.109 -2.102,0.02 c -2.007,0.015 -2.73,0.683 -1.539,1.418 0.735,0.457 0.735,8.125 0,8.125 -0.308,0 -0.562,0.253 -0.562,0.562 0,0.727 3.129,0.727 4.484,0 0.578,-0.309 3.121,-0.684 5.656,-0.836 2.539,-0.148 5.141,-0.621 5.797,-1.051 1.11,-0.726 3.934,-1.644 9.703,-3.144 1.309,-0.34 2.379,-0.856 2.379,-1.149 0,-0.652 5.453,-3.472 7.078,-3.656 1.332,-0.152 4.129,-1.832 4.129,-2.476 0,-0.543 5.957,-4.5 6.77,-4.5 0.758,0 3.598,-2.18 3.598,-2.762 0,-0.653 5.308,-5.082 6.093,-5.082 0.383,0 2.528,-2.02 4.766,-4.485 2.238,-2.464 4.387,-4.484 4.773,-4.484 0.746,0 3.141,-2.297 3.141,-3.016 0,-0.652 4.594,-5.949 5.16,-5.949 0.586,0 3.203,-2.871 3.231,-3.539 0.023,-0.703 4.89,-6.527 5.195,-6.223 0.148,0.145 0.945,-0.625 1.777,-1.71 0.828,-1.086 1.336,-1.977 1.133,-1.977 -0.605,0 2.543,-4 5.176,-6.574 1.336,-1.305 2.426,-2.782 2.426,-3.282 0,-1.015 2.625,-4.585 5.437,-7.402 1.016,-1.015 1.848,-2.23 1.848,-2.703 0,-1.09 3.062,-5.551 5.445,-7.937 1.012,-1.012 1.84,-2.274 1.84,-2.809 0,-1.063 3.695,-6.84 4.375,-6.84 0.492,0 2.586,-3.367 2.613,-4.199 0.028,-0.942 2.629,-4.945 4.321,-6.66 0.878,-0.891 1.761,-2.278 1.961,-3.082 0.464,-1.856 3.343,-6.653 5.058,-8.418 0.719,-0.742 1.469,-2.004 1.672,-2.805 0.402,-1.613 3.512,-6.949 4.227,-7.246 0.511,-0.219 2.269,-3.379 2.449,-4.414 0.195,-1.137 3.636,-6.883 4.117,-6.883 0.375,0 1.906,-2.992 2.004,-3.922 0.078,-0.707 2.301,-4.484 4.265,-7.238 1.192,-1.668 2.165,-3.434 2.168,-3.922 0,-0.488 0.504,-1.644 1.118,-2.57 1.406,-2.125 1.464,-3.34 0.14,-2.817 -1.594,0.633 -32.785,1.844 -41.609,1.621 -19.856,-0.507 -31.039,-1.086 -34.871,-1.8 -1.453,-0.274 -3.219,-0.387 -3.922,-0.254 -0.699,0.133 -3.629,-0.137 -6.508,-0.598 -2.875,-0.465 -5.562,-0.719 -5.965,-0.562 -0.406,0.156 -2.715,-0.012 -5.136,-0.372 -2.418,-0.363 -6.43,-0.722 -8.911,-0.8 -2.48,-0.078 -5.449,-0.45 -6.597,-0.828 -1.172,-0.391 -3.004,-0.536 -4.196,-0.332 -1.164,0.195 -3.867,0.058 -6.015,-0.305 -2.145,-0.363 -6.418,-0.711 -9.5,-0.77 -3.082,-0.062 -6.488,-0.25 -7.567,-0.425 -1.078,-0.172 -2.781,-0.2 -3.781,-0.063 z m 35.723,45.852 c 0,0.519 -0.531,0.839 -1.403,0.839 l -1.398,0 0,19.051 1.441,0 c 1.071,0 1.395,0.254 1.254,0.981 -0.156,0.816 -0.918,1.008 -4.523,1.144 -4.047,0.153 -4.336,0.09 -4.336,-0.98 0,-0.848 0.363,-1.145 1.398,-1.145 l 1.403,0 0,-19.051 -1.403,0 c -0.871,0 -1.398,-0.32 -1.398,-0.839 0,-0.68 0.871,-0.844 4.48,-0.844 3.614,0 4.485,0.164 4.485,0.844 z m 15.129,4.062 c 0.984,2.695 2.675,7.359 3.761,10.367 1.547,4.274 2.207,5.461 3.032,5.461 0.679,0 1.054,0.399 1.054,1.121 0,0.996 -0.375,1.121 -3.363,1.121 -2.988,0 -3.363,-0.125 -3.363,-1.121 0,-0.765 0.375,-1.121 1.183,-1.121 0.899,0 1.086,-0.23 0.789,-0.98 -0.218,-0.539 -1.539,-4.203 -2.937,-8.145 -1.398,-3.941 -2.617,-7.094 -2.703,-7.004 -0.164,0.164 -5.86,15.688 -5.86,15.969 0,0.09 0.508,0.16 1.122,0.16 0.75,0 1.121,0.375 1.121,1.121 0,1.024 -0.371,1.121 -4.204,1.121 -3.777,0 -4.203,-0.109 -4.203,-1.082 0,-0.675 0.453,-1.148 1.207,-1.261 1.016,-0.149 1.778,-1.778 4.875,-10.407 3.532,-9.836 3.731,-10.226 5.188,-10.226 1.394,0 1.656,0.39 3.301,4.906 z" /><path
       style="opacity:0;fill:#00c500;fill-opacity:1;stroke:#000000;stroke-width:0.14009534;stroke-miterlimit:4;stroke-dasharray:none;stroke-dashoffset:0;stroke-opacity:1"
       d="m 313.05916,292.50119 c -36.06562,-1.71434 -32.32965,-0.24178 -41.1905,-16.23553 C 249.30977,235.54705 218.65248,187.63031 199.19424,162.67693 185.74946,145.43525 165.18651,124.42465 152.04132,114.49751 134.03747,100.90114 110.5426,90.989396 96.317519,90.989396 l -5.309475,0 0,-22.415255 0,-22.415254 72.849576,0 c 63.82121,0 72.84958,0.260434 72.84958,2.10143 0,1.155787 0.63043,2.10143 1.40095,2.10143 0.77052,0 1.40095,-0.955616 1.40095,-2.123591 0,-1.855372 4.9052,-2.076556 38.83634,-1.751192 l 38.83633,0.3724 19.23166,41.328125 c 10.57741,22.730471 26.6714,56.760001 35.76443,75.621181 36.25593,75.20374 63.51455,117.30844 82.37759,127.24361 l 5.60381,2.95153 -60.94147,-0.15198 c -33.51781,-0.0836 -72.2892,-0.69137 -86.15863,-1.35064 z m -6.58911,-57.56383 c 1.49513,-4.04526 3.58707,-9.79852 4.64877,-12.78503 1.06169,-2.98651 2.72063,-5.73329 3.68653,-6.10394 3.47917,-1.33508 1.65494,-3.17605 -3.14715,-3.17605 -4.58809,0 -6.75268,1.95196 -3.40283,3.06858 0.95215,0.31738 0.27295,3.78263 -1.85855,9.48217 -1.95365,5.22404 -3.7815,8.29844 -4.36878,7.34818 -2.31987,-3.75361 -6.22555,-17.09702 -5.00439,-17.09702 0.72903,0 1.3255,-0.63043 1.3255,-1.40096 0,-0.77052 -2.52172,-1.40095 -5.60382,-1.40095 -5.3964,0 -7.51615,1.7683 -3.82002,3.18664 0.9811,0.37648 3.288,5.01454 5.12645,10.3068 1.83846,5.29227 3.85708,11.04076 4.48581,12.77444 1.9176,5.28749 5.03539,3.6356 7.93248,-4.20286 z m 0.28482,-152.56204 c 0,-0.794173 1.41846,-2.608757 3.15214,-4.032412 2.55048,-2.094383 2.85743,-3.073182 1.60811,-5.127898 -0.84921,-1.396692 -2.89811,-2.740893 -4.55309,-2.987115 -2.77475,-0.412813 -3.00907,0.166383 -3.00907,7.437686 0,4.900163 0.53036,7.557577 1.40095,7.019524 0.77053,-0.47621 1.40096,-1.515614 1.40096,-2.309785 z m 14.10163,1.560018 c 1.87045,-1.001039 2.70981,-2.938493 2.70981,-6.255 0,-4.872188 -2.79919,-7.705243 -7.61315,-7.705243 -1.72485,0 -2.19353,1.646319 -2.19353,7.705243 0,8.198751 1.30908,9.352534 7.09687,6.255 z"
       id="path4740"
       inkscape:connector-curvature="0"
       transform="matrix(0.8,0,0,-0.8,0,529)" /><path
       style="opacity:0;fill:#00c500;fill-opacity:1;stroke:#000000;stroke-width:0.14009534;stroke-miterlimit:4;stroke-dasharray:none;stroke-dashoffset:0;stroke-opacity:1"
       d="m 313.05916,292.50119 c -36.06562,-1.71434 -32.32965,-0.24178 -41.1905,-16.23553 C 249.30977,235.54705 218.65248,187.63031 199.19424,162.67693 185.74946,145.43525 165.18651,124.42465 152.04132,114.49751 134.03747,100.90114 110.5426,90.989396 96.317519,90.989396 l -5.309475,0 0,-22.415255 0,-22.415254 72.849576,0 c 63.82121,0 72.84958,0.260434 72.84958,2.10143 0,1.155787 0.63043,2.10143 1.40095,2.10143 0.77052,0 1.40095,-0.955616 1.40095,-2.123591 0,-1.855372 4.9052,-2.076556 38.83634,-1.751192 l 38.83633,0.3724 19.23166,41.328125 c 10.57741,22.730471 26.6714,56.760001 35.76443,75.621181 36.25593,75.20374 63.51455,117.30844 82.37759,127.24361 l 5.60381,2.95153 -60.94147,-0.15198 c -33.51781,-0.0836 -72.2892,-0.69137 -86.15863,-1.35064 z m -6.58911,-57.56383 c 1.49513,-4.04526 3.58707,-9.79852 4.64877,-12.78503 1.06169,-2.98651 2.72063,-5.73329 3.68653,-6.10394 3.47917,-1.33508 1.65494,-3.17605 -3.14715,-3.17605 -4.58809,0 -6.75268,1.95196 -3.40283,3.06858 0.95215,0.31738 0.27295,3.78263 -1.85855,9.48217 -1.95365,5.22404 -3.7815,8.29844 -4.36878,7.34818 -2.31987,-3.75361 -6.22555,-17.09702 -5.00439,-17.09702 0.72903,0 1.3255,-0.63043 1.3255,-1.40096 0,-0.77052 -2.52172,-1.40095 -5.60382,-1.40095 -5.3964,0 -7.51615,1.7683 -3.82002,3.18664 0.9811,0.37648 3.288,5.01454 5.12645,10.3068 1.83846,5.29227 3.85708,11.04076 4.48581,12.77444 1.9176,5.28749 5.03539,3.6356 7.93248,-4.20286 z m 0.28482,-152.56204 c 0,-0.794173 1.41846,-2.608757 3.15214,-4.032412 2.55048,-2.094383 2.85743,-3.073182 1.60811,-5.127898 -0.84921,-1.396692 -2.89811,-2.740893 -4.55309,-2.987115 -2.77475,-0.412813 -3.00907,0.166383 -3.00907,7.437686 0,4.900163 0.53036,7.557577 1.40095,7.019524 0.77053,-0.47621 1.40096,-1.515614 1.40096,-2.309785 z m 14.10163,1.560018 c 1.87045,-1.001039 2.70981,-2.938493 2.70981,-6.255 0,-4.872188 -2.79919,-7.705243 -7.61315,-7.705243 -1.72485,0 -2.19353,1.646319 -2.19353,7.705243 0,8.198751 1.30908,9.352534 7.09687,6.255 z"
       id="path4742"
       inkscape:connector-curvature="0"
       transform="matrix(0.8,0,0,-0.8,0,529)" /><path
       style="opacity:0;fill:#00c500;fill-opacity:1;stroke:#000000;stroke-width:0.14009534;stroke-miterlimit:4;stroke-dasharray:none;stroke-dashoffset:0;stroke-opacity:1"
       d="m 453.1545,526.19621 c -30.99108,-8.07274 -62.59527,-41.96089 -104.06595,-111.58658 -13.98427,-23.47838 -67.7437,-120.75612 -67.0937,-121.40612 0.26205,-0.26205 9.88043,0.19413 21.37419,1.01374 11.49376,0.8196 56.20177,2.03803 99.35113,2.70762 43.14937,0.66958 81.1508,1.80886 84.44762,2.53172 3.29684,0.72286 7.19468,2.40066 8.66188,3.72846 1.88141,1.70265 3.87834,2.14826 6.77551,1.51193 2.84667,-0.62523 6.95408,0.23716 13.37808,2.80887 8.11888,3.2502 9.09932,4.0304 7.89432,6.28198 -2.08164,3.88957 -1.81552,4.15601 4.15081,4.15601 5.1236,0 5.94861,0.58758 11.31074,8.05549 13.79723,19.2156 19.82215,38.26773 19.76815,62.51139 -0.0557,25.04429 -5.52609,47.5542 -17.74783,73.03085 -22.61447,47.14062 -57.44058,72.66832 -88.20495,64.65464 z m -31.449,-151.51375 c 2.52317,-7.31998 5.11515,-13.30906 5.75995,-13.30906 0.6448,0 1.17236,-0.63043 1.17236,-1.40095 0,-0.77053 -1.89129,-1.40096 -4.20286,-1.40096 -2.31157,0 -4.20286,0.63043 -4.20286,1.40096 0,0.77052 0.59647,1.40095 1.3255,1.40095 1.40455,0 -3.34924,15.1927 -5.39341,17.23687 -0.66889,0.66889 -2.52958,-2.72861 -4.19467,-7.65921 -1.82028,-5.39014 -2.43444,-9.04739 -1.56783,-9.33625 3.49499,-1.165 0.91566,-3.04332 -4.17912,-3.04332 -6.01671,0 -6.63805,0.56686 -3.76764,3.43727 1.00989,1.00989 3.68081,7.26915 5.93537,13.90946 5.52245,16.26519 7.34086,16.09642 13.31521,-1.23576 z m 19.54089,11.9081 c 0,-0.77052 -0.94564,-1.40095 -2.10143,-1.40095 -1.70312,0 -2.10143,-2.25709 -2.10143,-11.90811 0,-9.65101 0.39831,-11.9081 2.10143,-11.9081 1.15579,0 2.10143,-0.63043 2.10143,-1.40095 0,-0.77053 -2.52171,-1.40096 -5.60381,-1.40096 -3.0821,0 -5.60382,0.63043 -5.60382,1.40096 0,0.77052 0.63043,1.40095 1.40096,1.40095 0.82409,0 1.40095,4.90334 1.40095,11.9081 0,7.00477 -0.57686,11.90811 -1.40095,11.90811 -0.77053,0 -1.40096,0.63043 -1.40096,1.40095 0,0.77053 2.52172,1.40095 5.60382,1.40095 3.0821,0 5.60381,-0.63042 5.60381,-1.40095 z m 14.00954,0 c 0,-0.77052 -0.63043,-1.40095 -1.40096,-1.40095 -0.82409,0 -1.40095,-4.90334 -1.40095,-11.90811 0,-7.00476 0.57686,-11.9081 1.40095,-11.9081 0.77053,0 1.40096,-0.63043 1.40096,-1.40095 0,-0.77053 -2.52172,-1.40096 -5.60382,-1.40096 -3.0821,0 -5.60381,0.63043 -5.60381,1.40096 0,0.77052 0.63043,1.40095 1.40095,1.40095 0.8241,0 1.40096,4.90334 1.40096,11.9081 0,7.00477 -0.57686,11.90811 -1.40096,11.90811 -0.77052,0 -1.40095,0.63043 -1.40095,1.40095 0,0.77053 2.52171,1.40095 5.60381,1.40095 3.0821,0 5.60382,-0.63042 5.60382,-1.40095 z"
       id="path4744"
       inkscape:connector-curvature="0"
       transform="matrix(0.8,0,0,-0.8,0,529)" /><text
       xml:space="preserve"
       style="font-style:normal;font-weight:normal;font-size:8px;line-height:125%;font-family:sans-serif;letter-spacing:0px;word-spacing:0px;fill:#000000;fill-opacity:1;stroke:none;stroke-width:1px;stroke-linecap:butt;stroke-linejoin:miter;stroke-opacity:1"
       x="332.84955"
       y="-231.40967"
       id="text6350"
       sodipodi:linespacing="125%"
       transform="scale(1,-1)"><tspan
         sodipodi:role="line"
         id="tspan6352"
         x="332.84955"
         y="-231.40967"></tspan></text>
<text
       id="text598-2"
       style="font-variant:normal;font-weight:normal;font-size:30.20449829px;font-family:'DejaVu Serif';-inkscape-font-specification:DejaVuSerif;writing-mode:lr-tb;fill:#000000;fill-opacity:1;fill-rule:nonzero;stroke:none"
       transform="scale(0.97243025,-1.0283514)"
       x="321.52658"
       y="-206.31366"><tspan
         id="tspan600-3"
         y="-206.31366"
         x="321.52658">VI</tspan><tspan
         id="tspan602-6"
         sodipodi:role="line"
         x="321.52658"
         y="-168.55804" /><tspan
         id="tspan604-5"
         sodipodi:role="line"
         x="321.52658"
         y="-130.80241" /></text>
<path
       style="opacity:0.93599997;fill:#049e00;fill-opacity:0.32748539;fill-rule:nonzero;stroke:none;stroke-width:0.1;stroke-miterlimit:4;stroke-dasharray:none;stroke-dashoffset:0;stroke-opacity:1"
       d="m 392.53182,294.27724 c -40.59174,-0.43872 -75.35776,-1.30572 -89.50656,-2.23212 -12.72412,-0.83313 -23.25475,-1.65427 -23.4014,-1.82476 -0.14665,-0.1705 -5.82974,-10.11716 -12.62908,-22.10371 C 238.94209,218.6627 217.27756,185.47176 194.57515,157.16681 183.21001,142.99694 159.4508,119.696 148.60123,112.07962 132.56642,100.82321 115.29381,93.198271 102.62479,91.783464 99.710445,91.458006 95.877191,90.970819 94.106452,90.700828 l -3.219527,-0.490895 0,-22.244144 0,-22.244144 73.240355,0 73.24035,0 0.41268,2.724215 0.41269,2.724215 0.14842,-2.735581 0.14843,-2.735582 39.30059,0.259023 39.30061,0.259022 22.45946,48.165589 c 46.41677,99.543384 63.32357,132.316694 84.25918,163.333754 8.51503,12.61542 14.96664,20.36276 22.61065,27.15172 6.0226,5.34892 9.76706,7.4102 16.44576,9.0532 l 4.95312,1.2185 -4.45781,-0.0726 c -2.45179,-0.0399 -34.3251,-0.39537 -70.82959,-0.78991 l 0,5e-5 z M 305.6675,236.66435 c 1.06637,-2.86042 3.16222,-8.65557 4.65744,-12.8781 1.6,-4.51841 3.27714,-7.67734 4.07607,-7.67734 0.74661,0 1.35748,-0.66867 1.35748,-1.48593 0,-1.1007 -1.15573,-1.48594 -4.4578,-1.48594 -3.30208,0 -4.45781,0.38524 -4.45781,1.48594 0,0.81726 0.66867,1.48593 1.48593,1.48593 0.81727,0 1.48594,0.13757 1.48594,0.30571 0,0.94819 -6.20003,17.15178 -6.79775,17.76572 -0.39385,0.40453 -2.20055,-3.36639 -4.0149,-8.37984 -2.15962,-5.96752 -2.9148,-9.24337 -2.18682,-9.48603 0.61159,-0.20386 1.11199,-1.00219 1.11199,-1.77404 0,-1.02365 -1.34026,-1.40339 -4.95312,-1.40339 -3.74236,0 -4.95312,0.36323 -4.95312,1.48594 0,0.81726 0.55723,1.48649 1.23828,1.48717 0.68105,6.8e-4 2.96643,4.79283 5.07862,10.6492 2.11219,5.85638 4.21861,11.65098 4.68094,12.87687 1.54214,4.08905 4.51107,2.76197 6.64863,-2.97187 z m 0.18476,-154.784942 c 0,-1.724419 0.54154,-2.476559 1.78312,-2.476559 2.38148,0 4.16062,-1.906216 4.16062,-4.457806 0,-2.855654 -1.85138,-4.457807 -5.15125,-4.457807 -2.77374,0 -2.77374,0 -2.77374,6.934366 0,3.962495 0.42455,6.934365 0.99062,6.934365 0.54484,0 0.99063,-1.114451 0.99063,-2.476559 z m 16.27453,0.919865 c 0.8791,-0.879106 1.55669,-3.226213 1.55669,-5.392258 0,-4.399943 -2.60541,-6.919779 -7.15479,-6.919779 -2.74614,0 -2.75145,0.01338 -2.75145,6.934366 l 0,6.934365 3.39643,0 c 1.86804,0 4.09694,-0.700512 4.95312,-1.556694 z"
       id="path6380"
       inkscape:connector-curvature="0"
       transform="matrix(0.8,0,0,-0.8,0,529)" /><path
       style="opacity:0.93599997;fill:#f7ff00;fill-opacity:0.40350878;fill-rule:nonzero;stroke:none;stroke-width:0.1;stroke-miterlimit:4;stroke-dasharray:none;stroke-dashoffset:0;stroke-opacity:1"
       d="M 454.51714,526.67989 C 420.87823,519.05214 387.4264,481.74268 339.0421,397.88835 332.63682,386.78743 286.48627,303.10521 283.22065,296.67044 l -2.0994,-4.13679 5.18348,0.42999 c 22.45379,1.8626 50.5962,2.71056 112.66615,3.39476 80.71328,0.88971 92.89201,1.70563 96.42077,6.45974 1.91419,2.57888 5.44039,3.21434 7.33322,1.32152 1.27361,-1.27361 7.62744,0.48458 17.31362,4.79092 l 5.65995,2.51634 -1.4498,2.80361 c -0.79739,1.54198 -1.44981,3.04863 -1.44981,3.34811 0,0.29948 2.45407,0.54451 5.4535,0.54451 l 5.45349,0 4.97932,6.68671 c 6.5718,8.82525 15.31511,26.52021 17.98839,36.40542 1.83686,6.79236 2.15316,10.68575 2.21311,27.24215 0.0609,16.82462 -0.23018,20.65827 -2.25609,29.71078 -5.19152,23.19767 -15.28173,47.14016 -27.97477,66.37971 -7.76396,11.76825 -25.44895,29.63768 -34.58503,34.94571 -12.55688,7.2955 -27.24651,9.95694 -39.55361,7.16626 z M 410.85789,383.029 l 4.68732,-12.87811 3.60032,-0.30746 3.60032,-0.30745 0,11.94728 c 0,11.28686 -0.10952,11.94728 -1.98125,11.94728 -1.10069,0 -1.98125,0.66042 -1.98125,1.48594 0,1.15573 1.32083,1.48593 5.94374,1.48593 5.84431,0 8.17931,-1.58211 3.9625,-2.68483 -1.84104,-0.48145 -1.98125,-1.35123 -1.98125,-12.29006 0,-11.11153 0.11115,-11.77194 1.98125,-11.77194 1.08968,0 1.98124,-0.44578 1.98124,-0.99063 0,-0.59752 -4.1276,-0.99062 -10.40154,-0.99062 -5.72086,0 -10.40155,0.40863 -10.40155,0.90807 0,0.49944 0.52782,1.08401 1.17295,1.29906 0.81322,0.27107 0.13996,3.32959 -2.19529,9.97288 -1.85251,5.27004 -3.64556,9.25472 -3.98453,8.85484 -0.33897,-0.39989 -1.8743,-4.29331 -3.41184,-8.65206 -1.53753,-4.35874 -2.99468,-8.48221 -3.23813,-9.16326 -0.24343,-0.68106 0.27375,-1.23828 1.1493,-1.23828 0.87557,0 1.59192,-0.44578 1.59192,-0.99063 0,-0.54484 -2.45179,-0.99062 -5.44843,-0.99062 -2.99663,0 -5.44843,0.44578 -5.44843,0.99062 0,0.54485 0.61845,0.99063 1.37434,0.99063 0.87236,0 3.09705,4.90277 6.09087,13.42303 6.21394,17.68458 6.88349,17.68208 13.33742,-0.0496 z"
       id="path6382"
       inkscape:connector-curvature="0"
       transform="matrix(0.8,0,0,-0.8,0,529)" /><path
       style="opacity:0.93599997;fill:#b2e1b1;fill-opacity:1;fill-rule:nonzero;stroke:none;stroke-width:0.1;stroke-miterlimit:4;stroke-dasharray:none;stroke-dashoffset:0;stroke-opacity:1"
       d="m 315.36291,77.642442 0,-5.135738 1.82972,0.117425 c 3.41446,0.219126 4.4855,1.418913 4.4855,5.024658 0,1.783497 -0.099,2.396944 -0.49531,3.069812 -0.86389,1.466661 -1.65386,1.87039 -3.85538,1.970366 l -1.96453,0.08921 0,-5.135737 z"
       id="path6386"
       inkscape:connector-curvature="0"
       transform="matrix(0.8,0,0,-0.8,0,529)" /><path
       style="opacity:0.93599997;fill:#b2e1b1;fill-opacity:1;fill-rule:nonzero;stroke:none;stroke-width:0.1;stroke-miterlimit:4;stroke-dasharray:none;stroke-dashoffset:0;stroke-opacity:1"
       d="m 305.91483,77.385555 c -0.10215,-0.104942 -0.18574,-1.230958 -0.18574,-2.502259 l 0,-2.311455 1.3483,0 c 1.06824,0 1.49263,0.12415 2.04316,0.597697 0.59104,0.508394 0.69486,0.784886 0.69486,1.85054 0,1.664964 -0.56065,2.236754 -2.37322,2.420372 -0.73789,0.07475 -1.4252,0.05005 -1.52736,-0.0549 z"
       id="path6388"
       inkscape:connector-curvature="0"
       transform="matrix(0.8,0,0,-0.8,0,529)" /></g></svg>