<?xml version="1.0" encoding="UTF-8" standalone="no"?>
<!-- Created with matplotlib (http://matplotlib.org/) -->

<svg
   xmlns:dc="http://purl.org/dc/elements/1.1/"
   xmlns:cc="http://creativecommons.org/ns#"
   xmlns:rdf="http://www.w3.org/1999/02/22-rdf-syntax-ns#"
   xmlns:svg="http://www.w3.org/2000/svg"
   xmlns="http://www.w3.org/2000/svg"
   xmlns:xlink="http://www.w3.org/1999/xlink"
   xmlns:sodipodi="http://sodipodi.sourceforge.net/DTD/sodipodi-0.dtd"
   xmlns:inkscape="http://www.inkscape.org/namespaces/inkscape"
   height="441pt"
   version="1.1"
   viewBox="0 0 729 441"
   width="729pt"
   id="svg2"
   inkscape:version="0.91 r"
   sodipodi:docname="ermentroutBifurcation.svg">
  <metadata
     id="metadata499">
    <rdf:RDF>
      <cc:Work
         rdf:about="">
        <dc:format>image/svg+xml</dc:format>
        <dc:type
           rdf:resource="http://purl.org/dc/dcmitype/StillImage" />
        <dc:title></dc:title>
      </cc:Work>
    </rdf:RDF>
  </metadata>
  <sodipodi:namedview
     pagecolor="#ffffff"
     bordercolor="#666666"
     borderopacity="1"
     objecttolerance="10"
     gridtolerance="10"
     guidetolerance="10"
     inkscape:pageopacity="0"
     inkscape:pageshadow="2"
     inkscape:window-width="1068"
     inkscape:window-height="616"
     id="namedview497"
     showgrid="false"
     inkscape:zoom="0.82563689"
     inkscape:cx="417.2246"
     inkscape:cy="250.67727"
     inkscape:window-x="2057"
     inkscape:window-y="175"
     inkscape:window-maximized="0"
     inkscape:current-layer="svg2" />
  <defs
     id="defs4">
    <style
       type="text/css"
       id="style6">
*{stroke-linecap:butt;stroke-linejoin:round;}
  </style>
    <clipPath
       id="pb9f17aaa16-5">
      <rect
         height="369"
         width="621"
         x="72"
         y="36"
         id="rect994" />
    </clipPath>
    <clipPath
       id="clipPath4336">
      <rect
         height="369"
         width="621"
         x="72"
         y="36"
         id="rect4338" />
    </clipPath>
    <clipPath
       id="clipPath4340">
      <rect
         height="369"
         width="621"
         x="72"
         y="36"
         id="rect4342" />
    </clipPath>
    <clipPath
       id="clipPath4344">
      <rect
         height="369"
         width="621"
         x="72"
         y="36"
         id="rect4346" />
    </clipPath>
    <clipPath
       id="clipPath4348">
      <rect
         height="369"
         width="621"
         x="72"
         y="36"
         id="rect4350" />
    </clipPath>
    <clipPath
       id="clipPath4352">
      <rect
         height="369"
         width="621"
         x="72"
         y="36"
         id="rect4354" />
    </clipPath>
    <clipPath
       id="clipPath4356">
      <rect
         height="369"
         width="621"
         x="72"
         y="36"
         id="rect4358" />
    </clipPath>
    <clipPath
       id="clipPath4360">
      <rect
         height="369"
         width="621"
         x="72"
         y="36"
         id="rect4362" />
    </clipPath>
    <clipPath
       id="clipPath4364">
      <rect
         height="369"
         width="621"
         x="72"
         y="36"
         id="rect4366" />
    </clipPath>
    <clipPath
       id="clipPath4368">
      <rect
         height="369"
         width="621"
         x="72"
         y="36"
         id="rect4370" />
    </clipPath>
    <clipPath
       id="clipPath4372">
      <rect
         height="369"
         width="621"
         x="72"
         y="36"
         id="rect4374" />
    </clipPath>
  </defs>
  <g
     id="figure_1">
    <g
       id="patch_1">
      <path
         d=" M0 441 L729 441 L729 0 L0 0 z "
         style="fill:#ffffff;"
         id="path10" />
    </g>
    <g
       id="axes_1">
      <g
         id="patch_2">
        <path
           d=" M72 405 L693 405 L693 36 L72 36 z "
           style="fill:#ffffff;"
           id="path14" />
      </g>
      <g
         id="line2d_1">
        <path
           clip-path="url(#pb9f17aaa16)"
           d=" M72 51.498 L73.4844 51.828 L74.2314 51.9934 L75.3491 52.2417 L77.0192 52.6143 L79.51 53.1738 L83.2143 54.014 L88.7007 55.2768 L95.8006 56.9439 L102.763 58.6155 L109.593 60.2913 L116.296 61.9712 L122.876 63.6547 L129.337 65.3418 L135.684 67.0322 L141.92 68.7258 L148.05 70.4222 L154.078 72.1215 L160.007 73.8233 L165.84 75.5277 L171.582 77.2343 L177.234 78.9431 L182.801 80.654 L188.286 82.3669 L193.691 84.0816 L199.019 85.798 L204.273 87.516 L209.455 89.2355 L214.569 90.9565 L219.616 92.6789 L224.6 94.4025 L229.522 96.1273 L234.385 97.8532 L239.19 99.5802 L243.941 101.308 L248.639 103.037 L253.287 104.767 L257.886 106.497 L262.438 108.228 L266.946 109.96 L271.411 111.693 L275.834 113.426 L280.219 115.16 L284.567 116.894 L288.879 118.628 L293.157 120.363 L297.403 122.099 L301.619 123.834 L305.806 125.57 L309.966 127.306 L314.101 129.042 L318.211 130.779 L322.3 132.515 L326.367 134.252 L330.416 135.988 L334.447 137.725 L334.77 137.864"
           style="fill:none;stroke:#000000;stroke-linecap:square;"
           id="path17" />
      </g>
      <g
         id="line2d_2">
        <path
           clip-path="url(#pb9f17aaa16)"
           d=" M334.77 137.864 L362.605 150.017 L437.544 182.918 L473.689 198.448 L517.859 217.413 L537.416 226.045 L552.573 232.961 L567.134 239.889 L577.575 245.092 L587.539 250.301 L596.968 255.515 L605.808 260.731 L611.349 264.209 L616.59 267.686 L621.516 271.161 L626.112 274.633 L630.363 278.101 L634.252 281.563 L637.762 285.018 L640.875 288.464 L643.57 291.899 L645.828 295.321 L647.626 298.727 L648.346 300.423 L648.942 302.115 L649.412 303.801 L649.753 305.481 L649.962 307.155 L650.037 308.901 L649.968 310.562 L649.76 312.214 L649.41 313.859 L648.918 315.495 L648.281 317.123 L647.499 318.741 L646.571 320.349 L645.498 321.947 L644.281 323.534 L642.92 325.11 L639.779 328.228 L636.101 331.298 L631.928 334.318 L627.311 337.289 L622.317 340.211 L617.024 343.085 L608.721 347.313 L589.519 356.853 L584.633 359.515 L580.277 362.155 L576.618 364.777 L575.109 366.083 L573.847 367.385 L572.862 368.684 L572.184 369.98 L571.813 371.803 L571.813 371.803"
           style="fill:none;stroke:#000000;stroke-dasharray:6.000000,6.000000;stroke-dashoffset:0.0;"
           id="path20" />
      </g>
      <g
         id="line2d_3">
        <path
           clip-path="url(#pb9f17aaa16)"
           d=" M571.813 371.803 L572.015 373.091 L572.647 374.376 L573.754 375.657 L575.382 376.933 L577.581 378.203 L580.405 379.465 L583.91 380.719 L588.155 381.962 L593.198 383.191 L599.098 384.402 L605.909 385.593 L613.676 386.759 L622.436 387.895 L632.208 388.996 L642.996 390.057 L654.781 391.074 L667.526 392.042 L681.176 392.959 L693 393.671"
           style="fill:none;stroke:#000000;stroke-linecap:square;"
           id="path23" />
      </g>
      <g
         id="line2d_4">
        <path
           clip-path="url(#pb9f17aaa16)"
           d=" M334.77 137.864 L334.768 137.708 L334.768 137.478"
           style="fill:none;stroke:#ff0000;stroke-linecap:square;"
           id="path26" />
      </g>
      <g
         id="line2d_5">
        <path
           clip-path="url(#pb9f17aaa16)"
           d=" M334.768 137.478 L334.767 137.141 L334.765 136.653 L334.761 135.962 L334.751 135.014 L334.738 134.176 L334.722 133.447 L334.706 132.821 L334.69 132.292 L334.675 131.856 L334.664 131.504 L334.657 131.23 L334.655 131.055"
           style="fill:none;stroke:#ff0000;stroke-dasharray:6.000000,6.000000;stroke-dashoffset:0.0;"
           id="path29" />
      </g>
      <g
         id="line2d_6">
        <path
           clip-path="url(#pb9f17aaa16)"
           d=" M334.655 131.055 L334.66 130.874 L334.712 130.806 L334.712 130.806 L335.022 131.573 L336.14 134.214 L337.397 136.625 L339.111 139.403 L341.321 142.467 L344.061 145.763 L346.484 148.364 L349.236 151.059 L352.329 153.838 L355.774 156.692 L359.579 159.611 L363.752 162.588 L368.295 165.618 L374.931 169.728 L382.221 173.907 L390.144 178.14 L398.664 182.414 L407.731 186.713 L417.28 191.018 L429.776 196.374 L442.733 201.657 L455.962 206.807 L469.266 211.756 L482.448 216.427 L495.306 220.737 L505.229 223.864 L514.718 226.657 L523.675 229.079 L532 231.1 L539.601 232.717 L546.394 233.951 L553.652 235.04 L562.324 236.089 L571.813 237.164 L571.813 237.164"
           style="fill:none;stroke:#ff0000;stroke-linecap:square;"
           id="path32" />
      </g>
      <g
         id="line2d_7">
        <path
           clip-path="url(#pb9f17aaa16)"
           d=" M571.813 237.164 L571.813 237.164"
           style="fill:none;stroke:#ff0000;stroke-dasharray:6.000000,6.000000;stroke-dashoffset:0.0;"
           id="path35" />
      </g>
      <g
         id="line2d_8">
        <path
           clip-path="url(#pb9f17aaa16)"
           d=" M571.813 237.164 L571.813 237.164"
           style="fill:none;stroke:#ff0000;stroke-linecap:square;"
           id="path38" />
      </g>
      <g
         id="line2d_9">
        <path
           clip-path="url(#pb9f17aaa16)"
           d=" M571.813 237.164 L571.813 237.164"
           style="fill:none;stroke:#ff0000;stroke-dasharray:6.000000,6.000000;stroke-dashoffset:0.0;"
           id="path41" />
      </g>
      <g
         id="line2d_10">
        <path
           clip-path="url(#pb9f17aaa16)"
           d=" M571.813 237.164 L571.813 237.164"
           style="fill:none;stroke:#ff0000;stroke-linecap:square;"
           id="path44" />
      </g>
      <g
         id="line2d_11">
        <defs
           id="defs47">
          <path
             d=" M-3 3 L3 3 L3 -3 L-3 -3 z "
             id="m8a286e445b"
             style="stroke:#000000;stroke-linejoin:miter;stroke-width:0.5;" />
        </defs>
        <g
           clip-path="url(#pb9f17aaa16)"
           id="g50">
          <use
             style="fill:#0000ff;stroke:#000000;stroke-linejoin:miter;stroke-width:0.5;"
             x="334.769833387"
             xlink:href="#m8a286e445b"
             y="137.864277565"
             id="use52" />
        </g>
      </g>
      <g
         id="patch_3">
        <path
           d=" M72 36 L693 36"
           style="fill:none;stroke:#000000;stroke-linecap:square;stroke-linejoin:miter;"
           id="path55" />
      </g>
      <g
         id="patch_4">
        <path
           d=" M693 405 L693 36"
           style="fill:none;stroke:#000000;stroke-linecap:square;stroke-linejoin:miter;"
           id="path58" />
      </g>
      <g
         id="patch_5">
        <path
           d=" M72 405 L693 405"
           style="fill:none;stroke:#000000;stroke-linecap:square;stroke-linejoin:miter;"
           id="path61" />
      </g>
      <g
         id="patch_6">
        <path
           d=" M72 405 L72 36"
           style="fill:none;stroke:#000000;stroke-linecap:square;stroke-linejoin:miter;"
           id="path64" />
      </g>
      <g
         id="matplotlib.axis_1">
        <g
           id="xtick_1">
          <g
             id="line2d_12">
            <defs
               id="defs69">
              <path
                 d=" M0 0 L0 -4"
                 id="m93b0483c22"
                 style="stroke:#000000;stroke-width:0.5;" />
            </defs>
            <g
               id="g72">
              <use
                 style="stroke:#000000;stroke-width:0.5;"
                 x="72.0"
                 xlink:href="#m93b0483c22"
                 y="405.0"
                 id="use74" />
            </g>
          </g>
          <g
             id="line2d_13">
            <defs
               id="defs77">
              <path
                 d=" M0 0 L0 4"
                 id="m741efc42ff"
                 style="stroke:#000000;stroke-width:0.5;" />
            </defs>
            <g
               id="g80">
              <use
                 style="stroke:#000000;stroke-width:0.5;"
                 x="72.0"
                 xlink:href="#m741efc42ff"
                 y="36.0"
                 id="use82" />
            </g>
          </g>
          <g
             id="text_1">
            <!-- −0.50 -->
            <defs
               id="defs85">
              <path
                 d=" M10.5938 35.5 L73.1875 35.5 L73.1875 27.2031 L10.5938 27.2031 z "
                 id="BitstreamVeraSans-Roman-2212" />
              <path
                 d=" M31.7812 66.4062 Q24.1719 66.4062 20.3281 58.9062 Q16.5 51.4219 16.5 36.375 Q16.5 21.3906 20.3281 13.8906 Q24.1719 6.39062 31.7812 6.39062 Q39.4531 6.39062 43.2812 13.8906 Q47.125 21.3906 47.125 36.375 Q47.125 51.4219 43.2812 58.9062 Q39.4531 66.4062 31.7812 66.4062 M31.7812 74.2188 Q44.0469 74.2188 50.5156 64.5156 Q56.9844 54.8281 56.9844 36.375 Q56.9844 17.9688 50.5156 8.26562 Q44.0469 -1.42188 31.7812 -1.42188 Q19.5312 -1.42188 13.0625 8.26562 Q6.59375 17.9688 6.59375 36.375 Q6.59375 54.8281 13.0625 64.5156 Q19.5312 74.2188 31.7812 74.2188"
                 id="BitstreamVeraSans-Roman-30" />
              <path
                 d=" M10.6875 12.4062 L21 12.4062 L21 0 L10.6875 0 z "
                 id="BitstreamVeraSans-Roman-2e" />
              <path
                 d=" M10.7969 72.9062 L49.5156 72.9062 L49.5156 64.5938 L19.8281 64.5938 L19.8281 46.7344 Q21.9688 47.4688 24.1094 47.8281 Q26.2656 48.1875 28.4219 48.1875 Q40.625 48.1875 47.75 41.5 Q54.8906 34.8125 54.8906 23.3906 Q54.8906 11.625 47.5625 5.09375 Q40.2344 -1.42188 26.9062 -1.42188 Q22.3125 -1.42188 17.5469 -0.640625 Q12.7969 0.140625 7.71875 1.70312 L7.71875 11.625 Q12.1094 9.23438 16.7969 8.0625 Q21.4844 6.89062 26.7031 6.89062 Q35.1562 6.89062 40.0781 11.3281 Q45.0156 15.7656 45.0156 23.3906 Q45.0156 31 40.0781 35.4375 Q35.1562 39.8906 26.7031 39.8906 Q22.75 39.8906 18.8125 39.0156 Q14.8906 38.1406 10.7969 36.2812 z "
                 id="BitstreamVeraSans-Roman-35" />
            </defs>
            <g
               transform="translate(54.646875 418.118125)scale(0.12 -0.12)"
               id="g91">
              <use
                 xlink:href="#BitstreamVeraSans-Roman-2212"
                 id="use93" />
              <use
                 x="83.7890625"
                 xlink:href="#BitstreamVeraSans-Roman-30"
                 id="use95" />
              <use
                 x="147.412109375"
                 xlink:href="#BitstreamVeraSans-Roman-2e"
                 id="use97" />
              <use
                 x="179.19921875"
                 xlink:href="#BitstreamVeraSans-Roman-35"
                 id="use99" />
              <use
                 x="242.822265625"
                 xlink:href="#BitstreamVeraSans-Roman-30"
                 id="use101" />
            </g>
          </g>
        </g>
        <g
           id="xtick_2">
          <g
             id="line2d_14">
            <g
               id="g105">
              <use
                 style="stroke:#000000;stroke-width:0.5;"
                 x="171.36"
                 xlink:href="#m93b0483c22"
                 y="405.0"
                 id="use107" />
            </g>
          </g>
          <g
             id="line2d_15">
            <g
               id="g110">
              <use
                 style="stroke:#000000;stroke-width:0.5;"
                 x="171.36"
                 xlink:href="#m741efc42ff"
                 y="36.0"
                 id="use112" />
            </g>
          </g>
          <g
             id="text_2">
            <!-- −0.45 -->
            <defs
               id="defs115">
              <path
                 d=" M37.7969 64.3125 L12.8906 25.3906 L37.7969 25.3906 z  M35.2031 72.9062 L47.6094 72.9062 L47.6094 25.3906 L58.0156 25.3906 L58.0156 17.1875 L47.6094 17.1875 L47.6094 0 L37.7969 0 L37.7969 17.1875 L4.89062 17.1875 L4.89062 26.7031 z "
                 id="BitstreamVeraSans-Roman-34" />
            </defs>
            <g
               transform="translate(154.1325 418.118125)scale(0.12 -0.12)"
               id="g118">
              <use
                 xlink:href="#BitstreamVeraSans-Roman-2212"
                 id="use120" />
              <use
                 x="83.7890625"
                 xlink:href="#BitstreamVeraSans-Roman-30"
                 id="use122" />
              <use
                 x="147.412109375"
                 xlink:href="#BitstreamVeraSans-Roman-2e"
                 id="use124" />
              <use
                 x="179.19921875"
                 xlink:href="#BitstreamVeraSans-Roman-34"
                 id="use126" />
              <use
                 x="242.822265625"
                 xlink:href="#BitstreamVeraSans-Roman-35"
                 id="use128" />
            </g>
          </g>
        </g>
        <g
           id="xtick_3">
          <g
             id="line2d_16">
            <g
               id="g132">
              <use
                 style="stroke:#000000;stroke-width:0.5;"
                 x="270.72"
                 xlink:href="#m93b0483c22"
                 y="405.0"
                 id="use134" />
            </g>
          </g>
          <g
             id="line2d_17">
            <g
               id="g137">
              <use
                 style="stroke:#000000;stroke-width:0.5;"
                 x="270.72"
                 xlink:href="#m741efc42ff"
                 y="36.0"
                 id="use139" />
            </g>
          </g>
          <g
             id="text_3">
            <!-- −0.40 -->
            <g
               transform="translate(253.366875 418.118125)scale(0.12 -0.12)"
               id="g142">
              <use
                 xlink:href="#BitstreamVeraSans-Roman-2212"
                 id="use144" />
              <use
                 x="83.7890625"
                 xlink:href="#BitstreamVeraSans-Roman-30"
                 id="use146" />
              <use
                 x="147.412109375"
                 xlink:href="#BitstreamVeraSans-Roman-2e"
                 id="use148" />
              <use
                 x="179.19921875"
                 xlink:href="#BitstreamVeraSans-Roman-34"
                 id="use150" />
              <use
                 x="242.822265625"
                 xlink:href="#BitstreamVeraSans-Roman-30"
                 id="use152" />
            </g>
          </g>
        </g>
        <g
           id="xtick_4">
          <g
             id="line2d_18">
            <g
               id="g156">
              <use
                 style="stroke:#000000;stroke-width:0.5;"
                 x="370.08"
                 xlink:href="#m93b0483c22"
                 y="405.0"
                 id="use158" />
            </g>
          </g>
          <g
             id="line2d_19">
            <g
               id="g161">
              <use
                 style="stroke:#000000;stroke-width:0.5;"
                 x="370.08"
                 xlink:href="#m741efc42ff"
                 y="36.0"
                 id="use163" />
            </g>
          </g>
          <g
             id="text_4">
            <!-- −0.35 -->
            <defs
               id="defs166">
              <path
                 d=" M40.5781 39.3125 Q47.6562 37.7969 51.625 33 Q55.6094 28.2188 55.6094 21.1875 Q55.6094 10.4062 48.1875 4.48438 Q40.7656 -1.42188 27.0938 -1.42188 Q22.5156 -1.42188 17.6562 -0.515625 Q12.7969 0.390625 7.625 2.20312 L7.625 11.7188 Q11.7188 9.32812 16.5938 8.10938 Q21.4844 6.89062 26.8125 6.89062 Q36.0781 6.89062 40.9375 10.5469 Q45.7969 14.2031 45.7969 21.1875 Q45.7969 27.6406 41.2812 31.2656 Q36.7656 34.9062 28.7188 34.9062 L20.2188 34.9062 L20.2188 43.0156 L29.1094 43.0156 Q36.375 43.0156 40.2344 45.9219 Q44.0938 48.8281 44.0938 54.2969 Q44.0938 59.9062 40.1094 62.9062 Q36.1406 65.9219 28.7188 65.9219 Q24.6562 65.9219 20.0156 65.0312 Q15.375 64.1562 9.8125 62.3125 L9.8125 71.0938 Q15.4375 72.6562 20.3438 73.4375 Q25.25 74.2188 29.5938 74.2188 Q40.8281 74.2188 47.3594 69.1094 Q53.9062 64.0156 53.9062 55.3281 Q53.9062 49.2656 50.4375 45.0938 Q46.9688 40.9219 40.5781 39.3125"
                 id="BitstreamVeraSans-Roman-33" />
            </defs>
            <g
               transform="translate(352.8525 418.118125)scale(0.12 -0.12)"
               id="g169">
              <use
                 xlink:href="#BitstreamVeraSans-Roman-2212"
                 id="use171" />
              <use
                 x="83.7890625"
                 xlink:href="#BitstreamVeraSans-Roman-30"
                 id="use173" />
              <use
                 x="147.412109375"
                 xlink:href="#BitstreamVeraSans-Roman-2e"
                 id="use175" />
              <use
                 x="179.19921875"
                 xlink:href="#BitstreamVeraSans-Roman-33"
                 id="use177" />
              <use
                 x="242.822265625"
                 xlink:href="#BitstreamVeraSans-Roman-35"
                 id="use179" />
            </g>
          </g>
        </g>
        <g
           id="xtick_5">
          <g
             id="line2d_20">
            <g
               id="g183">
              <use
                 style="stroke:#000000;stroke-width:0.5;"
                 x="469.44"
                 xlink:href="#m93b0483c22"
                 y="405.0"
                 id="use185" />
            </g>
          </g>
          <g
             id="line2d_21">
            <g
               id="g188">
              <use
                 style="stroke:#000000;stroke-width:0.5;"
                 x="469.44"
                 xlink:href="#m741efc42ff"
                 y="36.0"
                 id="use190" />
            </g>
          </g>
          <g
             id="text_5">
            <!-- −0.30 -->
            <g
               transform="translate(452.086875 418.118125)scale(0.12 -0.12)"
               id="g193">
              <use
                 xlink:href="#BitstreamVeraSans-Roman-2212"
                 id="use195" />
              <use
                 x="83.7890625"
                 xlink:href="#BitstreamVeraSans-Roman-30"
                 id="use197" />
              <use
                 x="147.412109375"
                 xlink:href="#BitstreamVeraSans-Roman-2e"
                 id="use199" />
              <use
                 x="179.19921875"
                 xlink:href="#BitstreamVeraSans-Roman-33"
                 id="use201" />
              <use
                 x="242.822265625"
                 xlink:href="#BitstreamVeraSans-Roman-30"
                 id="use203" />
            </g>
          </g>
        </g>
        <g
           id="xtick_6">
          <g
             id="line2d_22">
            <g
               id="g207">
              <use
                 style="stroke:#000000;stroke-width:0.5;"
                 x="568.8"
                 xlink:href="#m93b0483c22"
                 y="405.0"
                 id="use209" />
            </g>
          </g>
          <g
             id="line2d_23">
            <g
               id="g212">
              <use
                 style="stroke:#000000;stroke-width:0.5;"
                 x="568.8"
                 xlink:href="#m741efc42ff"
                 y="36.0"
                 id="use214" />
            </g>
          </g>
          <g
             id="text_6">
            <!-- −0.25 -->
            <defs
               id="defs217">
              <path
                 d=" M19.1875 8.29688 L53.6094 8.29688 L53.6094 0 L7.32812 0 L7.32812 8.29688 Q12.9375 14.1094 22.625 23.8906 Q32.3281 33.6875 34.8125 36.5312 Q39.5469 41.8438 41.4219 45.5312 Q43.3125 49.2188 43.3125 52.7812 Q43.3125 58.5938 39.2344 62.25 Q35.1562 65.9219 28.6094 65.9219 Q23.9688 65.9219 18.8125 64.3125 Q13.6719 62.7031 7.8125 59.4219 L7.8125 69.3906 Q13.7656 71.7812 18.9375 73 Q24.125 74.2188 28.4219 74.2188 Q39.75 74.2188 46.4844 68.5469 Q53.2188 62.8906 53.2188 53.4219 Q53.2188 48.9219 51.5312 44.8906 Q49.8594 40.875 45.4062 35.4062 Q44.1875 33.9844 37.6406 27.2188 Q31.1094 20.4531 19.1875 8.29688"
                 id="BitstreamVeraSans-Roman-32" />
            </defs>
            <g
               transform="translate(551.5725 418.118125)scale(0.12 -0.12)"
               id="g220">
              <use
                 xlink:href="#BitstreamVeraSans-Roman-2212"
                 id="use222" />
              <use
                 x="83.7890625"
                 xlink:href="#BitstreamVeraSans-Roman-30"
                 id="use224" />
              <use
                 x="147.412109375"
                 xlink:href="#BitstreamVeraSans-Roman-2e"
                 id="use226" />
              <use
                 x="179.19921875"
                 xlink:href="#BitstreamVeraSans-Roman-32"
                 id="use228" />
              <use
                 x="242.822265625"
                 xlink:href="#BitstreamVeraSans-Roman-35"
                 id="use230" />
            </g>
          </g>
        </g>
        <g
           id="xtick_7">
          <g
             id="line2d_24">
            <g
               id="g234">
              <use
                 style="stroke:#000000;stroke-width:0.5;"
                 x="668.16"
                 xlink:href="#m93b0483c22"
                 y="405.0"
                 id="use236" />
            </g>
          </g>
          <g
             id="line2d_25">
            <g
               id="g239">
              <use
                 style="stroke:#000000;stroke-width:0.5;"
                 x="668.16"
                 xlink:href="#m741efc42ff"
                 y="36.0"
                 id="use241" />
            </g>
          </g>
          <g
             id="text_7">
            <!-- −0.20 -->
            <g
               transform="translate(650.806875 418.118125)scale(0.12 -0.12)"
               id="g244">
              <use
                 xlink:href="#BitstreamVeraSans-Roman-2212"
                 id="use246" />
              <use
                 x="83.7890625"
                 xlink:href="#BitstreamVeraSans-Roman-30"
                 id="use248" />
              <use
                 x="147.412109375"
                 xlink:href="#BitstreamVeraSans-Roman-2e"
                 id="use250" />
              <use
                 x="179.19921875"
                 xlink:href="#BitstreamVeraSans-Roman-32"
                 id="use252" />
              <use
                 x="242.822265625"
                 xlink:href="#BitstreamVeraSans-Roman-30"
                 id="use254" />
            </g>
          </g>
        </g>
        <g
           id="text_8">
          <!-- $v_1$ -->
          <defs
             id="defs257">
            <path
               d=" M9.28125 0 L9.28125 3.51562 Q21.7812 3.51562 21.7812 6.6875 L21.7812 59.1875 Q16.6094 56.6875 8.6875 56.6875 L8.6875 60.2031 Q20.9531 60.2031 27.2031 66.6094 L28.6094 66.6094 Q28.9531 66.6094 29.2656 66.3281 Q29.5938 66.0625 29.5938 65.7188 L29.5938 6.6875 Q29.5938 3.51562 42.0938 3.51562 L42.0938 0 z "
               id="Cmr10-31" />
            <path
               d=" M10.6875 11.2812 Q10.6875 13.5312 11.2188 16.2031 Q11.7656 18.8906 12.2969 20.625 Q12.8438 22.3594 14.75 27.3906 Q16.6562 32.4219 16.7031 32.625 Q18.0156 36.2812 18.0156 38.625 Q18.0156 41.6094 15.8281 41.6094 Q11.8594 41.6094 9.29688 37.5312 Q6.73438 33.4531 5.51562 28.4219 Q5.32812 27.7812 4.6875 27.7812 L3.51562 27.7812 Q2.6875 27.7812 2.6875 28.7188 L2.6875 29 Q4.29688 34.9688 7.60938 39.5781 Q10.9375 44.1875 16.0156 44.1875 Q19.5781 44.1875 22.0469 41.8438 Q24.5156 39.5 24.5156 35.8906 Q24.5156 34.0312 23.6875 31.9844 Q21.7344 26.9062 20.6094 23.8438 Q19.4844 20.7969 18.5312 17.0156 Q17.5781 13.2344 17.5781 10.0156 Q17.5781 6.25 19.3125 3.875 Q21.0469 1.51562 24.7031 1.51562 Q31.6406 1.51562 37.2031 12.2031 Q38.9688 15.6719 40.5312 20.3594 Q42.0938 25.0469 42.0938 27.9844 Q42.0938 31 41.1094 32.6875 Q40.1406 34.375 38.5781 36.2031 Q37.0156 38.0312 37.0156 39.1094 Q37.0156 41.0625 38.625 42.6719 Q40.2344 44.2812 42.1875 44.2812 Q44.5781 44.2812 45.625 42.0781 Q46.6875 39.8906 46.6875 37.1094 Q46.6875 33.7969 45.7344 29.2031 Q44.7812 24.6094 43.0938 19.6719 Q41.4062 14.75 39.9844 11.9219 Q33.4062 -1.125 24.6094 -1.125 Q18.3125 -1.125 14.5 2.01562 Q10.6875 5.17188 10.6875 11.2812"
               id="Cmmi10-76" />
          </defs>
          <g
             transform="translate(376.56 434.1075)scale(0.12 -0.12)"
             id="g261">
            <use
               transform="translate(0.0 0.71875)"
               xlink:href="#Cmmi10-76"
               id="use263" />
            <use
               transform="translate(48.388671875 -24.790625)scale(0.7)"
               xlink:href="#Cmr10-31"
               id="use265" />
          </g>
        </g>
      </g>
      <g
         id="matplotlib.axis_2">
        <g
           id="ytick_1">
          <g
             id="line2d_26">
            <defs
               id="defs270">
              <path
                 d=" M0 0 L4 0"
                 id="m728421d6d4"
                 style="stroke:#000000;stroke-width:0.5;" />
            </defs>
            <g
               id="g273">
              <use
                 style="stroke:#000000;stroke-width:0.5;"
                 x="72.0"
                 xlink:href="#m728421d6d4"
                 y="405.0"
                 id="use275" />
            </g>
          </g>
          <g
             id="line2d_27">
            <defs
               id="defs278">
              <path
                 d=" M0 0 L-4 0"
                 id="mcb0005524f"
                 style="stroke:#000000;stroke-width:0.5;" />
            </defs>
            <g
               id="g281">
              <use
                 style="stroke:#000000;stroke-width:0.5;"
                 x="693.0"
                 xlink:href="#mcb0005524f"
                 y="405.0"
                 id="use283" />
            </g>
          </g>
          <g
             id="text_9">
            <!-- 0.00 -->
            <g
               transform="translate(42.869375 408.31125)scale(0.12 -0.12)"
               id="g286">
              <use
                 xlink:href="#BitstreamVeraSans-Roman-30"
                 id="use288" />
              <use
                 x="63.623046875"
                 xlink:href="#BitstreamVeraSans-Roman-2e"
                 id="use290" />
              <use
                 x="95.41015625"
                 xlink:href="#BitstreamVeraSans-Roman-30"
                 id="use292" />
              <use
                 x="159.033203125"
                 xlink:href="#BitstreamVeraSans-Roman-30"
                 id="use294" />
            </g>
          </g>
        </g>
        <g
           id="ytick_2">
          <g
             id="line2d_28">
            <g
               id="g298">
              <use
                 style="stroke:#000000;stroke-width:0.5;"
                 x="72.0"
                 xlink:href="#m728421d6d4"
                 y="358.875"
                 id="use300" />
            </g>
          </g>
          <g
             id="line2d_29">
            <g
               id="g303">
              <use
                 style="stroke:#000000;stroke-width:0.5;"
                 x="693.0"
                 xlink:href="#mcb0005524f"
                 y="358.875"
                 id="use305" />
            </g>
          </g>
          <g
             id="text_10">
            <!-- 0.25 -->
            <g
               transform="translate(43.120625 362.18625)scale(0.12 -0.12)"
               id="g308">
              <use
                 xlink:href="#BitstreamVeraSans-Roman-30"
                 id="use310" />
              <use
                 x="63.623046875"
                 xlink:href="#BitstreamVeraSans-Roman-2e"
                 id="use312" />
              <use
                 x="95.41015625"
                 xlink:href="#BitstreamVeraSans-Roman-32"
                 id="use314" />
              <use
                 x="159.033203125"
                 xlink:href="#BitstreamVeraSans-Roman-35"
                 id="use316" />
            </g>
          </g>
        </g>
        <g
           id="ytick_3">
          <g
             id="line2d_30">
            <g
               id="g320">
              <use
                 style="stroke:#000000;stroke-width:0.5;"
                 x="72.0"
                 xlink:href="#m728421d6d4"
                 y="312.75"
                 id="use322" />
            </g>
          </g>
          <g
             id="line2d_31">
            <g
               id="g325">
              <use
                 style="stroke:#000000;stroke-width:0.5;"
                 x="693.0"
                 xlink:href="#mcb0005524f"
                 y="312.75"
                 id="use327" />
            </g>
          </g>
          <g
             id="text_11">
            <!-- 0.50 -->
            <g
               transform="translate(42.869375 316.06125)scale(0.12 -0.12)"
               id="g330">
              <use
                 xlink:href="#BitstreamVeraSans-Roman-30"
                 id="use332" />
              <use
                 x="63.623046875"
                 xlink:href="#BitstreamVeraSans-Roman-2e"
                 id="use334" />
              <use
                 x="95.41015625"
                 xlink:href="#BitstreamVeraSans-Roman-35"
                 id="use336" />
              <use
                 x="159.033203125"
                 xlink:href="#BitstreamVeraSans-Roman-30"
                 id="use338" />
            </g>
          </g>
        </g>
        <g
           id="ytick_4">
          <g
             id="line2d_32">
            <g
               id="g342">
              <use
                 style="stroke:#000000;stroke-width:0.5;"
                 x="72.0"
                 xlink:href="#m728421d6d4"
                 y="266.625"
                 id="use344" />
            </g>
          </g>
          <g
             id="line2d_33">
            <g
               id="g347">
              <use
                 style="stroke:#000000;stroke-width:0.5;"
                 x="693.0"
                 xlink:href="#mcb0005524f"
                 y="266.625"
                 id="use349" />
            </g>
          </g>
          <g
             id="text_12">
            <!-- 0.75 -->
            <defs
               id="defs352">
              <path
                 d=" M8.20312 72.9062 L55.0781 72.9062 L55.0781 68.7031 L28.6094 0 L18.3125 0 L43.2188 64.5938 L8.20312 64.5938 z "
                 id="BitstreamVeraSans-Roman-37" />
            </defs>
            <g
               transform="translate(43.120625 269.93625)scale(0.12 -0.12)"
               id="g355">
              <use
                 xlink:href="#BitstreamVeraSans-Roman-30"
                 id="use357" />
              <use
                 x="63.623046875"
                 xlink:href="#BitstreamVeraSans-Roman-2e"
                 id="use359" />
              <use
                 x="95.41015625"
                 xlink:href="#BitstreamVeraSans-Roman-37"
                 id="use361" />
              <use
                 x="159.033203125"
                 xlink:href="#BitstreamVeraSans-Roman-35"
                 id="use363" />
            </g>
          </g>
        </g>
        <g
           id="ytick_5">
          <g
             id="line2d_34">
            <g
               id="g367">
              <use
                 style="stroke:#000000;stroke-width:0.5;"
                 x="72.0"
                 xlink:href="#m728421d6d4"
                 y="220.5"
                 id="use369" />
            </g>
          </g>
          <g
             id="line2d_35">
            <g
               id="g372">
              <use
                 style="stroke:#000000;stroke-width:0.5;"
                 x="693.0"
                 xlink:href="#mcb0005524f"
                 y="220.5"
                 id="use374" />
            </g>
          </g>
          <g
             id="text_13">
            <!-- 1.00 -->
            <defs
               id="defs377">
              <path
                 d=" M12.4062 8.29688 L28.5156 8.29688 L28.5156 63.9219 L10.9844 60.4062 L10.9844 69.3906 L28.4219 72.9062 L38.2812 72.9062 L38.2812 8.29688 L54.3906 8.29688 L54.3906 0 L12.4062 0 z "
                 id="BitstreamVeraSans-Roman-31" />
            </defs>
            <g
               transform="translate(43.39625 223.81125)scale(0.12 -0.12)"
               id="g380">
              <use
                 xlink:href="#BitstreamVeraSans-Roman-31"
                 id="use382" />
              <use
                 x="63.623046875"
                 xlink:href="#BitstreamVeraSans-Roman-2e"
                 id="use384" />
              <use
                 x="95.41015625"
                 xlink:href="#BitstreamVeraSans-Roman-30"
                 id="use386" />
              <use
                 x="159.033203125"
                 xlink:href="#BitstreamVeraSans-Roman-30"
                 id="use388" />
            </g>
          </g>
        </g>
        <g
           id="ytick_6">
          <g
             id="line2d_36">
            <g
               id="g392">
              <use
                 style="stroke:#000000;stroke-width:0.5;"
                 x="72.0"
                 xlink:href="#m728421d6d4"
                 y="174.375"
                 id="use394" />
            </g>
          </g>
          <g
             id="line2d_37">
            <g
               id="g397">
              <use
                 style="stroke:#000000;stroke-width:0.5;"
                 x="693.0"
                 xlink:href="#mcb0005524f"
                 y="174.375"
                 id="use399" />
            </g>
          </g>
          <g
             id="text_14">
            <!-- 1.25 -->
            <g
               transform="translate(43.6475 177.68625)scale(0.12 -0.12)"
               id="g402">
              <use
                 xlink:href="#BitstreamVeraSans-Roman-31"
                 id="use404" />
              <use
                 x="63.623046875"
                 xlink:href="#BitstreamVeraSans-Roman-2e"
                 id="use406" />
              <use
                 x="95.41015625"
                 xlink:href="#BitstreamVeraSans-Roman-32"
                 id="use408" />
              <use
                 x="159.033203125"
                 xlink:href="#BitstreamVeraSans-Roman-35"
                 id="use410" />
            </g>
          </g>
        </g>
        <g
           id="ytick_7">
          <g
             id="line2d_38">
            <g
               id="g414">
              <use
                 style="stroke:#000000;stroke-width:0.5;"
                 x="72.0"
                 xlink:href="#m728421d6d4"
                 y="128.25"
                 id="use416" />
            </g>
          </g>
          <g
             id="line2d_39">
            <g
               id="g419">
              <use
                 style="stroke:#000000;stroke-width:0.5;"
                 x="693.0"
                 xlink:href="#mcb0005524f"
                 y="128.25"
                 id="use421" />
            </g>
          </g>
          <g
             id="text_15">
            <!-- 1.50 -->
            <g
               transform="translate(43.39625 131.56125)scale(0.12 -0.12)"
               id="g424">
              <use
                 xlink:href="#BitstreamVeraSans-Roman-31"
                 id="use426" />
              <use
                 x="63.623046875"
                 xlink:href="#BitstreamVeraSans-Roman-2e"
                 id="use428" />
              <use
                 x="95.41015625"
                 xlink:href="#BitstreamVeraSans-Roman-35"
                 id="use430" />
              <use
                 x="159.033203125"
                 xlink:href="#BitstreamVeraSans-Roman-30"
                 id="use432" />
            </g>
          </g>
        </g>
        <g
           id="ytick_8">
          <g
             id="line2d_40">
            <g
               id="g436">
              <use
                 style="stroke:#000000;stroke-width:0.5;"
                 x="72.0"
                 xlink:href="#m728421d6d4"
                 y="82.125"
                 id="use438" />
            </g>
          </g>
          <g
             id="line2d_41">
            <g
               id="g441">
              <use
                 style="stroke:#000000;stroke-width:0.5;"
                 x="693.0"
                 xlink:href="#mcb0005524f"
                 y="82.125"
                 id="use443" />
            </g>
          </g>
          <g
             id="text_16">
            <!-- 1.75 -->
            <g
               transform="translate(43.6475 85.43625)scale(0.12 -0.12)"
               id="g446">
              <use
                 xlink:href="#BitstreamVeraSans-Roman-31"
                 id="use448" />
              <use
                 x="63.623046875"
                 xlink:href="#BitstreamVeraSans-Roman-2e"
                 id="use450" />
              <use
                 x="95.41015625"
                 xlink:href="#BitstreamVeraSans-Roman-37"
                 id="use452" />
              <use
                 x="159.033203125"
                 xlink:href="#BitstreamVeraSans-Roman-35"
                 id="use454" />
            </g>
          </g>
        </g>
        <g
           id="ytick_9">
          <g
             id="line2d_42">
            <g
               id="g458">
              <use
                 style="stroke:#000000;stroke-width:0.5;"
                 x="72.0"
                 xlink:href="#m728421d6d4"
                 y="36.0"
                 id="use460" />
            </g>
          </g>
          <g
             id="line2d_43">
            <g
               id="g463">
              <use
                 style="stroke:#000000;stroke-width:0.5;"
                 x="693.0"
                 xlink:href="#mcb0005524f"
                 y="36.0"
                 id="use465" />
            </g>
          </g>
          <g
             id="text_17">
            <!-- 2.00 -->
            <g
               transform="translate(42.9575 39.31125)scale(0.12 -0.12)"
               id="g468">
              <use
                 xlink:href="#BitstreamVeraSans-Roman-32"
                 id="use470" />
              <use
                 x="63.623046875"
                 xlink:href="#BitstreamVeraSans-Roman-2e"
                 id="use472" />
              <use
                 x="95.41015625"
                 xlink:href="#BitstreamVeraSans-Roman-30"
                 id="use474" />
              <use
                 x="159.033203125"
                 xlink:href="#BitstreamVeraSans-Roman-30"
                 id="use476" />
            </g>
          </g>
        </g>
        <g
           id="text_18">
          <!-- $Ca_i$ -->
          <defs
             id="defs479">
            <path
               d=" M17.3906 -1.125 Q11.0781 -1.125 7.4375 3.64062 Q3.8125 8.40625 3.8125 14.8906 Q3.8125 21.2969 7.125 28.1719 Q10.4531 35.0625 16.0938 39.625 Q21.7344 44.1875 28.2188 44.1875 Q31.2031 44.1875 33.5469 42.5781 Q35.8906 40.9688 37.2031 38.1875 Q38.3281 42.1875 41.6094 42.1875 Q42.875 42.1875 43.7188 41.4219 Q44.5781 40.6719 44.5781 39.4062 Q44.5781 39.1094 44.5469 38.9531 Q44.5312 38.8125 44.4844 38.625 L37.5 10.6875 Q36.8125 7.71875 36.8125 5.8125 Q36.8125 1.51562 39.7031 1.51562 Q42.8281 1.51562 44.4531 5.48438 Q46.0938 9.46875 47.2188 14.7031 Q47.4062 15.2812 48 15.2812 L49.2188 15.2812 Q49.6094 15.2812 49.8438 14.9375 Q50.0938 14.5938 50.0938 14.3125 Q48.3438 7.32812 46.2656 3.09375 Q44.1875 -1.125 39.5 -1.125 Q36.1406 -1.125 33.5469 0.84375 Q30.9531 2.82812 30.3281 6.10938 Q23.875 -1.125 17.3906 -1.125 M17.4844 1.51562 Q21.0938 1.51562 24.4844 4.21875 Q27.875 6.9375 30.3281 10.5938 Q30.4219 10.6875 30.4219 10.8906 L35.7969 32.625 L35.8906 32.9062 Q35.2969 36.4688 33.3125 39.0312 Q31.3438 41.6094 27.9844 41.6094 Q24.6094 41.6094 21.7031 38.8438 Q18.7969 36.0781 16.7969 32.3281 Q14.8438 28.3281 13.0625 21.3438 Q11.2812 14.3594 11.2812 10.5 Q11.2812 7.03125 12.7656 4.26562 Q14.2656 1.51562 17.4844 1.51562"
               id="Cmmi10-61" />
            <path
               d=" M7.8125 7.17188 Q7.8125 9.03125 8.59375 11.0781 L16.7031 32.625 Q18.0156 36.2812 18.0156 38.625 Q18.0156 41.6094 15.8281 41.6094 Q11.8594 41.6094 9.29688 37.5312 Q6.73438 33.4531 5.51562 28.4219 Q5.32812 27.7812 4.6875 27.7812 L3.51562 27.7812 Q2.6875 27.7812 2.6875 28.7188 L2.6875 29 Q4.29688 34.9688 7.60938 39.5781 Q10.9375 44.1875 16.0156 44.1875 Q19.5781 44.1875 22.0469 41.8438 Q24.5156 39.5 24.5156 35.8906 Q24.5156 34.0312 23.6875 31.9844 L15.5781 10.5 Q14.2031 7.17188 14.2031 4.5 Q14.2031 1.51562 16.5 1.51562 Q20.4062 1.51562 23.0156 5.6875 Q25.6406 9.85938 26.7031 14.7031 Q26.9062 15.2812 27.4844 15.2812 L28.7188 15.2812 Q29.1094 15.2812 29.3438 15.0156 Q29.5938 14.75 29.5938 14.4062 Q29.5938 14.3125 29.5 14.1094 Q28.125 8.45312 24.7344 3.65625 Q21.3438 -1.125 16.3125 -1.125 Q12.7969 -1.125 10.2969 1.29688 Q7.8125 3.71875 7.8125 7.17188 M19.0938 60.5938 Q19.0938 62.7031 20.8438 64.4062 Q22.6094 66.1094 24.7031 66.1094 Q26.4219 66.1094 27.5156 65.0625 Q28.6094 64.0156 28.6094 62.4062 Q28.6094 60.1562 26.8281 58.4688 Q25.0469 56.7812 22.9062 56.7812 Q21.2969 56.7812 20.1875 57.875 Q19.0938 58.9844 19.0938 60.5938"
               id="Cmmi10-69" />
            <path
               d=" M14.5938 21.5781 Q14.5938 15.5781 16.9062 11.0156 Q19.2344 6.45312 23.6562 3.875 Q28.0781 1.3125 34.0781 1.3125 Q40.375 1.3125 46.2031 4.53125 Q52.0469 7.76562 56.1719 13.1562 Q60.2969 18.5625 61.8125 24.6094 Q62.0156 25.2031 62.5938 25.2031 L63.8125 25.2031 Q64.2031 25.2031 64.4531 24.9219 Q64.7031 24.6562 64.7031 24.3125 Q64.7031 24.2188 64.5938 24.0312 Q62.8906 17.0938 57.9844 11.0156 Q53.0781 4.9375 46.2344 1.35938 Q39.4062 -2.20312 32.1719 -2.20312 Q24.3594 -2.20312 18.1562 1.3125 Q11.9688 4.82812 8.51562 11.0781 Q5.07812 17.3281 5.07812 25.2031 Q5.07812 33.5938 8.82812 41.8125 Q12.5938 50.0469 18.9375 56.4688 Q25.2969 62.8906 33.4219 66.7031 Q41.5469 70.5156 49.9062 70.5156 Q53.2188 70.5156 56.25 69.5 Q59.2812 68.5 61.8594 66.4531 Q64.4531 64.4062 66.1094 61.7188 L74.0312 70.3125 Q74.0312 70.5156 74.5156 70.5156 L75.0938 70.5156 Q75.4844 70.5156 75.7344 70.1719 Q75.9844 69.8281 75.9844 69.4844 L69.1875 42.4844 Q69.1875 41.7969 68.4062 41.7969 L66.6094 41.7969 Q65.8281 41.7969 65.8281 42.9219 Q66.2188 45.125 66.2188 48.1875 Q66.2188 53.0781 64.5469 57.3906 Q62.8906 61.7188 59.3906 64.3594 Q55.9062 67 50.875 67 Q42.7188 67 35.9375 62.8906 Q29.1562 58.7969 24.4375 52.125 Q19.7344 45.4531 17.1562 37.3281 Q14.5938 29.2031 14.5938 21.5781"
               id="Cmmi10-43" />
          </defs>
          <g
             transform="translate(34.629375 230.04)rotate(-90.0)scale(0.12 -0.12)"
             id="g484">
            <use
               transform="translate(0.0 0.484375)"
               xlink:href="#Cmmi10-43"
               id="use486" />
            <use
               transform="translate(71.38671875 0.484375)"
               xlink:href="#Cmmi10-61"
               id="use488" />
            <use
               transform="translate(124.169921875 -25.025)scale(0.7)"
               xlink:href="#Cmmi10-69"
               id="use490" />
          </g>
        </g>
      </g>
    </g>
  </g>
  <defs
     id="defs492">
    <clipPath
       id="pb9f17aaa16">
      <rect
         height="369.0"
         width="621.0"
         x="72.0"
         y="36.0"
         id="rect495" />
    </clipPath>
  </defs>
  <g
     id="patch_2-5"
     style="stroke-linecap:butt;stroke-linejoin:round"
     transform="translate(-726.57273,-29.386695)">
    <path
       inkscape:connector-curvature="0"
       d="m 72,405 621,0 0,-369 -621,0 z"
       style="fill:#ffffff;stroke-linecap:butt;stroke-linejoin:round"
       id="path513" />
  </g>
  <g
     id="line2d_6-9"
     style="stroke-linecap:butt;stroke-linejoin:round"
     transform="translate(-0.50523446,1.6196713)">
    <g
       id="g5896"
       style="stroke-linecap:butt;stroke-linejoin:round">
      <g
         transform="translate(1e-5,0)"
         style="stroke-linecap:butt;stroke-linejoin:round"
         id="line2d_5-6">
        <path
           id="path528"
           style="fill:none;stroke:#ff0000;stroke-linecap:butt;stroke-linejoin:round;stroke-dasharray:6, 6;stroke-dashoffset:0"
           d="m 334.768,138.26 -10e-4,0.366 -0.002,0.566 -0.004,0.884 -0.01,1.402 -0.013,1.485 -0.016,1.554 -0.016,1.615 -0.016,1.665 -0.015,1.707 -0.011,1.741 -0.007,1.769 -0.002,1.508"
           clip-path="url(#pb9f17aaa16-5)"
           inkscape:connector-curvature="0" />
      </g>
      <path
         id="path531"
         style="fill:none;stroke:#ff0000;stroke-linecap:square;stroke-linejoin:round"
         d="m 334.655,154.522 0.107,9.637 0.26,7.315 0.452,7.298 0.666,7.241 0.901,7.163 1.153,7.073 1.422,6.973 1.705,6.867 2.003,6.756 1.509,4.441 1.651,4.388 1.797,4.335 1.947,4.281 2.101,4.224 2.257,4.168 2.416,4.11 2.577,4.051 2.741,3.991 2.905,3.929 3.07,3.868 3.236,3.805 3.4,3.742 3.565,3.677 3.725,3.613 3.885,3.548 4.038,3.484 6.336,5.104 6.653,4.959 6.942,4.816 7.205,4.676 7.432,4.537 7.624,4.401 7.777,4.268 10.537,5.487 10.636,5.256 10.633,5.026 13.132,5.953 15.264,6.638 16.696,6.982 16.961,6.827 13.985,5.404 12.533,4.6 9.927,3.398 1.396,0.454 0,0"
         clip-path="url(#pb9f17aaa16-5)"
         inkscape:connector-curvature="0" />
    </g>
  </g>
</svg>
